<?xml version="1.0" standalone="no"?>
<!DOCTYPE svg PUBLIC "-//W3C//DTD SVG 1.1//EN" "http://www.w3.org/Graphics/SVG/1.1/DTD/svg11.dtd" >
<svg xmlns="http://www.w3.org/2000/svg">
<metadata></metadata>
<defs>
<font id="ftv_heldustry-blackblack" horiz-adv-x="1331" >
<font-face units-per-em="2048" ascent="1536" descent="-512" />
<missing-glyph horiz-adv-x="450" />
<glyph horiz-adv-x="2048" />
<glyph horiz-adv-x="2048" />
<glyph horiz-adv-x="682" />
<glyph unicode="&#xd;" horiz-adv-x="450" />
<glyph unicode=" "  horiz-adv-x="450" />
<glyph unicode="&#x09;" horiz-adv-x="450" />
<glyph unicode="&#xa0;" horiz-adv-x="450" />
<glyph unicode="!" horiz-adv-x="573" d="M104 1087v383h365v-383l-53 -626h-254zM113 0v334h350v-334h-350z" />
<glyph unicode="&#x22;" horiz-adv-x="819" d="M82 1475h285l-41 -474h-215zM453 1475h284l-41 -474h-217z" />
<glyph unicode="#" horiz-adv-x="1187" d="M31 430l32 236h183l20 155h-182l39 242h180l49 356h260l-53 -356h113l53 356h260l-51 -356h180l-35 -242h-182l-20 -155h180l-35 -236h-180l-62 -430h-262l64 430h-113l-63 -430h-256l61 430h-180zM483 666h154l20 155h-153z" />
<glyph unicode="$" d="M72 535h342q2 -58 9 -96.5t24.5 -73.5t50 -57t82.5 -34v338q-67 13 -98 19.5t-83.5 23.5t-91.5 39q-188 101 -188 330q0 97 29.5 172t74.5 120t109 76t122.5 44t125.5 18v90h186v-88q170 -15 274 -84q95 -64 137 -162.5t44 -253.5h-332q-2 17 -5 50.5t-5 47.5t-9.5 37 t-19 34.5t-33 24.5t-51.5 21v-280q49 -9 84.5 -16t81 -19t78.5 -24.5t70.5 -32t63.5 -42t51.5 -53.5t40.5 -67t24.5 -83t9.5 -101q0 -80 -18.5 -146t-47 -111.5t-72 -82t-85.5 -58t-96.5 -37.5t-94.5 -23t-90 -13v-158h-186v158q-250 34 -373 153q-67 66 -96 161.5 t-39 238.5zM451 1055q0 -39 7.5 -63.5t26.5 -38.5t38.5 -20t56.5 -13v256q-129 -14 -129 -121zM766 266q34 2 60 9t52.5 25t41 54t14.5 88q0 69 -36.5 96.5t-131.5 43.5v-316z" />
<glyph unicode="%" horiz-adv-x="1982" d="M72 1012q0 84 13.5 153t35 116t53 82.5t64 56t71.5 33t71.5 16.5t68.5 4q29 0 53.5 -2t65 -12t72.5 -27t68.5 -51.5t60.5 -81.5t40 -121t16 -166q0 -91 -12.5 -164t-33 -122.5t-51 -86t-61 -57t-69.5 -33t-71 -16t-70 -3.5q-37 0 -64.5 2t-70.5 12t-74 28.5t-66.5 54 t-57.5 85.5t-37 126.5t-15 173.5zM362 1004q0 -75 6.5 -123t20.5 -70t28 -28.5t36 -6.5q14 0 26 5t19.5 16.5t14 22.5t10 30t5.5 31t3 34t1 30.5v29v22.5q0 134 -12 172q-17 54 -71 54q-14 0 -24 -2.5t-23 -15t-21 -34.5t-13.5 -64.5t-5.5 -102.5zM563 -51l578 1513h268 l-571 -1513h-275zM1155 440q0 116 25.5 203.5t63.5 135.5t91.5 77.5t99 38t97.5 8.5q29 0 53.5 -2t65 -12t73 -27.5t68.5 -52.5t60.5 -82t40.5 -121t16 -166q0 -91 -12.5 -164t-33 -122.5t-51 -86t-61.5 -57t-70 -32.5t-71 -15.5t-70 -3.5q-37 0 -64.5 2t-70.5 12t-74 28 t-66.5 54t-57.5 85.5t-37 126t-15 173.5zM1446 432q0 -76 6.5 -123t20 -68.5t27.5 -27.5t36 -6q20 0 34.5 10.5t22.5 28t14 40t7 45.5t2 44.5t0 38.5v14q0 44 -0.5 65t-2.5 52.5t-7.5 46t-14.5 31t-23.5 22.5t-35.5 6q-14 0 -24 -2.5t-23 -15t-20.5 -34.5t-13 -64.5 t-5.5 -102.5z" />
<glyph unicode="&#x26;" horiz-adv-x="1392" d="M41 383q0 82 22.5 151.5t69 128.5t92.5 101t117 96q-45 60 -69.5 96.5t-50 98.5t-25.5 116q0 65 24 128t74 108q100 92 289 92q59 0 110 -7.5t103.5 -29t89.5 -56t60.5 -93t23.5 -135.5q0 -200 -207 -373l158 -205l6 148h241q9 -200 -53 -390l275 -358h-385l-66 82 q-155 -113 -389 -113q-510 0 -510 414zM375 401q0 -74 46.5 -131t133.5 -57q62 0 125 21.5t104 50.5l-262 340q-147 -103 -147 -224zM510 1180q0 -22 15 -52.5t26.5 -46.5t34.5 -45q28 33 39.5 47.5t28 46.5t16.5 58q0 98 -74 98q-86 0 -86 -106z" />
<glyph unicode="'" horiz-adv-x="501" d="M88 1155v315h326v-278q0 -126 -54 -205q-41 -63 -103.5 -97t-164.5 -44v133q37 22 55 34.5t39.5 34t31.5 47t13 60.5h-143z" />
<glyph unicode="(" horiz-adv-x="737" d="M76 369v731q0 131 25 237.5t62 173.5t90.5 116.5t100 74t101.5 38.5t84 16.5t57 2.5h66v-274q-94 0 -145.5 -40t-76 -138t-24.5 -277v-575q0 -121 10.5 -205t28.5 -135.5t50 -79.5t67.5 -37.5t89.5 -9.5v-275h-99q-33 0 -70 6.5t-85.5 25.5t-93 49t-89 81.5t-77 117.5 t-52.5 163t-20 213z" />
<glyph unicode=")" horiz-adv-x="737" d="M76 -12q54 0 89.5 9.5t67.5 37.5t50 79.5t28.5 135.5t10.5 205v575q0 179 -24.5 277t-76 138t-145.5 40v274h65q28 0 57 -2.5t84 -16.5t101.5 -38.5t100 -74t91 -116.5t62.5 -173.5t25 -237.5v-731q0 -116 -20 -213t-52.5 -163t-77 -117.5t-89.5 -81.5t-93.5 -49 t-85.5 -25.5t-70 -6.5h-98v275z" />
<glyph unicode="*" horiz-adv-x="819" d="M84 1092l207 71l-207 68l102 180l154 -149l-37 223h213l-37 -223l154 149l102 -180l-207 -66l207 -73l-102 -181l-162 154l45 -217h-213l45 217l-162 -154z" />
<glyph unicode="+" d="M104 399v322h402v401h321v-401h400v-322h-400v-399h-321v399h-402z" />
<glyph unicode="," horiz-adv-x="532" d="M92 0v342h348v-285q0 -136 -67 -241q-12 -19 -29 -37.5t-49.5 -43.5t-85.5 -42.5t-117 -22.5v154q76 22 110 61.5t40 114.5h-150z" />
<glyph unicode="-" horiz-adv-x="778" d="M125 420v303h528v-303h-528z" />
<glyph unicode="." horiz-adv-x="532" d="M92 0v342h348v-342h-348z" />
<glyph unicode="/" horiz-adv-x="626" d="M-31 -72l406 1540h287l-406 -1540h-287z" />
<glyph unicode="0" horiz-adv-x="1351" d="M100 745q0 182 29.5 316t95 232.5t176.5 148t269 49.5q105 0 190 -21.5t145 -58.5t104.5 -92.5t71 -116t43 -137t22 -147.5t5.5 -156q0 -76 -2 -135t-9.5 -128.5t-20 -122t-34.5 -109t-52.5 -97t-74.5 -78.5t-99.5 -61t-129 -37t-161.5 -14q-133 0 -233.5 37.5 t-163.5 102.5t-102 164t-54 209.5t-15 251.5zM440 758q0 -98 5 -169t20 -136t40.5 -104.5t67 -63t99.5 -23.5q44 0 72.5 5.5t63 31.5t55 73.5t34.5 136.5t14 216q0 270 -51 376.5t-186 106.5q-48 0 -85 -16t-61.5 -39t-41.5 -63t-26 -74t-13.5 -86.5t-5.5 -86t-1 -85.5z" />
<glyph unicode="1" horiz-adv-x="864" d="M47 981v256q154 4 209 19q92 25 151 114q27 40 52 100h291v-1470h-349v981h-354z" />
<glyph unicode="2" horiz-adv-x="1269" d="M66 100q0 100 31.5 183.5t80 140t119.5 112.5t136.5 95t145.5 93t134 101q59 51 75.5 95t16.5 139q0 79 -32.5 115t-131.5 36q-46 0 -75.5 -3.5t-52 -16t-33.5 -28.5t-18.5 -50.5t-9 -71.5t-1.5 -102h-345v123q0 84 19.5 151.5t49.5 111.5t76 76.5t89 49.5t99 26.5 t95.5 12t88.5 2.5q138 0 232.5 -21t165 -72.5t103.5 -142t33 -225.5q0 -109 -33 -197t-83.5 -145t-125.5 -111t-144.5 -90.5t-155 -89t-144.5 -100.5h684v-297h-1087q0 32 -1 62t-1 38z" />
<glyph unicode="3" horiz-adv-x="1351" d="M100 532h342q3 -32 5 -48.5t6 -43.5t8 -41t11.5 -34.5t16.5 -31t22 -24.5t30 -21t38.5 -14t48.5 -9.5t60 -2.5q114 0 162.5 39t48.5 145q0 61 -13 99.5t-43 58.5t-66.5 26.5t-94.5 6.5h-129v274h133q95 0 130.5 37.5t35.5 98.5q0 54 -11 87.5t-35.5 50t-53 22t-74.5 5.5 q-50 0 -85.5 -11.5t-57 -31t-34 -52.5t-17 -67.5t-5.5 -84.5h-338q0 91 15 165.5t53.5 143t99 115.5t157 74.5t222.5 27.5q510 0 510 -422q0 -86 -35 -159t-106 -117q194 -75 194 -344q0 -240 -144.5 -354.5t-406.5 -114.5q-600 0 -600 552z" />
<glyph unicode="4" horiz-adv-x="1263" d="M80 317v316l629 837h319v-882h191v-271h-191v-317h-330v317h-618zM397 588h301v405z" />
<glyph unicode="5" d="M100 418v80h336q5 -38 8.5 -57t11 -48.5t16.5 -44t25 -33.5t36.5 -27.5t50 -15t67.5 -6.5q121 0 173.5 52t52.5 190q0 134 -42.5 194t-154.5 60q-46 0 -77 -5t-63 -23.5t-46.5 -29.5t-59.5 -49h-295l170 815h852v-299h-608l-39 -174q94 50 211 50q102 0 189.5 -30 t158 -91.5t110.5 -166t40 -241.5q0 -117 -31.5 -210t-85.5 -154t-129.5 -101.5t-159 -58t-178.5 -17.5q-123 0 -221 33.5t-156 83t-96 112t-52 115t-14 97.5z" />
<glyph unicode="6" horiz-adv-x="1351" d="M100 713q0 154 20.5 276.5t52 203t83 138.5t99 88t115.5 47t117 21t118 4q68 0 126 -8t103 -21t82 -34t64 -43.5t48.5 -54t35.5 -60.5t25.5 -67t18 -69.5t13.5 -72.5h-338q-12 34 -17.5 48.5t-17 35.5t-22 29t-29.5 17.5t-43.5 12t-59.5 2.5q-64 0 -103.5 -10.5 t-69.5 -40.5t-46.5 -82.5t-25.5 -138.5q110 78 272 78q116 0 209 -29t164 -89.5t110 -160.5t39 -233q0 -260 -147 -390t-410 -130q-111 0 -198.5 20.5t-148.5 54.5t-105 89t-69.5 113t-40.5 138t-19.5 152t-4.5 166zM457 496q0 -126 50 -182t177 -56q28 0 43.5 1t42 6 t42 14.5t34.5 28.5t29.5 46.5t18 69.5t7.5 96q0 112 -48.5 161.5t-162.5 49.5q-63 0 -108.5 -17t-69 -40t-37 -58.5t-16 -60.5t-2.5 -59z" />
<glyph unicode="7" horiz-adv-x="1157" d="M63 1176v294h1031v-276q-98 -84 -194.5 -211t-164.5 -281q-119 -271 -168 -702h-362q9 147 64 377.5t141 396.5q122 240 276 402h-623z" />
<glyph unicode="8" horiz-adv-x="1351" d="M100 430q0 108 24 184t64.5 118.5t102.5 70.5q-137 85 -137 256q0 117 38.5 202t110 134.5t163.5 72.5t210 23q29 0 56.5 -1t83 -9.5t100.5 -22.5t99 -44t90.5 -70.5t61.5 -105.5t25 -146q0 -210 -139 -285q200 -88 200 -342q0 -111 -33.5 -197t-88 -139.5t-131.5 -87.5 t-155.5 -47.5t-168.5 -13.5q-274 0 -425 119t-151 331zM449 444q0 -95 47 -137.5t180 -42.5q129 0 181 44t52 145q0 55 -10 93t-26.5 60t-47.5 34t-63 15.5t-82 3.5q-72 0 -118.5 -14t-70.5 -43.5t-33 -66t-9 -91.5zM498 1077q0 -55 12 -84.5t51.5 -47t114.5 -17.5 q93 0 130.5 31t37.5 122q0 77 -36.5 104t-131.5 27q-27 0 -43.5 -1t-45.5 -8t-45.5 -20t-30 -40.5t-13.5 -65.5z" />
<glyph unicode="9" horiz-adv-x="1351" d="M100 975q0 129 40 228.5t113 162t171 94t219 31.5q146 0 251.5 -32t170.5 -88t103.5 -146t52.5 -190.5t14 -237.5q0 -130 -12 -238t-30 -187.5t-50 -141.5t-62 -102.5t-76.5 -69.5t-82.5 -44t-91 -23t-91 -9.5t-93 -1.5q-257 0 -379 95t-145 331h332q11 -41 21 -63 t32 -43t59 -29.5t95 -8.5q55 0 94 14.5t61.5 35t37 59t20 70.5t10.5 85q-104 -69 -279 -69q-112 0 -202.5 30t-159.5 91.5t-106.5 162t-37.5 234.5zM438 977q0 -43 2 -70.5t9 -57.5t21.5 -48t37.5 -33.5t58.5 -22t84.5 -6.5q129 0 178.5 58.5t49.5 185.5q0 130 -54 180.5 t-168 50.5q-121 0 -170 -54.5t-49 -182.5z" />
<glyph unicode=":" horiz-adv-x="532" d="M92 0v342h348v-342h-348zM92 748v344h348v-344h-348z" />
<glyph unicode=";" horiz-adv-x="532" d="M92 0v342h348v-285q0 -136 -67 -241q-12 -19 -29 -37.5t-49.5 -43.5t-85.5 -42.5t-117 -22.5v154q76 22 110 61.5t40 114.5h-150zM92 748v344h348v-344h-348z" />
<glyph unicode="&#x3c;" d="M61 408v235l1094 453v-316l-629 -254l629 -247v-322z" />
<glyph unicode="=" d="M145 158v321h1041v-321h-1041zM145 657v322h1041v-322h-1041z" />
<glyph unicode="&#x3e;" d="M176 -43v322l629 247l-629 254v316l1094 -453v-235z" />
<glyph unicode="?" horiz-adv-x="1064" d="M45 967v98q0 196 129 315t375 119q76 0 141 -12t127.5 -42.5t106 -78.5t70 -126t26.5 -179q0 -168 -125 -297q-21 -22 -88 -79.5t-96 -94.5q-34 -43 -46.5 -69t-15.5 -75h-315q0 40 4.5 75.5t10 61t19 52.5l21 42t27 38t27 31t30.5 30.5t29 28.5q16 15 50 45t53 49 t41.5 48t33 61t10.5 69q0 158 -139 158q-106 0 -144 -56t-38 -212h-324zM317 0v334h351v-334h-351z" />
<glyph unicode="@" horiz-adv-x="1515" d="M61 344q0 391 191.5 601t546.5 210q149 0 254 -31t182 -103t114 -195.5t37 -303.5v-280q0 -27 15 -27q2 0 7 0.5l25 2.5l50 5v-229q-122 -25 -158 -25q-95 0 -149.5 30.5t-71.5 76.5q-104 -113 -289 -113q-173 0 -271 92.5t-98 255.5q0 156 88.5 247.5t266.5 123.5 q39 7 77.5 12t79.5 9.5t52 5.5q38 4 43 10q4 6 4 16q0 28 -4.5 51t-21 51.5t-44 48t-79 33t-120.5 13.5q-201 0 -319.5 -144.5t-118.5 -418.5q0 -281 100.5 -401t319.5 -120q56 0 116.5 11.5t172.5 42.5v-254q-153 -47 -305 -47q-355 0 -524 184t-169 559zM768 330 q0 -69 25 -97t75 -28q86 0 143.5 46t57.5 118v139q-27 -10 -59.5 -17t-79 -14t-62.5 -10q-54 -10 -77 -44t-23 -93z" />
<glyph unicode="A" horiz-adv-x="1351" d="M-14 0l503 1470h347l520 -1470h-365l-96 303h-463l-94 -303h-352zM518 578h291l-143 473z" />
<glyph unicode="B" horiz-adv-x="1447" d="M147 0v1470h713q106 0 188 -24.5t131 -64t80 -94.5t42 -109q10 -50 10 -105v-10q-3 -200 -127 -272q84 -33 133 -115.5t49 -218.5q0 -84 -18.5 -151.5t-49 -114.5t-76 -82t-93.5 -55.5t-108 -33t-112.5 -16.5t-113.5 -4h-648zM496 289h356q91 0 127.5 38.5t36.5 127.5 q0 58 -11.5 97t-32.5 57t-42 25t-47 7h-387v-352zM496 903h335q74 0 105 40t31 116q0 73 -22 105t-81 32h-368v-293z" />
<glyph unicode="C" horiz-adv-x="1464" d="M92 752v8q0 348 173 542q175 196 528 197q103 0 188.5 -16t146.5 -42.5t109 -67.5t79 -83.5t53.5 -98t34 -105t19.5 -109.5h-329q-8 31 -11.5 44t-12.5 40t-16 39t-20 33t-26 30.5t-33.5 23t-44 19.5t-54 10.5t-67.5 4.5q-205 0 -285 -112t-80 -396q0 -112 17 -194 t46 -132.5t75.5 -80.5t98.5 -41t122 -11q63 0 108 13t72.5 34t46.5 56t31 71.5t25 87.5q1 6 2 9t2 7.5t2 8.5h340q-62 -570 -637 -570q-153 0 -271 34t-199 97.5t-133 160t-75.5 216.5t-24.5 273z" />
<glyph unicode="D" horiz-adv-x="1501" d="M147 0v1470h619q171 0 294.5 -49.5t198 -146t109.5 -230t35 -311.5q0 -388 -173 -560.5t-544 -172.5h-539zM494 289h243q183 0 250.5 101t67.5 370q0 125 -19 209t-59 131t-93 66.5t-130 19.5h-260v-897z" />
<glyph unicode="E" horiz-adv-x="1347" d="M147 0v1470h1147v-284h-798v-271h735v-284h-735v-342h819v-289h-1168z" />
<glyph unicode="F" horiz-adv-x="1271" d="M147 0v1470h1090v-284h-741v-289h624v-283h-624v-614h-349z" />
<glyph unicode="G" horiz-adv-x="1523" d="M92 752q0 372 178 559.5t527 187.5q168 0 293.5 -44.5t197 -121.5t105.5 -169t34 -199h-356q0 44 -4 75t-20 68.5t-44 61t-81 39.5t-127 16q-190 0 -271.5 -106.5t-81.5 -354.5q0 -140 17 -232t58.5 -154t111 -89t176.5 -27q134 0 217 68q80 64 80 190v12h-328v271h678 v-803h-283v150q-106 -175 -403 -175q-674 0 -674 777z" />
<glyph unicode="H" horiz-adv-x="1480" d="M147 0v1470h349v-548h524v548h348v-1470h-348v635h-524v-635h-349z" />
<glyph unicode="I" horiz-adv-x="651" d="M168 0v1470h346v-1470h-346z" />
<glyph unicode="J" horiz-adv-x="1134" d="M43 422v149h324v-141q0 -109 29.5 -140.5t119.5 -31.5q38 0 64 3.5t44 13.5t28 21.5t15.5 33.5t7 43.5t1.5 58.5v1038h346v-1069q0 -91 -24.5 -166t-77.5 -137t-149 -96.5t-228 -34.5q-255 0 -377.5 107.5t-122.5 347.5z" />
<glyph unicode="K" horiz-adv-x="1413" d="M147 0v1470h349v-542l493 542h447l-584 -608l608 -862h-428l-422 627l-114 -115v-512h-349z" />
<glyph unicode="L" horiz-adv-x="1196" d="M147 0v1470h349v-1181h696v-289h-1045z" />
<glyph unicode="M" horiz-adv-x="1753" d="M147 0v1470h459l287 -1105l272 1105h471v-1470h-336v961l-241 -961h-336l-240 958v-958h-336z" />
<glyph unicode="N" horiz-adv-x="1488" d="M147 0v1470h342l537 -888v888h346v-1470h-344l-532 895v-895h-349z" />
<glyph unicode="O" horiz-adv-x="1622" d="M92 725q0 774 739 774q352 0 525.5 -201.5t173.5 -566.5q0 -384 -188 -573t-564 -189q-150 0 -274 47.5t-216.5 139.5t-144 237.5t-51.5 331.5zM442 725q0 -230 88.5 -353.5t268.5 -123.5q99 0 170.5 27.5t112 70.5t64 111.5t30 133t6.5 152.5q0 132 -24.5 225.5t-72 148 t-110.5 79.5t-146 25q-115 0 -191.5 -31t-119 -96.5t-59.5 -153t-17 -215.5z" />
<glyph unicode="P" horiz-adv-x="1366" d="M147 0v1470h730q200 0 322 -119t122 -339q0 -37 -4 -72.5t-17.5 -82t-34.5 -86.5t-59.5 -79.5t-89 -67.5t-126 -45.5t-167.5 -17.5h-327v-561h-349zM496 831h325q59 0 90 13.5t47.5 54.5t16.5 119q0 57 -9 91t-32 51.5t-51.5 22.5t-79.5 5h-307v-357z" />
<glyph unicode="Q" horiz-adv-x="1628" d="M92 723q0 774 739 774q352 0 525.5 -201.5t173.5 -566.5q0 -243 -78 -414q-31 -68 -80 -122l150 -150l-168 -178l-180 174q-81 -37 -188.5 -54.5t-197.5 -17.5q-117 1 -219 27.5t-190.5 85t-151.5 145t-99 213.5t-36 285zM442 723q0 -248 95.5 -367.5t261.5 -119.5 q72 0 153 18l-137 135l172 178l146 -141q49 103 49 315q0 257 -91 368.5t-262 111.5q-92 0 -159.5 -21.5t-111 -60t-69.5 -101.5t-36.5 -138t-10.5 -177z" />
<glyph unicode="R" horiz-adv-x="1474" d="M147 0v1470h732q52 0 96 -3.5t97 -14.5t95.5 -30t84 -52t69 -77t44.5 -109.5t17 -145.5q0 -130 -56.5 -212t-151.5 -111q128 -52 149 -314q2 -26 7 -89.5t8 -84.5t11.5 -65.5t23.5 -80.5t38 -81h-362q-37 57 -49 153.5t-19 198t-31 156.5q-22 53 -114 53h-340v-561h-349z M496 838h338q64 0 103.5 10.5t59 35.5t25.5 55t6 81q0 99 -33.5 132.5t-132.5 33.5h-366v-348z" />
<glyph unicode="S" horiz-adv-x="1392" d="M74 530h338q8 -141 73 -214.5t224 -73.5q146 0 207 43t61 161q0 61 -24.5 90.5t-80.5 45.5q-42 13 -158.5 30t-187.5 33q-57 13 -95.5 24t-84.5 29.5t-76 39.5t-61 53.5t-48.5 73t-28.5 96t-11 124.5q0 76 21 138t55 104t83.5 74t99.5 50t109.5 29.5t107.5 15t99 3.5 q139 0 244 -30t166.5 -77t99.5 -115.5t51 -134.5t13 -145h-332q-3 14 -7.5 50.5t-11 63.5t-18.5 46q-47 76 -199 76q-98 0 -151 -18.5t-71.5 -54t-18.5 -99.5q0 -53 29 -76t110 -41q46 -10 112.5 -20.5t114.5 -18.5t108.5 -20.5t103.5 -29t90 -40.5t79 -58t58.5 -79 t39.5 -106.5t13 -137.5q0 -465 -625 -465q-303 0 -461.5 140.5t-158.5 420.5z" />
<glyph unicode="T" horiz-adv-x="1200" d="M6 1186v284h1188v-284h-420v-1186h-348v1186h-420z" />
<glyph unicode="U" horiz-adv-x="1468" d="M147 492v978h349v-997q0 -77 21.5 -122.5t82.5 -71t170 -25.5q135 0 186.5 51t51.5 160v1005h348v-983q0 -516 -608 -516q-601 0 -601 521z" />
<glyph unicode="V" horiz-adv-x="1292" d="M-16 1470h370l287 -972l299 972h369l-512 -1470h-322z" />
<glyph unicode="W" horiz-adv-x="1855" d="M-16 1470h360l240 -944l190 944h338l184 -942l238 942h362l-434 -1470h-323l-201 899l-190 -899h-326z" />
<glyph unicode="X" horiz-adv-x="1347" d="M4 0l481 774l-432 696h398l237 -405l238 405h397l-434 -696l483 -774h-407l-277 475l-276 -475h-408z" />
<glyph unicode="Y" horiz-adv-x="1323" d="M23 1470h395l258 -561l287 561h393l-506 -919v-551h-348v547z" />
<glyph unicode="Z" horiz-adv-x="1312" d="M10 0v236l778 940h-739v294h1186v-253l-760 -918h776v-299h-1241z" />
<glyph unicode="[" horiz-adv-x="727" d="M102 0v1470h523v-270h-197v-930h197v-270h-523z" />
<glyph unicode="\" horiz-adv-x="778" d="M43 1468h287l405 -1540h-286z" />
<glyph unicode="]" horiz-adv-x="727" d="M102 0v270h197v930h-197v270h523v-1470h-523z" />
<glyph unicode="^" horiz-adv-x="675" d="M27 999l241 494h158l223 -494h-188l-119 277l-125 -277h-190z" />
<glyph unicode="_" horiz-adv-x="1126" d="M2 -72h1122v-278h-1122v278z" />
<glyph unicode="`" horiz-adv-x="665" d="M131 1505h301l113 -325h-223z" />
<glyph unicode="a" horiz-adv-x="1153" d="M70 338q0 65 15 115.5t39 83.5t63 56t77 35t90.5 20t95 11t99 7.5t94.5 9.5q36 5 62 30.5t26 65.5q0 46 -37.5 82.5t-115.5 36.5q-129 0 -146 -100l-2 -9q0 -1 -4 -32h-315v30q0 159 117 248.5t370 89.5q225 0 334.5 -86.5t109.5 -286.5v-440q0 -28 11 -34.5t63 -6.5 v-264h-168q-83 0 -123.5 32t-56.5 99q-42 -90 -114.5 -122t-178.5 -32q-206 0 -305.5 93t-99.5 268zM362 326q0 -115 156 -115q101 0 157 61t56 152v88q-19 -8 -38.5 -13.5t-46.5 -10.5t-41 -7.5t-52 -7.5t-49 -6q-142 -21 -142 -141z" />
<glyph unicode="b" horiz-adv-x="1251" d="M133 0v1481h332v-490q86 127 250 127q74 0 136 -15.5t106.5 -40.5t80 -62.5t58 -73.5t38.5 -83t24 -82t12.5 -78.5t5 -65t0.5 -48.5q0 -131 -26 -235t-81 -186t-150 -126.5t-225 -44.5q-169 0 -250 121v-98h-311zM463 549q0 -34 0.5 -56.5t4.5 -59t11.5 -61t22.5 -53.5 t35.5 -46.5t52.5 -29.5t72 -12q47 0 80 16t52.5 43t30 74.5t14 97.5t3.5 126q0 268 -176 268q-111 0 -157 -80t-46 -227z" />
<glyph unicode="c" horiz-adv-x="1181" d="M70 549q0 100 18 183.5t59.5 156t105 122.5t159 78.5t217.5 28.5q131 0 227 -33.5t152.5 -94.5t83 -139.5t26.5 -176.5h-321q-1 6 -4.5 29t-6 37t-9 32.5t-15.5 28.5q-45 65 -150 65q-49 0 -86.5 -16.5t-60.5 -43t-37 -66.5t-19.5 -82t-5.5 -93q0 -180 45.5 -263 t151.5 -83q32 0 57.5 2.5t44 10t31.5 14t22.5 21.5t15 25t9.5 32.5t5.5 36t4.5 42.5t5 46h331q0 -68 -13 -129t-48.5 -125t-91.5 -110t-149.5 -75.5t-215.5 -29.5q-262 0 -400 143.5t-138 425.5z" />
<glyph unicode="d" horiz-adv-x="1220" d="M70 553q0 559 458 559q188 0 246 -119v488h332v-1481h-299v102q-54 -78 -120 -103.5t-152 -25.5q-154 0 -260 73.5t-155.5 202t-49.5 304.5zM408 569q0 -175 37.5 -255.5t134.5 -80.5q56 0 95 19.5t59.5 47t31.5 74t13.5 81.5t2.5 88q0 170 -48 245.5t-150 75.5 q-100 0 -138 -62t-38 -233z" />
<glyph unicode="e" horiz-adv-x="1204" d="M70 541q0 577 542 577q89 0 162.5 -16t126.5 -45t94.5 -69.5t67 -89.5t43.5 -105t24 -115.5t9 -121.5q1 -22 1 -46q0 -39 -3 -78h-740q1 -47 10 -82.5t30.5 -68.5t64 -50.5t104.5 -17.5q146 0 191 131h325q-8 -44 -16.5 -77t-26 -73.5t-41 -69.5t-63 -59t-89.5 -48.5 t-122.5 -30t-161.5 -11.5q-276 0 -404 141t-128 425zM406 637h389v11q0 93 -47 157q-50 67 -144 67q-97 0 -142.5 -62t-55.5 -173z" />
<glyph unicode="f" horiz-adv-x="681" d="M12 870v222h135v108q0 152 86.5 216.5t243.5 64.5h176v-254h-108q-36 0 -49 -7t-13 -32v-96h170v-222h-170v-870h-336v870h-135z" />
<glyph unicode="g" horiz-adv-x="1212" d="M70 578q0 249 120.5 395.5t350.5 146.5q214 0 266 -143v115h291v-1053q0 -196 -124 -286.5t-386 -90.5q-246 0 -354.5 92.5t-108.5 270.5h307q0 -78 39.5 -103.5t126.5 -25.5q75 0 118.5 28.5t43.5 79.5v160l-2 -2q-31 -44 -86.5 -70t-130.5 -26q-101 0 -183.5 27.5 t-148.5 85.5t-102.5 159.5t-36.5 239.5zM408 602q0 -55 2.5 -90.5t13.5 -74.5t30.5 -61.5t55 -37t86.5 -14.5q44 0 75 15t49 37.5t28 59.5t13 71.5t3 82.5q0 145 -35.5 202.5t-124.5 57.5q-105 0 -150.5 -55t-45.5 -193z" />
<glyph unicode="h" horiz-adv-x="1230" d="M133 0v1481h338v-461q36 53 102 76.5t172 23.5q34 0 61 -2t68 -10.5t72 -24t65 -45t56 -70t36.5 -103t14.5 -140.5v-725h-338v711q0 84 -39.5 117.5t-113.5 33.5q-82 0 -119 -41t-37 -133v-688h-338z" />
<glyph unicode="i" horiz-adv-x="606" d="M143 0v1092h338v-1092h-338zM143 1198v303h338v-303h-338z" />
<glyph unicode="j" horiz-adv-x="569" d="M-37 -59h100q34 0 43 11.5t9 45.5v1094h340v-1166q0 -62 -12 -109t-48 -87q-35 -37 -98.5 -52.5t-116.5 -15.5h-217v279zM115 1200v301h340v-301h-340z" />
<glyph unicode="k" horiz-adv-x="1134" d="M133 0v1481h338v-666l258 277h436l-415 -375l430 -717h-400l-264 498l-45 -37v-461h-338z" />
<glyph unicode="l" horiz-adv-x="606" d="M143 0v1481h338v-1481h-338z" />
<glyph unicode="m" horiz-adv-x="1785" d="M123 0v1092h305v-99q67 125 279 125q206 0 278 -137q71 131 313 131q73 0 138.5 -20t119.5 -59.5t85.5 -106t31.5 -152.5v-774h-338v711q0 64 -34.5 99.5t-90.5 35.5q-70 0 -105.5 -31.5t-35.5 -105.5v-709h-338v721q0 70 -32.5 99.5t-94.5 29.5q-87 0 -115 -41.5 t-28 -128.5v-680h-338z" />
<glyph unicode="n" horiz-adv-x="1267" d="M123 0v1092h323v-88l5 2q69 112 290 112q206 0 310 -83t104 -275v-760h-354v713q0 74 -39.5 105.5t-134.5 31.5q-79 0 -114.5 -34t-35.5 -122v-694h-354z" />
<glyph unicode="o" horiz-adv-x="1234" d="M70 537q0 132 28 233.5t76.5 166.5t120 106t151 58t177.5 17q273 0 407.5 -140.5t134.5 -430.5q0 -576 -553 -576q-542 0 -542 566zM408 549q0 -179 46 -257.5t150 -78.5q56 0 95.5 15.5t64.5 42.5t39 73t19 98t5 127q0 155 -46 230t-148 75q-83 0 -130.5 -28t-71 -99 t-23.5 -198z" />
<glyph unicode="p" horiz-adv-x="1245" d="M133 -338v1430h316v-107q34 63 102.5 98t163.5 35q98 0 176 -30.5t129.5 -83t85.5 -127.5t48.5 -159.5t14.5 -182.5q0 -558 -460 -558q-171 0 -244 97v-412h-332zM455 553q0 -332 204 -332q80 0 124 90.5t44 235.5q0 146 -46.5 231.5t-121.5 85.5q-204 0 -204 -311z" />
<glyph unicode="q" horiz-adv-x="1230" d="M70 543q0 272 116 423.5t344 151.5q209 0 269 -123v97h313v-1430h-332v432q-82 -117 -248 -117q-462 0 -462 566zM410 532q0 -152 36.5 -228.5t122.5 -76.5q52 0 90 16t61 43.5t36.5 72.5t18.5 95t5 119q0 295 -192 295q-55 0 -91.5 -25t-54.5 -74t-25 -104t-7 -133z" />
<glyph unicode="r" horiz-adv-x="856" d="M123 0v1092h299v-136q30 56 59 90t62.5 49t59 19t67.5 4q54 0 168 -12v-289h-201q-54 0 -90.5 -17t-54.5 -50t-24.5 -71t-6.5 -91v-588h-338z" />
<glyph unicode="s" horiz-adv-x="1126" d="M70 395h319q1 -6 2.5 -28t3 -34t7 -29t14.5 -28q38 -55 164 -55q36 0 63.5 4t54.5 15.5t41.5 35.5t14.5 60q0 46 -54 65q-37 12 -208 48q-103 22 -170 46t-119.5 62t-76.5 92.5t-24 130.5q0 338 463 338q84 0 155.5 -14.5t136 -46.5t109 -90.5t60.5 -139.5q3 -13 4 -19.5 t0.5 -10t0 -15t1.5 -28.5h-321q-9 65 -38 88.5t-112 23.5q-53 0 -91 -18t-38 -60q0 -22 6.5 -33.5t30.5 -19.5q60 -23 244 -63q185 -38 274.5 -113t89.5 -227q0 -185 -131.5 -273t-374.5 -88q-99 0 -178 16t-130.5 40.5t-89 62t-57 72.5t-30.5 81.5t-13.5 78.5t-2.5 73z" />
<glyph unicode="t" horiz-adv-x="700" d="M14 864v228h136v323h337v-323h168v-228h-168v-530q0 -50 8 -63t40 -13h120v-264h-190q-92 0 -147.5 11.5t-95.5 43.5t-56 88.5t-16 147.5v579h-136z" />
<glyph unicode="u" horiz-adv-x="1198" d="M113 305v787h338v-717q0 -67 34.5 -105.5t106.5 -38.5q84 0 116.5 39.5t32.5 118.5v703h338v-1092h-313v102q-25 -43 -61 -71.5t-79 -39.5t-73.5 -14.5t-71.5 -3.5q-96 0 -167.5 26.5t-108.5 62.5t-59 86t-27.5 85.5t-5.5 71.5z" />
<glyph unicode="v" horiz-adv-x="1079" d="M4 1092h389l182 -682l173 682h350l-393 -1092h-306z" />
<glyph unicode="w" horiz-adv-x="1546" d="M4 1092h361l143 -592l135 592h289l131 -590l143 590h359l-369 -1092h-283l-127 586l-129 -586h-290z" />
<glyph unicode="x" horiz-adv-x="1249" d="M0 0l436 590l-393 502h401l181 -261l170 261h401l-377 -502l451 -590h-404l-239 344l-234 -344h-393z" />
<glyph unicode="y" horiz-adv-x="1132" d="M0 1092h379l219 -629l199 629h340l-402 -1039q-57 -145 -95 -216t-83 -111q-77 -64 -213 -64h-231v293h157q55 0 68.5 8t32.5 53l37 88z" />
<glyph unicode="z" horiz-adv-x="1046" d="M31 0v252l544 565h-507v275h917v-263l-532 -546h565v-283h-987z" />
<glyph unicode="{" horiz-adv-x="1937" d="M63 735l695 772h422l-547 -614h1251v-315h-1251l588 -578h-420z" />
<glyph unicode="|" horiz-adv-x="737" d="M201 -303v1767h336v-1767h-336z" />
<glyph unicode="}" horiz-adv-x="1939" d="M53 582v315h1254l-582 573h420l731 -731l-737 -739h-422l590 582h-1254z" />
<glyph unicode="~" horiz-adv-x="1187" d="M150 389q6 69 18 121.5t36.5 102t68 76.5t104.5 28q57 1 125 -31t118.5 -70t103.5 -70.5t85 -33.5q13 0 23.5 6t16 12.5t10 22t5.5 21.5l4 24q3 27 13 74h157q-5 -57 -12.5 -99t-23.5 -88t-39.5 -74.5t-62 -47.5t-89.5 -19q-53 -1 -107 20t-97 50.5t-82.5 59.5t-78.5 51 t-71 20q-13 0 -23.5 -13t-17 -34.5t-10.5 -40.5t-7 -41.5t-4 -26.5h-163z" />
<glyph unicode="&#xa1;" horiz-adv-x="573" d="M113 -14l53 626h254l57 -626v-383h-364v383zM119 739v334h350v-334h-350z" />
<glyph unicode="&#xa2;" d="M41 748q0 262 113 398t340 171v117h180v-115q154 -20 244 -82q81 -56 118.5 -135t46.5 -207h-303q-4 28 -6.5 41t-7.5 36.5t-12 36t-17.5 28.5t-26.5 25.5t-36 16.5v-673q41 10 65.5 34t31.5 54t9.5 64.5t-0.5 66.5h310q-3 -230 -140 -344q-103 -86 -276 -109v-174h-180 v174q-66 8 -124.5 26.5t-121 60.5t-106.5 103t-72.5 160.5t-28.5 225.5zM360 756q0 -315 134 -350v673q-134 -48 -134 -323z" />
<glyph unicode="&#xa3;" d="M102 604v197h123q-37 90 -37 198q0 91 31 167.5t83.5 129t122.5 89t146.5 53t157.5 16.5q109 0 193 -28.5t134.5 -74.5t82.5 -110.5t43.5 -128t11.5 -135.5h-309q0 112 -42 170.5t-116 58.5q-88 0 -139 -45t-51 -133q0 -92 69 -227h340v-197h-264q12 -43 12 -90 q0 -117 -47 -197q13 -3 83 -26t110 -23q24 0 38 12t19.5 44.5t6.5 57t1 80.5v23h324q0 -50 -2.5 -92t-12 -95.5t-25 -96t-43.5 -85.5t-66 -71.5t-94 -46.5t-126 -18q-62 0 -190 37.5t-207 37.5q-82 0 -219 -82l-121 230q64 50 116.5 79t122.5 48q18 14 24.5 27t6.5 40 q0 73 -84 207h-207z" />
<glyph unicode="&#xa4;" d="M18 467v197h150q-2 27 -2 81v48h-148v196h162q36 252 168.5 377t392.5 125q112 0 202 -24t151 -64.5t104 -99.5t66 -124t32 -143h-335q-25 93 -74.5 132.5t-141.5 39.5q-104 0 -159 -59t-68 -160h213v-196h-225v-129h225v-197h-205q30 -205 217 -205q33 0 55.5 2.5 t49.5 11.5t45 27.5t36 48t30 76.5t20 111h334q0 -124 -28 -220.5t-91.5 -175t-178.5 -121t-276 -42.5q-132 0 -231.5 34t-164 99.5t-103 152t-56.5 201.5h-166z" />
<glyph unicode="&#xa5;" horiz-adv-x="1187" d="M-12 1470h395l197 -561l225 561h393l-352 -727h174v-196h-266v-129h266v-197h-266v-221h-348v221h-267v197h267v129h-267v196h176z" />
<glyph unicode="&#xa6;" horiz-adv-x="454" d="M119 -182v512h219v-512h-219zM119 842v512h219v-512h-219z" />
<glyph unicode="&#xa7;" d="M139 657q0 90 49.5 169t126.5 116q-94 90 -94 234q0 317 457 317q104 0 181 -22t122 -57t74 -90.5t40.5 -108.5t16.5 -125h-281q-2 9 -5.5 32.5t-5 30t-5.5 24.5t-7.5 23.5t-10 18t-13.5 16.5t-18 11.5t-24.5 9.5t-31 4t-38.5 2q-62 0 -105 -23t-43 -68q0 -36 31.5 -66.5 t159.5 -113.5l229 -149q33 -22 55 -38t57 -47.5t56.5 -60.5t38 -70.5t16.5 -84.5q0 -90 -43 -175.5t-120 -129.5l12 -11q52 -42 73 -97.5t21 -131.5q0 -97 -34 -165t-98.5 -106t-146 -54.5t-188.5 -16.5q-217 0 -342 91.5t-125 279.5v69h297q3 -36 5 -55.5t7 -44.5t12.5 -37 t20.5 -26t32.5 -19.5t46 -9.5t62.5 -4q80 0 116 28.5t36 71.5q0 14 -8 28.5t-24.5 29t-27.5 23.5t-32.5 23.5t-24.5 16.5q-5 3 -98 64.5t-181 121t-141 98.5q-69 52 -102 110.5t-33 143.5zM432 664q0 -32 37 -56l285 -194q13 -11 30 -11q33 0 64 36t31 73q0 23 -35 47 l-285 201q-18 12 -41 12q-17 0 -51.5 -36t-34.5 -72z" />
<glyph unicode="&#xa8;" horiz-adv-x="737" d="M55 1198v279h262v-279h-262zM420 1198v279h260v-279h-260z" />
<glyph unicode="&#xa9;" horiz-adv-x="1646" d="M33 735q0 173 62 318t169 241.5t251.5 149.5t309.5 53q131 0 250 -33.5t217 -99t170 -156.5t112 -212.5t40 -260.5q0 -176 -61.5 -322.5t-168.5 -243.5t-251 -150.5t-308 -53.5q-165 0 -309.5 53.5t-251.5 150.5t-169 243.5t-62 322.5zM264 735q0 -183 74.5 -320.5 t201 -208.5t285.5 -71q117 0 219 41.5t177 117.5t118 189.5t43 251.5q0 134 -43 246t-118 187.5t-177 117t-219 41.5q-243 0 -402 -162t-159 -430zM412 745q-2 212 102.5 330.5t316.5 118.5q85 0 150 -18.5t104 -47t66 -72.5t39 -83.5t20 -91.5h-198q-10 39 -17 58t-25 43 t-49 34t-79 10q-124 0 -171.5 -67t-47.5 -238q0 -83 14.5 -138.5t44.5 -84.5t66.5 -40.5t89.5 -11.5q46 0 76 10.5t47 33.5t26 47t19 64q2 11 4 17h204q-38 -342 -383 -342q-224 0 -321.5 117.5t-97.5 351.5z" />
<glyph unicode="&#xaa;" horiz-adv-x="880" d="M94 1034q0 57 18 97.5t43 61t69 33.5t78 16t89 7t84 8q25 3 42.5 20.5t17.5 45.5q0 30 -25.5 54t-77.5 24q-85 0 -96 -68l-2 -4q0 -2 -2 -22h-211v20q0 105 78 165t245 60q151 0 224 -57t73 -190v-293q0 -19 7.5 -23t42.5 -4v-176h-113q-55 0 -82.5 21.5t-36.5 64.5 q-28 -59 -76.5 -79.5t-120.5 -20.5q-268 0 -268 239zM289 1026q0 -78 102 -78q68 0 106 41t38 101v59q-37 -15 -152 -31q-94 -14 -94 -92z" />
<glyph unicode="&#xab;" horiz-adv-x="1116" d="M76 526l293 441h282l-289 -441l271 -428h-287zM485 526l295 441h283l-291 -441l272 -428h-286z" />
<glyph unicode="&#xac;" horiz-adv-x="1679" d="M127 655v172h1425v-626h-163v454h-1262z" />
<glyph unicode="&#xad;" horiz-adv-x="778" d="M125 420v303h528v-303h-528z" />
<glyph unicode="&#xae;" horiz-adv-x="1146" d="M51 965q2 140 72.5 259t190 188t259.5 69q211 0 364 -147t159 -357q4 -143 -66 -269.5t-192.5 -202t-266.5 -75.5q-141 0 -262.5 74t-190.5 197.5t-67 263.5zM205 961q-1 -101 48 -188.5t133 -139.5t183 -53q155 -1 268 116.5t107 274.5q-6 149 -111 251.5t-253 104.5 q-152 2 -263 -106t-112 -260zM385 696v549h211q19 0 37.5 -2t49 -11.5t53 -26.5t39.5 -51.5t18 -80.5q3 -108 -88 -151l98 -226h-131l-82 209h-88v-209h-117zM500 1014h90q29 0 44.5 2.5t29.5 17t14 43.5q0 27 -22.5 41.5t-57.5 14.5h-98v-119z" />
<glyph unicode="&#xaf;" horiz-adv-x="778" d="M57 1231v237h664v-237h-664z" />
<glyph unicode="&#xb0;" horiz-adv-x="1054" d="M139 1077q0 160 114 275.5t275 115.5t274 -115.5t113 -275.5t-114.5 -274.5t-274.5 -114.5q-161 0 -274 114.5t-113 274.5zM367 1077q0 -66 47 -112.5t114 -46.5q68 0 114 46t46 113t-47 114.5t-113 47.5q-67 0 -114 -47t-47 -115z" />
<glyph unicode="&#xb1;" d="M150 0v301h1032v-301h-1032zM150 639v301h362v236h301v-236h369v-301h-369v-236h-301v236h-362z" />
<glyph unicode="&#xb4;" horiz-adv-x="634" d="M102 1180l111 331h301l-188 -331h-224z" />
<glyph unicode="&#xb6;" horiz-adv-x="1075" d="M98 956q0 116 61 234t173 180q92 52 202.5 72t256.5 20h186v-125h-141v-1720h-123v1720h-45l2 -1720h-135v870q-183 14 -310 148t-127 321z" />
<glyph unicode="&#xb7;" horiz-adv-x="942" d="M285 518v379h372v-379h-372z" />
<glyph unicode="&#xb8;" horiz-adv-x="532" d="M51 -240h164q0 -19 -0.5 -38t9.5 -33.5t30 -14.5q37 0 37 82q0 23 -11 36t-20 15.5t-18 2.5h-84l12 219h166l10 -99q135 -18 135 -178q0 -196 -229 -196q-99 0 -150 45t-51 159z" />
<glyph unicode="&#xba;" horiz-adv-x="880" d="M78 1165q0 109 27.5 186t78.5 119.5t114.5 61t145.5 18.5q181 0 270 -93t89 -286q0 -378 -365 -378q-179 0 -269.5 91t-90.5 281zM301 1174q0 -118 31 -170t100 -52q89 0 118.5 55t29.5 181q0 102 -30.5 151.5t-98.5 49.5q-81 0 -115.5 -46.5t-34.5 -168.5z" />
<glyph unicode="&#xbb;" horiz-adv-x="1116" d="M78 98l284 441l-268 428h283l270 -428l-285 -441h-284zM483 98l287 441l-268 428h284l273 -428l-293 -441h-283z" />
<glyph unicode="&#xbf;" horiz-adv-x="1064" d="M47 12q0 168 125 297q21 22 88 79.5t96 94.5q34 43 46.5 69t15.5 75h315q0 -40 -4.5 -75.5t-10 -61t-19 -52.5l-21 -42t-27 -38t-27 -31t-30.5 -30.5t-29 -28.5q-16 -15 -50 -45t-53 -49t-41.5 -48t-33 -61t-10.5 -69q0 -158 139 -158q106 0 144 56t38 212h324v-98 q0 -196 -129 -315t-375 -119q-76 0 -141 12t-127.5 42.5t-106 78.5t-70 126t-26.5 179zM399 739v334h351v-334h-351z" />
<glyph unicode="&#xc0;" horiz-adv-x="1353" d="M-14 0l503 1470h347l520 -1470h-365l-96 303h-463l-94 -303h-352zM465 1876h301l113 -326h-224zM518 578h291l-143 473z" />
<glyph unicode="&#xc1;" horiz-adv-x="1353" d="M-14 0l503 1470h347l520 -1470h-365l-96 303h-463l-94 -303h-352zM518 578h291l-143 473zM545 1550l110 332h301l-188 -332h-223z" />
<glyph unicode="&#xc2;" horiz-adv-x="1353" d="M-14 0l503 1470h347l520 -1470h-365l-96 303h-463l-94 -303h-352zM385 1550l133 326h285l133 -326h-156l-118 168l-119 -168h-158zM518 578h291l-143 473z" />
<glyph unicode="&#xc3;" horiz-adv-x="1353" d="M-14 0l503 1470h347l520 -1470h-365l-96 303h-463l-94 -303h-352zM336 1628q0 98 51.5 155.5t132.5 57.5q23 0 51 -6.5t52 -16.5t49 -21.5t45 -20.5t36.5 -14t27.5 -2.5t14 14.5l20 67h172q0 -27 1 -49.5t1 -24.5q0 -92 -52.5 -154.5t-145.5 -62.5q-32 0 -68 14t-62.5 31 t-50.5 30.5t-40 12.5t-23 -22l-21 -64h-188q0 28 -1 50.5t-1 25.5zM518 578h291l-143 473z" />
<glyph unicode="&#xc4;" horiz-adv-x="1353" d="M-14 0l503 1470h347l520 -1470h-365l-96 303h-463l-94 -303h-352zM350 1550v279h262v-279h-262zM518 578h291l-143 473zM715 1550v279h260v-279h-260z" />
<glyph unicode="&#xc5;" horiz-adv-x="1353" d="M-14 0l503 1470h347l520 -1470h-365l-96 303h-463l-94 -303h-352zM408 1739q0 101 71.5 164t177.5 63q105 0 176.5 -63t71.5 -164q0 -99 -71.5 -162.5t-176.5 -63.5q-106 0 -177.5 63t-71.5 163zM508 1739q0 -59 41.5 -92t107.5 -33q65 0 106.5 32.5t41.5 92.5 q0 61 -41 94t-107 33t-107.5 -33t-41.5 -94zM518 578h291l-143 473z" />
<glyph unicode="&#xc6;" horiz-adv-x="2193" d="M-14 0l923 1470h1239v-294h-807v-256h736v-293h-736v-328h820v-299h-1160v346h-434l-205 -346h-376zM727 623h274v471z" />
<glyph unicode="&#xc7;" horiz-adv-x="1480" d="M78 752q-1 174 41 310.5t126.5 234.5t219.5 150t313 52q103 0 188.5 -16t146.5 -42.5t109.5 -67.5t79 -83.5t53 -98t34.5 -105t20 -109.5h-330q-10 38 -15.5 56t-17 48t-23.5 44.5t-33.5 34t-47 28.5t-63 15.5t-84.5 6.5q-105 0 -173 -24t-112 -83.5t-62 -152.5t-18 -237 q0 -457 352 -457q62 0 107 12.5t75 33t52 58.5t34.5 78t26.5 103h340q-12 -111 -41 -198.5t-85 -165t-150 -127.5t-223 -66v-252h-259v252q-304 34 -441.5 226t-139.5 542z" />
<glyph unicode="&#xc8;" horiz-adv-x="1347" d="M147 0v1470h1147v-284h-798v-271h735v-284h-735v-342h819v-289h-1168zM487 1876h301l113 -326h-223z" />
<glyph unicode="&#xc9;" horiz-adv-x="1347" d="M147 0v1470h1147v-284h-798v-271h735v-284h-735v-342h819v-289h-1168zM598 1550l111 332h301l-189 -332h-223z" />
<glyph unicode="&#xca;" horiz-adv-x="1347" d="M147 0v1470h1147v-284h-798v-271h735v-284h-735v-342h819v-289h-1168zM500 1550l133 326h285l133 -326h-156l-119 168l-119 -168h-157z" />
<glyph unicode="&#xcb;" horiz-adv-x="1347" d="M147 0v1470h1147v-284h-798v-271h735v-284h-735v-342h819v-289h-1168zM455 1550v279h262v-279h-262zM819 1550v279h260v-279h-260z" />
<glyph unicode="&#xcc;" horiz-adv-x="608" d="M63 1876h302l112 -326h-223zM137 0v1470h346v-1470h-346z" />
<glyph unicode="&#xcd;" horiz-adv-x="608" d="M137 0v1470h346v-1470h-346zM141 1550l111 332h301l-188 -332h-224z" />
<glyph unicode="&#xce;" horiz-adv-x="608" d="M29 1550l133 326h284l134 -326h-156l-119 168l-119 -168h-157zM131 0v1470h346v-1470h-346z" />
<glyph unicode="&#xcf;" horiz-adv-x="608" d="M-14 1550v279h262v-279h-262zM131 0v1470h346v-1470h-346zM350 1550v279h260v-279h-260z" />
<glyph unicode="&#xd0;" horiz-adv-x="1263" />
<glyph unicode="&#xd1;" horiz-adv-x="1490" d="M147 0v1470h342l537 -888v888h346v-1470h-344l-532 895v-895h-349zM430 1628q0 98 51.5 155.5t132.5 57.5q23 0 51 -6.5t52 -16.5t49 -21.5t45 -20.5t36.5 -14t27.5 -2.5t14 14.5l20 67h172q0 -27 1 -49.5t1 -24.5q0 -92 -52.5 -154.5t-145.5 -62.5q-32 0 -68 14 t-62.5 31t-50.5 30.5t-40 12.5t-23 -22l-20 -64h-189q0 28 -1 50.5t-1 25.5z" />
<glyph unicode="&#xd2;" horiz-adv-x="1613" d="M92 725q0 774 739 774q352 0 525.5 -201.5t173.5 -566.5q0 -384 -188 -573t-564 -189q-150 0 -274 47.5t-216.5 139.5t-144 237.5t-51.5 331.5zM442 725q0 -230 88.5 -353.5t268.5 -123.5q99 0 170.5 27.5t112 70.5t64 111.5t30 133t6.5 152.5q0 132 -24.5 225.5t-72 148 t-110.5 79.5t-146 25q-115 0 -191.5 -31t-119 -96.5t-59.5 -153t-17 -215.5zM555 1876h301l113 -326h-224z" />
<glyph unicode="&#xd3;" horiz-adv-x="1613" d="M92 725q0 774 739 774q352 0 525.5 -201.5t173.5 -566.5q0 -384 -188 -573t-564 -189q-150 0 -274 47.5t-216.5 139.5t-144 237.5t-51.5 331.5zM442 725q0 -230 88.5 -353.5t268.5 -123.5q99 0 170.5 27.5t112 70.5t64 111.5t30 133t6.5 152.5q0 132 -24.5 225.5t-72 148 t-110.5 79.5t-146 25q-115 0 -191.5 -31t-119 -96.5t-59.5 -153t-17 -215.5zM666 1550l110 332h301l-188 -332h-223z" />
<glyph unicode="&#xd4;" horiz-adv-x="1613" d="M92 725q0 774 739 774q352 0 525.5 -201.5t173.5 -566.5q0 -384 -188 -573t-564 -189q-150 0 -274 47.5t-216.5 139.5t-144 237.5t-51.5 331.5zM442 725q0 -230 88.5 -353.5t268.5 -123.5q99 0 170.5 27.5t112 70.5t64 111.5t30 133t6.5 152.5q0 132 -24.5 225.5t-72 148 t-110.5 79.5t-146 25q-115 0 -191.5 -31t-119 -96.5t-59.5 -153t-17 -215.5zM528 1550l134 326h284l133 -326h-155l-119 168l-119 -168h-158z" />
<glyph unicode="&#xd5;" horiz-adv-x="1613" d="M92 725q0 774 739 774q352 0 525.5 -201.5t173.5 -566.5q0 -384 -188 -573t-564 -189q-150 0 -274 47.5t-216.5 139.5t-144 237.5t-51.5 331.5zM442 725q0 -230 88.5 -353.5t268.5 -123.5q99 0 170.5 27.5t112 70.5t64 111.5t30 133t6.5 152.5q0 132 -24.5 225.5t-72 148 t-110.5 79.5t-146 25q-115 0 -191.5 -31t-119 -96.5t-59.5 -153t-17 -215.5zM455 1628q0 98 51.5 155.5t132.5 57.5q23 0 51 -6.5t52 -16.5t48.5 -21.5t45 -20.5t36.5 -14t27 -2.5t14 14.5l21 67h172q0 -27 1 -49.5t1 -24.5q0 -92 -53 -154.5t-146 -62.5q-32 0 -68 14 t-62.5 31t-50 30.5t-39.5 12.5t-23 -22l-21 -64h-188q0 28 -1 50.5t-1 25.5z" />
<glyph unicode="&#xd6;" horiz-adv-x="1613" d="M92 725q0 774 739 774q352 0 525.5 -201.5t173.5 -566.5q0 -384 -188 -573t-564 -189q-150 0 -274 47.5t-216.5 139.5t-144 237.5t-51.5 331.5zM442 725q0 -230 88.5 -353.5t268.5 -123.5q99 0 170.5 27.5t112 70.5t64 111.5t30 133t6.5 152.5q0 132 -24.5 225.5t-72 148 t-110.5 79.5t-146 25q-115 0 -191.5 -31t-119 -96.5t-59.5 -153t-17 -215.5zM504 1550v279h262v-279h-262zM868 1550v279h260v-279h-260z" />
<glyph unicode="&#xd7;" d="M129 248l309 307l-309 309l227 228l310 -310l311 310l227 -228l-309 -309l309 -307l-227 -228l-311 308l-310 -308z" />
<glyph unicode="&#xd8;" horiz-adv-x="1638" d="M63 -23l185 236q-86 116 -120 234t-34 278q0 396 187.5 585t552.5 189q229 0 387 -90l71 90h283l-191 -229q59 -70 104.5 -203t45.5 -334q0 -123 -20.5 -229t-72.5 -206.5t-133.5 -171.5t-212.5 -114t-300 -43q-69 0 -116 4.5t-121 27.5t-150 67l-76 -91h-269zM420 705 q0 -114 47 -220l551 682l-2 2q-69 43 -203 43q-208 0 -300.5 -127.5t-92.5 -379.5zM610 313q79 -51 224 -51q180 0 275 128.5t95 359.5q0 101 -9.5 154t-31.5 93z" />
<glyph unicode="&#xd9;" horiz-adv-x="1454" d="M147 492v978h349v-997q0 -77 21.5 -122.5t82.5 -71t170 -25.5q135 0 186.5 51t51.5 160v1005h348v-983q0 -516 -608 -516q-601 0 -601 521zM514 1876h301l113 -326h-223z" />
<glyph unicode="&#xda;" horiz-adv-x="1454" d="M147 492v978h349v-997q0 -77 21.5 -122.5t82.5 -71t170 -25.5q135 0 186.5 51t51.5 160v1005h348v-983q0 -516 -608 -516q-601 0 -601 521zM604 1550l111 332h301l-189 -332h-223z" />
<glyph unicode="&#xdb;" horiz-adv-x="1454" d="M147 492v978h349v-997q0 -77 21.5 -122.5t82.5 -71t170 -25.5q135 0 186.5 51t51.5 160v1005h348v-983q0 -516 -608 -516q-601 0 -601 521zM473 1550l133 326h285l133 -326h-156l-118 168l-119 -168h-158z" />
<glyph unicode="&#xdc;" horiz-adv-x="1433" d="M147 492v978h349v-997q0 -77 21.5 -122.5t82.5 -71t170 -25.5q135 0 186.5 51t51.5 160v1005h348v-983q0 -516 -608 -516q-601 0 -601 521zM440 1550v279h262v-279h-262zM805 1550v279h260v-279h-260z" />
<glyph unicode="&#xdf;" horiz-adv-x="1269" d="M31 848v244h137v71q0 76 26.5 135.5t69.5 97t103 62t122.5 34t133.5 9.5q105 0 185 -27.5t125 -72.5t67 -96.5t22 -106.5q0 -78 -32.5 -128t-100.5 -105q-43 -31 -43 -52q0 -26 59 -67q13 -9 71 -45.5t91 -61.5q131 -103 131 -313q0 -94 -29 -169.5t-78 -124.5 t-116.5 -81.5t-141.5 -46.5t-157 -14q-10 0 -154 8v240q122 -7 135 -7q46 0 79.5 7t64 26.5t46 59t15.5 98.5q0 53 -23 100t-57 79t-74.5 67t-74.5 65t-57 71.5t-23 86.5q0 40 17 76t41.5 62.5t49 51.5t41.5 54.5t17 60.5q0 29 -33 48.5t-84 19.5q-62 0 -81 -23.5t-19 -75.5 v-1165h-334v848h-137z" />
<glyph unicode="&#xe0;" horiz-adv-x="1153" d="M70 338q0 65 15 115.5t39 83.5t63 56t77 35t90.5 20t95 11t99 7.5t94.5 9.5q36 5 62 30.5t26 65.5q0 46 -37.5 82.5t-115.5 36.5q-129 0 -146 -100l-2 -9q0 -1 -4 -32h-315v30q0 159 117 248.5t370 89.5q225 0 334.5 -86.5t109.5 -286.5v-440q0 -28 11 -34.5t63 -6.5 v-264h-168q-83 0 -123.5 32t-56.5 99q-42 -90 -114.5 -122t-178.5 -32q-206 0 -305.5 93t-99.5 268zM297 1524h301l113 -326h-224zM362 326q0 -115 156 -115q101 0 157 61t56 152v88q-19 -8 -38.5 -13.5t-46.5 -10.5t-41 -7.5t-52 -7.5t-49 -6q-142 -21 -142 -141z" />
<glyph unicode="&#xe1;" horiz-adv-x="1148" d="M70 338q0 65 15 115.5t39 83.5t63 56t77 35t90.5 20t95 11t99 7.5t94.5 9.5q36 5 62 30.5t26 65.5q0 46 -37.5 82.5t-115.5 36.5q-129 0 -146 -100l-2 -9q0 -1 -4 -32h-315v30q0 159 117 248.5t370 89.5q225 0 334.5 -86.5t109.5 -286.5v-440q0 -28 11 -34.5t63 -6.5 v-264h-168q-83 0 -123.5 32t-56.5 99q-42 -90 -114.5 -122t-178.5 -32q-206 0 -305.5 93t-99.5 268zM362 326q0 -115 156 -115q101 0 157 61t56 152v88q-19 -8 -38.5 -13.5t-46.5 -10.5t-41 -7.5t-52 -7.5t-49 -6q-142 -21 -142 -141zM471 1198l111 332h301l-189 -332h-223z " />
<glyph unicode="&#xe2;" horiz-adv-x="1153" d="M70 338q0 65 15 115.5t39 83.5t63 56t77 35t90.5 20t95 11t99 7.5t94.5 9.5q36 5 62 30.5t26 65.5q0 46 -37.5 82.5t-115.5 36.5q-129 0 -146 -100l-2 -9q0 -1 -4 -32h-315v30q0 159 117 248.5t370 89.5q225 0 334.5 -86.5t109.5 -286.5v-440q0 -28 11 -34.5t63 -6.5 v-264h-168q-83 0 -123.5 32t-56.5 99q-42 -90 -114.5 -122t-178.5 -32q-206 0 -305.5 93t-99.5 268zM299 1198l133 326h285l133 -326h-156l-119 168l-118 -168h-158zM362 326q0 -115 156 -115q101 0 157 61t56 152v88q-19 -8 -38.5 -13.5t-46.5 -10.5t-41 -7.5t-52 -7.5 t-49 -6q-142 -21 -142 -141z" />
<glyph unicode="&#xe3;" horiz-adv-x="1153" d="M70 338q0 65 15 115.5t39 83.5t63 56t77 35t90.5 20t95 11t99 7.5t94.5 9.5q36 5 62 30.5t26 65.5q0 46 -37.5 82.5t-115.5 36.5q-129 0 -146 -100l-2 -9q0 -1 -4 -32h-315v30q0 159 117 248.5t370 89.5q225 0 334.5 -86.5t109.5 -286.5v-440q0 -28 11 -34.5t63 -6.5 v-264h-168q-83 0 -123.5 32t-56.5 99q-42 -90 -114.5 -122t-178.5 -32q-206 0 -305.5 93t-99.5 268zM250 1276q0 98 51.5 155.5t132.5 57.5q23 0 51 -7t52 -16.5t49 -21t45 -20.5t36.5 -14.5t27.5 -3t14 14.5l20 68h172q0 -27 1 -49.5t1 -24.5q0 -92 -52.5 -154.5 t-145.5 -62.5q-32 0 -68 14t-62.5 31t-50.5 30.5t-40 12.5t-23 -22l-21 -64h-188q0 28 -1 50.5t-1 25.5zM362 326q0 -115 156 -115q101 0 157 61t56 152v88q-19 -8 -38.5 -13.5t-46.5 -10.5t-41 -7.5t-52 -7.5t-49 -6q-142 -21 -142 -141z" />
<glyph unicode="&#xe4;" horiz-adv-x="1153" d="M70 338q0 65 15 115.5t39 83.5t63 56t77 35t90.5 20t95 11t99 7.5t94.5 9.5q36 5 62 30.5t26 65.5q0 46 -37.5 82.5t-115.5 36.5q-129 0 -146 -100l-2 -9q0 -1 -4 -32h-315v30q0 159 117 248.5t370 89.5q225 0 334.5 -86.5t109.5 -286.5v-440q0 -28 11 -34.5t63 -6.5 v-264h-168q-83 0 -123.5 32t-56.5 99q-42 -90 -114.5 -122t-178.5 -32q-206 0 -305.5 93t-99.5 268zM279 1198v279h262v-279h-262zM362 326q0 -115 156 -115q101 0 157 61t56 152v88q-19 -8 -38.5 -13.5t-46.5 -10.5t-41 -7.5t-52 -7.5t-49 -6q-142 -21 -142 -141zM643 1198 v279h260v-279h-260z" />
<glyph unicode="&#xe5;" horiz-adv-x="1153" d="M70 338q0 65 15 115.5t39 83.5t63 56t77 35t90.5 20t95 11t99 7.5t94.5 9.5q36 5 62 30.5t26 65.5q0 46 -37.5 82.5t-115.5 36.5q-129 0 -146 -100l-2 -9q0 -1 -4 -32h-315v30q0 159 117 248.5t370 89.5q225 0 334.5 -86.5t109.5 -286.5v-440q0 -28 11 -34.5t63 -6.5 v-264h-168q-83 0 -123.5 32t-56.5 99q-42 -90 -114.5 -122t-178.5 -32q-206 0 -305.5 93t-99.5 268zM348 1389q0 101 72 164t178 63q105 0 176.5 -63t71.5 -164q0 -99 -71.5 -162.5t-176.5 -63.5q-106 0 -178 63t-72 163zM362 326q0 -115 156 -115q101 0 157 61t56 152v88 q-19 -8 -38.5 -13.5t-46.5 -10.5t-41 -7.5t-52 -7.5t-49 -6q-142 -21 -142 -141zM449 1389q0 -59 41.5 -92t107.5 -33q65 0 106 32.5t41 92.5q0 61 -41 94t-106 33q-66 0 -107.5 -33t-41.5 -94z" />
<glyph unicode="&#xe6;" horiz-adv-x="1851" d="M70 299q0 64 14 114.5t35 84t57.5 58.5t70.5 38t85 23t89 14t96 9.5t93 10.5q75 10 95 24t20 52q0 63 -38.5 101t-108.5 38q-51 0 -83 -11.5t-47.5 -37.5t-20.5 -54.5t-5 -74.5h-311q0 29 -1 54.5t-1 29.5q0 48 11.5 91.5t45 90t87 80t144.5 55t209 21.5q104 0 188 -31 t132 -84q71 62 150.5 88.5t187.5 26.5q268 0 393 -142t125 -417v-102h-735q-2 -112 48 -165t175 -53q60 0 101 14t56 58q6 20 21 62h317q-38 -402 -518 -402q-150 0 -253 55t-146 140q-113 -195 -367 -195q-87 0 -159.5 18.5t-130 57.5t-89.5 105t-32 155zM408 309 q0 -43 24 -66.5t84 -23.5q213 0 213 227v29q-45 -15 -160 -37q-29 -5 -47 -8.5t-42 -13t-38 -22t-24 -34.5t-10 -51zM1055 670h385q0 85 -44 138.5t-130 53.5q-185 0 -211 -192z" />
<glyph unicode="&#xe7;" horiz-adv-x="1191" d="M70 549q0 100 18 183.5t59.5 156t105 122.5t159 78.5t217.5 28.5q255 0 372 -117t117 -319h-321q-1 6 -4.5 29t-6 37t-9 32.5t-15.5 28.5q-38 55 -150 55q-61 0 -104 -23.5t-65 -67t-31 -93.5t-9 -115q0 -60 2.5 -101t15 -92t34 -81.5t63 -52t100.5 -21.5 q114 0 156.5 49.5t42.5 173.5h309q0 -61 -10 -116t-38 -113.5t-72 -103.5t-116.5 -79.5t-166.5 -47.5v-191h-207v188q-217 25 -331.5 170.5t-114.5 401.5z" />
<glyph unicode="&#xe8;" horiz-adv-x="1204" d="M70 541q0 577 542 577q89 0 162.5 -16t126.5 -45t94.5 -69.5t67 -89.5t43.5 -105t24 -115.5t9 -121.5t-2 -124h-740q1 -47 10 -82.5t30.5 -68.5t64 -50.5t104.5 -17.5q146 0 191 131h325q-8 -44 -16.5 -77t-26 -73.5t-41 -69.5t-63 -59t-89.5 -48.5t-122.5 -30 t-161.5 -11.5q-276 0 -404 141t-128 425zM348 1524h301l113 -326h-223zM406 637h389q3 101 -47 168t-144 67q-97 0 -142.5 -62t-55.5 -173z" />
<glyph unicode="&#xe9;" horiz-adv-x="1204" d="M70 541q0 577 542 577q89 0 162.5 -16t126.5 -45t94.5 -69.5t67 -89.5t43.5 -105t24 -115.5t9 -121.5t-2 -124h-740q1 -47 10 -82.5t30.5 -68.5t64 -50.5t104.5 -17.5q146 0 191 131h325q-8 -44 -16.5 -77t-26 -73.5t-41 -69.5t-63 -59t-89.5 -48.5t-122.5 -30 t-161.5 -11.5q-276 0 -404 141t-128 425zM406 637h389q3 101 -47 168t-144 67q-97 0 -142.5 -62t-55.5 -173zM434 1198l111 332h301l-189 -332h-223z" />
<glyph unicode="&#xea;" horiz-adv-x="1204" d="M70 541q0 577 542 577q89 0 162.5 -16t126.5 -45t94.5 -69.5t67 -89.5t43.5 -105t24 -115.5t9 -121.5t-2 -124h-740q1 -47 10 -82.5t30.5 -68.5t64 -50.5t104.5 -17.5q146 0 191 131h325q-8 -44 -16.5 -77t-26 -73.5t-41 -69.5t-63 -59t-89.5 -48.5t-122.5 -30 t-161.5 -11.5q-276 0 -404 141t-128 425zM334 1198l133 326h285l133 -326h-156l-119 168l-118 -168h-158zM406 637h389q3 101 -47 168t-144 67q-97 0 -142.5 -62t-55.5 -173z" />
<glyph unicode="&#xeb;" horiz-adv-x="1204" d="M70 541q0 577 542 577q89 0 162.5 -16t126.5 -45t94.5 -69.5t67 -89.5t43.5 -105t24 -115.5t9 -121.5t-2 -124h-740q1 -47 10 -82.5t30.5 -68.5t64 -50.5t104.5 -17.5q146 0 191 131h325q-8 -44 -16.5 -77t-26 -73.5t-41 -69.5t-63 -59t-89.5 -48.5t-122.5 -30 t-161.5 -11.5q-276 0 -404 141t-128 425zM291 1198v279h262v-279h-262zM406 637h389q3 101 -47 168t-144 67q-97 0 -142.5 -62t-55.5 -173zM655 1198v279h260v-279h-260z" />
<glyph unicode="&#xec;" horiz-adv-x="579" d="M45 1524h301l113 -326h-223zM127 0v1092h336v-1092h-336z" />
<glyph unicode="&#xed;" horiz-adv-x="579" d="M123 0v1092h336v-1092h-336zM127 1198l111 332h301l-189 -332h-223z" />
<glyph unicode="&#xee;" horiz-adv-x="579" d="M6 1198l133 326h285l133 -326h-156l-118 168l-119 -168h-158zM121 0v1092h336v-1092h-336z" />
<glyph unicode="&#xef;" horiz-adv-x="579" d="M-20 1198v279h262v-279h-262zM121 0v1092h336v-1092h-336zM344 1198v279h260v-279h-260z" />
<glyph unicode="&#xf1;" horiz-adv-x="1267" d="M123 0v1092h323v-88l5 2q69 112 290 112q206 0 310 -83t104 -275v-760h-354v713q0 74 -39.5 105.5t-134.5 31.5q-79 0 -114.5 -34t-35.5 -122v-694h-354zM330 1276q0 98 51.5 155.5t132.5 57.5q23 0 51 -7t52 -16.5t48.5 -21t45 -20.5t36.5 -14.5t27 -3t14 14.5l21 68 h172q0 -27 1 -49.5t1 -24.5q0 -92 -53 -154.5t-146 -62.5q-32 0 -68 14t-62.5 31t-50 30.5t-39.5 12.5t-23 -22l-21 -64h-188q0 28 -1 50.5t-1 25.5z" />
<glyph unicode="&#xf2;" horiz-adv-x="1234" d="M70 537q0 132 28 233.5t76.5 166.5t120 106t151 58t177.5 17q273 0 407.5 -140.5t134.5 -430.5q0 -576 -553 -576q-542 0 -542 566zM362 1524h302l112 -326h-223zM408 549q0 -179 46 -257.5t150 -78.5q56 0 95.5 15.5t64.5 42.5t39 73t19 98t5 127q0 155 -46 230t-148 75 q-83 0 -130.5 -28t-71 -99t-23.5 -198z" />
<glyph unicode="&#xf3;" horiz-adv-x="1234" d="M70 537q0 132 28 233.5t76.5 166.5t120 106t151 58t177.5 17q273 0 407.5 -140.5t134.5 -430.5q0 -576 -553 -576q-542 0 -542 566zM408 549q0 -179 46 -257.5t150 -78.5q56 0 95.5 15.5t64.5 42.5t39 73t19 98t5 127q0 155 -46 230t-148 75q-83 0 -130.5 -28t-71 -99 t-23.5 -198zM438 1198l111 332h301l-188 -332h-224z" />
<glyph unicode="&#xf4;" horiz-adv-x="1234" d="M70 537q0 132 28 233.5t76.5 166.5t120 106t151 58t177.5 17q273 0 407.5 -140.5t134.5 -430.5q0 -576 -553 -576q-542 0 -542 566zM342 1198l133 326h285l133 -326h-156l-119 168l-118 -168h-158zM408 549q0 -179 46 -257.5t150 -78.5q56 0 95.5 15.5t64.5 42.5t39 73 t19 98t5 127q0 155 -46 230t-148 75q-83 0 -130.5 -28t-71 -99t-23.5 -198z" />
<glyph unicode="&#xf5;" horiz-adv-x="1251" d="M70 537q0 132 28 233.5t76.5 166.5t120 106t151 58t177.5 17q273 0 407.5 -140.5t134.5 -430.5q0 -576 -553 -576q-542 0 -542 566zM276 1276q0 98 52 155.5t133 57.5q23 0 51 -7t52 -16.5t48.5 -21t45 -20.5t36.5 -14.5t27 -3t14 14.5l21 68h172q0 -27 1 -49.5t1 -24.5 q0 -92 -53 -154.5t-146 -62.5q-32 0 -68 14t-62.5 31t-50.5 30.5t-40 12.5t-23 -22l-20 -64h-188q0 28 -1.5 50.5t-1.5 25.5zM408 549q0 -179 46 -257.5t150 -78.5q56 0 95.5 15.5t64.5 42.5t39 73t19 98t5 127q0 155 -46 230t-148 75q-83 0 -130.5 -28t-71 -99t-23.5 -198z " />
<glyph unicode="&#xf6;" horiz-adv-x="1234" d="M70 537q0 132 28 233.5t76.5 166.5t120 106t151 58t177.5 17q273 0 407.5 -140.5t134.5 -430.5q0 -576 -553 -576q-542 0 -542 566zM303 1198v279h262v-279h-262zM408 549q0 -179 46 -257.5t150 -78.5q56 0 95.5 15.5t64.5 42.5t39 73t19 98t5 127q0 155 -46 230t-148 75 q-83 0 -130.5 -28t-71 -99t-23.5 -198zM668 1198v279h260v-279h-260z" />
<glyph unicode="&#xf7;" d="M133 430v260h1065v-260h-1065zM487 0v342h347v-342h-347zM487 778v344h347v-344h-347z" />
<glyph unicode="&#xf8;" horiz-adv-x="1269" d="M47 -33l141 174q-58 85 -81 177.5t-23 209.5q0 288 133.5 435t419.5 147q197 0 309 -57l49 57h228l-144 -176q99 -130 99 -410q0 -123 -30 -222.5t-92.5 -177t-169 -119.5t-249.5 -42q-200 0 -309 64l-52 -60h-229zM408 506q0 -28 8 -90l342 411q-40 19 -119 19 q-59 0 -102 -18.5t-67.5 -48t-38.5 -76t-18.5 -91.5t-4.5 -106zM514 256q31 -17 60.5 -22t76.5 -5q33 0 61 8t48 19.5t35.5 33t25.5 39.5t17 47.5t10.5 48.5t5.5 52.5t2 49.5v47v14q0 36 -6 74z" />
<glyph unicode="&#xf9;" horiz-adv-x="1198" d="M113 305v787h338v-717q0 -67 34.5 -105.5t106.5 -38.5q84 0 116.5 39.5t32.5 118.5v703h338v-1092h-313v102q-25 -43 -61 -71.5t-79 -39.5t-73.5 -14.5t-71.5 -3.5q-96 0 -167.5 26.5t-108.5 62.5t-59 86t-27.5 85.5t-5.5 71.5zM317 1524h301l113 -326h-223z" />
<glyph unicode="&#xfa;" horiz-adv-x="1198" d="M113 305v787h338v-717q0 -67 34.5 -105.5t106.5 -38.5q84 0 116.5 39.5t32.5 118.5v703h338v-1092h-313v102q-25 -43 -61 -71.5t-79 -39.5t-73.5 -14.5t-71.5 -3.5q-96 0 -167.5 26.5t-108.5 62.5t-59 86t-27.5 85.5t-5.5 71.5zM485 1198l111 332h301l-188 -332h-224z " />
<glyph unicode="&#xfb;" horiz-adv-x="1198" d="M113 305v787h338v-717q0 -67 34.5 -105.5t106.5 -38.5q84 0 116.5 39.5t32.5 118.5v703h338v-1092h-313v102q-25 -43 -61 -71.5t-79 -39.5t-73.5 -14.5t-71.5 -3.5q-96 0 -167.5 26.5t-108.5 62.5t-59 86t-27.5 85.5t-5.5 71.5zM315 1198l134 326h284l133 -326h-155 l-119 168l-119 -168h-158z" />
<glyph unicode="&#xfc;" horiz-adv-x="1198" d="M113 305v787h338v-717q0 -67 34.5 -105.5t106.5 -38.5q84 0 116.5 39.5t32.5 118.5v703h338v-1092h-313v102q-25 -43 -61 -71.5t-79 -39.5t-73.5 -14.5t-71.5 -3.5q-96 0 -167.5 26.5t-108.5 62.5t-59 86t-27.5 85.5t-5.5 71.5zM276 1198v279h263v-279h-263zM641 1198 v279h260v-279h-260z" />
<glyph unicode="&#xff;" horiz-adv-x="1120" d="M0 1092h379l219 -629l199 629h340l-402 -1039q-57 -145 -95 -216t-83 -111q-77 -64 -213 -64h-231v293h157q55 0 68.5 8t32.5 53l37 88zM264 1198v279h262v-279h-262zM629 1198v279h260v-279h-260z" />
<glyph unicode="&#x152;" horiz-adv-x="2228" d="M92 731q0 195 50.5 343t145 240.5t224 138.5t293.5 46q240 0 309 -106v77h1075v-294h-737v-256h670v-295h-670v-326h758v-299h-1096v82q-31 -32 -68.5 -54.5t-70 -33.5t-79 -17t-76 -7t-79.5 -1q-133 0 -242 40t-183.5 110.5t-125.5 167.5t-74.5 208t-23.5 236zM440 752 q0 -118 17.5 -204.5t48 -140.5t79 -86.5t102 -44.5t124.5 -12q143 0 223 69.5t80 172.5v452q0 101 -79 174.5t-228 73.5q-184 0 -275.5 -106.5t-91.5 -347.5z" />
<glyph unicode="&#x153;" horiz-adv-x="1964" d="M70 539q0 571 557 571q143 0 225 -38.5t143 -123.5q115 162 371 162q260 0 394 -140.5t134 -414.5q0 -14 -2 -41.5t-2 -64.5h-727q-3 -108 45.5 -159.5t165.5 -51.5q38 0 61.5 2.5t52.5 16.5t42 40q8 17 24 65h322q-3 -64 -19 -118.5t-53.5 -107.5t-94 -90t-146.5 -60 t-205 -23q-272 0 -365 148q-62 -71 -150 -109.5t-239 -38.5q-534 0 -534 576zM408 528q0 -57 4 -97.5t16 -80t33.5 -63.5t58 -39t88.5 -15q85 0 130 25t67 94t22 201q0 90 -11.5 146.5t-39 87t-64 41t-94.5 10.5q-120 0 -165 -72t-45 -238zM1171 659h377q-12 191 -176 191 q-96 0 -145 -56t-56 -135z" />
<glyph unicode="&#x178;" horiz-adv-x="1296" d="M-20 1470h395l258 -550l287 550h393l-506 -919v-551h-348v547zM332 1550v279h262v-279h-262zM696 1550v279h260v-279h-260z" />
<glyph unicode="&#x2c6;" horiz-adv-x="716" d="M82 1174l133 325h285l133 -325h-156l-119 167l-118 -167h-158z" />
<glyph unicode="&#x2dc;" horiz-adv-x="778" d="M61 1278q0 98 52 155.5t133 57.5q23 0 51 -7t52 -16.5t48.5 -21t45 -20.5t36.5 -14.5t27 -3t14 14.5l21 68h172q0 -27 1 -49.5t1 -24.5q0 -92 -53 -154.5t-146 -62.5q-32 0 -68 14t-62.5 31t-50.5 30.5t-40 12.5t-23 -22l-20 -64h-189q0 28 -1 50.5t-1 25.5z" />
<glyph unicode="&#x2000;" horiz-adv-x="983" />
<glyph unicode="&#x2001;" horiz-adv-x="1966" />
<glyph unicode="&#x2002;" horiz-adv-x="983" />
<glyph unicode="&#x2003;" horiz-adv-x="1966" />
<glyph unicode="&#x2004;" horiz-adv-x="655" />
<glyph unicode="&#x2005;" horiz-adv-x="491" />
<glyph unicode="&#x2006;" horiz-adv-x="327" />
<glyph unicode="&#x2007;" horiz-adv-x="327" />
<glyph unicode="&#x2008;" horiz-adv-x="245" />
<glyph unicode="&#x2009;" horiz-adv-x="393" />
<glyph unicode="&#x200a;" horiz-adv-x="109" />
<glyph unicode="&#x2010;" horiz-adv-x="778" d="M125 420v303h528v-303h-528z" />
<glyph unicode="&#x2011;" horiz-adv-x="778" d="M125 420v303h528v-303h-528z" />
<glyph unicode="&#x2012;" horiz-adv-x="778" d="M125 420v303h528v-303h-528z" />
<glyph unicode="&#x2013;" horiz-adv-x="1024" d="M0 420v303h1024v-303h-1024z" />
<glyph unicode="&#x2014;" horiz-adv-x="1638" d="M117 420v303h1405v-303h-1405z" />
<glyph unicode="&#x2018;" horiz-adv-x="501" d="M88 850v278q0 128 53 205q41 63 104 97.5t165 44.5v-134q-37 -22 -55 -34.5t-40 -34t-32 -47t-13 -60.5h144v-315h-326z" />
<glyph unicode="&#x2019;" horiz-adv-x="501" d="M88 1155v315h326v-278q0 -126 -54 -205q-41 -63 -103.5 -97t-164.5 -44v133q37 22 55 34.5t39.5 34t31.5 47t13 60.5h-143z" />
<glyph unicode="&#x201a;" horiz-adv-x="532" d="M92 -35v316h328v-279q0 -122 -55 -205q-41 -62 -104 -96.5t-165 -44.5v133q49 29 72.5 46.5t43.5 50.5t24 79h-144z" />
<glyph unicode="&#x201c;" horiz-adv-x="931" d="M88 850v278q0 122 55 205q41 63 104 97.5t165 44.5v-134q-37 -22 -55 -34.5t-40 -34t-32 -47t-13 -60.5h144v-315h-328zM518 850v278q0 128 53 205q41 63 104 97.5t165 44.5v-134q-48 -29 -71 -46.5t-43 -50.5t-24 -79h142v-315h-326z" />
<glyph unicode="&#x201d;" horiz-adv-x="933" d="M88 1155v315h328v-278q0 -120 -56 -205q-41 -62 -103.5 -96.5t-164.5 -44.5v133q71 42 102.5 76t36.5 100h-143zM518 1155v315h328v-278q0 -122 -55 -205q-41 -62 -104 -96.5t-165 -44.5v133q49 29 72.5 46.5t43.5 50.5t24 79h-144z" />
<glyph unicode="&#x201e;" horiz-adv-x="933" d="M88 -33v316h328v-279q0 -120 -56 -205q-41 -62 -103.5 -96.5t-164.5 -44.5v133q71 42 102.5 76t36.5 100h-143zM518 -33v316h328v-279q0 -122 -55 -205q-41 -62 -104 -96.5t-165 -44.5v133q49 29 72.5 46.5t43.5 50.5t24 79h-144z" />
<glyph unicode="&#x2022;" horiz-adv-x="1136" d="M180 748q3 159 118.5 269.5t274.5 110.5q163 0 273 -115.5t110 -279.5q0 -162 -115 -276.5t-274 -108.5q-161 6 -275.5 122.5t-111.5 277.5z" />
<glyph unicode="&#x2026;" horiz-adv-x="1597" d="M131 0v342h346v-342h-346zM641 0v342h346v-342h-346zM1145 0v342h346v-342h-346z" />
<glyph unicode="&#x202f;" horiz-adv-x="393" />
<glyph unicode="&#x2039;" horiz-adv-x="665" d="M45 526l293 441h283l-289 -441l272 -428h-289z" />
<glyph unicode="&#x203a;" horiz-adv-x="665" d="M45 967h283l293 -441l-271 -428h-289l273 428z" />
<glyph unicode="&#x205f;" horiz-adv-x="491" />
<glyph unicode="&#x20ac;" d="M18 467v197h150q-2 27 -2 81v48h-148v196h162q36 252 168.5 377t392.5 125q112 0 202 -24t151 -64.5t104 -99.5t66 -124t32 -143h-335q-25 93 -74.5 132.5t-141.5 39.5q-104 0 -159 -59t-68 -160h213v-196h-225v-129h225v-197h-205q30 -205 217 -205q33 0 55.5 2.5 t49.5 11.5t45 27.5t36 48t30 76.5t20 111h334q0 -124 -28 -220.5t-91.5 -175t-178.5 -121t-276 -42.5q-132 0 -231.5 34t-164 99.5t-103 152t-56.5 201.5h-166z" />
<glyph unicode="&#x2122;" d="M100 1319v151h471v-151h-151v-531h-166v531h-154zM614 788v682h224l92 -378l82 378h219v-679h-158v370l-59 -370h-170l-68 366v-369h-162z" />
<glyph unicode="&#xe000;" horiz-adv-x="1095" d="M0 0v1096h1096v-1096h-1096z" />
<glyph unicode="&#xfb01;" horiz-adv-x="1228" d="M102 870v222h136v108q0 152 87 216.5t244 64.5h176v-275h-108q-9 0 -23.5 1t-18.5 0.5t-10.5 -4t-8 -12t-1.5 -24.5v-75h170v-222h-170v-870h-337v870h-136zM788 0v1092h338v-1092h-338zM788 1198v283h338v-283h-338z" />
<glyph unicode="&#xfb02;" horiz-adv-x="1228" d="M102 870v222h136v108q0 152 87 216.5t244 64.5h176v-275h-108q-9 0 -23.5 1t-18.5 0.5t-10.5 -4t-8 -12t-1.5 -24.5v-75h170v-222h-170v-870h-337v870h-136zM788 0v1481h338v-1481h-338z" />
</font>
</defs>
</svg>
