<?xml version="1.0" standalone="no"?>
<!DOCTYPE svg PUBLIC "-//W3C//DTD SVG 1.1//EN" "http://www.w3.org/Graphics/SVG/1.1/DTD/svg11.dtd" >
<svg xmlns="http://www.w3.org/2000/svg">
<metadata></metadata>
<defs>
<font id="ftv_heldustry-demidemi" horiz-adv-x="1320" >
<font-face units-per-em="2048" ascent="1536" descent="-512" />
<missing-glyph horiz-adv-x="450" />
<glyph horiz-adv-x="2048" />
<glyph horiz-adv-x="2048" />
<glyph horiz-adv-x="682" />
<glyph unicode="&#xd;" horiz-adv-x="450" />
<glyph unicode=" "  horiz-adv-x="450" />
<glyph unicode="&#x09;" horiz-adv-x="450" />
<glyph unicode="&#xa0;" horiz-adv-x="450" />
<glyph unicode="!" horiz-adv-x="522" d="M106 1106v364h312v-364l-53 -709h-201zM115 0v281h297v-281h-297z" />
<glyph unicode="&#x22;" horiz-adv-x="716" d="M70 1470h223l-37 -423h-162zM424 1470h223l-37 -423h-161z" />
<glyph unicode="#" horiz-adv-x="1146" d="M31 451l28 211h191l26 172h-190l31 210h188l53 371h201l-55 -371h188l56 371h200l-53 -371h190l-30 -210h-189l-24 -172h188l-33 -211h-188l-64 -451h-204l67 451h-188l-66 -451h-200l65 451h-188zM451 662h186l27 172h-189z" />
<glyph unicode="$" d="M70 492h288q5 -138 70 -205q48 -50 158 -74v426q-145 29 -188 43q-208 65 -261 225q-20 59 -20 133q0 385 469 416v166h151v-164q61 -2 145.5 -22t145.5 -60q90 -60 130 -150.5t42 -221.5h-280q-1 9 -3.5 35t-5 39.5t-8 34.5t-16 37.5t-25.5 31.5q-49 43 -125 53v-367 q174 -32 241 -54q194 -66 250 -217q25 -68 25 -155q0 -80 -18.5 -146t-47.5 -111t-74 -80t-87 -55.5t-98.5 -35t-97 -21t-93.5 -11.5v-162h-151v162q-268 34 -387 151q-111 111 -129 359zM395 1071q0 -52 11.5 -85.5t41.5 -51.5t51.5 -24.5t71.5 -15.5l15 -3v344 q-191 -11 -191 -164zM737 211q33 0 59 3t60.5 16t58 35t40 64.5t16.5 100.5q0 41 -12 71t-29 48t-52 31.5t-62 20t-79 15.5v-405z" />
<glyph unicode="%" horiz-adv-x="1904" d="M70 1026q0 115 24.5 200t60.5 131.5t87.5 74.5t94.5 35.5t93 7.5q29 0 51.5 -1.5t62 -11t69.5 -26t64.5 -50t57 -79.5t38 -118.5t15.5 -162.5t-12 -162.5t-31 -120.5t-48.5 -83.5t-58.5 -55t-67 -30.5t-67 -14t-66 -3q-29 0 -47.5 0.5t-51 5t-55.5 13t-53 25t-51 39.5 t-43.5 59t-36 81t-22 108t-8.5 138zM305 1018q0 -155 29.5 -214t99.5 -59q25 0 44.5 10t31.5 24.5t21 39t13 44t6.5 50.5t2.5 47v44v8q0 139 -25.5 204.5t-97.5 65.5q-19 0 -32 -2.5t-32.5 -17t-31 -40.5t-20.5 -78.5t-9 -125.5zM557 -53l578 1515h206l-571 -1515h-213z M1118 428q0 449 361 449q29 0 51.5 -1.5t62 -11t69.5 -26t64.5 -50t57 -79.5t38 -118.5t15.5 -162.5t-12 -162.5t-31 -120.5t-48.5 -83.5t-58.5 -55t-67 -30.5t-67 -14t-66 -3q-29 0 -47.5 0.5t-51.5 5t-55.5 13t-53 25t-51.5 39.5t-43 59t-35.5 81t-22.5 108t-9 138z M1354 420q0 -155 29.5 -214t99.5 -59q111 0 118 199q1 20 1 68q0 139 -25.5 204.5t-97.5 65.5q-19 0 -32 -2.5t-32.5 -17t-31 -40.5t-20.5 -78.5t-9 -125.5z" />
<glyph unicode="&#x26;" horiz-adv-x="1341" d="M31 367q0 70 20 133t45.5 106.5t74 92.5t79 74t87.5 68q17 13 25 19q-90 118 -120 173q-47 87 -47 159q0 60 23 120t67 101q49 45 114 66.5t164 21.5q373 0 373 -303q0 -209 -231 -383l200 -258q0 15 3 45t3 45v66h234q5 -53 -10 -176q-13 -99 -52 -203l258 -334h-317 l-78 100q-164 -133 -414 -133q-501 0 -501 400zM311 385q0 -88 58 -144.5t166 -56.5q133 0 266 103l-291 381q-199 -127 -199 -283zM453 1200q0 -15 2.5 -29t10.5 -30.5t13 -27t19.5 -30t19.5 -27t24 -31t23 -28.5q6 6 22.5 25t21.5 25t18 22t17.5 24t12.5 22t11 25t5.5 25 t2.5 29h2q0 56 -25.5 80t-85.5 24q-54 0 -84 -25.5t-30 -72.5z" />
<glyph unicode="'" horiz-adv-x="430" d="M78 1210v260h274v-256q0 -117 -51 -194q-77 -115 -219 -129v80q30 18 46 29.5t36.5 31.5t34.5 43q17 28 22.5 56t9.5 79h-153z" />
<glyph unicode="(" horiz-adv-x="716" d="M88 399v680q0 131 24.5 237t61 173t89 116t98 73t99.5 38t81.5 16.5t54.5 2.5h33v-217q-141 0 -197.5 -117t-56.5 -395v-533q0 -152 15 -252t48.5 -156t78.5 -78t112 -22v-217h-66q-31 0 -66.5 6t-83 24.5t-91 47.5t-87 80t-75.5 116.5t-52 163t-20 213.5z" />
<glyph unicode=")" horiz-adv-x="716" d="M88 -35q67 0 112 22t78.5 78t48.5 156t15 252v533q0 278 -56.5 395t-197.5 117v217h33q27 0 54.5 -2.5t81.5 -16.5t99.5 -38t98 -73t89 -116t61 -173t24.5 -237v-680q0 -116 -20 -213.5t-52 -163t-75.5 -116.5t-87 -80t-91 -47.5t-83 -24.5t-66.5 -6h-66v217z" />
<glyph unicode="*" horiz-adv-x="778" d="M96 1077l137 86l-137 82l72 129l143 -80v170h156v-170l143 80l72 -129l-137 -82l137 -86l-72 -129l-143 84v-164h-156v164l-143 -84z" />
<glyph unicode="+" d="M143 446v220h408v407h219v-407h408v-220h-408v-407h-219v407h-408z" />
<glyph unicode="," horiz-adv-x="501" d="M104 0v289h293v-264q0 -136 -63 -234q-80 -122 -230 -133v96q81 22 123 92q20 33 27.5 80.5t5.5 73.5h-156z" />
<glyph unicode="-" horiz-adv-x="737" d="M127 446v250h483v-250h-483z" />
<glyph unicode="." horiz-adv-x="501" d="M104 0v289h293v-289h-293z" />
<glyph unicode="/" horiz-adv-x="585" d="M-27 -74l406 1544h229l-405 -1544h-230z" />
<glyph unicode="0" d="M92 745q0 188 29 323t94.5 232t174 144t263.5 47q103 0 187 -21t143.5 -56.5t103.5 -90t71 -114t43 -136t22 -149.5t6 -160q0 -79 -2.5 -141t-10 -132t-20.5 -123t-35 -108.5t-52.5 -95.5t-74 -76.5t-98.5 -59t-127 -35.5t-158 -13q-130 0 -227.5 35.5t-160.5 99 t-101.5 161t-54 210.5t-15.5 259zM379 758q0 -84 3.5 -147t13 -130.5t29 -114.5t49.5 -86t75.5 -58t105.5 -19q53 0 91 9t77.5 40.5t63.5 86.5t39.5 152.5t15.5 233.5q0 115 -7.5 197.5t-26.5 150.5t-51 109t-81.5 62.5t-118.5 21.5q-54 0 -97 -17.5t-72 -44.5t-49.5 -69.5 t-32 -84t-18 -97t-8 -98t-1.5 -97.5z" />
<glyph unicode="1" horiz-adv-x="880" d="M82 1028v199q2 0 25.5 0.5t30 1t29.5 1.5t33.5 3t31.5 4.5t34 7t31 10t33.5 13t29.5 16.5q88 58 142 184h246v-1468h-295v1028h-371z" />
<glyph unicode="2" horiz-adv-x="1269" d="M98 70q0 99 33 183t83.5 141.5t123.5 114.5t141 97.5t149.5 94.5t135.5 102q68 60 88 112.5t20 157.5q0 98 -43 146.5t-163 48.5q-55 0 -92.5 -5.5t-64 -20.5t-42 -34.5t-24 -55t-11 -72.5t-2.5 -97h-289v92q0 81 18 145.5t46.5 107.5t72 74t85.5 48t96.5 26.5t95.5 12 t92 2.5q139 0 232.5 -20.5t161.5 -70.5t99 -138t31 -220q0 -108 -34 -196t-86.5 -145t-129.5 -111.5t-149 -92t-161 -91.5t-150 -105q-8 -7 -16 -18t-17 -24t-14 -19h753v-240h-1067q0 11 -1 35t-1 35z" />
<glyph unicode="3" d="M92 487h293q9 -105 28 -150q57 -133 261 -134q131 0 193.5 50.5t62.5 178.5q0 75 -18 123t-55.5 72t-80.5 32.5t-108 8.5h-101v217h105q114 0 161.5 50t47.5 128q0 66 -15.5 108.5t-47 63.5t-66.5 28t-88 7q-75 0 -125 -21t-74.5 -61t-33.5 -80t-11 -96h-283 q0 479 537 479q497 0 497 -406q0 -108 -57 -190.5t-168 -110.5q41 -5 72 -13t73.5 -31.5t70 -58.5t47.5 -99t20 -148q0 -232 -140 -343t-403 -111q-132 0 -234.5 26.5t-169.5 71.5t-110.5 110.5t-61.5 138.5t-18 160z" />
<glyph unicode="4" horiz-adv-x="1249" d="M82 334v282l643 852h281v-923h198v-211h-198v-334h-275v334h-649zM309 545h422v567z" />
<glyph unicode="5" horiz-adv-x="1269" d="M92 403v48h285q15 -92 37 -133q57 -109 219 -109q143 0 208.5 64t65.5 225q0 150 -52.5 226.5t-188.5 76.5q-28 0 -53.5 -3t-43 -6t-39 -12.5t-31 -13t-30 -18.5t-24 -17.5t-26 -22t-24.5 -20.5h-252l162 780h828v-239h-631l-64 -293q36 23 51.5 32t53 26.5t78.5 24.5 t90 7q80 0 150.5 -17.5t132.5 -56.5t106.5 -98t70 -147.5t25.5 -198.5q0 -115 -30 -205.5t-82.5 -150.5t-126 -99t-156.5 -56t-180 -17q-122 0 -219 32.5t-153 80t-93.5 108t-50.5 110t-13 92.5z" />
<glyph unicode="6" d="M92 711q0 157 20.5 280.5t51 204.5t82 138.5t97.5 87.5t114 46t115.5 19.5t117.5 3.5q86 0 156 -12.5t118.5 -31.5t86 -50t60 -61t39 -72t24 -75t14.5 -77h-285q-11 32 -16 44.5t-22.5 38.5t-37.5 37.5t-58 21.5t-89 10q-84 0 -136 -18t-88 -66t-52.5 -124t-24.5 -200 q46 59 130.5 96t199.5 37t206.5 -28.5t160.5 -87.5t106 -156.5t37 -227.5q0 -256 -142.5 -382.5t-404.5 -126.5q-109 0 -195.5 19.5t-147 52.5t-104 86.5t-69 111t-40.5 137t-19.5 153.5t-4.5 171zM395 485q0 -143 62 -210.5t213 -67.5q95 0 134 14q109 37 125 215 q3 34 3 74q0 131 -60.5 189.5t-195.5 58.5q-75 0 -130 -20t-83 -48t-44.5 -69t-20 -70.5t-3.5 -65.5z" />
<glyph unicode="7" horiz-adv-x="1126" d="M61 1233v235h1004v-235q-98 -87 -198.5 -220.5t-172.5 -295.5q-133 -303 -174 -717h-311q8 126 65 359t144 401q156 304 348 473h-705z" />
<glyph unicode="8" d="M92 416q0 96 17.5 164.5t54 111.5t79.5 68t107 45q-84 24 -142 92.5t-58 177.5q0 416 512 416q22 0 39 -0.5t57 -4t71.5 -9.5t75.5 -19.5t78 -32t69.5 -48t59 -66.5t38.5 -89t15 -114q0 -77 -17 -132t-50.5 -88t-69 -51t-86.5 -32q41 -7 77 -19.5t76.5 -39t69 -64 t47.5 -97t19 -134.5q0 -107 -32 -190.5t-85 -135.5t-128 -85.5t-154 -46.5t-170 -13q-275 0 -422.5 116.5t-147.5 319.5zM387 430q0 -116 60 -170.5t212 -54.5q147 0 214 55t67 178q0 66 -13.5 112.5t-35 73.5t-59 42t-74.5 19.5t-92 4.5q-83 0 -139 -17.5t-86 -53 t-42 -80.5t-12 -109zM438 1094q0 -99 46.5 -146t174.5 -47q110 0 161.5 42.5t51.5 154.5q0 100 -49.5 136t-160.5 36q-33 0 -55.5 -1.5t-57.5 -11t-56.5 -27t-38 -52.5t-16.5 -84z" />
<glyph unicode="9" d="M92 987q0 250 144 377t391 127q103 0 185 -15.5t143 -44t105.5 -74t73 -100t45.5 -128t24 -151.5t7 -177q0 -133 -12 -242.5t-29.5 -189.5t-49.5 -142.5t-60.5 -103t-75.5 -69t-81 -43t-90 -22t-89 -8.5t-92 -1q-255 0 -372.5 85.5t-137.5 288.5h280q10 -39 21 -61 t36.5 -45.5t71 -34t115.5 -10.5q52 0 92.5 10.5t68 28.5t47 46t31 57.5t19 70.5t11 77t6.5 83q1 20 2 30q-37 -52 -120 -89.5t-214 -37.5q-110 0 -199 29t-156.5 88.5t-104 159t-36.5 231.5zM377 989q0 -57 4 -94t18.5 -77t41.5 -63t76 -38t118 -15q152 0 213 74t61 219 q0 151 -67.5 214t-200.5 63q-144 0 -204 -68t-60 -215z" />
<glyph unicode=":" horiz-adv-x="501" d="M104 0v289h293v-289h-293zM104 782v291h293v-291h-293z" />
<glyph unicode=";" horiz-adv-x="501" d="M104 0v289h293v-264q0 -136 -63 -234q-80 -122 -230 -133v96q81 22 123 92q20 33 27.5 80.5t5.5 73.5h-156zM104 782v291h293v-291h-293z" />
<glyph unicode="&#x3c;" d="M123 424v203l1077 442v-254l-717 -289l717 -282v-260z" />
<glyph unicode="=" d="M143 229v220h1035v-220h-1035zM143 664v219h1035v-219h-1035z" />
<glyph unicode="&#x3e;" d="M121 -16v260l717 282l-717 289v254l1077 -442v-203z" />
<glyph unicode="?" horiz-adv-x="1085" d="M68 1012v67q0 191 124 306.5t369 115.5q459 0 459 -426q0 -73 -23 -135t-62 -108t-78 -82t-85 -76t-70 -70q-29 -37 -45 -77t-19.5 -64t-4.5 -60h-262q0 217 166 379q20 20 60.5 57t59.5 57t42.5 52.5t33.5 67.5t10 78q0 96 -45 147t-135 51q-128 0 -176.5 -65 t-48.5 -215h-270zM354 0v281h297v-281h-297z" />
<glyph unicode="@" horiz-adv-x="1515" d="M72 336q0 402 177 603.5t527 201.5q162 0 292.5 -49.5t205.5 -139.5q61 -70 83.5 -173.5t22.5 -256.5v-293q0 -34 8 -45.5t44 -11.5q14 0 47 4v-182q-100 -19 -127 -19q-161 0 -193 113q-93 -71 -169 -100t-171 -29q-161 0 -253.5 91t-92.5 253q0 151 84 237t256 119 q53 9 126.5 16.5t90.5 10.5q43 6 61.5 18.5t18.5 38.5q0 82 -93.5 141.5t-246.5 59.5q-461 0 -461 -584q0 -300 108.5 -435.5t356.5 -135.5q115 0 262 43v-201q-121 -39 -280 -39q-350 0 -517 181.5t-167 562.5zM735 322q0 -160 142 -160q103 0 174 55t71 143v181 q-42 -28 -98 -41q-14 -3 -68 -11.5t-88 -15.5q-71 -13 -102 -48.5t-31 -102.5z" />
<glyph unicode="A" horiz-adv-x="1316" d="M-10 0l504 1470h313l520 -1470h-307l-100 317h-537l-98 -317h-295zM451 535h399l-197 649z" />
<glyph unicode="B" horiz-adv-x="1435" d="M147 0v1470h711q87 0 157.5 -16t117.5 -45t80.5 -66t51 -82t25.5 -89q7 -39 6 -82v-11q-3 -140 -61.5 -211t-183.5 -84q65 0 117 -17t95.5 -55t67 -106t23.5 -162t-22 -167t-64 -120.5t-92.5 -79.5t-118 -48t-129.5 -22.5t-137 -6.5h-644zM442 244h408q111 0 159 45.5 t48 152.5q0 68 -15 114t-42 68t-54.5 30t-62.5 8h-441v-418zM442 887h387q177 0 177 186q0 87 -31 122.5t-113 35.5h-420v-344z" />
<glyph unicode="C" horiz-adv-x="1454" d="M92 752v8q0 353 172 546q174 195 527 195q103 0 188.5 -15.5t146 -41t108.5 -64.5t77.5 -78.5t50.5 -90t31.5 -93.5t17.5 -94h-278q-10 38 -17.5 60t-23 55t-37.5 52.5t-54.5 39t-81 28.5t-110.5 9q-235 0 -326.5 -125t-91.5 -430q0 -123 19 -213t52.5 -146t86.5 -89 t112.5 -45.5t139.5 -12.5q47 0 85.5 6t68 19t52 26.5t40 36.5t28.5 39.5t21 45.5t14.5 45t12.5 46q5 18 7 27h291q-57 -531 -614 -531q-191 0 -328.5 51t-222 152.5t-124 244.5t-40.5 337z" />
<glyph unicode="D" horiz-adv-x="1484" d="M147 0v1470h613q335 0 484 -185t149 -552q0 -199 -42 -338t-131.5 -227t-222.5 -128t-321 -40h-529zM440 244h291q212 0 289.5 114t77.5 404q0 136 -22 228t-68 144.5t-108 74.5t-152 22h-308v-987z" />
<glyph unicode="E" horiz-adv-x="1335" d="M147 0v1470h1131v-239h-836v-336h770v-238h-770v-413h858v-244h-1153z" />
<glyph unicode="F" horiz-adv-x="1253" d="M147 0v1470h1072v-239h-777v-350h654v-238h-654v-643h-295z" />
<glyph unicode="G" horiz-adv-x="1517" d="M92 752q0 749 703 749q136 0 245 -29t178.5 -77t116.5 -112.5t66.5 -132t19.5 -140.5h-303q0 38 -5.5 69.5t-25 69t-53 63t-95.5 43t-146 17.5q-218 0 -311 -118.5t-93 -387.5q0 -151 19 -252t66 -173t127 -104t202 -32q83 0 147 23.5t98.5 55.5t58 79t30.5 79.5t12 72 t6 42.5h-348v238h639v-795h-225v184q-51 -73 -75 -97q-110 -113 -339 -120h-29q-150 0 -267.5 39t-195.5 107.5t-128.5 168.5t-72.5 215.5t-22 254.5z" />
<glyph unicode="H" horiz-adv-x="1468" d="M147 0v1470h295v-575h619v575h295v-1470h-295v666h-619v-666h-295z" />
<glyph unicode="I" horiz-adv-x="593" d="M168 0v1470h293v-1470h-293z" />
<glyph unicode="J" horiz-adv-x="1112" d="M43 408v122h268v-114q0 -125 46 -170t147 -45q55 0 92 9.5t59 25t33.5 45t15 59.5t3.5 78v1052h292v-1083q0 -89 -23 -161t-75 -132.5t-146 -93.5t-225 -33q-254 0 -370.5 103t-116.5 338z" />
<glyph unicode="K" horiz-adv-x="1392" d="M147 0v1470h295v-624l568 624h370l-575 -598l614 -872h-362l-455 676l-160 -160v-516h-295z" />
<glyph unicode="L" horiz-adv-x="1185" d="M147 0v1470h295v-1226h729v-244h-1024z" />
<glyph unicode="M" horiz-adv-x="1748" d="M147 0v1470h420l328 -1146l309 1146h432v-1470h-280v1118l-316 -1118h-299l-311 1118v-1118h-283z" />
<glyph unicode="N" horiz-adv-x="1472" d="M147 0v1470h304l616 -1021v1021h293v-1470h-305l-613 1028v-1028h-295z" />
<glyph unicode="O" horiz-adv-x="1619" d="M92 725q0 171 35.5 303.5t98.5 221t156.5 145.5t203.5 81.5t245 24.5q352 0 524.5 -200.5t172.5 -569.5q0 -389 -186.5 -576.5t-565.5 -187.5q-149 0 -273 47t-216 138.5t-143.5 238t-51.5 334.5zM389 725q0 -250 100 -387t308 -137q82 0 147.5 16.5t110.5 43t78 68.5 t52 86t30 102.5t14.5 109.5t3.5 116q0 143 -27.5 245.5t-81 163t-126 88.5t-169.5 28q-131 0 -218.5 -35t-135.5 -108t-67 -168t-19 -232z" />
<glyph unicode="P" horiz-adv-x="1351" d="M147 0v1470h730q195 0 312.5 -115t117.5 -331q0 -36 -4 -70.5t-16.5 -79.5t-33.5 -83.5t-58 -77t-86.5 -65t-123.5 -43.5t-164 -17h-379v-588h-295zM442 815h377q54 0 87.5 8t58 31t35 65.5t10.5 110.5q0 46 -5.5 79.5t-18.5 55.5t-28.5 35.5t-42.5 20t-52 8.5t-64 2 h-357v-416z" />
<glyph unicode="Q" horiz-adv-x="1619" d="M92 725q0 171 35.5 303.5t98.5 221t156.5 145.5t203.5 81.5t245 24.5q352 0 524.5 -200.5t172.5 -569.5q0 -385 -178 -563l137 -137l-129 -135l-162 155q-80 -43 -195.5 -63.5t-214.5 -20.5q-117 1 -218.5 27t-190 84t-151 145t-98.5 215t-36 287zM389 725 q0 -270 108 -397t300 -127q128 0 209 37l-127 120l131 138l143 -138q80 111 80 385q0 143 -27.5 245.5t-81 163t-126 88.5t-169.5 28q-131 0 -218.5 -35t-135.5 -108t-67 -168t-19 -232z" />
<glyph unicode="R" horiz-adv-x="1441" d="M147 0v1470h732q53 0 97.5 -3.5t97 -14t93 -29t80 -50t65.5 -74.5t42 -105.5t16 -140.5q0 -169 -72.5 -254.5t-193.5 -93.5q43 -7 74 -21t52 -31t35 -46.5t21.5 -58t13.5 -76t9.5 -90t9.5 -110.5t14 -127q9 -78 45 -145h-303q-26 40 -36.5 139.5t-20.5 209t-33 161.5 q-34 78 -151 78h-392v-588h-295zM442 819h389q76 0 123.5 13.5t72.5 44.5t33.5 68.5t8.5 96.5q0 117 -44.5 153t-164.5 36h-418v-412z" />
<glyph unicode="S" horiz-adv-x="1382" d="M74 485h286q4 -64 22 -113.5t56 -91t105.5 -63.5t161.5 -22q82 0 135 9t96.5 34t63.5 72.5t20 121.5q0 45 -10.5 77t-35 52.5t-53 33.5t-76 23t-90.5 16.5t-110.5 17.5t-124.5 24q-58 13 -97 24t-84.5 28.5t-74.5 38t-58.5 52t-46 70.5t-26.5 93t-10 120q0 83 25.5 149 t71.5 108.5t100.5 71.5t122.5 43.5t125.5 20.5t121.5 6q139 0 244 -29t165 -73.5t97 -107.5t49 -121.5t12 -125.5h-284q-1 7 -4 27.5t-5 35.5t-10 38t-19 40t-32 36t-48 31t-68 20t-91 8q-161 0 -223.5 -43.5t-62.5 -159.5q0 -43 13.5 -71.5t44.5 -46.5t69.5 -28.5t99 -21 t123 -20.5t152 -30.5t175.5 -47.5q109 -35 165.5 -145t56.5 -246q0 -453 -621 -453q-301 0 -457.5 133t-156.5 385z" />
<glyph unicode="T" horiz-adv-x="1185" d="M6 1231v239h1174v-239h-439v-1231h-295v1231h-440z" />
<glyph unicode="U" horiz-adv-x="1456" d="M147 477v993h295v-1001q0 -138 71.5 -202t250.5 -64q156 0 220.5 64t64.5 192v1011h294v-997q0 -263 -152.5 -384.5t-449.5 -121.5q-311 0 -452.5 131t-141.5 379z" />
<glyph unicode="V" horiz-adv-x="1257" d="M-16 1470h313l326 -1091l340 1091h311l-512 -1470h-287z" />
<glyph unicode="W" horiz-adv-x="1875" d="M-16 1470h303l282 -1097l224 1097h297l217 -1097l280 1097h305l-434 -1470h-284l-238 1071l-227 -1071h-287z" />
<glyph unicode="X" horiz-adv-x="1253" d="M102 0l484 776l-432 694h333l269 -458l268 458h334l-432 -694l483 -776h-344l-309 532l-310 -532h-344z" />
<glyph unicode="Y" horiz-adv-x="1236" d="M-20 1470h333l291 -620l324 620h332l-506 -919v-551h-295v547z" />
<glyph unicode="Z" horiz-adv-x="1302" d="M10 0v199l854 1032h-813v239h1172v-219l-836 -1007h854v-244h-1231z" />
<glyph unicode="[" horiz-adv-x="598" d="M123 0v1470h475v-213h-205v-1044h205v-213h-475z" />
<glyph unicode="\" horiz-adv-x="567" d="M-33 1470h230l405 -1544h-229z" />
<glyph unicode="]" horiz-adv-x="598" d="M0 0v213h205v1044h-205v213h475v-1470h-475z" />
<glyph unicode="^" horiz-adv-x="634" d="M47 1022l219 448h121l203 -448h-121l-145 342l-156 -342h-121z" />
<glyph unicode="_" horiz-adv-x="1116" d="M2 -98h1112v-226h-1112v226z" />
<glyph unicode="`" horiz-adv-x="593" d="M117 1505h262l106 -315h-176z" />
<glyph unicode="a" horiz-adv-x="1132" d="M70 319q0 199 147 267q56 26 170 38.5t210.5 20.5t119.5 25q26 23 26 104q0 62 -37.5 94.5t-132.5 32.5q-67 0 -108 -9.5t-59.5 -36t-23 -43t-7.5 -59.5q-1 -12 -2 -18h-260v47q0 320 475 320q224 0 327 -82t103 -275v-456q0 -55 14 -66q20 -14 55 -14h9v-209h-142 q-83 0 -129 39q-14 12 -24 27.5t-20 36.5t-13 26q-52 -94 -122 -126t-187 -32q-389 0 -389 348zM354 305q0 -127 150 -127q123 0 181 61.5t58 170.5v110l-32 -16q-34 -16 -87.5 -25t-96.5 -15.5t-84.5 -20t-65 -48t-23.5 -90.5z" />
<glyph unicode="b" horiz-adv-x="1236" d="M133 0v1481h285v-502q36 34 55 49.5t55.5 36t81.5 29t105 8.5q72 0 132.5 -15.5t103.5 -39.5t77.5 -61.5t56 -72.5t37 -82t23 -80.5t11.5 -77.5t4.5 -64t0.5 -48q0 -133 -25.5 -238t-79.5 -185.5t-146 -123.5t-218 -43q-85 0 -143.5 24.5t-85 56.5t-45.5 79v-131h-285z M416 541q0 -44 2 -77t9 -78.5t23.5 -77.5t42 -62.5t67.5 -46t97 -15.5q61 0 103 20.5t65.5 52t36 87t16 107t3.5 131.5q0 305 -219 305q-71 0 -121 -26.5t-76.5 -76t-37.5 -108.5t-11 -135z" />
<glyph unicode="c" horiz-adv-x="1161" d="M70 541q0 561 551 561q129 0 224 -32t148.5 -88.5t79 -125.5t25.5 -151h-273q-1 6 -3 19q-3 22 -5.5 33.5t-9 31.5t-15.5 31t-25.5 25.5t-38 21.5t-53.5 12.5t-73 5.5q-75 0 -127 -26.5t-78 -75t-36.5 -102.5t-10.5 -124q0 -194 53.5 -285.5t186.5 -91.5q39 0 70 3 t53.5 12t39 16t28 23t18.5 25.5t11.5 32t6.5 33t4.5 37t3.5 37.5h281q0 -56 -12 -109.5t-46.5 -113t-88.5 -103.5t-147.5 -73t-213.5 -29q-257 0 -392.5 143.5t-135.5 426.5z" />
<glyph unicode="d" horiz-adv-x="1206" d="M70 545q0 130 24 229.5t75.5 174.5t139 114t207.5 39q65 0 115 -10.5t83.5 -32t51.5 -38t41 -44.5v504h285v-1481h-271v131q-18 -28 -27.5 -40.5t-37 -40t-55 -41.5t-75 -26t-104.5 -12q-223 0 -337.5 151.5t-114.5 422.5zM354 561q0 -91 9 -153.5t31.5 -113.5t66 -76 t108.5 -25q49 0 88.5 12t64.5 30t43.5 48t28 56.5t14.5 65.5t6 65.5t1 64.5q0 186 -57 269t-185 83q-127 0 -173 -70.5t-46 -255.5z" />
<glyph unicode="e" horiz-adv-x="1181" d="M70 532q0 133 28 234t89 178.5t166 117.5t251 40q99 0 178.5 -20t133 -56t94.5 -85t61.5 -107t34.5 -123q14 -63 14 -127q0 -36 -2 -138h-766q0 -135 57.5 -197.5t204.5 -62.5q37 0 66 4.5t48.5 9.5t35.5 18.5t23.5 20t15.5 26t10 25t8 27.5h279q-6 -35 -13 -61.5 t-23.5 -64.5t-39 -66.5t-61 -59t-88 -50t-122.5 -32t-161 -12.5q-272 0 -397 138t-125 423zM358 645h467q0 42 -4 73.5t-17 64.5t-35 54t-61 34.5t-92 13.5q-38 0 -69.5 -5t-54.5 -12t-42.5 -21.5t-31.5 -25t-22.5 -32t-15.5 -33.5t-10.5 -37.5t-7 -36t-4.5 -37.5z" />
<glyph unicode="f" horiz-adv-x="645" d="M12 889v184h142v150q0 134 82 200q72 58 231 58h149v-217h-79q-70 0 -84 -19q-15 -21 -15 -57v-115h178v-184h-178v-889h-284v889h-142z" />
<glyph unicode="g" horiz-adv-x="1191" d="M70 569q0 252 109.5 392.5t330.5 140.5q61 0 111 -13t79.5 -30t56 -45t37.5 -46t25 -46v151h258v-1067q0 -186 -127 -273t-395 -87q-122 0 -208.5 25.5t-133 72.5t-66.5 103.5t-20 129.5h256q6 -55 14 -69q20 -37 116 -43q28 -2 65 -2q109 0 162 26.5t53 100.5v203l-5 -9 q-6 -9 -11.5 -16.5t-17.5 -20t-25 -22.5t-34 -21t-44.5 -18.5t-57 -12.5t-70.5 -5q-100 0 -180 26t-144 82.5t-99 156t-35 236.5zM354 594q0 -45 0.5 -68.5t5 -63t13 -61.5t25.5 -50t41 -42t61.5 -24.5t85.5 -10.5q56 0 96.5 19.5t62 47.5t34 72.5t15.5 81.5t3 87 q0 160 -44.5 232.5t-158.5 72.5q-127 0 -183.5 -68t-56.5 -225z" />
<glyph unicode="h" horiz-adv-x="1177" d="M133 0v1481h285v-535q24 62 53 93t89 47t169 16q35 0 60 -1.5t63.5 -9.5t66 -22t58.5 -42.5t50.5 -67t32.5 -98.5t13 -136v-725h-285v709q0 56 -13.5 91.5t-41 52.5t-56.5 22.5t-73 5.5q-101 0 -143.5 -43t-42.5 -152v-686h-285z" />
<glyph unicode="i" horiz-adv-x="552" d="M143 0v1073h285v-1073h-285zM143 1212v269h285v-269h-285z" />
<glyph unicode="j" horiz-adv-x="522" d="M-37 -133h70q63 0 80 22q10 14 10 74v1110h285v-1186q0 -62 -10.5 -104.5t-43.5 -77.5q-29 -31 -88 -45t-110 -14h-193v221zM123 1212v269h285v-269h-285z" />
<glyph unicode="k" horiz-adv-x="1087" d="M133 0v1481h285v-752l319 344h350l-389 -350l435 -723h-336l-287 541l-92 -76v-465h-285z" />
<glyph unicode="l" horiz-adv-x="552" d="M143 0v1481h285v-1481h-285z" />
<glyph unicode="m" horiz-adv-x="1738" d="M123 0v1073h270v-145q34 75 54 100q55 67 195 73q17 1 36 1q63 0 111.5 -12t77.5 -29t50.5 -44.5t31 -49.5t18.5 -54q37 99 105.5 144t203.5 45q97 0 176 -34t130.5 -109.5t51.5 -182.5v-776h-284v707q0 82 -41 123.5t-115 41.5q-85 0 -128.5 -42.5t-43.5 -124.5v-705 h-285v719q0 158 -155 158q-48 0 -82 -14t-51.5 -32.5t-27 -49t-11.5 -52.5t-2 -53v-676h-285z" />
<glyph unicode="n" horiz-adv-x="1167" d="M123 0v1073h274v-145q20 66 44 95q66 79 243 79q193 0 286 -78t93 -264v-760h-285v711q0 85 -41.5 126.5t-146.5 41.5q-94 0 -138 -40.5t-44 -146.5v-692h-285z" />
<glyph unicode="o" horiz-adv-x="1216" d="M70 528q0 132 27 232t74.5 164.5t117.5 104.5t148.5 56.5t176.5 16.5q270 0 401.5 -136.5t131.5 -426.5q0 -132 -28 -232.5t-90 -177.5t-169 -117.5t-256 -40.5q-268 0 -401 135t-133 422zM354 541q0 -192 54.5 -274.5t185.5 -82.5q68 0 116.5 16.5t78 45.5t46 78.5 t22 104t5.5 134.5q0 169 -54 246.5t-183 77.5q-101 0 -157.5 -28t-85 -103.5t-28.5 -214.5z" />
<glyph unicode="p" horiz-adv-x="1230" d="M133 -354v1427h275v-127q20 31 39.5 52.5t55 48t89.5 41t123 14.5q116 0 202.5 -43.5t137.5 -123t75.5 -182t24.5 -229.5q0 -553 -448 -553q-209 0 -289 123v-448h-285zM408 545q0 -82 12 -145t39.5 -113t77 -76.5t118.5 -26.5q52 0 89 11.5t59.5 41.5t36 56t19 81 t6.5 90t1 107q0 162 -49 237t-162 75q-122 0 -184.5 -78.5t-62.5 -259.5z" />
<glyph unicode="q" horiz-adv-x="1212" d="M70 532q0 275 113 422.5t335 147.5q233 0 309 -164v135h271v-1427h-285v463q-21 -29 -39 -47.5t-52 -42.5t-84.5 -36t-117.5 -12q-226 0 -338 138.5t-112 422.5zM356 522q0 -65 3 -108.5t15 -89.5t33 -72.5t59.5 -44t92.5 -17.5q65 0 111.5 18.5t73.5 48.5t43 80.5 t21 102.5t5 125q0 324 -235 324q-57 0 -98.5 -21t-65 -53t-37 -82.5t-17.5 -98.5t-4 -112z" />
<glyph unicode="r" horiz-adv-x="819" d="M123 0v1073h254v-201q34 93 51 121q56 94 184 107q24 2 50 2q61 0 139 -10v-236h-174q-112 0 -166 -65q-53 -67 -53 -211v-580h-285z" />
<glyph unicode="s" horiz-adv-x="1105" d="M70 381h268q6 -81 14 -104q24 -67 120 -84q39 -7 93 -7q31 0 46.5 0.5t42 3t40 7t31.5 14t27 23t15.5 35t6.5 48.5q0 21 -4.5 36.5t-17.5 26.5t-26 18t-41.5 14t-52 11.5t-68.5 13t-81 16.5q-206 44 -292.5 114t-86.5 207q0 328 449 328q124 0 214 -30t134.5 -66 t71 -94.5t31 -88t7.5 -73.5q1 -9 1 -13h-269q-3 43 -10 66.5t-26 46t-57.5 32t-100.5 9.5q-170 0 -170 -98q0 -53 41.5 -73t193.5 -51q54 -11 86 -18q181 -38 268 -115.5t87 -222.5q0 -342 -494 -342q-97 0 -175 17t-128.5 43t-87.5 64.5t-55.5 73.5t-29.5 79.5t-13 72 t-2 60.5z" />
<glyph unicode="t" horiz-adv-x="661" d="M14 885v188h142v340h284v-340h176v-188h-176v-555q0 -45 3 -64.5t16 -32.5q16 -16 65 -16h92v-217h-165q-52 0 -86.5 2t-80.5 14.5t-71 36.5q-57 53 -57 217v615h-142z" />
<glyph unicode="u" horiz-adv-x="1177" d="M113 285v788h284v-715q0 -163 183 -163q105 0 147.5 42t42.5 136v700h285v-1073h-279v119q-2 -4 -6 -11q-31 -59 -61 -83q-70 -54 -244 -54q-67 0 -122 13t-90.5 33t-62.5 49t-41.5 56.5t-23 60.5t-10.5 55.5t-2 46.5z" />
<glyph unicode="v" horiz-adv-x="1032" d="M4 1073h309l219 -762l218 762h301l-387 -1073h-271z" />
<glyph unicode="w" horiz-adv-x="1523" d="M4 1073h301l180 -737l168 737h246l164 -737l178 737h301l-362 -1073h-244l-160 741l-164 -741h-252z" />
<glyph unicode="x" horiz-adv-x="1169" d="M0 0l432 584l-385 489h332l207 -299l196 299h332l-369 -489l445 -584h-334l-270 387l-262 -387h-324z" />
<glyph unicode="y" horiz-adv-x="1083" d="M0 1073h299l256 -733l231 733h301l-401 -1040q-58 -148 -96 -219t-82 -109q-70 -59 -199 -59h-209v237h131q74 0 95 13q16 9 43 73l43 105z" />
<glyph unicode="z" horiz-adv-x="1024" d="M31 0v215l616 641h-577v217h891v-225l-605 -623h639v-225h-964z" />
<glyph unicode="{" horiz-adv-x="1939" d="M63 739l732 731h335l-610 -604h1366v-252h-1366l619 -614h-336z" />
<glyph unicode="|" horiz-adv-x="522" d="M143 -311v1792h285v-1792h-285z" />
<glyph unicode="}" horiz-adv-x="1939" d="M53 614v252h1366l-610 604h336l731 -731l-739 -739h-336l618 614h-1366z" />
<glyph unicode="~" horiz-adv-x="1146" d="M147 418q24 272 201 272q45 1 97 -21t98.5 -53t91 -62.5t88 -53.5t76.5 -23q23 0 41 9t27.5 22t16.5 33.5t9.5 35.5t5 36.5t4.5 29.5h98q-5 -47 -11.5 -83t-21 -73t-35 -61t-53.5 -39.5t-77 -15.5q-52 -1 -106 20.5t-98 52.5t-86 62.5t-86 53t-83 20.5q-24 0 -40 -10.5 t-26 -38.5t-13.5 -42t-9.5 -54l-1.5 -6t-1 -5t-0.5 -6h-105z" />
<glyph unicode="&#xa1;" horiz-adv-x="522" d="M106 -37l64 709h199l49 -709v-358h-312v358zM121 793v280h297v-280h-297z" />
<glyph unicode="&#xa2;" d="M145 750q0 265 113.5 397.5t345.5 165.5v157h148v-157q56 -4 130.5 -23.5t127.5 -56.5q75 -53 111 -123.5t44 -171.5h-276q-26 85 -47 113q-26 36 -90 43v-699q31 2 60 13.5t42 31.5q8 11 14 24.5t9.5 23t7 26t4.5 23.5t3 26t3 23h279q-3 -191 -134 -299 q-105 -87 -288 -109v-180h-148v180q-46 4 -89 13.5t-90 29.5t-86.5 49t-76 73.5t-62 101t-40.5 134.5t-15 171zM432 758q0 -77 7.5 -136.5t25.5 -111.5t53 -81.5t86 -33.5v699q-172 -27 -172 -336z" />
<glyph unicode="&#xa3;" d="M109 633v172h131q-41 108 -41 209q0 109 44.5 195t120.5 138.5t169 79.5t196 27q109 0 192 -28t131.5 -71.5t78.5 -105t40.5 -120t10.5 -125.5h-254q0 114 -53 176.5t-148 62.5q-233 0 -233 -201q0 -96 69 -237h283v-172h-213q26 -76 26 -129q0 -56 -11 -100.5t-20 -62 t-35 -57.5q-5 -8 -7 -12q71 -11 142.5 -35t117.5 -24q32 0 53.5 18t31.5 52.5t13.5 70.5t3.5 86h271q0 -460 -353 -460q-55 0 -187.5 39.5t-227.5 39.5q-97 0 -215 -71l-97 182q61 48 111 70q52 25 112 41q28 23 40 43.5t12 58.5q0 34 -13.5 76t-27 68t-36 64t-24.5 42h-204 z" />
<glyph unicode="&#xa4;" d="M41 537v172h145v106h-145v172h160q36 254 166 379t381 125q109 0 195.5 -23t146.5 -62.5t104 -98.5t69 -124.5t40 -146.5h-291q-25 118 -86.5 174t-173.5 56q-218 0 -265 -279h244v-172h-258v-106h258v-172h-250q16 -160 78 -247t191 -87q44 0 77 6t68 26.5t59 56t43 97 t27 146.5h291q-9 -103 -29 -182t-61 -151.5t-102.5 -119.5t-157 -74.5t-220.5 -27.5q-137 0 -237.5 38t-164 112.5t-99 173.5t-49.5 233h-154z" />
<glyph unicode="&#xa5;" d="M35 1470h334l290 -620l295 620h332l-389 -749h201v-172h-289v-107h289v-172h-289v-270h-295v270h-289v172h289v107h-289v172h199z" />
<glyph unicode="&#xa6;" horiz-adv-x="456" d="M119 -182v512h219v-512h-219zM119 842v512h219v-512h-219z" />
<glyph unicode="&#xa7;" horiz-adv-x="1187" d="M90 662q0 101 64.5 184t154.5 100q-59 43 -96 102.5t-37 155.5q0 155 113 226t332 71q101 0 176 -20.5t118 -52t70 -80.5t37 -94t14 -105h-227q-12 73 -27 97q-37 61 -170 61q-188 0 -188 -107q0 -24 4.5 -38.5t25 -39.5t65 -58t120.5 -83l240 -156q42 -27 73 -51t68 -61 t57.5 -81.5t20.5 -92.5q0 -100 -54.5 -189.5t-144.5 -120.5q64 -57 85 -85q52 -70 52 -175q0 -177 -114 -250t-338 -73q-217 0 -336 87t-119 265v39h244q7 -82 14 -102q18 -55 91 -71q47 -11 122 -11q95 0 145 27t50 91q0 24 -10.5 45.5t-37 43.5t-40.5 32t-52 35l-360 244 q-93 63 -122 91q-83 80 -83 200zM328 668q0 -52 53 -86l299 -205q24 -17 51 -17q52 0 92.5 49t40.5 101q0 44 -51 78l-297 209q-30 20 -63 20t-79 -48t-46 -101z" />
<glyph unicode="&#xa8;" horiz-adv-x="716" d="M61 1225v243h215v-243h-215zM440 1225v243h215v-243h-215z" />
<glyph unicode="&#xa9;" horiz-adv-x="1646" d="M37 731q0 170 64.5 315.5t172.5 243t250.5 152.5t298.5 55t298.5 -55t251 -152.5t173 -243t64.5 -315.5t-64.5 -315t-173 -243t-251 -153t-298.5 -55t-298.5 55t-250.5 153t-172.5 243t-64.5 315zM246 731q0 -171 77 -309.5t209 -215.5t291 -77q118 0 224 45.5t184 124.5 t124 191.5t46 240.5t-46 241t-124 191.5t-184 124t-224 45.5q-119 0 -225.5 -45.5t-184 -124t-122.5 -191t-45 -241.5zM424 745q-2 215 101 331t315 116q71 0 127.5 -12t94.5 -34t65.5 -48.5t43.5 -60.5t24.5 -64t12.5 -66h-166q-9 35 -17 54.5t-28 44t-56.5 36t-90.5 11.5 q-139 0 -194.5 -74.5t-55.5 -255.5q0 -91 16.5 -151.5t50.5 -93t76.5 -45.5t102.5 -13q43 0 76 10.5t51.5 24.5t32 38t19.5 42t13 45q3 11 4 16h172q-31 -317 -366 -317q-224 0 -324 116.5t-100 349.5z" />
<glyph unicode="&#xaa;" horiz-adv-x="819" d="M86 1040q0 115 92 156q46 20 173 30t143 21q16 13 16 62q0 36 -23.5 54.5t-83.5 18.5q-42 0 -68 -6t-37.5 -20t-15 -26t-5.5 -34q-1 -8 -1 -12h-163v29q0 188 299 188q142 0 207 -48t65 -163v-268q0 -31 8 -39q15 -10 41 -8v-123h-90q-53 0 -80 22q-7 6 -13.5 14 t-9.5 13.5t-7.5 14.5t-6.5 12q-33 -56 -76.5 -75t-117.5 -19q-246 0 -246 206zM266 1032q0 -76 94 -76q76 0 113 37t37 101v65l-21 -10q-25 -11 -69.5 -17.5t-75 -11t-54.5 -26t-24 -62.5z" />
<glyph unicode="&#xab;" horiz-adv-x="1013" d="M82 526l283 426h213l-279 -426l262 -413h-219zM434 526l285 426h213l-281 -426l262 -413h-217z" />
<glyph unicode="&#xac;" horiz-adv-x="1638" d="M109 696v111h1421v-586h-100v475h-1321z" />
<glyph unicode="&#xad;" horiz-adv-x="737" d="M127 446v250h483v-250h-483z" />
<glyph unicode="&#xae;" horiz-adv-x="1136" d="M66 965q3 135 71 249t182 180t248 66q203 0 349.5 -141.5t152.5 -343.5q5 -137 -62 -258t-185.5 -193.5t-256.5 -72.5q-134 0 -250.5 71t-183.5 189.5t-65 253.5zM178 961q-1 -106 50.5 -198.5t141.5 -147.5t195 -56q107 -1 200 56t145.5 153.5t47.5 204.5 q-6 156 -117.5 265t-267.5 110q-105 1 -196 -51t-145 -142t-54 -194zM385 696v549h211q20 0 38.5 -2t49 -11.5t52.5 -26.5t39 -51.5t18 -80.5q3 -109 -86 -151l98 -226h-131l-82 209h-90v-209h-117zM500 1014h90q30 0 45.5 2.5t29 17t13.5 43.5q0 27 -22 41.5t-58 14.5h-98 v-119z" />
<glyph unicode="&#xaf;" horiz-adv-x="757" d="M66 1260v180h626v-180h-626z" />
<glyph unicode="&#xb0;" horiz-adv-x="1024" d="M141 1077q0 154 109.5 264.5t263.5 110.5q153 0 262 -110.5t109 -264.5t-109.5 -263t-263.5 -109t-262.5 109t-108.5 263zM309 1077q0 -85 60 -144t145 -59t144 59t59 144t-59 145t-144 60t-145 -60t-60 -145z" />
<glyph unicode="&#xb1;" d="M143 0v219h1035v-219h-1035zM143 569v219h408v283h219v-283h408v-219h-408v-245h-219v245h-408z" />
<glyph unicode="&#xb4;" horiz-adv-x="583" d="M111 1190l106 315h262l-192 -315h-176z" />
<glyph unicode="&#xb6;" horiz-adv-x="1024" d="M86 977q0 113 59 226.5t168 174.5q92 51 203.5 71.5t259.5 20.5h162v-61h-147v-1800h-60v1800h-117l2 -1800h-71v909q-124 1 -229 61.5t-167.5 166.5t-62.5 231z" />
<glyph unicode="&#xb7;" horiz-adv-x="819" d="M250 545v325h321v-325h-321z" />
<glyph unicode="&#xb8;" horiz-adv-x="491" d="M55 -276h131q4 -39 43 -39q52 0 52 61q0 41 -16.5 52.5t-43.5 11.5h-51l8 194h109l10 -100q139 0 139 -154q0 -90 -51.5 -130t-153.5 -40q-90 0 -133 33t-43 111z" />
<glyph unicode="&#xba;" horiz-adv-x="819" d="M70 1163q0 96 25.5 163.5t73 105t107 53.5t136.5 16q171 0 254.5 -80.5t83.5 -251.5q0 -161 -79 -248t-263 -87q-168 0 -253 80t-85 249zM248 1169q0 -114 34 -162.5t117 -48.5q102 0 136 53.5t34 172.5h2q0 99 -34 144.5t-115 45.5q-96 0 -135 -43t-39 -162z" />
<glyph unicode="&#xbb;" horiz-adv-x="1013" d="M84 113l274 426l-258 413h213l262 -413l-276 -426h-215zM434 113l277 426l-260 413h217l262 -413l-283 -426h-213z" />
<glyph unicode="&#xbf;" horiz-adv-x="1085" d="M68 14q0 75 22.5 136.5t62.5 107t81.5 82.5t92.5 84t83 90q20 29 32.5 76.5t12.5 81.5h264q0 -68 -13 -124t-40 -101.5t-49.5 -73.5t-59.5 -66q-21 -21 -59 -54.5t-59.5 -55t-46 -53t-35.5 -68.5t-11 -82q0 -195 197 -195q54 0 93 15.5t60 38.5t33.5 60t16.5 67.5t8 74.5 q1 18 2 27h274q0 -77 -11 -141.5t-44.5 -131t-87 -112.5t-145.5 -75.5t-214 -29.5q-101 0 -180 22t-131 59.5t-86 91.5t-48.5 115.5t-14.5 133.5zM438 793v280h297v-280h-297z" />
<glyph unicode="&#xc0;" horiz-adv-x="1318" d="M-14 0l503 1470h314l520 -1470h-307l-101 317h-536l-98 -317h-295zM385 1939h262l107 -315h-176zM446 535h400l-197 649z" />
<glyph unicode="&#xc1;" horiz-adv-x="1318" d="M-14 0l503 1470h314l520 -1470h-307l-101 317h-536l-98 -317h-295zM446 535h400l-197 649zM567 1624l107 315h262l-193 -315h-176z" />
<glyph unicode="&#xc2;" horiz-adv-x="1318" d="M-14 0l503 1470h314l520 -1470h-307l-101 317h-536l-98 -317h-295zM393 1624l133 315h248l133 -315h-135l-121 180l-121 -180h-137zM446 535h400l-197 649z" />
<glyph unicode="&#xc3;" horiz-adv-x="1318" d="M-14 0l503 1470h314l520 -1470h-307l-101 317h-536l-98 -317h-295zM340 1669q0 89 48.5 139t119.5 50q54 0 135 -32t92 -32t19 3.5t12.5 7t8.5 12t5 12.5t3 15t3 14h166q0 -6 1 -20.5t1 -20.5q0 -84 -46.5 -138.5t-127.5 -54.5q-55 0 -132.5 36t-100.5 36q-35 0 -35 -45 v-25h-170q0 7 -1 21.5t-1 21.5zM446 535h400l-197 649z" />
<glyph unicode="&#xc4;" horiz-adv-x="1318" d="M-14 0l503 1470h314l520 -1470h-307l-101 317h-536l-98 -317h-295zM350 1624v244h215v-244h-215zM446 535h400l-197 649zM729 1624v244h215v-244h-215z" />
<glyph unicode="&#xc5;" horiz-adv-x="1318" d="M-14 0l503 1470h314l520 -1470h-307l-101 317h-536l-98 -317h-295zM410 1774q0 97 68.5 158t170.5 61q100 0 169 -61.5t69 -157.5q0 -95 -69 -156.5t-169 -61.5q-101 0 -170 61.5t-69 156.5zM446 535h400l-197 649zM506 1774q0 -57 40.5 -89t102.5 -32t102 32t40 89 q0 58 -40 90t-102 32q-63 0 -103 -32t-40 -90z" />
<glyph unicode="&#xc6;" horiz-adv-x="2201" d="M-10 0l923 1470h1244v-239h-844v-338h770v-238h-770v-411h858v-244h-1145v362h-510l-213 -362h-313zM643 582h383v657z" />
<glyph unicode="&#xc7;" horiz-adv-x="1454" d="M78 752q-2 360 171 554.5t527 194.5q103 0 189 -15.5t146.5 -41t108 -64.5t77 -78.5t51 -90t32 -93.5t17.5 -94h-279q-10 38 -17.5 60t-23 55t-37 52.5t-54.5 39t-81 28.5t-110 9q-235 0 -326.5 -125t-91.5 -430q0 -97 10 -170t36 -138.5t70 -107.5t114 -66t165 -24 q91 0 150 14.5t98 51.5t60 89t36 136h291q-52 -479 -510 -527v-239h-227v241q-310 31 -450 226t-142 553z" />
<glyph unicode="&#xc8;" horiz-adv-x="1335" d="M147 0v1470h1131v-239h-836v-336h770v-238h-770v-413h858v-244h-1153zM504 1939h262l106 -315h-176z" />
<glyph unicode="&#xc9;" horiz-adv-x="1335" d="M147 0v1470h1131v-239h-836v-336h770v-238h-770v-413h858v-244h-1153zM627 1624l106 315h262l-192 -315h-176z" />
<glyph unicode="&#xca;" horiz-adv-x="1335" d="M147 0v1470h1131v-239h-836v-336h770v-238h-770v-413h858v-244h-1153zM489 1624l134 315h247l134 -315h-136l-120 180l-121 -180h-138z" />
<glyph unicode="&#xcb;" horiz-adv-x="1335" d="M147 0v1470h1131v-239h-836v-336h770v-238h-770v-413h858v-244h-1153zM455 1624v244h215v-244h-215zM834 1624v244h215v-244h-215z" />
<glyph unicode="&#xcc;" horiz-adv-x="548" d="M18 1939h263l106 -315h-176zM129 0v1470h293v-1470h-293z" />
<glyph unicode="&#xcd;" horiz-adv-x="548" d="M131 0v1470h293v-1470h-293zM176 1624l107 315h262l-193 -315h-176z" />
<glyph unicode="&#xce;" horiz-adv-x="548" d="M16 1624l134 315h247l133 -315h-135l-121 180l-120 -180h-138zM129 0v1470h293v-1470h-293z" />
<glyph unicode="&#xcf;" horiz-adv-x="548" d="M-23 1624v244h216v-244h-216zM129 0v1470h293v-1470h-293zM356 1624v244h215v-244h-215z" />
<glyph unicode="&#xd1;" horiz-adv-x="1470" d="M147 0v1470h304l616 -1021v1021h293v-1470h-305l-613 1028v-1028h-295zM449 1669q0 89 48 139t119 50q54 0 135.5 -32t92.5 -32t19 3.5t12.5 7t8.5 12t5 12.5t3 15t3 14h166q0 -6 1 -20.5t1 -20.5q0 -84 -46.5 -138.5t-127.5 -54.5q-55 0 -133 36t-101 36q-34 0 -34 -45 v-25h-170q0 7 -1 21.5t-1 21.5z" />
<glyph unicode="&#xd2;" horiz-adv-x="1605" d="M78 725q0 171 35.5 303.5t98.5 221t156.5 145.5t203.5 81.5t245 24.5q352 0 524 -200.5t172 -569.5q0 -389 -186 -576.5t-565 -187.5q-149 0 -273 47t-216 138.5t-143.5 238t-51.5 334.5zM375 725q0 -250 100 -387t307 -137q82 0 147.5 16.5t111 43t78.5 68.5t52 86 t30 102.5t14.5 109.5t3.5 116q0 143 -27.5 245.5t-81 163t-126 88.5t-169.5 28q-131 0 -218.5 -35t-135.5 -108t-67 -168t-19 -232zM561 1939h262l107 -315h-176z" />
<glyph unicode="&#xd3;" horiz-adv-x="1605" d="M78 725q0 171 35.5 303.5t98.5 221t156.5 145.5t203.5 81.5t245 24.5q352 0 524 -200.5t172 -569.5q0 -389 -186 -576.5t-565 -187.5q-149 0 -273 47t-216 138.5t-143.5 238t-51.5 334.5zM375 725q0 -250 100 -387t307 -137q82 0 147.5 16.5t111 43t78.5 68.5t52 86 t30 102.5t14.5 109.5t3.5 116q0 143 -27.5 245.5t-81 163t-126 88.5t-169.5 28q-131 0 -218.5 -35t-135.5 -108t-67 -168t-19 -232zM688 1624l107 315h262l-193 -315h-176z" />
<glyph unicode="&#xd4;" horiz-adv-x="1605" d="M78 725q0 171 35.5 303.5t98.5 221t156.5 145.5t203.5 81.5t245 24.5q352 0 524 -200.5t172 -569.5q0 -389 -186 -576.5t-565 -187.5q-149 0 -273 47t-216 138.5t-143.5 238t-51.5 334.5zM375 725q0 -250 100 -387t307 -137q82 0 147.5 16.5t111 43t78.5 68.5t52 86 t30 102.5t14.5 109.5t3.5 116q0 143 -27.5 245.5t-81 163t-126 88.5t-169.5 28q-131 0 -218.5 -35t-135.5 -108t-67 -168t-19 -232zM545 1624l133 315h248l133 -315h-135l-121 180l-121 -180h-137z" />
<glyph unicode="&#xd5;" horiz-adv-x="1605" d="M78 725q0 171 35.5 303.5t98.5 221t156.5 145.5t203.5 81.5t245 24.5q352 0 524 -200.5t172 -569.5q0 -389 -186 -576.5t-565 -187.5q-149 0 -273 47t-216 138.5t-143.5 238t-51.5 334.5zM375 725q0 -250 100 -387t307 -137q82 0 147.5 16.5t111 43t78.5 68.5t52 86 t30 102.5t14.5 109.5t3.5 116q0 143 -27.5 245.5t-81 163t-126 88.5t-169.5 28q-131 0 -218.5 -35t-135.5 -108t-67 -168t-19 -232zM487 1681q0 89 48.5 139t119.5 50q54 0 135.5 -32t92.5 -32t19 3.5t12.5 7t8.5 12t5 12.5t3 15t3 14h166q0 -6 1 -20.5t1 -20.5 q0 -84 -46.5 -138.5t-127.5 -54.5q-55 0 -133 36t-101 36q-35 0 -35 -45v-25h-170q0 7 -1 21.5t-1 21.5z" />
<glyph unicode="&#xd6;" horiz-adv-x="1605" d="M78 725q0 171 35.5 303.5t98.5 221t156.5 145.5t203.5 81.5t245 24.5q352 0 524 -200.5t172 -569.5q0 -389 -186 -576.5t-565 -187.5q-149 0 -273 47t-216 138.5t-143.5 238t-51.5 334.5zM375 725q0 -250 100 -387t307 -137q82 0 147.5 16.5t111 43t78.5 68.5t52 86 t30 102.5t14.5 109.5t3.5 116q0 143 -27.5 245.5t-81 163t-126 88.5t-169.5 28q-131 0 -218.5 -35t-135.5 -108t-67 -168t-19 -232zM516 1624v244h215v-244h-215zM895 1624v244h215v-244h-215z" />
<glyph unicode="&#xd7;" horiz-adv-x="1361" d="M195 223l331 330l-331 332l153 155l332 -331l332 331l155 -155l-331 -332l331 -330l-155 -155l-332 331l-332 -331z" />
<glyph unicode="&#xd8;" horiz-adv-x="1617" d="M88 725q0 400 186 588t553 188q85 0 153 -9t121.5 -29t75 -30.5t64.5 -35.5l84 104h205l-172 -207q23 -21 47.5 -59.5t54 -104.5t48 -170t18.5 -227q0 -88 -10 -167t-34.5 -157.5t-62.5 -143t-96.5 -121t-134 -95t-178 -60.5t-224.5 -22q-112 0 -203 21t-210 94l-88 -105 h-193l166 211q-2 3 -21 28t-25 35t-24 38t-26 47.5t-22 53t-21.5 66.5t-15.5 75t-11.5 91t-3.5 103zM358 702q0 -142 76 -294l637 786q-23 17 -37 25.5t-46 23t-77.5 21t-105.5 6.5q-235 0 -341 -147t-106 -421zM545 289q96 -84 282 -84q207 0 315.5 146.5t108.5 398.5 q0 131 -16 193.5t-57 127.5z" />
<glyph unicode="&#xd9;" horiz-adv-x="1445" d="M147 477v993h295v-1001q0 -138 71.5 -202t250.5 -64q156 0 220.5 64t64.5 192v1011h294v-997q0 -263 -152.5 -384.5t-449.5 -121.5q-311 0 -452.5 131t-141.5 379zM496 1939h262l106 -315h-176z" />
<glyph unicode="&#xda;" horiz-adv-x="1445" d="M147 477v993h295v-1001q0 -138 71.5 -202t250.5 -64q156 0 220.5 64t64.5 192v1011h294v-997q0 -263 -152.5 -384.5t-449.5 -121.5q-311 0 -452.5 131t-141.5 379zM627 1624l106 315h262l-192 -315h-176z" />
<glyph unicode="&#xdb;" horiz-adv-x="1445" d="M147 477v993h295v-1001q0 -138 71.5 -202t250.5 -64q156 0 220.5 64t64.5 192v1011h294v-997q0 -263 -152.5 -384.5t-449.5 -121.5q-311 0 -452.5 131t-141.5 379zM489 1624l134 315h247l134 -315h-136l-120 180l-121 -180h-138z" />
<glyph unicode="&#xdc;" horiz-adv-x="1402" d="M104 477v993h295v-1001q0 -138 71.5 -202t250.5 -64q156 0 220.5 64t64.5 192v1011h294v-997q0 -263 -152.5 -384.5t-449.5 -121.5q-311 0 -452.5 131t-141.5 379zM410 1624v244h215v-244h-215zM788 1624v244h216v-244h-216z" />
<glyph unicode="&#xdf;" horiz-adv-x="1269" d="M82 866v207h100v111q0 70 24 125.5t64.5 91t98 58.5t120 32.5t134.5 9.5q104 0 182 -26t119.5 -68.5t61.5 -89t20 -96.5q0 -54 -19 -96.5t-46 -68.5t-54.5 -47t-46.5 -42.5t-19 -44.5q0 -35 31 -64t104 -73.5t111 -73.5q123 -95 123 -299q0 -91 -27.5 -164t-74.5 -122 t-112.5 -82t-139.5 -47.5t-158 -14.5q-2 0 -125 6v217q74 -4 106 -4q33 0 50 0.5t48 4.5t48.5 11.5t40 22.5t34.5 36.5t20.5 55t8.5 76.5q0 71 -33.5 131t-80.5 101.5t-94.5 80t-81 83t-33.5 93.5q0 46 22.5 89.5t49 72t49 71t22.5 87.5q0 37 -35.5 61.5t-91.5 24.5 q-83 0 -112 -36.5t-29 -103.5v-1163h-279v866h-100z" />
<glyph unicode="&#xe0;" horiz-adv-x="1132" d="M70 319q0 199 147 267q56 26 170 38.5t210.5 20.5t119.5 25q26 23 26 104q0 62 -37.5 94.5t-132.5 32.5q-67 0 -108 -9.5t-59.5 -36t-23 -43t-7.5 -59.5q-1 -12 -2 -18h-260v47q0 320 475 320q224 0 327 -82t103 -275v-456q0 -55 14 -66q22 -16 64 -14v-209h-142 q-83 0 -129 39q-14 12 -24 27.5t-20 36.5t-13 26q-52 -94 -122 -126t-187 -32q-389 0 -389 348zM322 1524h262l106 -316h-176zM354 305q0 -127 150 -127q123 0 181 61.5t58 170.5v110l-32 -16q-34 -16 -87.5 -25t-96.5 -15.5t-84.5 -20t-65 -48t-23.5 -90.5z" />
<glyph unicode="&#xe1;" horiz-adv-x="1132" d="M70 319q0 199 147 267q56 26 170 38.5t210.5 20.5t119.5 25q26 23 26 104q0 62 -37.5 94.5t-132.5 32.5q-67 0 -108 -9.5t-59.5 -36t-23 -43t-7.5 -59.5q-1 -12 -2 -18h-260v47q0 320 475 320q224 0 327 -82t103 -275v-456q0 -55 14 -66q22 -16 64 -14v-209h-142 q-83 0 -129 39q-14 12 -24 27.5t-20 36.5t-13 26q-52 -94 -122 -126t-187 -32q-389 0 -389 348zM354 305q0 -127 150 -127q123 0 181 61.5t58 170.5v110l-32 -16q-34 -16 -87.5 -25t-96.5 -15.5t-84.5 -20t-65 -48t-23.5 -90.5zM483 1208l107 316h262l-193 -316h-176z" />
<glyph unicode="&#xe2;" horiz-adv-x="1132" d="M70 319q0 199 147 267q56 26 170 38.5t210.5 20.5t119.5 25q26 23 26 104q0 62 -37.5 94.5t-132.5 32.5q-67 0 -108 -9.5t-59.5 -36t-23 -43t-7.5 -59.5q-1 -12 -2 -18h-260v47q0 320 475 320q224 0 327 -82t103 -275v-456q0 -55 14 -66q22 -16 64 -14v-209h-142 q-83 0 -129 39q-14 12 -24 27.5t-20 36.5t-13 26q-52 -94 -122 -126t-187 -32q-389 0 -389 348zM317 1208l134 316h247l133 -316h-135l-121 181l-120 -181h-138zM354 305q0 -127 150 -127q123 0 181 61.5t58 170.5v110l-32 -16q-34 -16 -87.5 -25t-96.5 -15.5t-84.5 -20 t-65 -48t-23.5 -90.5z" />
<glyph unicode="&#xe3;" horiz-adv-x="1132" d="M70 319q0 199 147 267q56 26 170 38.5t210.5 20.5t119.5 25q26 23 26 104q0 62 -37.5 94.5t-132.5 32.5q-67 0 -108 -9.5t-59.5 -36t-23 -43t-7.5 -59.5q-1 -12 -2 -18h-260v47q0 320 475 320q224 0 327 -82t103 -275v-456q0 -55 14 -66q22 -16 64 -14v-209h-142 q-83 0 -129 39q-14 12 -24 27.5t-20 36.5t-13 26q-52 -94 -122 -126t-187 -32q-389 0 -389 348zM256 1253q0 89 48.5 139t119.5 50q54 0 135 -32t92 -32t19 3.5t12.5 7t8.5 12t5 12.5t3 15t3 14h166q0 -6 1 -20.5t1 -20.5q0 -84 -46.5 -138.5t-127.5 -54.5q-55 0 -132.5 36 t-100.5 36q-35 0 -35 -45v-25h-170q0 7 -1 21.5t-1 21.5zM354 305q0 -127 150 -127q123 0 181 61.5t58 170.5v110l-32 -16q-34 -16 -87.5 -25t-96.5 -15.5t-84.5 -20t-65 -48t-23.5 -90.5z" />
<glyph unicode="&#xe4;" horiz-adv-x="1132" d="M70 319q0 199 147 267q56 26 170 38.5t210.5 20.5t119.5 25q26 23 26 104q0 62 -37.5 94.5t-132.5 32.5q-67 0 -108 -9.5t-59.5 -36t-23 -43t-7.5 -59.5q-1 -12 -2 -18h-260v47q0 320 475 320q224 0 327 -82t103 -275v-456q0 -55 14 -66q22 -16 64 -14v-209h-142 q-83 0 -129 39q-14 12 -24 27.5t-20 36.5t-13 26q-52 -94 -122 -126t-187 -32q-389 0 -389 348zM285 1208v244h215v-244h-215zM354 305q0 -127 150 -127q123 0 181 61.5t58 170.5v110l-32 -16q-34 -16 -87.5 -25t-96.5 -15.5t-84.5 -20t-65 -48t-23.5 -90.5zM664 1208v244 h215v-244h-215z" />
<glyph unicode="&#xe5;" horiz-adv-x="1132" d="M70 319q0 199 147 267q56 26 170 38.5t210.5 20.5t119.5 25q26 23 26 104q0 62 -37.5 94.5t-132.5 32.5q-67 0 -108 -9.5t-59.5 -36t-23 -43t-7.5 -59.5q-1 -12 -2 -18h-260v47q0 320 475 320q224 0 327 -82t103 -275v-456q0 -55 14 -66q22 -16 64 -14v-209h-142 q-83 0 -129 39q-14 12 -24 27.5t-20 36.5t-13 26q-52 -94 -122 -126t-187 -32q-389 0 -389 348zM340 1415q0 97 69 158t171 61q100 0 168.5 -61t68.5 -158q0 -95 -68.5 -156t-168.5 -61q-101 0 -170.5 61t-69.5 156zM354 305q0 -127 150 -127q123 0 181 61.5t58 170.5v110 l-32 -16q-34 -16 -87.5 -25t-96.5 -15.5t-84.5 -20t-65 -48t-23.5 -90.5zM436 1415q0 -57 41 -89t103 -32t101.5 32t39.5 89q0 58 -39.5 90.5t-101.5 32.5q-63 0 -103.5 -32.5t-40.5 -90.5z" />
<glyph unicode="&#xe6;" horiz-adv-x="1853" d="M70 289q0 50 9 92t23 73t38 56.5t47.5 42t58.5 30t64 21t70.5 14.5t71.5 10t74 8t72 9q85 11 118.5 34t33.5 81q0 82 -48 111.5t-137 29.5q-61 0 -100.5 -13t-58 -38.5t-25 -52.5t-6.5 -66h-262q0 8 -1 25.5t-1 25.5q0 44 10 84t42 85t83 77t141 53t209 21q227 0 332 -92 q62 35 93.5 49.5t100.5 28.5t162 14q264 0 386 -138t122 -413v-92h-768q2 -12 4.5 -35t4 -38t6 -37.5t9.5 -37t15 -33.5t23 -31.5t32.5 -26t43.5 -21t56.5 -12.5t71.5 -5q47 0 82.5 8t55 17.5t35 28.5t20 28.5t11 32t7.5 25.5h271q-7 -76 -37 -137t-87.5 -110.5t-154 -76.5 t-225.5 -27q-324 0 -430 197q-21 -31 -26.5 -39.5t-29 -37t-38 -39t-45.5 -30.5t-61.5 -28t-75.5 -15.5t-97 -7.5q-181 0 -288 78t-107 240zM354 299q0 -129 148 -129q129 0 190.5 64t61.5 196q0 12 -1 38t-1 38q-11 -3 -40.5 -13.5t-45.5 -13.5q-34 -9 -81 -17t-76 -13 t-62 -16t-51 -26t-30 -42t-12 -66zM1034 659h467q0 6 1 18.5t1 18.5q0 201 -217 201q-178 0 -226 -112q-16 -37 -26 -126z" />
<glyph unicode="&#xe7;" horiz-adv-x="1161" d="M70 541q0 561 551 561q129 0 224 -32t148.5 -88.5t79 -125.5t25.5 -151h-273q-1 6 -3 19q-3 22 -5.5 33.5t-9 31.5t-15.5 31t-25.5 25.5t-38 21.5t-53.5 12.5t-73 5.5q-75 0 -127 -26.5t-78 -75t-36.5 -102.5t-10.5 -124q0 -64 4.5 -113t20 -102t42.5 -87.5t74.5 -56.5 t112.5 -22q126 0 170.5 49.5t50.5 173.5h281q0 -50 -9.5 -98t-36.5 -102t-69 -97t-113 -76.5t-163 -45.5v-170h-207v165q-214 25 -326 167t-112 399z" />
<glyph unicode="&#xe8;" horiz-adv-x="1181" d="M70 532q0 133 28 234t89 178.5t166 117.5t251 40q99 0 178.5 -20t133 -56t94.5 -85t61.5 -107t34.5 -123t13.5 -131.5t-1.5 -133.5h-766q0 -135 57.5 -197.5t204.5 -62.5q37 0 66 4.5t48.5 9.5t35.5 18.5t23.5 20t15.5 26t10 25t8 27.5h279q-6 -35 -13 -61.5t-23.5 -64.5 t-39 -66.5t-61 -59t-88 -50t-122.5 -32t-161 -12.5q-272 0 -397 138t-125 423zM358 645h467q0 42 -4 73.5t-17 64.5t-35 54t-61 34.5t-92 13.5q-38 0 -69.5 -5t-54.5 -12t-42.5 -21.5t-31.5 -25t-22.5 -32t-15.5 -33.5t-10.5 -37.5t-7 -36t-4.5 -37.5zM360 1524h263 l106 -316h-176z" />
<glyph unicode="&#xe9;" horiz-adv-x="1181" d="M70 532q0 133 28 234t89 178.5t166 117.5t251 40q99 0 178.5 -20t133 -56t94.5 -85t61.5 -107t34.5 -123t13.5 -131.5t-1.5 -133.5h-766q0 -135 57.5 -197.5t204.5 -62.5q37 0 66 4.5t48.5 9.5t35.5 18.5t23.5 20t15.5 26t10 25t8 27.5h279q-6 -35 -13 -61.5t-23.5 -64.5 t-39 -66.5t-61 -59t-88 -50t-122.5 -32t-161 -12.5q-272 0 -397 138t-125 423zM358 645h467q0 42 -4 73.5t-17 64.5t-35 54t-61 34.5t-92 13.5q-38 0 -69.5 -5t-54.5 -12t-42.5 -21.5t-31.5 -25t-22.5 -32t-15.5 -33.5t-10.5 -37.5t-7 -36t-4.5 -37.5zM483 1208l107 316h262 l-193 -316h-176z" />
<glyph unicode="&#xea;" horiz-adv-x="1181" d="M70 532q0 133 28 234t89 178.5t166 117.5t251 40q99 0 178.5 -20t133 -56t94.5 -85t61.5 -107t34.5 -123t13.5 -131.5t-1.5 -133.5h-766q0 -135 57.5 -197.5t204.5 -62.5q37 0 66 4.5t48.5 9.5t35.5 18.5t23.5 20t15.5 26t10 25t8 27.5h279q-6 -35 -13 -61.5t-23.5 -64.5 t-39 -66.5t-61 -59t-88 -50t-122.5 -32t-161 -12.5q-272 0 -397 138t-125 423zM350 1190l133 315h248l133 -315h-135l-121 180l-121 -180h-137zM358 645h467q0 42 -4 73.5t-17 64.5t-35 54t-61 34.5t-92 13.5q-38 0 -69.5 -5t-54.5 -12t-42.5 -21.5t-31.5 -25t-22.5 -32 t-15.5 -33.5t-10.5 -37.5t-7 -36t-4.5 -37.5z" />
<glyph unicode="&#xeb;" horiz-adv-x="1181" d="M70 532q0 133 28 234t89 178.5t166 117.5t251 40q99 0 178.5 -20t133 -56t94.5 -85t61.5 -107t34.5 -123t13.5 -131.5t-1.5 -133.5h-766q0 -135 57.5 -197.5t204.5 -62.5q37 0 66 4.5t48.5 9.5t35.5 18.5t23.5 20t15.5 26t10 25t8 27.5h279q-6 -35 -13 -61.5t-23.5 -64.5 t-39 -66.5t-61 -59t-88 -50t-122.5 -32t-161 -12.5q-272 0 -397 138t-125 423zM303 1208v244h215v-244h-215zM358 645h467q0 42 -4 73.5t-17 64.5t-35 54t-61 34.5t-92 13.5q-38 0 -69.5 -5t-54.5 -12t-42.5 -21.5t-31.5 -25t-22.5 -32t-15.5 -33.5t-10.5 -37.5t-7 -36 t-4.5 -37.5zM682 1208v244h215v-244h-215z" />
<glyph unicode="&#xec;" horiz-adv-x="526" d="M33 1524h262l106 -316h-176zM119 0v1073h284v-1073h-284z" />
<glyph unicode="&#xed;" horiz-adv-x="526" d="M119 0v1073h284v-1073h-284zM135 1208l107 316h262l-193 -316h-176z" />
<glyph unicode="&#xee;" horiz-adv-x="526" d="M6 1190l133 315h248l133 -315h-135l-121 180l-121 -180h-137zM121 0v1073h285v-1073h-285z" />
<glyph unicode="&#xef;" horiz-adv-x="526" d="M-35 1208v244h215v-244h-215zM121 0v1073h285v-1073h-285zM344 1208v244h215v-244h-215z" />
<glyph unicode="&#xf1;" horiz-adv-x="1167" d="M123 0v1073h274v-145q20 66 44 95q66 79 243 79q193 0 286 -78t93 -264v-760h-285v711q0 85 -41.5 126.5t-146.5 41.5q-94 0 -138 -40.5t-44 -146.5v-692h-285zM289 1253q0 89 48.5 139t119.5 50q54 0 135 -32t92 -32t19 3.5t12.5 7t8.5 12t5 12.5t3 15t3 14h166 q0 -6 1 -20.5t1 -20.5q0 -84 -46.5 -138.5t-127.5 -54.5q-55 0 -132.5 36t-100.5 36q-35 0 -35 -45v-25h-170q0 7 -1 21.5t-1 21.5z" />
<glyph unicode="&#xf2;" horiz-adv-x="1216" d="M70 528q0 132 27 232t74.5 164.5t117.5 104.5t148.5 56.5t176.5 16.5q270 0 401.5 -136.5t131.5 -426.5q0 -132 -28 -232.5t-90 -177.5t-169 -117.5t-256 -40.5q-268 0 -401 135t-133 422zM354 541q0 -192 54.5 -274.5t185.5 -82.5q68 0 116.5 16.5t78 45.5t46 78.5 t22 104t5.5 134.5q0 169 -54 246.5t-183 77.5q-101 0 -157.5 -28t-85 -103.5t-28.5 -214.5zM362 1524h263l106 -316h-176z" />
<glyph unicode="&#xf3;" horiz-adv-x="1216" d="M70 528q0 132 27 232t74.5 164.5t117.5 104.5t148.5 56.5t176.5 16.5q270 0 401.5 -136.5t131.5 -426.5q0 -132 -28 -232.5t-90 -177.5t-169 -117.5t-256 -40.5q-268 0 -401 135t-133 422zM354 541q0 -192 54.5 -274.5t185.5 -82.5q68 0 116.5 16.5t78 45.5t46 78.5 t22 104t5.5 134.5q0 169 -54 246.5t-183 77.5q-101 0 -157.5 -28t-85 -103.5t-28.5 -214.5zM483 1208l107 316h262l-193 -316h-176z" />
<glyph unicode="&#xf4;" horiz-adv-x="1216" d="M70 528q0 132 27 232t74.5 164.5t117.5 104.5t148.5 56.5t176.5 16.5q270 0 401.5 -136.5t131.5 -426.5q0 -132 -28 -232.5t-90 -177.5t-169 -117.5t-256 -40.5q-268 0 -401 135t-133 422zM354 541q0 -192 54.5 -274.5t185.5 -82.5q68 0 116.5 16.5t78 45.5t46 78.5 t22 104t5.5 134.5q0 169 -54 246.5t-183 77.5q-101 0 -157.5 -28t-85 -103.5t-28.5 -214.5zM365 1190l133 315h247l134 -315h-136l-120 180l-121 -180h-137z" />
<glyph unicode="&#xf5;" horiz-adv-x="1222" d="M70 528q0 132 27 232t74.5 164.5t117.5 104.5t148.5 56.5t176.5 16.5q270 0 401.5 -136.5t131.5 -426.5q0 -132 -28 -232.5t-90 -177.5t-169 -117.5t-256 -40.5q-268 0 -401 135t-133 422zM326 1253q0 89 48.5 139t119.5 50q54 0 135 -32t92 -32t19 3.5t12.5 7t8.5 12 t5 12.5t3 15t3 14h166q0 -6 1 -20.5t1 -20.5q0 -84 -46.5 -138.5t-127.5 -54.5q-55 0 -133 36t-101 36q-34 0 -34 -45v-25h-170q0 7 -1 21.5t-1 21.5zM354 541q0 -192 54.5 -274.5t185.5 -82.5q68 0 116.5 16.5t78 45.5t46 78.5t22 104t5.5 134.5q0 169 -54 246.5t-183 77.5 q-101 0 -157.5 -28t-85 -103.5t-28.5 -214.5z" />
<glyph unicode="&#xf6;" horiz-adv-x="1216" d="M70 528q0 132 27 232t74.5 164.5t117.5 104.5t148.5 56.5t176.5 16.5q270 0 401.5 -136.5t131.5 -426.5q0 -132 -28 -232.5t-90 -177.5t-169 -117.5t-256 -40.5q-268 0 -401 135t-133 422zM317 1208v244h215v-244h-215zM354 541q0 -192 54.5 -274.5t185.5 -82.5 q68 0 116.5 16.5t78 45.5t46 78.5t22 104t5.5 134.5q0 169 -54 246.5t-183 77.5q-101 0 -157.5 -28t-85 -103.5t-28.5 -214.5zM696 1208v244h215v-244h-215z" />
<glyph unicode="&#xf7;" d="M143 446v220h1035v-220h-1035zM512 39v278h293v-278h-293zM512 793v280h293v-280h-293z" />
<glyph unicode="&#xf8;" horiz-adv-x="1228" d="M72 -25l118 146q-22 31 -30 43t-29 53.5t-31 78t-19 99t-9 133.5q0 288 130 431t414 143q209 0 334 -70l58 70h149l-123 -150q21 -24 37 -50t36 -75t31 -126.5t11 -176.5q0 -125 -29 -223t-91 -173.5t-166.5 -116t-246.5 -40.5q-77 0 -136 7.5t-98.5 22.5t-55.5 23.5 t-41 24.5l-62 -74h-151zM342 504q0 -72 25 -170l430 518q-35 22 -71 32.5t-108 10.5t-124 -23.5t-80.5 -59t-45.5 -90.5t-21.5 -104t-4.5 -114zM432 231q13 -6 37.5 -19t37.5 -17.5t45.5 -9.5t78.5 -5q51 0 91.5 15.5t66.5 38t44.5 61t27.5 69.5t14 79t5.5 75.5t0.5 71.5 q0 57 -19 158z" />
<glyph unicode="&#xf9;" horiz-adv-x="1177" d="M113 285v788h284v-715q0 -163 183 -163q105 0 147.5 42t42.5 136v700h285v-1073h-279v119q-2 -4 -6 -11q-31 -59 -61 -83q-70 -54 -244 -54q-67 0 -122 13t-90.5 33t-62.5 49t-41.5 56.5t-23 60.5t-10.5 55.5t-2 46.5zM324 1524h262l106 -316h-176z" />
<glyph unicode="&#xfa;" horiz-adv-x="1177" d="M113 285v788h284v-715q0 -163 183 -163q105 0 147.5 42t42.5 136v700h285v-1073h-279v119q-2 -4 -6 -11q-31 -59 -61 -83q-70 -54 -244 -54q-67 0 -122 13t-90.5 33t-62.5 49t-41.5 56.5t-23 60.5t-10.5 55.5t-2 46.5zM473 1208l107 316h262l-193 -316h-176z" />
<glyph unicode="&#xfb;" horiz-adv-x="1177" d="M113 285v788h284v-715q0 -163 183 -163q105 0 147.5 42t42.5 136v700h285v-1073h-279v119q-2 -4 -6 -11q-31 -59 -61 -83q-70 -54 -244 -54q-67 0 -122 13t-90.5 33t-62.5 49t-41.5 56.5t-23 60.5t-10.5 55.5t-2 46.5zM322 1190l133 315h247l134 -315h-136l-120 180 l-121 -180h-137z" />
<glyph unicode="&#xfc;" horiz-adv-x="1167" d="M113 285v788h284v-715q0 -163 183 -163q105 0 147.5 42t42.5 136v700h285v-1073h-279v119q-2 -4 -6 -11q-31 -59 -61 -83q-70 -54 -244 -54q-67 0 -122 13t-90.5 33t-62.5 49t-41.5 56.5t-23 60.5t-10.5 55.5t-2 46.5zM293 1208v244h215v-244h-215zM672 1208v244h215 v-244h-215z" />
<glyph unicode="&#xff;" horiz-adv-x="1083" d="M0 1073h299l256 -733l231 733h301l-401 -1040q-58 -148 -96 -219t-82 -109q-70 -59 -199 -59h-209v237h131q74 0 95 13q16 9 43 73l43 105zM244 1208v244h215v-244h-215zM623 1208v244h215v-244h-215z" />
<glyph unicode="&#x152;" horiz-adv-x="2283" d="M92 731q0 198 50 346.5t144.5 240.5t223.5 137.5t293 45.5q92 0 160 -12t102.5 -25.5t97.5 -44.5v51h1063v-239h-768v-338h699v-238h-699v-411h791v-244h-1086v49q-2 -1 -26 -11.5t-30.5 -12.5t-31 -11.5t-38.5 -12.5t-42 -10.5t-52 -10t-57 -6.5t-70 -5.5t-79 -1.5 q-163 0 -289 60t-202.5 166t-115 242t-38.5 296zM387 752q0 -128 20 -223.5t55 -156.5t89.5 -98.5t116.5 -52t143 -14.5q162 0 257 82t95 207v473q0 121 -94 208t-264 87q-208 0 -313 -123.5t-105 -388.5z" />
<glyph unicode="&#x153;" horiz-adv-x="1968" d="M70 539q0 157 40 268.5t115.5 175t171 91.5t219.5 28q77 0 132 -7t101 -25.5t74 -35t78 -51.5q52 31 78 45t77 35t108 30t127 9q518 0 518 -547q0 -18 -2 -51.5t-2 -50.5h-762q6 -105 20 -145q35 -97 165 -115q33 -5 73 -5q36 0 65 4.5t48 8.5t35.5 17t24.5 19.5t17.5 26 t12 25.5t10.5 30h274q-3 -50 -17 -95t-50 -92.5t-90.5 -82t-144 -56.5t-204.5 -22q-151 0 -230.5 31.5t-150.5 93.5q-38 -30 -64.5 -46.5t-75 -37.5t-115 -31t-152.5 -10q-268 0 -396 141.5t-128 426.5zM352 528q0 -60 4.5 -104.5t19.5 -92.5t41 -78t71.5 -49.5t109.5 -19.5 q149 0 206.5 78.5t57.5 290.5q0 132 -27.5 205t-80.5 101t-146 28q-75 0 -126 -23.5t-79 -72.5t-39.5 -111.5t-11.5 -151.5zM1151 649h467q0 40 -5 72t-19 64t-38 53t-64 34t-95 13q-130 0 -188 -64.5t-58 -171.5z" />
<glyph unicode="&#x178;" horiz-adv-x="1236" d="M-20 1470h333l291 -620l324 620h332l-506 -919v-551h-295v547zM322 1624v244h215v-244h-215zM700 1624v244h215v-244h-215z" />
<glyph unicode="&#x2c6;" horiz-adv-x="614" d="M51 1186l133 315h248l133 -315h-135l-121 180l-121 -180h-137z" />
<glyph unicode="&#x2dc;" horiz-adv-x="747" d="M66 1274q0 89 48 138.5t119 49.5q54 0 135.5 -31.5t92.5 -31.5t19 3t12.5 6.5t8.5 12t5 12.5t3 15t3 14h166q0 -6 2 -20.5t2 -20.5q0 -84 -46.5 -138t-127.5 -54q-55 0 -133 35.5t-101 35.5q-34 0 -34 -45v-24h-170q0 7 -2 21.5t-2 21.5z" />
<glyph unicode="&#x2000;" horiz-adv-x="996" />
<glyph unicode="&#x2001;" horiz-adv-x="1993" />
<glyph unicode="&#x2002;" horiz-adv-x="996" />
<glyph unicode="&#x2003;" horiz-adv-x="1993" />
<glyph unicode="&#x2004;" horiz-adv-x="664" />
<glyph unicode="&#x2005;" horiz-adv-x="498" />
<glyph unicode="&#x2006;" horiz-adv-x="332" />
<glyph unicode="&#x2007;" horiz-adv-x="332" />
<glyph unicode="&#x2008;" horiz-adv-x="249" />
<glyph unicode="&#x2009;" horiz-adv-x="398" />
<glyph unicode="&#x200a;" horiz-adv-x="110" />
<glyph unicode="&#x2010;" horiz-adv-x="737" d="M127 446v250h483v-250h-483z" />
<glyph unicode="&#x2011;" horiz-adv-x="737" d="M127 446v250h483v-250h-483z" />
<glyph unicode="&#x2012;" horiz-adv-x="737" d="M127 446v250h483v-250h-483z" />
<glyph unicode="&#x2013;" horiz-adv-x="1024" d="M0 446v250h1024v-250h-1024z" />
<glyph unicode="&#x2014;" horiz-adv-x="1617" d="M109 446v250h1400v-250h-1400z" />
<glyph unicode="&#x2018;" horiz-adv-x="430" d="M80 891v256q0 121 51 194q74 114 217 129v-79q-29 -18 -46 -30t-37 -32t-34 -43q-27 -44 -30 -135h151v-260h-272z" />
<glyph unicode="&#x2019;" horiz-adv-x="430" d="M78 1210v260h274v-256q0 -117 -51 -194q-77 -115 -219 -129v80q30 18 46 29.5t36.5 31.5t34.5 43q17 28 22.5 56t9.5 79h-153z" />
<glyph unicode="&#x201a;" horiz-adv-x="501" d="M104 0v260h273v-256q0 -117 -51 -194q-77 -115 -217 -129v79q85 52 116 105q28 46 31 135h-152z" />
<glyph unicode="&#x201c;" horiz-adv-x="819" d="M78 891v256q0 117 51 194q77 115 219 129v-79q-29 -18 -46 -30t-37 -32t-34 -43q-17 -28 -22.5 -56t-9.5 -79h151v-260h-272zM467 891v256q0 117 51 194q77 115 219 129v-79q-85 -52 -116 -105q-27 -44 -33 -135h153v-260h-274z" />
<glyph unicode="&#x201d;" horiz-adv-x="819" d="M88 1210v260h272v-256h2q0 -117 -51 -194q-77 -115 -219 -129v80q30 18 46 29.5t36.5 31.5t34.5 43q27 44 33 135h-154zM457 1210v260h274v-256q0 -117 -51 -194q-77 -115 -219 -129v80q30 18 46 29.5t36.5 31.5t34.5 43q17 28 22.5 56t9.5 79h-153z" />
<glyph unicode="&#x201e;" horiz-adv-x="860" d="M109 0v260h272v-256h2q0 -117 -51 -194q-77 -115 -219 -129v79q85 52 116 105q27 44 33 135h-153zM477 0v260h275v-256q0 -115 -52 -194q-77 -115 -219 -129v79q29 18 46 30t37 32t34 43q27 44 33 135h-154z" />
<glyph unicode="&#x2022;" horiz-adv-x="1085" d="M172 748q3 152 113.5 258t263.5 106q156 0 261 -110.5t105 -268.5q0 -76 -30 -145.5t-79.5 -119t-118 -77.5t-142.5 -26q-158 6 -267 117.5t-106 265.5z" />
<glyph unicode="&#x2026;" horiz-adv-x="1576" d="M104 0v289h293v-289h-293zM637 0v289h293v-289h-293zM1165 0v289h293v-289h-293z" />
<glyph unicode="&#x202f;" horiz-adv-x="398" />
<glyph unicode="&#x2039;" horiz-adv-x="604" d="M55 526l283 426h213l-279 -426l263 -413h-220z" />
<glyph unicode="&#x203a;" horiz-adv-x="604" d="M53 952h213l285 -426l-260 -413h-221l264 413z" />
<glyph unicode="&#x205f;" horiz-adv-x="498" />
<glyph unicode="&#x20ac;" d="M41 537v172h145v106h-145v172h160q36 254 166 379t381 125q109 0 195.5 -23t146.5 -62.5t104 -98.5t69 -124.5t40 -146.5h-291q-25 118 -86.5 174t-173.5 56q-218 0 -265 -279h244v-172h-258v-106h258v-172h-250q16 -160 78 -247t191 -87q44 0 77 6t68 26.5t59 56t43 97 t27 146.5h291q-9 -103 -29 -182t-61 -151.5t-102.5 -119.5t-157 -74.5t-220.5 -27.5q-137 0 -237.5 38t-164 112.5t-99 173.5t-49.5 233h-154z" />
<glyph unicode="&#x2122;" horiz-adv-x="1290" d="M111 1352v118h430v-118h-152v-523h-125v523h-153zM604 829v641h207l90 -456l78 456h201v-639h-117v484l-96 -484h-138l-104 502v-504h-121z" />
<glyph unicode="&#xe000;" horiz-adv-x="1075" d="M0 0v1075h1075v-1075h-1075z" />
<glyph unicode="&#xfb01;" horiz-adv-x="1073" d="M12 889v184h142v150q0 134 82 200q72 58 231 58h149v-217h-79q-70 0 -84 -19q-15 -21 -15 -57v-115h178v-184h-178v-889h-284v889h-142zM692 0v1073h285v-1073h-285zM692 1212v269h285v-269h-285z" />
<glyph unicode="&#xfb02;" horiz-adv-x="1073" d="M12 889v184h142v150q0 134 82 200q72 58 231 58h149v-217h-79q-70 0 -84 -19q-15 -21 -15 -57v-115h178v-184h-178v-889h-284v889h-142zM692 0v1481h285v-1481h-285z" />
</font>
</defs>
</svg>
