<?xml version="1.0" standalone="no"?>
<!DOCTYPE svg PUBLIC "-//W3C//DTD SVG 1.1//EN" "http://www.w3.org/Graphics/SVG/1.1/DTD/svg11.dtd" >
<svg xmlns="http://www.w3.org/2000/svg">
<metadata></metadata>
<defs>
<font id="ftv_heldustry-regularitalicIt" horiz-adv-x="1249" >
<font-face units-per-em="2048" ascent="1536" descent="-512" />
<missing-glyph horiz-adv-x="450" />
<glyph horiz-adv-x="2048" />
<glyph horiz-adv-x="2048" />
<glyph horiz-adv-x="682" />
<glyph unicode="&#xd;" horiz-adv-x="450" />
<glyph unicode=" "  horiz-adv-x="450" />
<glyph unicode="&#x09;" horiz-adv-x="450" />
<glyph unicode="&#xa0;" horiz-adv-x="450" />
<glyph unicode="!" horiz-adv-x="514" d="M27 0l39 195h194l-39 -195h-194zM143 340l74 600l105 530h194l-104 -532l-168 -598h-101z" />
<glyph unicode="&#x22;" horiz-adv-x="614" d="M78 1044l45 426h178l-123 -426h-100zM350 1044l45 426h178l-122 -426h-101z" />
<glyph unicode="#" horiz-adv-x="1167" d="M10 500l47 141h224l77 236h-221l47 141h222l137 414h151l-137 -414h236l137 414h143l-137 -414h231l-47 -141h-231l-78 -236h229l-47 -141h-229l-168 -500h-143l165 500h-233l-168 -500h-151l167 500h-223zM432 641h234l79 236h-235z" />
<glyph unicode="$" d="M35 286q-8 91 14 206h160q-12 -58 -13.5 -103.5t11.5 -92.5t44 -79t90 -54.5t144 -27.5l107 539q-63 13 -104 23.5t-87 25t-73 29.5t-54.5 36.5t-40.5 48t-21 61t-6 78t13 97.5q13 67 37 121.5t53 93t69 67.5t79.5 46.5t91.5 30t96.5 18.5t102.5 10l20 105h117l-21 -105 q59 -4 102.5 -10t90 -20t78 -35t58.5 -55t38.5 -79.5t11.5 -109t-16 -143.5h-158q11 116 2 160q-18 94 -123 125q-47 14 -112 18l-99 -496q99 -16 167.5 -33.5t121 -41.5t82.5 -53t45 -71t14.5 -92t-14.5 -118q-80 -407 -580 -420l-34 -176h-117l35 176q-148 7 -240.5 44 t-133 101t-48.5 155zM378.5 1020q-1.5 -26 5 -47t13.5 -36t26 -28t34.5 -21.5t47 -17.5t54.5 -15t66 -15l94 471q-285 0 -332 -232q-7 -33 -8.5 -59zM602 135q42 3 70 5.5t68 10.5t67.5 19.5t59.5 32t54 48.5t41 69.5t29 93.5q6 39 4.5 68t-14.5 51.5t-30 38t-43 27.5 t-53.5 19.5t-60.5 14t-65 12.5q-5 1 -8 1.5t-7.5 1t-8.5 1.5z" />
<glyph unicode="%" horiz-adv-x="1693" d="M72 1010q10 50 18 82.5t25.5 85t37 87.5t52 76t71.5 65.5t95 41t123 16.5q176 0 234.5 -107.5t12.5 -340.5q-45 -232 -139 -341.5t-283 -109.5q-181 0 -236 110t-11 335zM217.5 777.5q25.5 -83.5 130.5 -83.5q96 0 148.5 71.5t85.5 235.5q36 173 10 252.5t-129 79.5 q-98 0 -150.5 -75t-83.5 -236q-37 -161 -11.5 -244.5zM397 -43l750 1534h158l-750 -1534h-158zM946 414q9 48 17.5 82.5t25.5 85.5t36.5 87t52 76t72 65t95.5 41.5t123 16.5q176 0 235 -107.5t13 -340.5q-45 -232 -138.5 -341.5t-281.5 -109.5q-183 0 -238.5 110t-11.5 335z M1093.5 181.5q24.5 -83.5 129.5 -83.5q96 0 149 72t86 236q36 173 10 252t-129 79q-99 0 -150.5 -74.5t-82.5 -236.5q-37 -161 -12.5 -244.5z" />
<glyph unicode="&#x26;" horiz-adv-x="1294" d="M57.5 222.5q-3.5 56.5 8.5 129.5q11 58 30 106t48 88.5t57 71t73 64t79 56t91.5 59.5t94.5 63l-95 187q-37 73 -18 174q26 126 131.5 203t253.5 77q64 0 116.5 -14.5t95 -45.5t59 -88t1.5 -134q-12 -62 -37.5 -112.5t-70 -97.5t-93.5 -86t-126 -92l217 -372q37 70 67 219 h158q-32 -122 -60.5 -197.5t-82.5 -161.5l182 -319h-203l-86 158q-78 -71 -118 -97q-138 -90 -369 -90q-68 0 -124.5 8t-107 26t-85.5 47.5t-59 71.5t-27.5 98.5zM241.5 299.5q-0.5 -34.5 11 -61t26 -46.5t37.5 -34t45 -22.5t49 -13.5t50 -7t48 -2q72 0 135.5 19t107 49 t71 57t46.5 55l-264 450q-45 -24 -71 -39.5t-70.5 -44t-73 -55t-60 -62t-52 -77.5t-29.5 -88q-6 -43 -6.5 -77.5zM584 1219q-10 -58 26 -125l82 -148q117 86 168.5 140.5t65.5 125.5q14 78 -27 115t-111 37q-77 0 -134.5 -41.5t-69.5 -103.5z" />
<glyph unicode="'" horiz-adv-x="409" d="M119 1036l20 97q55 31 77 60.5t38 84.5h-86l37 195h190l-33 -166q-22 -112 -83 -176t-160 -95z" />
<glyph unicode="(" horiz-adv-x="747" d="M73 282.5q4 79.5 13.5 143.5t24.5 141l73 365q39 195 99 335t138.5 224t170 123.5t203.5 42.5l-31 -152q-71 -9 -124.5 -37.5t-103.5 -91t-89.5 -173t-71.5 -273.5l-72 -367q-43 -209 -37 -339t52 -190.5t141 -74.5l-31 -145q-88 2 -153.5 29t-105 69t-63 104 t-30.5 124.5t-3 142z" />
<glyph unicode=")" horiz-adv-x="747" d="M-16 -186l28 145q100 14 171.5 74.5t127.5 190t97 339.5l71 367q32 164 36 273.5t-20.5 172.5t-66 91.5t-109.5 37.5l31 152q88 -2 153.5 -27t113 -79t69.5 -137t19.5 -204t-33.5 -278l-72 -365q-15 -77 -31 -141t-43 -143.5t-59 -142t-80 -124.5t-104.5 -104t-133 -69 t-165.5 -29z" />
<glyph unicode="*" horiz-adv-x="747" d="M123 1071l194 98l-153 107l69 86l156 -98l41 206h102l-40 -206l196 98l37 -86l-195 -107l154 -98l-70 -86l-159 96l-41 -204h-103l41 204l-192 -96z" />
<glyph unicode="+" d="M70 465l36 180h449l84 428h176l-84 -428h449l-37 -180h-449l-92 -465h-176l92 465h-448z" />
<glyph unicode="," horiz-adv-x="348" d="M-117 -293l23 115q57 39 82 75.5t37 102.5h-84l43 209h206l-36 -182q-24 -117 -98 -203t-173 -117z" />
<glyph unicode="-" horiz-adv-x="757" d="M96 465l37 180h535l-37 -180h-535z" />
<glyph unicode="." horiz-adv-x="348" d="M-61 0l41 209h206l-41 -209h-206z" />
<glyph unicode="/" horiz-adv-x="757" d="M-76 -43l750 1534h160l-752 -1534h-158z" />
<glyph unicode="0" d="M35 725q40 204 94 343t135.5 236.5t194.5 142t268 44.5q140 0 232 -40t145 -128.5t56 -231t-34 -346.5q-26 -131 -56.5 -233t-72.5 -190t-95 -150t-121.5 -106t-154 -65t-190.5 -21q-294 0 -385 179.5t-16 565.5zM180.5 404.5q2.5 -136.5 73.5 -205t223 -68.5 q195 0 303 147t170 463q67 311 12.5 454.5t-260.5 143.5q-96 0 -167.5 -26t-120 -70.5t-86 -123.5t-61 -163t-48.5 -211q-41 -204 -38.5 -340.5z" />
<glyph unicode="1" horiz-adv-x="757" d="M51 1092l21 112q183 0 296 59.5t171 204.5h141l-291 -1468h-188l217 1092h-367z" />
<glyph unicode="2" horiz-adv-x="1167" d="M-102 0q20 103 65 188.5t104.5 145.5t131.5 110.5t148 91t152 79t146.5 81.5t127.5 92.5t99 118.5t58 152q28 144 -26 212t-210 68q-49 0 -90.5 -6t-73.5 -15t-59 -27t-46 -35t-35.5 -45t-27.5 -51.5t-22 -61.5t-17.5 -67t-15.5 -75h-178q2 9 4 26.5t4 25.5 q17 84 41.5 150t70.5 130.5t109 107.5t159 69t218 26q238 0 331 -110t46 -353q-20 -100 -63.5 -177.5t-98 -127.5t-137.5 -101.5t-162 -90t-193 -102.5t-210 -130q-64 -45 -109 -137h776l-30 -162h-987z" />
<glyph unicode="3" d="M1.5 300q-3.5 55 1 96t13.5 91h185q-11 -53 -13 -97t11.5 -94.5t45.5 -84.5t98.5 -57t162.5 -23q129 0 212 37t124 100.5t61 163.5q37 190 -101 248q-78 32 -263 33h-42h-1h-4l26 141q76 0 114 1.5t98 7.5t92 21.5t70 41t59.5 68.5t33.5 102q25 121 -35.5 182t-212.5 61 q-48 0 -90 -7t-74 -17t-60 -28t-47 -34.5t-36.5 -42t-27.5 -44t-21 -48.5t-16.5 -47.5t-13.5 -46.5q-3 -12 -5 -18h-174q10 46 20 82t32 89.5t49.5 93.5t73.5 83.5t102 71.5t137 46.5t178 18.5q246 0 346 -89.5t57 -305.5q-27 -137 -101 -210.5t-173 -94.5q27 -8 46.5 -15.5 t46.5 -22.5t45.5 -33t37 -46.5t26.5 -63t8 -83.5t-11 -107q-42 -217 -187.5 -328.5t-410.5 -111.5q-110 0 -195.5 18t-139 47t-88.5 72.5t-50.5 85.5t-19 97z" />
<glyph unicode="4" horiz-adv-x="1269" d="M0 344l31 158l925 966h138l-195 -981h234l-29 -143h-234l-67 -344h-174l67 344h-696zM193 487h532l135 687z" />
<glyph unicode="5" d="M-0.5 346q1.5 44 10.5 90h176q-5 -32 -2 -67t7.5 -68.5t25 -64.5t51 -54t85 -37t126.5 -14q191 0 283.5 85.5t132.5 291.5q71 350 -256 350q-67 0 -125 -13.5t-109.5 -43t-76 -47t-70.5 -54.5h-166l314 768h788l-33 -163h-653l-164 -385q95 46 169 68t167 22 q80 0 144.5 -14t107.5 -35.5t74.5 -55.5t49 -66t26.5 -74.5t11 -74t-2 -72.5t-7 -60.5t-9 -47.5q-37 -188 -110 -302t-202 -171t-329 -57q-85 0 -154 14.5t-116 39.5t-81 61t-52 75.5t-25.5 85.5t-6 90z" />
<glyph unicode="6" d="M33 686q38 193 88.5 331t113 230t147 146t181 76t225.5 22q122 0 204.5 -24t120 -64.5t57.5 -93.5t15.5 -110t-4.5 -115q-1 -6 -1 -9h-181q7 95 -6 138q-41 126 -264 126q-387 0 -496 -559q36 43 72 74.5t88 61.5t123 45.5t158 15.5q256 0 358 -123.5t51 -380.5 q-47 -244 -202 -368.5t-414 -124.5q-313 0 -410 170.5t-24 535.5zM199 455q-32 -161 50 -237.5t255 -76.5q187 0 278 81t127 263q11 57 12 102t-7 78.5t-27 58t-45 40t-64 25t-80 13t-98 3.5q-332 0 -401 -350z" />
<glyph unicode="7" horiz-adv-x="1064" d="M20 0q59 178 138 350t182 343.5t237 330t285 283.5h-766l33 161h979l-29 -143q-141 -105 -273 -252.5t-227 -293.5t-173.5 -299.5t-124 -271.5t-68.5 -208h-193z" />
<glyph unicode="8" d="M14 440q14 71 42 129t58.5 95t76 69t80.5 49.5t85 38.5q-19 6 -32.5 11.5t-34 17.5t-34.5 26t-27.5 37.5t-20 51t-6 68t9.5 87.5q73 371 569 371q85 0 151 -12t119 -38.5t82 -68.5t40 -103.5t-7 -142.5q-14 -70 -38.5 -121.5t-65 -87t-62.5 -49.5t-71 -39q-3 -2 -5 -3 l-5 -2.5l-5 -2.5q36 -8 67 -24t62 -45.5t47.5 -71t23 -100.5t-10.5 -134q-17 -86 -48.5 -155.5t-71 -117.5t-91.5 -83.5t-103.5 -56t-115.5 -33t-119 -16.5t-121 -4q-506 0 -418 460zM194.5 275.5q16.5 -58.5 61.5 -89t100.5 -43t128.5 -12.5q202 0 302.5 72t134.5 241 q9 58 5.5 102.5t-23.5 77.5t-47 55.5t-64.5 36t-76 19.5t-81.5 6q-378 0 -440 -323q-17 -84 -0.5 -142.5zM385 1116q-24 -122 45.5 -174.5t196.5 -52.5q158 0 246 58t116 200q11 58 -2.5 97t-51.5 60.5t-88.5 30t-121.5 8.5q-144 0 -229.5 -52t-110.5 -175z" />
<glyph unicode="9" d="M4 395h178q-3 -29 -3.5 -40.5t-0.5 -39.5t3.5 -41t11.5 -36.5t21 -35.5t34 -28t49.5 -23.5t68.5 -13.5t89 -6q398 0 520 594q-75 -116 -181 -166.5t-286 -50.5q-504 0 -404 506q47 239 202.5 358t410.5 119q306 0 403.5 -171t26.5 -534q-29 -145 -65.5 -260t-78 -199 t-93.5 -145.5t-105 -100t-119 -61.5t-130.5 -31.5t-143.5 -8.5q-137 0 -221.5 22.5t-129 75.5t-56 126.5t-1.5 190.5zM264 861.5q6 -55.5 24 -92.5t56 -59.5t86 -32t113 -9.5q363 0 430 333q18 74 10.5 136t-38 107t-101.5 70t-180 25q-172 0 -262.5 -85t-125.5 -261 q-18 -76 -12 -131.5z" />
<glyph unicode=":" horiz-adv-x="409" d="M0 0l41 209h207l-41 -209h-207zM172 864l41 209h207l-41 -209h-207z" />
<glyph unicode=";" horiz-adv-x="409" d="M-57 -293l22 115q56 39 81 75t38 103h-84l41 209h207l-35 -182q-23 -117 -96.5 -203t-173.5 -117zM172 864l41 209h207l-41 -209h-207z" />
<glyph unicode="&#x3c;" d="M102 455v145l1045 430v-160l-852 -342l852 -335v-166z" />
<glyph unicode="=" d="M27 246l32 160h1074l-33 -160h-1073zM115 690l32 160h1074l-33 -160h-1073z" />
<glyph unicode="&#x3e;" d="M102 27v166l852 335l-852 342v160l1045 -430v-145z" />
<glyph unicode="?" horiz-adv-x="993" d="M70 1008q12 58 25.5 105.5t36.5 100t52.5 93t73.5 78t98.5 62.5t128.5 39.5t162 14.5q71 0 128 -13t94.5 -34.5t64 -53t40 -65t18.5 -73.5t3 -76.5t-10 -75.5q-16 -80 -42.5 -140t-69 -104.5t-67 -63.5t-76.5 -53q-14 -9 -21 -14q-93 -60 -140.5 -103t-86 -112.5 t-66.5 -179.5h-156q16 80 44.5 149t57.5 114t75 90.5t76 69t81 60.5q12 9 40.5 28.5t38.5 27t31.5 25t31 29.5t24.5 32.5t23.5 41.5t17.5 50t16 63q23 117 -32.5 181.5t-180.5 64.5q-55 0 -101 -10.5t-78 -25.5t-59 -41.5t-43.5 -48.5t-32.5 -58t-23 -58.5t-18.5 -61 t-17.5 -54.5h-161zM172 0l39 195h195l-39 -195h-195z" />
<glyph unicode="@" horiz-adv-x="1449" d="M29 332q157 796 850 796q159 0 275.5 -48t172.5 -134q45 -68 47 -176.5t-28 -247.5l-54 -276l-6 -23q-5 -23 -5.5 -41.5t16.5 -30.5t53 -12q14 0 22 2l-26 -137q-66 -14 -107 -14q-83 0 -120.5 32.5t-31.5 106.5q-123 -88 -209 -122t-184 -34q-153 0 -224 85.5t-40 238.5 q29 145 124.5 227t268.5 113q55 9 133 17t95 10q50 9 80.5 27t37.5 57q20 99 -71.5 165t-255.5 66q-249 0 -404 -157t-215 -464q-63 -316 24.5 -463t354.5 -147q113 0 248 37l-29 -154q-107 -32 -266 -32q-345 0 -473 176.5t-53 556.5zM649 317q-19 -90 13.5 -139t119.5 -49 q114 0 208.5 63.5t115.5 165.5l47 238q-81 -60 -147 -72q-13 -2 -70.5 -11.5t-93.5 -16.5q-86 -15 -132 -58t-61 -121z" />
<glyph unicode="A" horiz-adv-x="1310" d="M-82 0l813 1470h203l260 -1470h-209l-72 444h-563l-237 -444h-195zM438 604h451l-101 660z" />
<glyph unicode="B" horiz-adv-x="1376" d="M10 0l291 1470h700q26 0 42 -0.5t50 -4t56.5 -9.5t54.5 -19t52.5 -31.5t41.5 -47.5q22 -30 30 -66q9 -39 8 -92q0 -50 -11 -108q-26 -130 -100.5 -206.5t-165.5 -101.5q100 -42 136 -72q72 -60 72 -181q0 -18 -2 -36q-3 -37 -12 -81q-13 -67 -36.5 -123t-50.5 -96 t-63.5 -72t-68.5 -52t-74 -34.5t-71 -21.5t-68 -10.5t-57.5 -4t-46.5 -0.5h-707zM236 166h550q31 0 60 5t63.5 21t62 42.5t51.5 72.5t36 107q9 45 9 82q0 82 -43 124q-62 62 -214 62h-473zM369 842h397q83 0 128.5 9.5t104.5 41.5q63 35 93 79.5t43 110.5q7 35 8 65v17 q1 19 -1 35q-2 22 -12.5 38.5t-20.5 27.5t-29.5 18.5t-34 11.5t-40.5 6t-43.5 2.5t-48.5 0.5h-452z" />
<glyph unicode="C" horiz-adv-x="1423" d="M54 484q2 100 24 218q30 152 70 266.5t107 218.5t158 170.5t224 105t303 38.5q99 0 178 -18t129.5 -44.5t88 -67.5t55.5 -76.5t29 -82.5t12.5 -74.5t1.5 -64v-39.5h-177q-5 48 -12 81.5t-22 72t-40 64t-62.5 47.5t-94 33t-129.5 11q-146 0 -251 -38t-177 -121 t-117.5 -197t-79.5 -282q-22 -110 -22 -198.5t16 -148t49.5 -103.5t71 -68.5t90 -39t96.5 -18.5t99 -4q111 0 192.5 28t137 86t90.5 126.5t67 169.5h180q-68 -300 -246.5 -434t-457.5 -134q-50 0 -79.5 1t-90 7.5t-100 18.5t-94.5 37.5t-89.5 61t-69 92.5t-47.5 128 q-12 64 -12 150q1 11 1 21z" />
<glyph unicode="D" horiz-adv-x="1417" d="M10 0l291 1470h617q94 0 168 -15.5t134 -49.5t98 -91t58 -137q16 -65 16 -150v-40q-4 -110 -32 -248q-13 -64 -24.5 -112.5t-32 -112.5t-44 -113t-59.5 -105t-78.5 -96.5t-101.5 -80t-128 -64.5t-159 -40t-194 -15h-529zM238 166h370q114 0 200 27t157.5 91t122 174.5 t83.5 272.5q17 87 25 157q5 50 5 99q0 19 -1 39q-3 67 -22.5 116t-54.5 87t-92.5 57t-135.5 19h-432z" />
<glyph unicode="E" horiz-adv-x="1282" d="M10 0l291 1470h1071l-33 -165h-876l-86 -441h807l-33 -166h-807l-106 -532h901l-33 -166h-1096z" />
<glyph unicode="F" horiz-adv-x="1204" d="M10 0l291 1470h1016l-33 -165h-821l-90 -457h688l-31 -160h-688l-137 -688h-195z" />
<glyph unicode="G" horiz-adv-x="1486" d="M111 780q70 354 282 537.5t565 183.5q118 0 209 -25t143.5 -63t87 -89t47.5 -96.5t17 -92.5q2 -30 2 -50q0 -12 -1 -20q-2 -23 -5 -35h-201q6 32 6 63.5t-8.5 68.5t-33.5 68t-65 57t-107.5 41t-155.5 15q-256 0 -399 -148.5t-199 -434.5q-27 -137 -27 -244 q0 -148 52 -237q90 -154 350 -154q190 0 336 115q42 34 75 74t51.5 72.5t34 77t21.5 69t14 65.5h-422l31 164h619l-150 -762h-133l-19 160q-90 -74 -124 -96q-150 -97 -377 -97q-352 0 -475 201q-73 121 -73 318q0 130 32 294z" />
<glyph unicode="H" horiz-adv-x="1417" d="M10 0l291 1470h195l-121 -608h780l121 608h194l-290 -1470h-195l139 702h-780l-139 -702h-195z" />
<glyph unicode="I" horiz-adv-x="481" d="M31 0l291 1470h192l-291 -1470h-192z" />
<glyph unicode="J" horiz-adv-x="1038" d="M-40 280q3 59 17 130q7 33 15 61h186l-16 -84q-11 -57 -13 -99v-16q0 -32 7 -56q8 -28 22 -46.5t40.5 -28t55 -13t70.5 -3.5q72 0 122 6t86.5 25.5t57 37t37.5 62t25 77.5t22 105l203 1032h195l-207 -1044q-15 -75 -26 -119t-38 -100t-65 -94q-53 -52 -101.5 -81 t-129 -47t-195.5 -18q-51 0 -91.5 3t-81.5 11.5t-71 23.5t-57 38t-42 57t-23 78q-6 30 -6 68q0 16 2 34z" />
<glyph unicode="K" horiz-adv-x="1314" d="M10 0l291 1470h193l-142 -712l867 712h243l-741 -608l485 -862h-239l-404 733l-254 -196l-106 -537h-193z" />
<glyph unicode="L" horiz-adv-x="1095" d="M10 0l291 1470h195l-258 -1304h774l-33 -166h-969z" />
<glyph unicode="M" horiz-adv-x="1710" d="M10 0l291 1470h260l227 -1222l715 1222h260l-290 -1470h-189l246 1237l-717 -1237h-145l-224 1237l-245 -1237h-189z" />
<glyph unicode="N" horiz-adv-x="1417" d="M10 0l291 1470h205l536 -1214l240 1214h188l-290 -1470h-215l-531 1194l-235 -1194h-189z" />
<glyph unicode="O" horiz-adv-x="1589" d="M104 735q27 135 71 246.5t115.5 210t167 165.5t229 105.5t296.5 38.5q186 0 312 -52.5t188.5 -151.5t76.5 -241q4 -38 4 -79q0 -111 -28 -242q-77 -388 -290 -578t-587 -190q-357 -1 -493 199q-88 129 -88 329q0 110 26 240zM293 717q-22 -111 -22 -202q1 -151 63 -243 q100 -147 383 -147q265 0 416.5 153.5t212.5 464.5q24 120 24 216q0 149 -59 238q-97 146 -365 146q-146 0 -256 -39.5t-188 -120.5t-128 -194.5t-81 -271.5z" />
<glyph unicode="P" horiz-adv-x="1269" d="M10 0l291 1470h547q58 0 88.5 -0.5t86 -4.5t86 -11t75 -21.5t68 -35.5t50 -53.5t35.5 -74.5q10 -44 10 -103q0 -56 -14 -124q-5 -25 -11.5 -49.5t-24.5 -70t-41.5 -83.5t-64 -81.5t-90 -73.5t-121.5 -50t-157 -20h-499l-121 -614h-193zM356 780h459q84 0 144.5 19.5 t98 58.5t58 85t33.5 110q8 41 8 75t-5 58.5t-21 44t-29.5 31.5t-41 21t-46 13t-55 6t-56 2.5t-60.5 0.5h-12h-370z" />
<glyph unicode="Q" horiz-adv-x="1589" d="M104 735q27 135 71 246.5t115.5 210t167 165.5t229 105.5t296.5 38.5q186 0 312 -52.5t188.5 -151.5t76.5 -241q4 -38 4 -79q0 -111 -28 -242q-85 -416 -311 -596l141 -133l-125 -129l-176 166q-164 -76 -406 -76q-358 0 -493 199q-88 130 -88 329q0 110 26 240zM293 717 q-22 -111 -22 -202q0 -151 63 -243q100 -147 383 -147q136 0 223 35l-131 123l125 129l170 -158q86 66 147.5 192.5t94.5 296.5q24 120 24 216q0 149 -59 238q-97 146 -365 146q-146 0 -256 -39.5t-188 -120.5t-128 -194.5t-81 -271.5z" />
<glyph unicode="R" horiz-adv-x="1372" d="M10 0l291 1470h727q29 0 46.5 -0.5t52.5 -2.5t58 -8t56.5 -15t55 -24.5t47 -36.5t38.5 -51q14 -30 24 -68q9 -33 9 -75q-1 -6 -1 -13q-2 -50 -13 -109q-14 -70 -39.5 -127t-54.5 -94t-68 -67t-70 -46.5t-71 -32.5q33 -17 56 -38t35.5 -49t19 -52t6 -62.5t-2.5 -63.5 t-7 -72.5t-7 -73.5q-2 -21 -5 -57.5t-4 -50.5t-3 -40t-1 -37t1.5 -29t3.5 -28.5t7 -23t11 -23.5h-217q-5 16 -5 55q0 62 13 181q17 148 17 214q0 21 -2 33q-6 37 -22.5 63t-36.5 39.5t-51 21.5t-56 9.5t-62 1.5h-460l-123 -618h-193zM358 784h455h13q41 0 63 0.5t63.5 6 t67.5 15.5t60.5 30.5t57 49.5t44 75t32.5 104q8 39 8 71q0 6 1 13q0 24 -2 43q-2 24 -16.5 42t-25.5 30t-40 20t-48 12t-62 6t-69 2.5t-82 0.5h-6h-411z" />
<glyph unicode="S" horiz-adv-x="1351" d="M20 346v23q0 59 11 123h190q-7 -36 -7 -71v-20q2 -45 10.5 -86t37 -75.5t70.5 -60t112.5 -40t163.5 -14.5q60 0 112 7.5t90.5 18.5t70.5 29.5t53 35t39 42t27 42.5t17.5 43.5t11.5 39t7 35.5q7 37 8.5 65t-8.5 51.5t-19.5 39t-39.5 30t-50.5 23t-71.5 19.5t-84 16.5 l-105 17.5q-74 12 -126.5 22.5t-105.5 25.5t-87.5 32t-66 40.5t-48 52.5t-26.5 67q-8 32 -8 70v15q2 47 13 105q78 391 616 391q83 0 150.5 -9.5t116.5 -24.5t86 -40t60.5 -50t38 -61t20.5 -66t6 -71.5t-2.5 -72t-8.5 -72.5h-186q8 50 10 96v12q0 39 -16 73 q-18 39 -51.5 67.5t-99 44.5t-158.5 16q-176 0 -276 -55t-124 -180q-6 -28 -8 -50t2 -42t9.5 -34.5t21.5 -29t32 -24.5t46.5 -20.5t59 -18t75 -17t90 -16.5t108.5 -18q173 -28 239 -54q127 -49 157 -160q10 -39 10 -87q0 -57 -14 -127q-6 -34 -12.5 -58.5t-27.5 -74 t-48.5 -86.5t-79 -81.5t-116.5 -73.5t-163.5 -49t-216.5 -20q-122 0 -215 17.5t-152.5 50.5t-98.5 79.5t-54 105t-17 126.5z" />
<glyph unicode="T" horiz-adv-x="1126" d="M123 1311l31 159h1151l-31 -159h-479l-260 -1311h-193l260 1311h-479z" />
<glyph unicode="U" horiz-adv-x="1320" d="M12 281v25q0 44 4 82q6 48 19 114l190 968h195l-195 -981q-7 -33 -10.5 -53.5t-6.5 -54t-0.5 -55.5t10 -51.5t22.5 -49t40 -40t60 -32.5t84.5 -20t110.5 -8q73 0 132 9.5t101.5 25.5t76 42.5t55 54.5t38.5 68t27 76.5t20 87.5l195 981h194l-184 -933q-14 -74 -24 -115.5 t-35 -110.5t-54.5 -109.5t-83.5 -91t-121.5 -77.5t-168 -46.5t-224.5 -19.5q-106 0 -186.5 16.5t-132 43t-84.5 69t-47.5 84.5t-16.5 101z" />
<glyph unicode="V" horiz-adv-x="1191" d="M133 1470h193l180 -1263l665 1263h191l-799 -1470h-201z" />
<glyph unicode="W" horiz-adv-x="1808" d="M133 1470h199l57 -1191l561 1191h211l84 -1191l537 1191h196l-706 -1470h-166l-96 1239l-588 -1239h-180z" />
<glyph unicode="X" horiz-adv-x="1169" d="M-123 0l639 723l-348 747h217l266 -598l523 598h212l-655 -747l356 -723h-204l-287 590l-510 -590h-209z" />
<glyph unicode="Y" horiz-adv-x="1177" d="M102 1470h215l299 -694l572 694h211l-717 -852l-123 -618h-194l122 618z" />
<glyph unicode="Z" horiz-adv-x="1208" d="M-102 0l32 168l1114 1137h-851l32 165h1082l-31 -161l-1133 -1143h944l-32 -166h-1157z" />
<glyph unicode="[" horiz-adv-x="542" d="M-70 0l293 1481h389l-24 -127h-213l-242 -1221h213l-27 -133h-389z" />
<glyph unicode="\" horiz-adv-x="716" d="M205 1491h157l144 -1534h-160z" />
<glyph unicode="]" horiz-adv-x="542" d="M-70 0l27 133h213l242 1221h-213l24 127h389l-293 -1481h-389z" />
<glyph unicode="^" horiz-adv-x="696" d="M31 1022l307 448h121l114 -448h-120l-78 342l-223 -342h-121z" />
<glyph unicode="_" horiz-adv-x="1054" d="M-27 -279l27 136h1079l-26 -136h-1080z" />
<glyph unicode="`" horiz-adv-x="512" d="M109 1522h200l82 -295h-131z" />
<glyph unicode="a" horiz-adv-x="1071" d="M-6 293q14 69 37.5 114.5t70.5 85.5t128 68t199.5 51.5t295.5 46.5q64 8 88 132q6 32 6 57q0 56 -32 78q-47 32 -187 32q-86 0 -140 -11t-87 -39t-49 -65.5t-29 -101.5h-170q12 62 22 97t45 93t86 89.5t147.5 56.5t227.5 25q220 0 295 -78q50 -52 49 -154q0 -52 -12 -116 l-104 -529q-5 -24 -5 -41q0 -27 12 -36q19 -15 77 -15l-27 -133q-13 0 -37.5 -1t-36.5 -1q-100 0 -133.5 28t-36.5 107q-36 -39 -63 -61.5t-74.5 -49t-114 -39t-155.5 -12.5q-193 1 -259 79q-44 53 -45 144q0 45 11 99zM172 274q-5 -24 -5 -43q-1 -53 35 -80q48 -36 150 -36 q331 0 391 307l25 127q-118 -37 -250 -53q-89 -11 -150 -27.5t-96 -33t-56 -45t-28.5 -51t-15.5 -65.5z" />
<glyph unicode="b" horiz-adv-x="1134" d="M10 0l293 1481h176l-112 -572q20 30 28 41t29.5 37.5t37.5 38t45.5 29.5t60 26t74.5 14.5t95 6.5q241 0 321 -128q46 -75 47 -205q0 -93 -24 -214q-26 -134 -68 -236t-93.5 -167.5t-117.5 -106.5t-136 -57.5t-154 -16.5q-66 0 -117 11t-82.5 27.5t-55 43t-35 49.5 t-21.5 54l-31 -156h-160zM279 520q-16 -82 -16 -147q0 -95 34 -155q58 -102 238 -103q161 0 241.5 103.5t126.5 340.5q23 114 23 195q0 14 -1 28q-5 88 -62 132t-179 44q-62 0 -115.5 -18t-91.5 -46t-70 -68.5t-52 -78.5t-37 -84t-24.5 -77.5t-14.5 -65.5z" />
<glyph unicode="c" horiz-adv-x="1101" d="M29 351.5q0 81.5 20 180.5q59 295 218.5 432.5t416.5 137.5q76 0 137 -12.5t101 -34t69.5 -50t43 -61.5t21.5 -69q7 -29 7 -57v-14q-2 -34 -4 -67h-174q1 30 -1.5 52.5t-9.5 50.5t-23 47t-41 36.5t-66 26t-95 8.5q-180 0 -277.5 -101t-142.5 -329q-19 -95 -19 -167 q0 -90 30 -146q54 -100 241 -100q55 0 99.5 9t75 20t56.5 34.5t39.5 40t28.5 50t20.5 49.5t16.5 53h174q-9 -49 -27.5 -96.5t-59.5 -104.5t-98 -99.5t-150.5 -71t-209.5 -28.5q-56 0 -103.5 6t-97 22.5t-87 42.5t-68.5 70t-46 101t-15 138.5z" />
<glyph unicode="d" horiz-adv-x="1130" d="M30 382q2 80 21 173q18 88 45 162.5t57 127.5t69.5 95t73 68.5t77.5 45.5t74 28t70.5 14t59.5 5.5t48 0.5q125 0 203 -50t96 -132l112 561h176l-294 -1481h-177l27 135q-41 -54 -80 -86.5t-109.5 -55t-168.5 -22.5q-29 0 -47 0.5t-57 6t-66 15t-64 30t-61 48.5t-47 73 q-23 46 -32 102q-7 44 -7 102q0 17 1 34zM216 310q8 -98 67.5 -146.5t181.5 -48.5q62 0 115 18t89.5 44.5t67 66.5t48 74.5t32 78.5t20.5 68t11 53q9 45 14 74q4 28 8 80q1 21 2 39q0 26 -3 46q-5 34 -21 75.5t-45.5 66t-80 42t-118.5 17.5q-156 0 -239 -89t-127 -312 q-24 -119 -24 -206q0 -21 2 -41z" />
<glyph unicode="e" horiz-adv-x="1103" d="M47 510q63 319 218.5 455.5t424.5 136.5h1q31 0 50.5 -0.5t59 -5.5t66 -14t63.5 -28t60 -45t46 -68q22 -43 30 -95q7 -42 8 -98q0 -14 -1 -28q-2 -74 -20 -161l-19 -82h-807q-8 -40 -12 -70q-5 -34 -4 -74q1 -37 7 -65q8 -30 25.5 -60t47.5 -49t79 -31.5t113 -12.5 q102 0 169 24t103.5 67t63.5 116h166q-15 -55 -37 -101.5t-64.5 -94.5t-99 -80.5t-144 -53.5t-196.5 -21q-415 0 -415 368q0 77 18 171zM256 621h623q16 70 16 128q-1 5 -1 10q-2 62 -23 106.5t-77.5 68.5t-148.5 24q-76 0 -136 -19.5t-98.5 -48.5t-70 -76.5t-49 -90 t-35.5 -102.5z" />
<glyph unicode="f" horiz-adv-x="552" d="M37 0l180 913h-147l32 160h148l26 141q9 48 21 84t35.5 72t57 59t87 37.5t123.5 14.5q36 0 102 -4l-28 -148q-8 0 -26.5 1t-26.5 1q-42 0 -71 -6.5t-45.5 -15t-27.5 -27.5t-15 -33t-9 -43l-27 -133h197l-33 -160h-197l-180 -913h-176z" />
<glyph unicode="g" horiz-adv-x="1179" d="M8 -88h174q-3 -18 -3 -33q0 -21 6 -38q11 -29 30 -44t60.5 -22.5t72.5 -9t86 -1.5q69 0 115.5 6t85 27t62 47.5t45.5 81t36.5 113.5t34.5 158q-54 -104 -140.5 -150.5t-228.5 -46.5q-58 0 -101 4t-93 17.5t-83.5 37.5t-63.5 67t-43 102q-10 49 -10 117v29q3 86 24 195 q106 533 590 533q75 0 130 -17t86.5 -47.5t47.5 -59.5t26 -67l33 162h176l-194 -987q-12 -59 -19 -89.5t-22.5 -83t-34.5 -81t-49 -68t-71 -60.5t-95.5 -43t-128.5 -31t-164 -9q-231 0 -319 73q-66 54 -66 149q0 32 8 69zM231 412q-1 -17 -1 -34q0 -40 6 -78 q10 -53 38 -85.5t80.5 -52t130.5 -19.5q32 0 55.5 1.5t60.5 10t65.5 23t63 43.5t60.5 68.5t50.5 100.5t40.5 138q5 28 8 43.5t7 52.5q4 34 4 57v6q-1 25 -5 63t-15 64t-30.5 55.5t-48 47t-71 29.5t-95.5 12q-82 0 -146 -27t-102.5 -65.5t-68 -99t-42.5 -107t-26 -110.5 q-15 -79 -19 -137z" />
<glyph unicode="h" horiz-adv-x="1091" d="M10 0l293 1481h176l-114 -586q17 26 26 38.5t30 38.5t39.5 40.5t49.5 34t63.5 30t78.5 18t98 7.5t95 -6t73.5 -19t54.5 -28t38 -37t24 -42q11 -22 13 -50q3 -35 3 -55q-1 -21 -5 -49q-4 -32 -7.5 -53.5t-9.5 -52.5q-1 -2 -1 -3l-139 -707h-176l137 694q15 73 15 125 q0 13 -1 25q-5 58 -49.5 86t-140.5 28q-141 0 -237 -86.5t-128 -246.5l-123 -625h-176z" />
<glyph unicode="i" horiz-adv-x="415" d="M6 0l213 1073h176l-213 -1073h-176zM258 1268l41 213h176l-41 -213h-176z" />
<glyph unicode="j" horiz-adv-x="430" d="M-231 -379l28 141q119 3 145 12q30 11 43 51q6 17 15 64l233 1184h177l-242 -1227q-13 -66 -26 -95t-50 -66q-31 -31 -72 -46t-66 -16.5t-75 -1.5h-110zM272 1268l43 213h177l-43 -213h-177z" />
<glyph unicode="k" horiz-adv-x="976" d="M10 0l293 1481h176l-174 -881l553 473h219l-487 -393l350 -680h-213l-268 575l-189 -151l-84 -424h-176z" />
<glyph unicode="l" horiz-adv-x="391" d="M0 0l293 1481h176l-293 -1481h-176z" />
<glyph unicode="m" horiz-adv-x="1617" d="M0 0l213 1073h164l-33 -166q20 31 39.5 55.5t51 52t67.5 45.5t88 30t112 12q65 0 111.5 -14.5t70 -34.5t36 -50.5t14 -53.5t0.5 -54q87 207 364 207q83 0 139 -16.5t87 -45.5q32 -28 44 -78q9 -38 8 -80v-26q-4 -56 -20 -135l-143 -721h-176l139 698q17 78 17 130 q0 46 -13 73q-28 57 -141 57q-116 0 -198.5 -68t-106.5 -192l-139 -698h-177l146 731q14 72 14 113q0 15 -2 25q-15 89 -145 89q-113 0 -205 -82.5t-117 -207.5l-133 -668h-176z" />
<glyph unicode="n" horiz-adv-x="1085" d="M0 0l213 1073h176l-33 -166q19 31 37 53.5t51 51t71 46.5t96.5 31t127.5 13q73 0 128 -13t88.5 -32.5t53.5 -52t28 -60.5q7 -25 7 -63v-9q-1 -43 -5.5 -70.5t-12.5 -70.5l-145 -731h-176l135 682q11 56 15 92q2 17 2 33q-1 19 -3 40q-4 38 -23 59t-57.5 34.5t-97.5 13.5 q-313 0 -377 -331l-123 -623h-176z" />
<glyph unicode="o" horiz-adv-x="1134" d="M30 298q-2 23 -2 47q0 87 23 192q57 289 213 427t432 138q111 0 190.5 -26.5t127.5 -74t70 -119.5q21 -69 21 -150v-8q-1 -86 -22 -192q-20 -98 -48 -176t-77 -152.5t-115.5 -123.5t-165.5 -79t-224 -30q-141 0 -234 38.5t-137 110.5t-52 178zM212 366q2 -75 24 -130.5 t80.5 -88t150.5 -32.5q105 0 178 23.5t123 76.5t79.5 126t51.5 183q21 104 21 182q0 92 -29 148q-53 104 -242 104q-84 0 -150 -23.5t-109.5 -61t-76.5 -95.5t-51 -116.5t-33 -135.5q-18 -76 -18 -143q1 -9 1 -17z" />
<glyph unicode="p" horiz-adv-x="1128" d="M-70 -377l287 1450h170l-31 -155q102 184 375 184q246 0 323 -140q45 -79 45 -209q0 -99 -26 -227q-32 -160 -81.5 -268t-121.5 -171t-160.5 -89.5t-209.5 -26.5q-80 0 -135 12.5t-85.5 38t-45.5 52.5t-25 67l-103 -520zM264 410q-1 -15 -1 -30q0 -48 8 -91 q11 -57 40.5 -94t82 -58.5t128.5 -21.5q58 0 107 13t83.5 33t62.5 53t45.5 63t32 73.5t22 74.5t16.5 75q28 136 28 229q0 77 -19 123q-43 104 -208 104q-173 0 -272 -102.5t-137 -298.5q-16 -81 -19 -145z" />
<glyph unicode="q" horiz-adv-x="1150" d="M53 520q18 91 45 168.5t57 133t68 100.5t73 73.5t77.5 49.5t75.5 31.5t73.5 17t65 7.5t55.5 1q46 0 84.5 -6t64.5 -13.5t49 -24.5t35 -27.5t26 -34.5t18.5 -34t15.5 -36l29 147h161l-286 -1452h-176l102 524q-22 -36 -46 -62t-65 -54t-105 -43t-147 -15q-238 0 -323 127 q-51 75 -51 209q0 93 24 213zM212 378q-2 -19 -2 -37q0 -37 6 -71q9 -52 33.5 -84.5t71 -51.5t115.5 -19q80 0 145.5 24.5t109.5 64t78 97.5t53.5 117.5t33.5 130.5q18 87 18 155q0 254 -243 254q-182 0 -267.5 -101t-132.5 -345q-15 -77 -19 -134z" />
<glyph unicode="r" horiz-adv-x="763" d="M0 0l213 1073h172l-41 -209q23 50 51.5 89t54.5 63.5t60 42t57.5 25.5t58 12.5t50.5 5t45 0.5q47 0 96 -6l-33 -166h-79q-24 0 -38.5 -0.5t-45.5 -3.5t-52.5 -8.5t-53.5 -17t-55.5 -27.5t-51 -42t-47.5 -58t-37.5 -77.5t-28.5 -99.5l-119 -596h-176z" />
<glyph unicode="s" horiz-adv-x="1003" d="M2 340h170q-1 -20 -1 -37q1 -37 5 -63q6 -38 30.5 -68.5t75.5 -43.5t134 -13h45.5t43.5 1.5t45.5 4.5t41.5 9t40.5 15t34 22.5t31 31.5t22.5 42t17 54q4 21 4 38q1 51 -35 71q-48 28 -255 71q-53 11 -90 20.5t-75 22t-62.5 26t-47 31.5t-34 39t-19 48.5t-6 61.5t9.5 75 q12 61 37.5 109t56 79.5t73.5 54t80 34t87.5 17.5t83 7.5t78.5 1.5q205 0 285 -83q65 -67 65 -195q0 -30 -4 -64h-176q0 3 1 10q1 32 2.5 60t-8.5 51.5t-31 40.5t-64.5 26.5t-108.5 9.5q-60 0 -103.5 -6t-82 -21t-62.5 -45t-33 -75q-7 -36 2.5 -63t23 -43t53.5 -31t65 -21.5 t86 -19.5q30 -7 45 -10q67 -14 112 -26t88 -27.5t68 -33t45.5 -41t27 -54t6.5 -69.5t-10 -89t-30 -92.5t-43.5 -72.5t-57.5 -54t-64 -39t-71.5 -26t-70.5 -16.5t-71 -8t-63.5 -3t-56.5 -0.5q-65 0 -112.5 4.5t-110.5 25t-100 57.5q-36 38 -56 110q-12 42 -12 92q0 38 6 80z " />
<glyph unicode="t" horiz-adv-x="600" d="M61 928l29 145h154l63 324h176l-63 -324h203l-29 -145h-203l-133 -668q-11 -51 -11 -78q0 -18 5 -26q12 -19 88 -19q22 0 72 4l-29 -141q-67 -6 -135 -6q-45 0 -78.5 8t-54.5 19.5t-32.5 33t-16 40t-2.5 49t5.5 51t10.5 55.5l135 678h-154z" />
<glyph unicode="u" horiz-adv-x="1093" d="M40 201.5q0 39.5 3.5 68t11.5 64.5l148 739h176l-133 -667q-10 -52 -14.5 -84t-5.5 -69.5t8.5 -59.5t28.5 -41.5t53 -28t83 -8.5q83 0 147.5 22t102.5 53t65.5 78t39 83.5t20.5 82.5l127 639h176l-213 -1073h-166l33 164q-26 -42 -51 -70.5t-68.5 -59.5t-108.5 -47 t-151 -16q-73 0 -128.5 13.5t-89.5 34t-55.5 52t-30 61.5t-8.5 69.5z" />
<glyph unicode="v" horiz-adv-x="972" d="M72 1073h190l115 -876l457 876h184l-588 -1073h-188z" />
<glyph unicode="w" horiz-adv-x="1501" d="M72 1073h184l76 -858l387 858h182l47 -848l414 848h184l-561 -1073h-170l-51 844l-383 -844h-182z" />
<glyph unicode="x" horiz-adv-x="999" d="M-154 0l531 575l-273 498h218l174 -385l321 385h211l-457 -498l328 -575h-217l-233 451l-396 -451h-207z" />
<glyph unicode="y" horiz-adv-x="999" d="M-113 -377l29 148q143 1 165 5q54 7 88 48q17 21 40 61l92 158l-244 1030h193l176 -837l457 837h190l-706 -1223q-38 -66 -72 -109t-62 -67t-66.5 -36t-68.5 -14.5t-84 -2.5q-84 0 -127 2z" />
<glyph unicode="z" horiz-adv-x="888" d="M-119 0l27 131l799 803h-605l29 139h823l-18 -94l-821 -834h690l-29 -145h-895z" />
<glyph unicode="{" horiz-adv-x="1939" d="M63 737l732 733h227l-655 -655h1519v-158h-1517l657 -657h-227z" />
<glyph unicode="|" horiz-adv-x="409" d="M-68 -309l355 1790h176l-354 -1790h-177z" />
<glyph unicode="}" horiz-adv-x="1939" d="M63 657v158h1520l-655 655h227l731 -733l-735 -737h-227l657 657h-1518z" />
<glyph unicode="~" horiz-adv-x="1085" d="M88 414q79 272 256 272q45 1 93 -21t88 -53t78 -62.5t77.5 -53.5t71.5 -23q23 0 42.5 9t32 22t23.5 33.5t16.5 35.5t12.5 36.5t10 29.5h98q-18 -61 -37 -103.5t-48 -84t-71 -63t-96 -21.5q-52 -1 -101.5 20.5t-88 52.5t-74.5 62t-75.5 52.5t-78.5 20.5q-23 0 -41.5 -11.5 t-34 -38t-23 -43.5t-20.5 -55q-3 -9 -5 -13h-105z" />
<glyph unicode="&#xa1;" horiz-adv-x="514" d="M27 -410l108 551l168 590h92l-67 -598l-107 -543h-194zM283 879l36 194h195l-37 -194h-194z" />
<glyph unicode="&#xa2;" d="M21 572q1 83 22 186q20 103 52.5 185.5t75 140t90 99.5t105 68t111.5 41t119 23l25 125h116l-24 -125q87 -6 150 -28.5t99.5 -54t57 -79t26.5 -94.5t5 -109h-177q0 109 -39.5 161t-150.5 58l-166 -839q68 3 117 20.5t82 52t54 78t38 107.5h168q-32 -170 -154.5 -278 t-333.5 -122l-36 -188h-117l37 188q-63 7 -114 22.5t-97 43.5t-76 72t-48 103.5t-17 142.5zM201 600.5q-3 -66.5 8 -110.5t28.5 -74t46.5 -46.5t55 -24.5t62 -13l166 837q-135 -6 -219.5 -106.5t-126.5 -310.5q-17 -85 -20 -151.5z" />
<glyph unicode="&#xa3;" d="M0 96q60 36 110.5 59t77.5 32t80 24q2 3 14.5 23.5t15 25.5t12 22.5t13 26.5t10 25.5t10.5 31.5t7 33q11 50 9 100t-8.5 84.5t-20.5 78.5h-207l29 135h127q-38 171 -13 297q36 180 168 270t330 90q82 0 144.5 -15t101.5 -35.5t63.5 -58.5t35.5 -68t12.5 -80.5t-0.5 -79 t-8 -80.5q-1 -6 -1 -9h-158q10 103 3 143q-20 113 -163 133q-35 5 -75 5q-116 0 -192 -58.5t-99 -171.5q-6 -28 -6.5 -59t2 -57t9 -57.5t12.5 -54.5t16 -54h448l-28 -135h-379q19 -160 0 -263q-3 -18 -8 -36.5t-9 -30.5t-12 -30t-11.5 -25l-13.5 -27t-12 -25 q57 0 119.5 -24.5t115.5 -49t87 -24.5q36 0 67 12t53.5 27.5t43 44.5t32 50t25 57.5t18.5 52.5t14 50q3 13 5 19h158q-38 -191 -158 -325.5t-268 -134.5q-58 0 -185 47t-198 47q-49 0 -93 -8t-91.5 -28.5t-65 -29.5t-68.5 -37z" />
<glyph unicode="&#xa4;" d="M0 539l29 135h143l10 51q12 65 27 123h-143l28 135h154q85 265 230.5 386.5t395.5 121.5q224 0 331.5 -107t103.5 -348h-176q0 157 -67 230t-216 73q-92 0 -161.5 -22.5t-119.5 -69.5t-84 -110t-61 -154h362l-28 -135h-371l-20 -103q-10 -40 -15 -71h369l-29 -135h-358 q-23 -210 42 -309t249 -99q160 0 260.5 100t163.5 308h176q-41 -143 -95 -244.5t-130.5 -173.5t-179.5 -106.5t-236 -34.5q-256 0 -358 136t-72 423h-154z" />
<glyph unicode="&#xa5;" d="M197 313l26 136h273l36 174h-274l27 135h196l-272 719h215l238 -695l509 695h211l-553 -719h189l-27 -135h-264l-37 -174h266l-26 -136h-266l-60 -307h-194l59 307h-272z" />
<glyph unicode="&#xa6;" d="M555 -182v512h139v-512h-139zM555 842v512h139v-512h-139z" />
<glyph unicode="&#xa7;" horiz-adv-x="1024" d="M-23 47h175q-1 -8 -2 -24q-3 -29 -4 -43.5t1 -39t9 -36.5t21.5 -28t38 -23.5t59 -13t83.5 -5.5q108 0 162 36t72 128q18 88 -53 141l-363 271q-130 95 -102 245q19 95 94 185.5t164 120.5q-25 20 -37.5 31.5t-29 33.5t-21.5 43.5t-5.5 55.5t7.5 77q30 150 141 224.5 t287 74.5q117 0 190 -23t104 -66.5t36.5 -106.5t-13.5 -144h-164q8 41 10 67t-5.5 54.5t-27.5 44t-60 25.5t-101 10q-204 0 -233 -141q-22 -115 127 -217l276 -191q154 -106 123 -264q-20 -102 -96 -184.5t-160 -116.5q18 -18 26 -27t23 -28t21 -36.5t12.5 -42.5t4.5 -55.5 t-9 -66.5q-14 -73 -46.5 -127.5t-73.5 -87t-97.5 -52t-111 -26t-122.5 -6.5q-216 0 -291 85t-39 269zM240 664q-6 -30 4.5 -61t31.5 -46l248 -184q33 -25 60 -25q47 0 110.5 59t73.5 119q9 46 -7.5 78t-72.5 76l-164 133q-49 39 -94 39q-54 0 -117 -68t-73 -120z" />
<glyph unicode="&#xa8;" horiz-adv-x="706" d="M80 1272l41 205h176l-41 -205h-176zM410 1272l41 205h172l-41 -205h-172z" />
<glyph unicode="&#xa9;" horiz-adv-x="1638" d="M49 735q0 211 105 387t282 275.5t385 99.5q207 0 383 -99.5t280.5 -275.5t104.5 -387q0 -162 -61.5 -305.5t-165.5 -245t-245 -160.5t-296 -59q-156 0 -297.5 59t-246 160.5t-166.5 245t-62 305.5zM188 735q0 -185 83 -335.5t228 -236t322 -85.5q175 0 319 85.5 t227 236.5t83 335q0 180 -83 329t-227.5 234.5t-318.5 85.5q-176 0 -321.5 -85.5t-228.5 -234.5t-83 -329zM420 715q0 91 10.5 160t39 131t75.5 102t122.5 63t178.5 23q237 0 319 -163q33 -65 33 -130h-119q-13 42 -27 70t-40 56t-69.5 42t-104.5 14q-160 0 -220.5 -86.5 t-60.5 -281.5q0 -86 18.5 -149t46 -97.5t69 -54.5t77 -25.5t80.5 -5.5q63 0 107 17t69 51.5t37 75t18 98.5h123q-3 -186 -96 -268.5t-262 -82.5q-39 0 -64 1t-74 9.5t-82.5 24t-75 48.5t-67 78t-43.5 117t-18 163z" />
<glyph unicode="&#xaa;" horiz-adv-x="798" d="M49 977q14 66 54.5 104t131 64t261.5 47q39 4 55 78q10 55 -14.5 70.5t-110.5 15.5q-95 0 -128.5 -22.5t-47.5 -92.5h-119q39 213 330 213q139 0 187.5 -47t25.5 -160l-60 -299q-6 -30 7 -41.5t45 -11.5l-17 -92h-47q-64 0 -91 17.5t-30 62.5q-28 -31 -51 -48.5 t-72.5 -33t-117.5 -15.5q-123 0 -166.5 46.5t-24.5 144.5zM176 965q-9 -47 17 -64.5t88 -17.5q106 0 157.5 33t69.5 124l14 74q-93 -26 -143 -31q-116 -13 -154 -37.5t-49 -80.5z" />
<glyph unicode="&#xab;" horiz-adv-x="909" d="M66 518l372 430h162l-369 -430l179 -412h-162zM393 524l367 424h166l-365 -430l187 -412h-173z" />
<glyph unicode="&#xac;" horiz-adv-x="1607" d="M127 627l23 110h1421l-117 -585h-100l94 475h-1321z" />
<glyph unicode="&#xad;" horiz-adv-x="757" d="M96 465l37 180h535l-37 -180h-535z" />
<glyph unicode="&#xae;" horiz-adv-x="1126" d="M70 1016q2 132 68 243.5t178.5 176.5t244.5 65q97 0 186.5 -37.5t155.5 -101t106.5 -151.5t43.5 -185q4 -135 -62 -253.5t-182 -189.5t-250 -71q-132 0 -246 69t-179.5 185.5t-63.5 249.5zM162 1012q-1 -108 51.5 -202.5t144.5 -151.5t199 -58q110 -1 206 57.5 t150.5 157.5t49.5 209q-6 160 -121 271.5t-275 113.5q-81 1 -155.5 -30.5t-129 -85t-87 -127t-33.5 -154.5zM393 758v528h201q18 0 35 -1.5t46 -11t50.5 -25t37.5 -48t17 -76.5q1 -59 -22 -92.5t-68 -54.5l96 -219h-108l-82 209h-107v-209h-96zM487 1055h101q24 0 38 2 t29.5 8.5t23 22t7.5 40.5q0 32 -26 49t-64 17h-109v-139z" />
<glyph unicode="&#xaf;" horiz-adv-x="819" d="M92 1296l29 154h614l-28 -154h-615z" />
<glyph unicode="&#xb0;" horiz-adv-x="860" d="M92 1116q28 140 146.5 239t257.5 99t219.5 -100t52.5 -240t-146 -239t-257 -99q-140 0 -220.5 100.5t-52.5 239.5zM225 1112q-17 -84 32 -144.5t134 -60.5q84 0 156.5 61t89.5 146t-30.5 146t-131.5 61q-86 0 -159.5 -61.5t-90.5 -147.5z" />
<glyph unicode="&#xb1;" d="M-90 -283l35 181h1073l-35 -181h-1073zM57 465l35 180h449l86 428h176l-86 -428h448l-35 -180h-448l-92 -465h-176l92 465h-449z" />
<glyph unicode="&#xb4;" horiz-adv-x="491" d="M57 1223l160 295h201l-230 -295h-131z" />
<glyph unicode="&#xb6;" horiz-adv-x="860" d="M72 977q22 112 104 226t203 175q102 51 217.5 71.5t263.5 20.5h160l-12 -61h-148l-356 -1800h-60l357 1800h-117l-356 -1800h-70l180 909q-123 1 -216 61.5t-134 166t-16 231.5z" />
<glyph unicode="&#xb7;" horiz-adv-x="512" d="M98 670l52 252h256l-52 -252h-256z" />
<glyph unicode="&#xb8;" horiz-adv-x="409" d="M21 -333.5q1 10.5 4 24.5l8 30h84q-1 -17 0 -28t11.5 -21t31.5 -10q33 0 56 22t32 64q5 27 1 42.5t-22.5 22t-35 8t-54.5 1.5l41 205h94l-24 -121q20 -2 34 -6t31.5 -13.5t24.5 -25.5t12.5 -43t-4.5 -64q-34 -180 -196 -180q-42 0 -70 10t-39.5 22t-16 31t-3.5 29.5z" />
<glyph unicode="&#xba;" horiz-adv-x="798" d="M86 1120q34 170 131 252t270 82q169 0 225 -87.5t23 -250.5q-12 -62 -30.5 -110t-49 -90.5t-72.5 -70t-102.5 -43.5t-136.5 -16q-175 0 -234 81.5t-24 252.5zM209 1114q-22 -112 6.5 -171.5t136.5 -59.5q126 0 178 50t78 179q26 135 -2.5 189.5t-146.5 54.5 q-62 0 -107 -17.5t-73 -53t-43.5 -75t-26.5 -96.5z" />
<glyph unicode="&#xbb;" horiz-adv-x="909" d="M14 106l348 412l-194 430h166l198 -424l-346 -418h-172zM352 106l340 412l-198 430h161l203 -430l-344 -412h-162z" />
<glyph unicode="&#xbf;" horiz-adv-x="993" d="M70.5 -163q0.5 61 13.5 140q18 93 57.5 159t76 98t123.5 93q17 13 26 19q42 30 72.5 53t56 47t42 40.5t31.5 41.5t23 40.5t18 47t15 52t16 63.5h156q-11 -58 -27 -107.5t-31 -86t-41 -72.5t-44 -58t-54 -53t-56 -46.5t-65 -49.5q-10 -8 -41 -30t-40 -29t-33 -27 t-32.5 -31.5t-25 -34t-25 -43.5t-18 -50.5t-16.5 -63.5q-24 -116 33 -177t180 -61q64 0 116 13t88.5 39t63.5 56.5t46 75t31 85t23 94.5h168q-10 -53 -21 -94t-32.5 -96t-48.5 -95.5t-70.5 -83t-97 -69.5t-130 -44.5t-167.5 -17.5q-65 0 -116.5 8t-97.5 26t-75.5 48.5 t-50 75t-20 105.5zM653 879l37 194h195l-37 -194h-195z" />
<glyph unicode="&#xc0;" horiz-adv-x="1310" d="M-82 0l813 1470h203l260 -1470h-209l-72 444h-563l-237 -444h-195zM438 604h451l-101 660zM745 1919h201l41 -295h-131z" />
<glyph unicode="&#xc1;" horiz-adv-x="1310" d="M-82 0l813 1470h203l260 -1470h-209l-72 444h-563l-237 -444h-195zM438 604h451l-101 660zM680 1624l160 295h200l-229 -295h-131z" />
<glyph unicode="&#xc2;" horiz-adv-x="1310" d="M-82 0l813 1470h203l260 -1470h-209l-72 444h-563l-237 -444h-195zM438 604h451l-101 660zM588 1624l205 305h198l96 -305h-118l-95 199l-157 -199h-129z" />
<glyph unicode="&#xc3;" horiz-adv-x="1310" d="M-82 0l813 1470h203l260 -1470h-209l-72 444h-563l-237 -444h-195zM438 604h451l-101 660zM555 1634q10 53 31.5 93.5t43 61t46.5 33.5t40 16t25 3q39 0 81 -20.5t77 -41t55 -20.5q16 0 27 11.5t15.5 24.5t9.5 36h137l-10 -49q-14 -68 -64 -113t-113 -45q-49 0 -120 38 t-97 38q-30 0 -41 -66h-143z" />
<glyph unicode="&#xc4;" horiz-adv-x="1310" d="M-82 0l813 1470h203l260 -1470h-209l-72 444h-563l-237 -444h-195zM438 604h451l-101 660zM604 1624l41 205h176l-41 -205h-176zM934 1624l41 205h172l-41 -205h-172z" />
<glyph unicode="&#xc5;" horiz-adv-x="1310" d="M-82 0l813 1470h203l260 -1470h-209l-72 444h-563l-237 -444h-195zM438 604h451l-101 660zM641 1753q0 93 67 152t164 59q98 0 165 -59t67 -152t-67 -152t-165 -59q-97 0 -164 59t-67 152zM733 1753q0 -57 39 -88t100 -31t100.5 31.5t39.5 87.5t-39.5 87.5t-100.5 31.5 t-100 -31t-39 -88z" />
<glyph unicode="&#xc6;" horiz-adv-x="2258" d="M-82 0l1278 1470h1153l-33 -165h-886l-89 -445h816l-31 -160h-815l-107 -534h905l-32 -166h-1100l98 492h-510l-430 -492h-217zM694 649h412l125 637z" />
<glyph unicode="&#xc7;" horiz-adv-x="1415" d="M70 702q30 152 70 266.5t107 218.5t158 170.5t224 105t303 38.5q99 0 178 -18t129.5 -44.5t87.5 -67.5t55.5 -76.5t29 -82.5t12 -74.5t1.5 -64v-39.5h-176q-5 48 -12 81.5t-22 72t-40 64t-62.5 47.5t-94 33t-129.5 11q-146 0 -251 -38t-177 -121t-117.5 -197t-79.5 -282 q-19 -99 -22 -181t10.5 -140.5t37 -102.5t59 -72.5t73.5 -45.5t84 -26q82 -15 174 -12q86 2 154 22.5t116 54t86.5 87t64 111t50.5 135.5h180q-34 -150 -96.5 -259.5t-151.5 -176t-195.5 -98.5t-238.5 -34l-47 -235h-176l47 241q-537 59 -403 729z" />
<glyph unicode="&#xc8;" horiz-adv-x="1282" d="M10 0l291 1470h1071l-33 -165h-876l-86 -441h807l-33 -166h-807l-106 -532h901l-33 -166h-1096zM721 1919h201l82 -295h-132z" />
<glyph unicode="&#xc9;" horiz-adv-x="1282" d="M10 0l291 1470h1071l-33 -165h-876l-86 -441h807l-33 -166h-807l-106 -532h901l-33 -166h-1096zM770 1624l160 295h200l-229 -295h-131z" />
<glyph unicode="&#xca;" horiz-adv-x="1282" d="M10 0l291 1470h1071l-33 -165h-876l-86 -441h807l-33 -166h-807l-106 -532h901l-33 -166h-1096zM629 1624l205 305h198l96 -305h-118l-95 199l-157 -199h-129z" />
<glyph unicode="&#xcb;" horiz-adv-x="1282" d="M10 0l291 1470h1071l-33 -165h-876l-86 -441h807l-33 -166h-807l-106 -532h901l-33 -166h-1096zM639 1624l41 205h176l-41 -205h-176zM969 1624l41 205h172l-41 -205h-172z" />
<glyph unicode="&#xcc;" horiz-adv-x="448" d="M10 0l291 1470h193l-291 -1470h-193zM211 1919h201l82 -295h-132z" />
<glyph unicode="&#xcd;" horiz-adv-x="448" d="M10 0l291 1470h193l-291 -1470h-193zM276 1624l160 295h201l-229 -295h-132z" />
<glyph unicode="&#xce;" horiz-adv-x="448" d="M10 0l291 1470h193l-291 -1470h-193zM168 1624l205 305h198l97 -305h-119l-94 199l-158 -199h-129z" />
<glyph unicode="&#xcf;" horiz-adv-x="448" d="M10 0l291 1470h193l-291 -1470h-193zM170 1624l41 205h176l-41 -205h-176zM500 1624l41 205h172l-41 -205h-172z" />
<glyph unicode="&#xd1;" horiz-adv-x="1409" d="M0 0l291 1470h205l536 -1214l240 1214h188l-291 -1470h-215l-530 1194l-236 -1194h-188zM635 1634q10 53 31.5 93.5t43 61t46.5 33.5t40 16t25 3q39 0 81 -20.5t77 -41t55 -20.5q16 0 27 11.5t15 24t9 36.5h138l-11 -49q-14 -68 -63.5 -113t-112.5 -45q-49 0 -120 38 t-97 38q-30 0 -41 -66h-143z" />
<glyph unicode="&#xd2;" horiz-adv-x="1589" d="M104 735q27 135 71 246.5t115.5 210t167 165.5t229 105.5t296.5 38.5q186 0 312 -52.5t188.5 -151.5t76.5 -241t-24 -321q-77 -388 -290 -578t-587 -190q-358 0 -493.5 199.5t-61.5 568.5zM293 717q-60 -298 40.5 -445t383.5 -147q265 0 416.5 153.5t212.5 464.5 q62 308 -35 454t-365 146q-146 0 -256 -39.5t-188 -120.5t-128 -194.5t-81 -271.5zM838 1919h200l82 -295h-131z" />
<glyph unicode="&#xd3;" horiz-adv-x="1589" d="M104 735q27 135 71 246.5t115.5 210t167 165.5t229 105.5t296.5 38.5q186 0 312 -52.5t188.5 -151.5t76.5 -241t-24 -321q-77 -388 -290 -578t-587 -190q-358 0 -493.5 199.5t-61.5 568.5zM293 717q-60 -298 40.5 -445t383.5 -147q265 0 416.5 153.5t212.5 464.5 q62 308 -35 454t-365 146q-146 0 -256 -39.5t-188 -120.5t-128 -194.5t-81 -271.5zM862 1624l160 295h201l-230 -295h-131z" />
<glyph unicode="&#xd4;" horiz-adv-x="1589" d="M104 735q27 135 71 246.5t115.5 210t167 165.5t229 105.5t296.5 38.5q186 0 312 -52.5t188.5 -151.5t76.5 -241t-24 -321q-77 -388 -290 -578t-587 -190q-358 0 -493.5 199.5t-61.5 568.5zM293 717q-60 -298 40.5 -445t383.5 -147q265 0 416.5 153.5t212.5 464.5 q62 308 -35 454t-365 146q-146 0 -256 -39.5t-188 -120.5t-128 -194.5t-81 -271.5zM766 1624l205 305h198l97 -305h-119l-94 199l-158 -199h-129z" />
<glyph unicode="&#xd5;" horiz-adv-x="1589" d="M104 735q27 135 71 246.5t115.5 210t167 165.5t229 105.5t296.5 38.5q186 0 312 -52.5t188.5 -151.5t76.5 -241t-24 -321q-77 -388 -290 -578t-587 -190q-358 0 -493.5 199.5t-61.5 568.5zM293 717q-60 -298 40.5 -445t383.5 -147q265 0 416.5 153.5t212.5 464.5 q62 308 -35 454t-365 146q-146 0 -256 -39.5t-188 -120.5t-128 -194.5t-81 -271.5zM723 1634q10 53 31.5 93.5t43 61t46.5 33.5t40 16t25 3q39 0 81 -20.5t77 -41t55 -20.5q16 0 27 11.5t15.5 24.5t9.5 36h137l-11 -49q-14 -68 -63.5 -113t-112.5 -45q-49 0 -120 38t-97 38 q-30 0 -41 -66h-143z" />
<glyph unicode="&#xd6;" horiz-adv-x="1589" d="M104 735q27 135 71 246.5t115.5 210t167 165.5t229 105.5t296.5 38.5q186 0 312 -52.5t188.5 -151.5t76.5 -241t-24 -321q-77 -388 -290 -578t-587 -190q-358 0 -493.5 199.5t-61.5 568.5zM293 717q-60 -298 40.5 -445t383.5 -147q265 0 416.5 153.5t212.5 464.5 q62 308 -35 454t-365 146q-146 0 -256 -39.5t-188 -120.5t-128 -194.5t-81 -271.5zM752 1624l41 205h176l-41 -205h-176zM1081 1624l41 205h172l-41 -205h-172z" />
<glyph unicode="&#xd7;" d="M174 217l338 338l-338 338l113 113l338 -338l338 338l112 -113l-338 -338l338 -338l-112 -113l-338 338l-338 -338z" />
<glyph unicode="&#xd8;" horiz-adv-x="1597" d="M-63 0l196 184q-19 24 -35 63.5t-30.5 105t-11.5 164.5t26 214q151 770 879 770q171 0 271.5 -34.5t164.5 -92.5l104 96h162l-195 -184q22 -32 38 -75t28 -108t8 -158.5t-26 -203.5q-42 -208 -119 -357t-190.5 -240.5t-257 -134t-326.5 -42.5q-278 0 -418 131l-107 -98 h-161zM272 723q-57 -284 11 -397l974 913q-43 48 -115.5 76t-213.5 28q-150 0 -262.5 -41.5t-189.5 -123.5t-125.5 -193t-78.5 -262zM346 231q41 -47 125 -76.5t201 -29.5q149 0 262 41.5t189 123t123.5 190t76.5 255.5q23 117 27.5 200.5t-4 127t-27.5 84.5z" />
<glyph unicode="&#xd9;" horiz-adv-x="1320" d="M12.5 281q-1.5 59 4 107.5t18.5 113.5l190 968h195l-195 -981q-7 -33 -10.5 -53.5t-6.5 -54t-0.5 -55.5t10 -51.5t22.5 -49t40 -40t60 -32.5t84.5 -20t110.5 -8q73 0 132 9.5t101.5 25.5t76 42.5t55 54.5t38.5 68t27 76.5t20 87.5l195 981h194l-184 -933 q-14 -74 -24 -115.5t-35 -110.5t-54.5 -109.5t-83.5 -91t-121.5 -77.5t-168 -46.5t-224.5 -19.5q-106 0 -186.5 16.5t-132 43t-84.5 69t-47.5 84.5t-16 101zM635 1919h201l82 -295h-132z" />
<glyph unicode="&#xda;" horiz-adv-x="1320" d="M12.5 281q-1.5 59 4 107.5t18.5 113.5l190 968h195l-195 -981q-7 -33 -10.5 -53.5t-6.5 -54t-0.5 -55.5t10 -51.5t22.5 -49t40 -40t60 -32.5t84.5 -20t110.5 -8q73 0 132 9.5t101.5 25.5t76 42.5t55 54.5t38.5 68t27 76.5t20 87.5l195 981h194l-184 -933 q-14 -74 -24 -115.5t-35 -110.5t-54.5 -109.5t-83.5 -91t-121.5 -77.5t-168 -46.5t-224.5 -19.5q-106 0 -186.5 16.5t-132 43t-84.5 69t-47.5 84.5t-16 101zM688 1624l160 295h201l-230 -295h-131z" />
<glyph unicode="&#xdb;" horiz-adv-x="1320" d="M12.5 281q-1.5 59 4 107.5t18.5 113.5l190 968h195l-195 -981q-7 -33 -10.5 -53.5t-6.5 -54t-0.5 -55.5t10 -51.5t22.5 -49t40 -40t60 -32.5t84.5 -20t110.5 -8q73 0 132 9.5t101.5 25.5t76 42.5t55 54.5t38.5 68t27 76.5t20 87.5l195 981h194l-184 -933 q-14 -74 -24 -115.5t-35 -110.5t-54.5 -109.5t-83.5 -91t-121.5 -77.5t-168 -46.5t-224.5 -19.5q-106 0 -186.5 16.5t-132 43t-84.5 69t-47.5 84.5t-16 101zM571 1624l205 305h199l96 -305h-119l-94 199l-158 -199h-129z" />
<glyph unicode="&#xdc;" horiz-adv-x="1320" d="M12.5 281q-1.5 59 4 107.5t18.5 113.5l190 968h195l-195 -981q-7 -33 -10.5 -53.5t-6.5 -54t-0.5 -55.5t10 -51.5t22.5 -49t40 -40t60 -32.5t84.5 -20t110.5 -8q73 0 132 9.5t101.5 25.5t76 42.5t55 54.5t38.5 68t27 76.5t20 87.5l195 981h194l-184 -933 q-14 -74 -24 -115.5t-35 -110.5t-54.5 -109.5t-83.5 -91t-121.5 -77.5t-168 -46.5t-224.5 -19.5q-106 0 -186.5 16.5t-132 43t-84.5 69t-47.5 84.5t-16 101zM580 1624l41 205h176l-41 -205h-176zM909 1624l41 205h172l-41 -205h-172z" />
<glyph unicode="&#xdf;" horiz-adv-x="1228" d="M66 0l182 924h-139l28 149h139l21 96q7 30 12.5 51t21.5 56.5t36 60.5t56 54t81 47t112 30.5t148 12.5q158 0 241 -68t58 -194q-10 -53 -38 -95t-61 -67.5t-64.5 -45t-54.5 -37.5t-26 -36q-5 -24 17.5 -50t59 -52t77.5 -65.5t73.5 -90.5t45 -127.5t-6.5 -175.5 q-13 -66 -38.5 -121.5t-55.5 -94.5t-71.5 -70.5t-77.5 -51t-82.5 -33.5t-78.5 -20.5t-73 -10t-57.5 -4t-40.5 -0.5q-56 0 -186 17l28 143q100 -14 178 -14q35 0 56 0.5t61.5 5.5t67 14.5t62 28.5t59.5 46t45 70t32 97q13 70 3.5 122t-35 97.5t-59 79.5t-68 66.5t-62.5 59.5 t-42.5 58t-8.5 62t41 62.5t74 55.5t77 67t48 95q14 74 -25.5 113t-130.5 39q-52 0 -92 -8t-66.5 -25.5t-44 -35t-29 -47.5t-17 -50t-11.5 -55l-223 -1135h-176z" />
<glyph unicode="&#xe0;" horiz-adv-x="1071" d="M-6 293q14 69 37.5 114.5t70.5 85.5t128 68t199.5 51.5t295.5 46.5q64 8 88 132q21 103 -26 135t-187 32q-86 0 -140 -11t-87 -39t-49 -65.5t-29 -101.5h-170q12 62 22 97t45 93t86 89.5t147.5 56.5t227.5 25q220 0 295 -78t37 -270l-104 -529q-12 -62 7 -77t77 -15 l-27 -133q-13 0 -37.5 -1t-36.5 -1q-100 0 -133.5 28t-36.5 107q-36 -39 -63 -61.5t-74.5 -49t-114 -39t-155.5 -12.5q-194 0 -259.5 78.5t-33.5 243.5zM172 274q-18 -87 30.5 -123t149.5 -36q331 0 391 307l25 127q-118 -37 -250 -53q-89 -11 -150 -27.5t-96 -33t-56 -45 t-28.5 -51t-15.5 -65.5zM516 1518h201l82 -295h-131z" />
<glyph unicode="&#xe1;" horiz-adv-x="1071" d="M-6 293q14 69 37.5 114.5t70.5 85.5t128 68t199.5 51.5t295.5 46.5q64 8 88 132q21 103 -26 135t-187 32q-86 0 -140 -11t-87 -39t-49 -65.5t-29 -101.5h-170q12 62 22 97t45 93t86 89.5t147.5 56.5t227.5 25q220 0 295 -78t37 -270l-104 -529q-12 -62 7 -77t77 -15 l-27 -133q-13 0 -37.5 -1t-36.5 -1q-100 0 -133.5 28t-36.5 107q-36 -39 -63 -61.5t-74.5 -49t-114 -39t-155.5 -12.5q-194 0 -259.5 78.5t-33.5 243.5zM172 274q-18 -87 30.5 -123t149.5 -36q331 0 391 307l25 127q-118 -37 -250 -53q-89 -11 -150 -27.5t-96 -33t-56 -45 t-28.5 -51t-15.5 -65.5zM547 1223l160 295h200l-229 -295h-131z" />
<glyph unicode="&#xe2;" horiz-adv-x="1071" d="M-6 293q14 69 37.5 114.5t70.5 85.5t128 68t199.5 51.5t295.5 46.5q64 8 88 132q21 103 -26 135t-187 32q-86 0 -140 -11t-87 -39t-49 -65.5t-29 -101.5h-170q12 62 22 97t45 93t86 89.5t147.5 56.5t227.5 25q220 0 295 -78t37 -270l-104 -529q-12 -62 7 -77t77 -15 l-27 -133q-13 0 -37.5 -1t-36.5 -1q-100 0 -133.5 28t-36.5 107q-36 -39 -63 -61.5t-74.5 -49t-114 -39t-155.5 -12.5q-194 0 -259.5 78.5t-33.5 243.5zM172 274q-18 -87 30.5 -123t149.5 -36q331 0 391 307l25 127q-118 -37 -250 -53q-89 -11 -150 -27.5t-96 -33t-56 -45 t-28.5 -51t-15.5 -65.5zM420 1223l205 305h198l97 -305h-119l-94 198l-158 -198h-129z" />
<glyph unicode="&#xe3;" horiz-adv-x="1075" d="M-6 293q14 69 37.5 114.5t70.5 85.5t128 68t199.5 51.5t295.5 46.5q64 8 88 132q21 103 -26 135t-187 32q-86 0 -140 -11t-87 -39t-49 -65.5t-29 -101.5h-170q12 62 22 97t45 93t86 89.5t147.5 56.5t227.5 25q220 0 295 -78t37 -270l-104 -529q-12 -62 7 -77t77 -15 l-27 -133q-13 0 -37.5 -1t-36.5 -1q-100 0 -133.5 28t-36.5 107q-36 -39 -63 -61.5t-74.5 -49t-114 -39t-155.5 -12.5q-194 0 -259.5 78.5t-33.5 243.5zM172 274q-18 -87 30.5 -123t149.5 -36q331 0 391 307l25 127q-118 -37 -250 -53q-89 -11 -150 -27.5t-96 -33t-56 -45 t-28.5 -51t-15.5 -65.5zM416 1235q10 53 31.5 93.5t43 61t46.5 33.5t40 16t25 3q39 0 81 -20.5t77 -41t55 -20.5q16 0 27 11.5t15 24t9 36.5h138l-11 -50q-14 -68 -63.5 -112.5t-112.5 -44.5q-49 0 -120 37.5t-97 37.5q-18 0 -27 -16.5t-14 -48.5h-143z" />
<glyph unicode="&#xe4;" horiz-adv-x="1071" d="M-6 293q14 69 37.5 114.5t70.5 85.5t128 68t199.5 51.5t295.5 46.5q64 8 88 132q21 103 -26 135t-187 32q-86 0 -140 -11t-87 -39t-49 -65.5t-29 -101.5h-170q12 62 22 97t45 93t86 89.5t147.5 56.5t227.5 25q220 0 295 -78t37 -270l-104 -529q-12 -62 7 -77t77 -15 l-27 -133q-13 0 -37.5 -1t-36.5 -1q-100 0 -133.5 28t-36.5 107q-36 -39 -63 -61.5t-74.5 -49t-114 -39t-155.5 -12.5q-194 0 -259.5 78.5t-33.5 243.5zM172 274q-18 -87 30.5 -123t149.5 -36q331 0 391 307l25 127q-118 -37 -250 -53q-89 -11 -150 -27.5t-96 -33t-56 -45 t-28.5 -51t-15.5 -65.5zM408 1223l41 204h176l-41 -204h-176zM737 1223l41 204h172l-41 -204h-172z" />
<glyph unicode="&#xe5;" horiz-adv-x="1071" d="M-6 293q14 69 37.5 114.5t70.5 85.5t128 68t199.5 51.5t295.5 46.5q64 8 88 132q21 103 -26 135t-187 32q-86 0 -140 -11t-87 -39t-49 -65.5t-29 -101.5h-170q12 62 22 97t45 93t86 89.5t147.5 56.5t227.5 25q220 0 295 -78t37 -270l-104 -529q-12 -62 7 -77t77 -15 l-27 -133q-13 0 -37.5 -1t-36.5 -1q-100 0 -133.5 28t-36.5 107q-36 -39 -63 -61.5t-74.5 -49t-114 -39t-155.5 -12.5q-194 0 -259.5 78.5t-33.5 243.5zM172 274q-18 -87 30.5 -123t149.5 -36q331 0 391 307l25 127q-118 -37 -250 -53q-89 -11 -150 -27.5t-96 -33t-56 -45 t-28.5 -51t-15.5 -65.5zM473 1391q0 93 67 152t165 59q97 0 164 -59t67 -152t-67 -152t-164 -59q-98 0 -165 59t-67 152zM565 1391q0 -56 39.5 -87.5t100.5 -31.5t100 31t39 88q0 56 -39 87t-100 31t-100.5 -31t-39.5 -87z" />
<glyph unicode="&#xe6;" horiz-adv-x="1798" d="M-18.5 180.5q0.5 47.5 10.5 108.5q12 58 36 104.5t54 78t76 56t88.5 38.5t105.5 27t113 20t124.5 18.5t127.5 21.5q73 13 94 133q10 42 6 74t-25.5 53.5t-69 33t-124.5 11.5q-90 0 -147.5 -14t-88 -49.5t-42 -62t-26.5 -83.5q-3 -13 -5 -20h-170q24 117 60 179 q114 194 462 194q77 0 135 -11t96 -33t54 -36t39 -39q15 7 64 32.5t86 41t110 30.5t157 15q87 0 154 -19.5t108.5 -51.5t69 -77.5t39 -92t13.5 -101t-3 -98.5t-14 -91q-2 -12 -27 -94h-809q-19 -86 -13.5 -148.5t23 -103.5t56.5 -65.5t85.5 -34.5t111.5 -10q68 0 120.5 12 t84 27.5t59 47t40 53.5t33.5 64h160q-15 -51 -32.5 -91t-58 -91.5t-94.5 -85t-145 -57t-206 -23.5q-72 0 -130.5 11t-93.5 24.5t-68.5 40t-46 41t-34 45.5t-25.5 37q-4 -4 -31.5 -30.5t-36.5 -35t-38.5 -32t-49 -33t-55 -26t-69 -23.5t-79.5 -13t-97 -6q-56 0 -100.5 6.5 t-82.5 21.5t-62.5 39t-40.5 59.5t-15.5 83zM170 291q-21 -101 26.5 -138.5t176.5 -37.5q125 0 235 96.5t131 196.5q20 113 25 135q-75 -19 -162 -34.5t-140.5 -23.5t-110 -22.5t-89 -33t-57.5 -53t-35 -85.5zM942 621h631q18 75 15.5 137.5t-25.5 106.5t-80.5 68.5 t-149.5 24.5q-46 0 -86.5 -8t-71 -19t-59.5 -33t-47.5 -38.5t-38.5 -47.5t-30 -47.5t-24 -51.5t-18.5 -47t-15.5 -45z" />
<glyph unicode="&#xe7;" horiz-adv-x="1101" d="M28.5 347.5q0.5 82.5 20.5 184.5q59 295 218.5 432.5t416.5 137.5q76 0 137 -12.5t101 -34t69.5 -50t43 -61.5t22 -69t6.5 -70.5t-4 -67.5h-174q1 30 -1.5 52.5t-9.5 50.5t-23 47t-41 36.5t-66 26t-95 8.5q-180 0 -277.5 -101t-142.5 -329q-23 -117 -19.5 -201.5 t47 -136.5t130.5 -67q64 -12 143 -6q40 3 73 10t58.5 21t45 26t35.5 34.5t25.5 36t20.5 42t15 41t14 43.5h174q-9 -47 -26 -91.5t-54.5 -99.5t-88.5 -96.5t-134 -72.5t-186 -38l-37 -174h-146l37 176q-56 6 -101.5 20.5t-89 41t-72.5 69t-47 101t-17.5 141z" />
<glyph unicode="&#xe8;" horiz-adv-x="1103" d="M47 510q63 319 218.5 455.5t424.5 136.5h1q31 0 50.5 -0.5t59 -5.5t66 -14t63.5 -28t60 -45t45.5 -68t31 -94.5t6.5 -126t-20 -161.5l-19 -82h-807q-8 -40 -12 -70t-4.5 -69.5t7 -69t25.5 -60t48 -49.5t79 -31.5t113 -12.5q102 0 169 24t103.5 67t63.5 116h166 q-15 -55 -37 -101.5t-64.5 -94.5t-99 -80.5t-144 -53.5t-196.5 -21q-503 0 -397 539zM256 621h623q17 76 15.5 138t-23 106.5t-78 68.5t-148.5 24q-76 0 -136 -19.5t-98.5 -48.5t-70 -76.5t-49 -90t-35.5 -102.5zM508 1518h201l82 -295h-132z" />
<glyph unicode="&#xe9;" horiz-adv-x="1103" d="M47 510q63 319 218.5 455.5t424.5 136.5h1q31 0 50.5 -0.5t59 -5.5t66 -14t63.5 -28t60 -45t45.5 -68t31 -94.5t6.5 -126t-20 -161.5l-19 -82h-807q-8 -40 -12 -70t-4.5 -69.5t7 -69t25.5 -60t48 -49.5t79 -31.5t113 -12.5q102 0 169 24t103.5 67t63.5 116h166 q-15 -55 -37 -101.5t-64.5 -94.5t-99 -80.5t-144 -53.5t-196.5 -21q-503 0 -397 539zM256 621h623q17 76 15.5 138t-23 106.5t-78 68.5t-148.5 24q-76 0 -136 -19.5t-98.5 -48.5t-70 -76.5t-49 -90t-35.5 -102.5zM571 1223l160 295h201l-230 -295h-131z" />
<glyph unicode="&#xea;" horiz-adv-x="1103" d="M47 510q63 319 218.5 455.5t424.5 136.5h1q31 0 50.5 -0.5t59 -5.5t66 -14t63.5 -28t60 -45t45.5 -68t31 -94.5t6.5 -126t-20 -161.5l-19 -82h-807q-8 -40 -12 -70t-4.5 -69.5t7 -69t25.5 -60t48 -49.5t79 -31.5t113 -12.5q102 0 169 24t103.5 67t63.5 116h166 q-15 -55 -37 -101.5t-64.5 -94.5t-99 -80.5t-144 -53.5t-196.5 -21q-503 0 -397 539zM256 621h623q17 76 15.5 138t-23 106.5t-78 68.5t-148.5 24q-76 0 -136 -19.5t-98.5 -48.5t-70 -76.5t-49 -90t-35.5 -102.5zM446 1223l205 305h199l96 -305h-119l-94 198l-158 -198h-129 z" />
<glyph unicode="&#xeb;" horiz-adv-x="1103" d="M47 510q63 319 218.5 455.5t424.5 136.5h1q31 0 50.5 -0.5t59 -5.5t66 -14t63.5 -28t60 -45t45.5 -68t31 -94.5t6.5 -126t-20 -161.5l-19 -82h-807q-8 -40 -12 -70t-4.5 -69.5t7 -69t25.5 -60t48 -49.5t79 -31.5t113 -12.5q102 0 169 24t103.5 67t63.5 116h166 q-15 -55 -37 -101.5t-64.5 -94.5t-99 -80.5t-144 -53.5t-196.5 -21q-503 0 -397 539zM256 621h623q17 76 15.5 138t-23 106.5t-78 68.5t-148.5 24q-76 0 -136 -19.5t-98.5 -48.5t-70 -76.5t-49 -90t-35.5 -102.5zM420 1223l41 204h176l-41 -204h-176zM750 1223l41 204h172 l-41 -204h-172z" />
<glyph unicode="&#xec;" horiz-adv-x="419" d="M-23 0l213 1073h177l-213 -1073h-177zM80 1518h201l81 -295h-131z" />
<glyph unicode="&#xed;" horiz-adv-x="419" d="M-23 0l213 1073h177l-213 -1073h-177zM170 1223l160 295h200l-229 -295h-131z" />
<glyph unicode="&#xee;" horiz-adv-x="419" d="M6 0l213 1073h176l-213 -1073h-176zM63 1223l205 305h199l96 -305h-119l-94 198l-157 -198h-130z" />
<glyph unicode="&#xef;" horiz-adv-x="419" d="M-23 0l213 1073h177l-213 -1073h-177zM51 1223l41 204h176l-41 -204h-176zM381 1223l41 204h172l-41 -204h-172z" />
<glyph unicode="&#xf1;" horiz-adv-x="1085" d="M0 0l213 1073h176l-33 -166q19 31 37 53.5t51 51t71 46.5t96.5 31t127.5 13q73 0 128 -13t88.5 -32.5t53.5 -52t28 -61t7 -71.5t-5.5 -70.5t-12.5 -70.5l-145 -731h-176l135 682q11 56 15 91.5t-0.5 73.5t-23.5 59t-57.5 34.5t-97.5 13.5q-313 0 -377 -331l-123 -623 h-176zM430 1233q14 65 41.5 110.5t58.5 64t51.5 25.5t34.5 7q39 0 81 -20.5t77 -41t55 -20.5q40 0 52 72h137l-8 -50q-10 -67 -62.5 -112t-116.5 -45q-49 0 -119 37.5t-96 37.5q-13 0 -21.5 -10t-12.5 -21.5t-9 -33.5h-143z" />
<glyph unicode="&#xf2;" horiz-adv-x="1134" d="M30 298.5q-8 105.5 21 238.5q57 289 213 427t432 138q111 0 190.5 -26.5t127.5 -74t70 -119.5t21 -157.5t-22 -192.5q-20 -98 -48 -176t-77 -152.5t-115.5 -123.5t-165.5 -79t-224 -30q-141 0 -234 38.5t-137 111t-52 178zM211.5 366q2.5 -75 24.5 -130.5t80.5 -88 t150.5 -32.5q105 0 178 23.5t123 76.5t79.5 126t51.5 183q45 227 -8 330.5t-242 103.5q-84 0 -150 -23.5t-109.5 -61t-76.5 -95.5t-51 -116.5t-33 -135.5q-20 -85 -17.5 -160zM518 1518h201l82 -295h-131z" />
<glyph unicode="&#xf3;" horiz-adv-x="1134" d="M30 298.5q-8 105.5 21 238.5q57 289 213 427t432 138q111 0 190.5 -26.5t127.5 -74t70 -119.5t21 -157.5t-22 -192.5q-20 -98 -48 -176t-77 -152.5t-115.5 -123.5t-165.5 -79t-224 -30q-141 0 -234 38.5t-137 111t-52 178zM211.5 366q2.5 -75 24.5 -130.5t80.5 -88 t150.5 -32.5q105 0 178 23.5t123 76.5t79.5 126t51.5 183q45 227 -8 330.5t-242 103.5q-84 0 -150 -23.5t-109.5 -61t-76.5 -95.5t-51 -116.5t-33 -135.5q-20 -85 -17.5 -160zM573 1223l160 295h201l-229 -295h-132z" />
<glyph unicode="&#xf4;" horiz-adv-x="1134" d="M30 298.5q-8 105.5 21 238.5q57 289 213 427t432 138q111 0 190.5 -26.5t127.5 -74t70 -119.5t21 -157.5t-22 -192.5q-20 -98 -48 -176t-77 -152.5t-115.5 -123.5t-165.5 -79t-224 -30q-141 0 -234 38.5t-137 111t-52 178zM211.5 366q2.5 -75 24.5 -130.5t80.5 -88 t150.5 -32.5q105 0 178 23.5t123 76.5t79.5 126t51.5 183q45 227 -8 330.5t-242 103.5q-84 0 -150 -23.5t-109.5 -61t-76.5 -95.5t-51 -116.5t-33 -135.5q-20 -85 -17.5 -160zM449 1223l204 305h199l96 -305h-119l-94 198l-157 -198h-129z" />
<glyph unicode="&#xf5;" horiz-adv-x="1134" d="M30 298.5q-8 105.5 21 238.5q57 289 213 427t432 138q111 0 190.5 -26.5t127.5 -74t70 -119.5t21 -157.5t-22 -192.5q-20 -98 -48 -176t-77 -152.5t-115.5 -123.5t-165.5 -79t-224 -30q-141 0 -234 38.5t-137 111t-52 178zM211.5 366q2.5 -75 24.5 -130.5t80.5 -88 t150.5 -32.5q105 0 178 23.5t123 76.5t79.5 126t51.5 183q45 227 -8 330.5t-242 103.5q-84 0 -150 -23.5t-109.5 -61t-76.5 -95.5t-51 -116.5t-33 -135.5q-20 -85 -17.5 -160zM440 1233q10 53 31.5 93.5t43.5 61t47 33.5t40 16t25 3q39 0 81 -20.5t77 -41t55 -20.5 q16 0 27 11.5t15 24t9 36.5h137l-10 -50q-14 -68 -63.5 -112.5t-112.5 -44.5q-49 0 -120 37.5t-97 37.5q-18 0 -27 -16.5t-14 -48.5h-144z" />
<glyph unicode="&#xf6;" horiz-adv-x="1134" d="M30 298.5q-8 105.5 21 238.5q57 289 213 427t432 138q111 0 190.5 -26.5t127.5 -74t70 -119.5t21 -157.5t-22 -192.5q-20 -98 -48 -176t-77 -152.5t-115.5 -123.5t-165.5 -79t-224 -30q-141 0 -234 38.5t-137 111t-52 178zM211.5 366q2.5 -75 24.5 -130.5t80.5 -88 t150.5 -32.5q105 0 178 23.5t123 76.5t79.5 126t51.5 183q45 227 -8 330.5t-242 103.5q-84 0 -150 -23.5t-109.5 -61t-76.5 -95.5t-51 -116.5t-33 -135.5q-20 -85 -17.5 -160zM438 1223l41 204h176l-41 -204h-176zM768 1223l41 204h172l-41 -204h-172z" />
<glyph unicode="&#xf7;" d="M47 475l33 160h1073l-33 -160h-1073zM381 0l41 209h207l-41 -209h-207zM553 864l41 209h207l-41 -209h-207z" />
<glyph unicode="&#xf8;" horiz-adv-x="1228" d="M-27 -29l156 154q-43 77 -49.5 167t26.5 267q17 87 46 161t62 126t77 94t82.5 68t87 45.5t83 28.5t78 14t63.5 5.5t48 0.5q70 0 124 -7.5t90.5 -22t55 -25t41.5 -27.5l80 78h127l-147 -144q16 -29 26.5 -56.5t20.5 -76.5t7.5 -119t-19.5 -155q-21 -108 -54.5 -194.5 t-72.5 -145.5t-89.5 -103t-99 -69t-109 -40t-111.5 -19.5t-114 -4.5q-219 0 -303 88l-86 -88h-127zM272 268l643 627q-48 63 -202 63q-193 0 -290.5 -102.5t-141.5 -327.5q-41 -195 -9 -260zM315 186q42 -71 224 -71q83 0 144.5 18.5t115 63.5t91.5 127.5t62 205.5 q24 120 25.5 175.5t-16.5 109.5z" />
<glyph unicode="&#xf9;" horiz-adv-x="1093" d="M40 201.5q0 39.5 3.5 68t11.5 64.5l148 739h176l-133 -667q-10 -52 -14.5 -84t-5.5 -69.5t8.5 -59.5t28.5 -41.5t53 -28t83 -8.5q83 0 147.5 22t102.5 53t65.5 78t39 83.5t20.5 82.5l127 639h176l-213 -1073h-166l33 164q-26 -42 -51 -70.5t-68.5 -59.5t-108.5 -47 t-151 -16q-73 0 -128.5 13.5t-89.5 34t-55.5 52t-30 61.5t-8.5 69.5zM508 1518h201l82 -295h-132z" />
<glyph unicode="&#xfa;" horiz-adv-x="1093" d="M40 201.5q0 39.5 3.5 68t11.5 64.5l148 739h176l-133 -667q-10 -52 -14.5 -84t-5.5 -69.5t8.5 -59.5t28.5 -41.5t53 -28t83 -8.5q83 0 147.5 22t102.5 53t65.5 78t39 83.5t20.5 82.5l127 639h176l-213 -1073h-166l33 164q-26 -42 -51 -70.5t-68.5 -59.5t-108.5 -47 t-151 -16q-73 0 -128.5 13.5t-89.5 34t-55.5 52t-30 61.5t-8.5 69.5zM520 1223l160 295h201l-230 -295h-131z" />
<glyph unicode="&#xfb;" horiz-adv-x="1093" d="M40 201.5q0 39.5 3.5 68t11.5 64.5l148 739h176l-133 -667q-10 -52 -14.5 -84t-5.5 -69.5t8.5 -59.5t28.5 -41.5t53 -28t83 -8.5q83 0 147.5 22t102.5 53t65.5 78t39 83.5t20.5 82.5l127 639h176l-213 -1073h-166l33 164q-26 -42 -51 -70.5t-68.5 -59.5t-108.5 -47 t-151 -16q-73 0 -128.5 13.5t-89.5 34t-55.5 52t-30 61.5t-8.5 69.5zM408 1223l204 305h199l96 -305h-119l-94 198l-157 -198h-129z" />
<glyph unicode="&#xfc;" horiz-adv-x="1093" d="M40 201.5q0 39.5 3.5 68t11.5 64.5l148 739h176l-133 -667q-10 -52 -14.5 -84t-5.5 -69.5t8.5 -59.5t28.5 -41.5t53 -28t83 -8.5q83 0 147.5 22t102.5 53t65.5 78t39 83.5t20.5 82.5l127 639h176l-213 -1073h-166l33 164q-26 -42 -51 -70.5t-68.5 -59.5t-108.5 -47 t-151 -16q-73 0 -128.5 13.5t-89.5 34t-55.5 52t-30 61.5t-8.5 69.5zM416 1223l41 204h176l-41 -204h-176zM745 1223l41 204h172l-40 -204h-173z" />
<glyph unicode="&#xff;" horiz-adv-x="999" d="M-113 -377l29 148q143 1 165 5q54 7 88 48q17 21 40 61l92 158l-244 1030h193l176 -837l457 837h190l-706 -1223q-38 -66 -72 -109t-62 -67t-66.5 -36t-68.5 -14.5t-84 -2.5q-84 0 -127 2zM289 1223l41 204h176l-41 -204h-176zM618 1223l41 204h172l-40 -204h-173z" />
<glyph unicode="&#x152;" horiz-adv-x="2447" d="M85 387q-19 143 17 338q78 392 290 584t587 192q111 0 192.5 -15t130.5 -44t77 -61t46 -76l33 165h1079l-32 -165h-887l-88 -443h815l-31 -160h-815l-106 -536h903l-33 -166h-1096l33 170q-161 -203 -541 -203q-165 0 -285 45.5t-195 138.5t-94 236zM289 711 q-59 -294 43 -440t370 -146q142 0 251 42t184 124.5t124 193t78 258.5q30 141 24 252t-48.5 188.5t-137.5 118.5t-243 41q-143 0 -250.5 -38.5t-184.5 -119t-127.5 -196t-82.5 -278.5z" />
<glyph unicode="&#x153;" horiz-adv-x="1961" d="M49 524q33 166 93.5 281.5t146.5 179t184.5 90.5t224.5 27q90 0 158.5 -16.5t111 -46t66.5 -60t41 -68.5q169 191 479 191q185 0 275 -70.5t100 -209.5t-31 -345h-813q-13 -66 -13.5 -119t9 -90.5t29.5 -65t44 -44t57.5 -26.5t66 -13.5t72.5 -3.5q82 0 143 17t97 48 t56 65t31 77h170q-87 -351 -542 -351q-94 0 -164 16.5t-111 46.5t-63.5 59t-38.5 67q-158 -189 -473 -189q-263 0 -362 135t-44 418zM231 537q-44 -223 15 -322.5t239 -99.5q87 0 153.5 22t109 57t74.5 93.5t49.5 116.5t33.5 141q18 93 18.5 162.5t-16 117.5t-51.5 77.5 t-84 42.5t-117 13q-59 0 -104.5 -7.5t-98 -33t-91 -70t-74 -123t-56.5 -187.5zM1114 621h629q19 103 12.5 177.5t-66 117t-176.5 42.5q-58 0 -107.5 -11t-84.5 -27.5t-65 -44t-49 -52.5t-37 -62.5t-28.5 -63.5t-23.5 -65q-3 -7 -4 -11z" />
<glyph unicode="&#x178;" horiz-adv-x="1177" d="M102 1470h215l299 -694l572 694h211l-717 -852l-123 -618h-194l122 618zM502 1624l41 205h176l-41 -205h-176zM831 1624l41 205h172l-40 -205h-173z" />
<glyph unicode="&#x2c6;" horiz-adv-x="614" d="M39 1225l205 305h198l97 -305h-119l-94 198l-158 -198h-129z" />
<glyph unicode="&#x2dc;" horiz-adv-x="778" d="M94 1276q10 53 31.5 93.5t43.5 61t47 33.5t40 16t25 3q39 0 81 -20.5t77 -41t55 -20.5q16 0 27 11.5t15 24t9 36.5h137l-10 -50q-14 -68 -63.5 -112.5t-112.5 -44.5q-49 0 -120 37.5t-97 37.5q-18 0 -27 -16.5t-14 -48.5h-144z" />
<glyph unicode="&#x2000;" horiz-adv-x="982" />
<glyph unicode="&#x2001;" horiz-adv-x="1964" />
<glyph unicode="&#x2002;" horiz-adv-x="982" />
<glyph unicode="&#x2003;" horiz-adv-x="1964" />
<glyph unicode="&#x2004;" horiz-adv-x="654" />
<glyph unicode="&#x2005;" horiz-adv-x="491" />
<glyph unicode="&#x2006;" horiz-adv-x="327" />
<glyph unicode="&#x2007;" horiz-adv-x="327" />
<glyph unicode="&#x2008;" horiz-adv-x="245" />
<glyph unicode="&#x2009;" horiz-adv-x="392" />
<glyph unicode="&#x200a;" horiz-adv-x="109" />
<glyph unicode="&#x2010;" horiz-adv-x="757" d="M96 465l37 180h535l-37 -180h-535z" />
<glyph unicode="&#x2011;" horiz-adv-x="757" d="M96 465l37 180h535l-37 -180h-535z" />
<glyph unicode="&#x2012;" horiz-adv-x="757" d="M96 465l37 180h535l-37 -180h-535z" />
<glyph unicode="&#x2013;" horiz-adv-x="1222" d="M100 465l35 180h989l-34 -180h-990z" />
<glyph unicode="&#x2014;" horiz-adv-x="1597" d="M102 465l35 180h1356l-35 -180h-1356z" />
<glyph unicode="&#x2018;" horiz-adv-x="409" d="M109 1038l32 166q22 112 84 176t162 95l-20 -97q-55 -31 -77 -60.5t-38 -84.5h86l-39 -195h-190z" />
<glyph unicode="&#x2019;" horiz-adv-x="409" d="M125 1036l18 97q56 31 78.5 60.5t36.5 84.5h-86l39 195h190l-32 -166q-22 -112 -83.5 -176t-160.5 -95z" />
<glyph unicode="&#x201a;" horiz-adv-x="409" d="M31 -252l16 82q52 26 80 63.5t41 106.5h-88l35 174h178l-33 -164q-17 -87 -79 -166.5t-150 -95.5z" />
<glyph unicode="&#x201c;" horiz-adv-x="634" d="M57 1038l33 166q22 112 83.5 176t160.5 95l-19 -97q-54 -31 -76 -60t-38 -85h86l-39 -195h-191zM362 1038l33 166q22 112 83.5 176t160.5 95l-18 -97q-56 -31 -78.5 -60.5t-36.5 -84.5h84l-37 -195h-191z" />
<glyph unicode="&#x201d;" horiz-adv-x="655" d="M78 1036l20 97q55 31 77 60.5t36 84.5h-84l37 195h190l-32 -166q-22 -112 -83.5 -176t-160.5 -95zM383 1036l18 97q56 31 77.5 60t37.5 85h-86l39 195h190l-32 -166q-22 -112 -83.5 -176t-160.5 -95z" />
<glyph unicode="&#x201e;" horiz-adv-x="675" d="M76 -252l16 82q52 26 80 63.5t41 106.5h-88l35 174h178l-33 -164q-17 -87 -79 -166.5t-150 -95.5zM350 -252l17 82q52 26 79.5 63.5t40.5 106.5h-88l35 174h178l-32 -164q-17 -87 -79.5 -166.5t-150.5 -95.5z" />
<glyph unicode="&#x2022;" horiz-adv-x="921" d="M88 760q3 152 113.5 258t263.5 106q156 0 261 -110.5t105 -268.5q0 -154 -109.5 -261t-260.5 -107q-155 0 -265.5 114t-107.5 269z" />
<glyph unicode="&#x2026;" horiz-adv-x="1290" d="M-61 0l41 209h206l-41 -209h-206zM428 0l41 209h207l-41 -209h-207zM911 0l41 209h207l-41 -209h-207z" />
<glyph unicode="&#x202f;" horiz-adv-x="392" />
<glyph unicode="&#x2039;" horiz-adv-x="614" d="M68 516l368 432h164l-369 -432l179 -410h-162z" />
<glyph unicode="&#x203a;" horiz-adv-x="614" d="M16 106l365 431l-182 411h161l185 -411l-369 -431h-160z" />
<glyph unicode="&#x205f;" horiz-adv-x="491" />
<glyph unicode="&#x20ac;" d="M0 539l29 135h143l10 51q12 65 27 123h-143l28 135h154q85 265 230.5 386.5t395.5 121.5q224 0 331.5 -107t103.5 -348h-176q0 157 -67 230t-216 73q-92 0 -161.5 -22.5t-119.5 -69.5t-84 -110t-61 -154h362l-28 -135h-371l-20 -103q-10 -40 -15 -71h369l-29 -135h-358 q-23 -210 42 -309t249 -99q160 0 260.5 100t163.5 308h176q-41 -143 -95 -244.5t-130.5 -173.5t-179.5 -106.5t-236 -34.5q-256 0 -358 136t-72 423h-154z" />
<glyph unicode="&#x2122;" horiz-adv-x="1372" d="M72 1374l20 105h502l-21 -105h-192l-105 -524h-116l102 524h-190zM514 850l125 629h139l84 -453l264 453h140l-125 -629h-117l80 403l-234 -403h-86l-73 403l-80 -403h-117z" />
<glyph unicode="&#xe000;" horiz-adv-x="1075" d="M0 0v1075h1075v-1075h-1075z" />
<glyph unicode="&#xfb01;" horiz-adv-x="899" d="M37 0l180 913h-147l32 160h148l26 141q9 48 21 84t35.5 72t57 59t87 37.5t123.5 14.5q36 0 102 -4l-28 -148q-8 0 -26.5 1t-26.5 1q-42 0 -71 -6.5t-45.5 -15t-27.5 -27.5t-15 -33t-9 -43l-27 -133h197l-33 -160h-197l-180 -913h-176zM469 0l213 1073h176l-213 -1073 h-176zM721 1268l41 213h176l-41 -213h-176z" />
<glyph unicode="&#xfb02;" horiz-adv-x="897" d="M37 0l180 913h-147l32 160h148l26 141q9 48 21 84t35.5 72t57 59t87 37.5t123.5 14.5q36 0 102 -4l-28 -148q-8 0 -26.5 1t-26.5 1q-42 0 -71 -6.5t-45.5 -15t-27.5 -27.5t-15 -33t-9 -43l-27 -133h197l-33 -160h-197l-180 -913h-176zM471 0l293 1481h176l-293 -1481 h-176z" />
</font>
</defs>
</svg>
