<?xml version="1.0" standalone="no"?>
<!DOCTYPE svg PUBLIC "-//W3C//DTD SVG 1.1//EN" "http://www.w3.org/Graphics/SVG/1.1/DTD/svg11.dtd" >
<svg xmlns="http://www.w3.org/2000/svg">
<metadata></metadata>
<defs>
<font id="helveticaneue_ltstdhvheavy" horiz-adv-x="630" >
<font-face units-per-em="1000" ascent="714" descent="-286" />
<missing-glyph horiz-adv-x="315" />
<glyph horiz-adv-x="0" />
<glyph horiz-adv-x="0" />
<glyph unicode=" "  horiz-adv-x="315" />
<glyph unicode="&#x09;" horiz-adv-x="315" />
<glyph unicode="&#xa0;" horiz-adv-x="315" />
<glyph unicode="!" horiz-adv-x="296" d="M55 186h186v-186h-186v186zM236 537l-46 -301h-83l-46 301v177h175v-177z" />
<glyph unicode="&#x22;" horiz-adv-x="500" d="M62 714h144v-360h-144v360zM294 714h144v-360h-144v360z" />
<glyph unicode="#" d="M288 405l-15 -110h81l15 110h-81zM531 190h-77l-26 -190h-115l26 190h-81l-26 -190h-115l26 190h-74v105h89l15 110h-74v105h89l26 187h115l-26 -187h81l26 187h115l-26 -187h62v-105h-77l-15 -110h62v-105z" />
<glyph unicode="$" d="M345 728q50 -3 96.5 -18t82 -43.5t57.5 -71t22 -100.5h-186q2 38 -19 58t-53 28v-136q17 -5 36 -9.5t38 -9.5q39 -11 76 -26.5t66 -39t47 -58t18 -82.5q0 -63 -23.5 -106.5t-62.5 -71t-89.5 -41t-105.5 -15.5v-90h-47v90q-59 2 -112 16.5t-93 44.5t-64 76.5t-24 112.5 h186q3 -54 31 -78.5t76 -29.5v157q-14 4 -30 8t-33 9q-38 11 -75.5 26t-67 38.5t-48 58t-18.5 83.5q0 58 24 99t63 67.5t87.5 39.5t97.5 15v90h47v-91zM298 585q-15 0 -30 -3.5t-27.5 -11t-20.5 -20t-8 -30.5q0 -24 24 -38t62 -25v128zM345 129q16 1 33 5t31 12.5t22.5 21 t8.5 30.5q0 29 -26 45.5t-69 28.5v-143z" />
<glyph unicode="%" horiz-adv-x="1019" d="M260 -26l404 750h99l-404 -750h-99zM719 183q0 -15 1 -34t6 -36.5t16 -29.5t32 -12q20 0 31 12t16 29.5t6 36.5t1 34t-1 34t-6 36.5t-16 29.5t-31 12q-21 0 -32 -12t-16 -29.5t-6 -36.5t-1 -34zM602 183q0 41 10.5 76t32 61t53.5 40.5t76 14.5t76.5 -14t53.5 -39 t31 -60.5t10 -78.5q0 -42 -9.5 -77t-30 -60.5t-53 -39.5t-78.5 -14q-45 0 -77.5 14t-53.5 39.5t-31 60.5t-10 77zM75 514q0 41 10.5 76t32 61t53.5 40.5t76 14.5t76.5 -14t53.5 -39t31 -60.5t10 -78.5q0 -42 -9.5 -77.5t-30 -61t-53 -39.5t-78.5 -14q-45 0 -77.5 14.5 t-53.5 40t-31 60.5t-10 77zM192 514q0 -15 1 -34t6 -36.5t16 -29.5t32 -12q20 0 31 12t16 29.5t6 36.5t1 34t-1 34t-6 36.5t-16 29.5t-31 12q-21 0 -32 -12t-16 -29.5t-6 -36.5t-1 -34z" />
<glyph unicode="&#x26;" horiz-adv-x="722" d="M334 466q26 16 46 36t20 52q0 26 -17 40.5t-43 14.5q-23 0 -39.5 -15t-16.5 -38q0 -29 16.5 -49t33.5 -41zM477 60q-47 -38 -96 -56t-109 -18q-48 0 -91 15t-75.5 43.5t-52 68.5t-19.5 90q0 38 13 70t35.5 57.5t52 45.5t61.5 35q-26 29 -44.5 62.5t-18.5 74.5 q0 42 17.5 75.5t46 57t65 36t75.5 12.5q40 0 76.5 -13t64.5 -37t44.5 -58t16.5 -77q0 -63 -34 -106.5t-88 -70.5l74 -89q21 32 26 70h146q-5 -48 -25.5 -93.5t-53.5 -80.5l150 -174h-207zM281 299q-13 -6 -27.5 -15.5t-27 -21.5t-20.5 -26.5t-8 -30.5q0 -19 8 -34 t21.5 -25.5t30.5 -16.5t34 -6q24 0 49.5 16t45.5 35z" />
<glyph unicode="'" horiz-adv-x="296" d="M76 714h144v-360h-144v360z" />
<glyph unicode="(" horiz-adv-x="296" d="M305 729q-51 -104 -80.5 -219t-29.5 -236q0 -116 29.5 -229.5t80.5 -217.5h-144q-31 60 -54.5 113.5t-39 106t-23.5 108t-8 119.5q0 67 8 123.5t23.5 110t39 107.5t54.5 114h144z" />
<glyph unicode=")" horiz-adv-x="296" d="M135 729q31 -60 54 -114t39 -107.5t24 -110t8 -123.5q0 -64 -8 -119.5t-24 -108t-39 -106t-54 -113.5h-143q50 104 79.5 217.5t29.5 229.5q0 121 -29.5 236t-79.5 219h143z" />
<glyph unicode="*" horiz-adv-x="444" d="M374 396l-79 -59l-75 107l-74 -107l-78 58l79 104l-122 38l31 93l116 -44v128h99v-128l116 44l31 -93l-121 -38z" />
<glyph unicode="+" horiz-adv-x="600" d="M228 506h144v-181h180v-144h-180v-181h-144v181h-180v144h180v181z" />
<glyph unicode="," horiz-adv-x="316" d="M65 186h186v-165q0 -53 -18.5 -89t-46.5 -58.5t-60.5 -33t-60.5 -13.5v80q41 11 59 33t23 60h-82v186z" />
<glyph unicode="-" horiz-adv-x="407" d="M48 200v144h311v-144h-311z" />
<glyph unicode="." horiz-adv-x="316" d="M65 186h186v-186h-186v186z" />
<glyph unicode="/" horiz-adv-x="407" d="M260 729h156l-269 -743h-155z" />
<glyph unicode="0" d="M310 -8q-74 0 -126 29.5t-84.5 79t-47.5 114t-15 134.5t15 134.5t47.5 114t84.5 79t126 29.5q76 0 130 -29.5t88.5 -79t50 -114t15.5 -134.5t-15.5 -134.5t-50 -114t-88.5 -79t-130 -29.5zM315 129q42 0 65 21.5t34.5 54.5t13.5 71.5t2 72.5t-2 72.5t-13.5 71t-34.5 54 t-65 21.5q-41 0 -63.5 -21.5t-34 -54t-14 -71t-2.5 -72.5t2.5 -72.5t14 -71.5t34 -54.5t63.5 -21.5z" />
<glyph unicode="1" d="M105 428v125q37 -1 72.5 6t64.5 24t47.5 45t21.5 69h141v-697h-180v428h-167z" />
<glyph unicode="2" d="M32 0q1 67 29 127t80 105q45 39 93 67.5t89 54.5q40 26 65.5 53.5t25.5 62.5q0 41 -24.5 64t-65.5 23q-34 0 -56 -11.5t-35.5 -30.5t-19 -45t-5.5 -54h-159q-4 65 14 118.5t54 91.5t88.5 59t117.5 21q52 0 99 -13.5t83 -41t57.5 -69t21.5 -97.5q0 -50 -16.5 -86t-44 -64 t-63.5 -50.5t-74 -46.5q-20 -12 -36 -22t-30 -20.5t-28.5 -23t-31.5 -28.5h331v-144h-559z" />
<glyph unicode="3" d="M257 426q11 1 22.5 0t22.5 -1q19 0 39 3t36.5 11t27 22t10.5 37q0 34 -29 52t-71 18q-52 0 -80.5 -25.5t-27.5 -73.5h-159q1 58 22 102.5t56.5 74.5t83.5 45t104 15q45 0 91.5 -10t84 -33t61 -60t23.5 -90q0 -23 -6 -45.5t-18.5 -41.5t-30.5 -32t-42 -17v-2 q60 -16 89.5 -57t29.5 -103q0 -59 -24.5 -101.5t-64.5 -69.5t-90.5 -39.5t-102.5 -12.5q-61 0 -114.5 15.5t-92.5 48t-60.5 81.5t-17.5 116h159q-3 -124 125 -124q22 0 42 5t36 15.5t25.5 26.5t9.5 39q0 29 -10 47.5t-26.5 29t-39.5 14.5t-48 4q-11 0 -22.5 -0.5t-22.5 -1.5 v118z" />
<glyph unicode="4" d="M341 299v225h-2l-176 -225h178zM597 299v-144h-91v-155h-170v155h-305v159l312 383h163v-398h91z" />
<glyph unicode="5" d="M192 216q0 -21 10.5 -37t26.5 -27t36 -17t39 -6q50 0 83 30.5t33 81.5t-28.5 83t-81.5 32q-36 0 -63.5 -10.5t-47.5 -42.5h-154l68 394h440v-144h-309l-26 -127h2q26 26 61 38t75 12q54 0 97 -15t73.5 -44t47 -71.5t16.5 -96.5q0 -65 -22 -113t-60.5 -80t-90.5 -48 t-113 -16q-57 0 -107 11.5t-87.5 38t-60.5 69t-27 105.5h170z" />
<glyph unicode="6" d="M426 516q-5 21 -14 33.5t-21 20.5q-12 7 -25 9t-24 2q-37 0 -62.5 -16.5t-42 -42.5t-25 -57t-9.5 -61h2q26 43 69.5 58.5t93.5 15.5q48 0 89.5 -18t71.5 -49.5t47.5 -73t17.5 -89.5q0 -62 -22 -110t-60.5 -80.5t-89 -49t-107.5 -16.5q-77 0 -130 30t-86 79.5t-47.5 112.5 t-14.5 130q0 73 18 139t55.5 115.5t95 78.5t136.5 29q46 0 87 -12t73 -35.5t53.5 -59t29.5 -83.5h-159zM207 237q0 -45 30 -76.5t80 -31.5q27 0 48.5 8.5t37 23.5t24 34.5t8.5 40.5q0 49 -30.5 83t-88.5 34q-24 0 -44 -9t-34.5 -25t-22.5 -37t-8 -45z" />
<glyph unicode="7" d="M60 697h507v-137q-11 -9 -29 -31t-38.5 -52t-42 -66.5t-39.5 -75.5q-42 -93 -57 -179.5t-16 -155.5h-183q1 31 7.5 69.5t17.5 82t27.5 90t39.5 93.5q19 40 40.5 75t41 62.5t35 45.5t23.5 23v2h-334v154z" />
<glyph unicode="8" d="M316 581q-21 0 -40 -4.5t-34 -14t-23.5 -24.5t-8.5 -37q0 -23 9 -39t24 -25.5t34 -13.5t39 -4q19 0 38 4.5t34.5 14t25 25t9.5 38.5q0 21 -9 36.5t-24 25t-34 14t-40 4.5zM29 205q0 30 9.5 58t27.5 50t42.5 37t54.5 20v2q-51 12 -77.5 51.5t-26.5 90.5q0 52 24 88.5 t61.5 59.5t83.5 33.5t90 10.5q45 0 90.5 -10.5t82 -34t60 -60t23.5 -88.5q0 -24 -7 -47t-20.5 -42t-32.5 -33t-43 -19v-2q60 -12 95.5 -55.5t35.5 -109.5q0 -58 -25 -98.5t-65.5 -66t-91.5 -37t-103 -11.5q-51 0 -102.5 10.5t-93 35t-67 65.5t-25.5 102zM317 314 q-23 0 -44 -6t-37.5 -18.5t-26.5 -31.5t-10 -44q0 -26 10 -44.5t26 -30.5t37 -17.5t44 -5.5q22 0 42.5 5.5t37 17t26.5 30t10 45.5q0 48 -33.5 74t-81.5 26z" />
<glyph unicode="9" d="M205 181q3 -17 12 -29t22 -20t28.5 -12t31.5 -4q34 0 58 14.5t39.5 39.5t22.5 56.5t9 66.5h-2q-12 -20 -29 -34.5t-38 -23.5t-44 -13t-45 -4q-52 0 -95 18t-73.5 49.5t-47.5 75t-17 94.5q0 56 21.5 102t58 79t85 51.5t102.5 18.5q76 0 131 -27t90 -73.5t52 -108.5 t17 -132q0 -75 -16.5 -143t-53 -119t-94.5 -81t-141 -30q-96 0 -160.5 46t-82.5 143h159zM308 343q27 0 48.5 9t36.5 24.5t23 36t8 44.5q0 47 -31 79t-86 32q-24 0 -44.5 -9t-35 -24t-23 -34.5t-8.5 -41.5q0 -49 29.5 -82.5t82.5 -33.5z" />
<glyph unicode=":" horiz-adv-x="316" d="M65 186h186v-186h-186v186zM251 333h-186v186h186v-186z" />
<glyph unicode=";" horiz-adv-x="316" d="M251 333h-186v186h186v-186zM65 186h186v-165q0 -54 -18.5 -90t-46.5 -58t-60.5 -32.5t-60.5 -13.5v80q41 11 59 33t23 60h-82v186z" />
<glyph unicode="&#x3c;" horiz-adv-x="600" d="M46 182v142l508 190v-154l-307 -106v-2l307 -106v-153z" />
<glyph unicode="=" horiz-adv-x="600" d="M552 57h-504v144h504v-144zM552 305h-504v144h504v-144z" />
<glyph unicode="&#x3e;" horiz-adv-x="600" d="M46 146l307 106v2l-307 106v154l508 -190v-142l-508 -189v153z" />
<glyph unicode="?" horiz-adv-x="574" d="M182 186h186v-186h-186v186zM31 480q1 59 20 105.5t53.5 78.5t82 48.5t106.5 16.5q47 0 92 -12.5t80 -38t56.5 -63.5t21.5 -90q0 -36 -8.5 -62t-24.5 -46.5t-39 -37t-51 -34.5q-20 -13 -32.5 -23t-20 -21.5t-10.5 -27t-3 -37.5h-158v50q0 29 7.5 51t19 38t26 28t28.5 22 q15 11 29.5 20.5t26 21t18 25t6.5 32.5q0 29 -19 45t-46 16q-42 0 -64 -23t-22 -63v-19h-175z" />
<glyph unicode="@" horiz-adv-x="800" d="M526 536h94l-44 -238q-1 -6 -3 -15.5t-2 -18.5t2 -15t10 -6q16 0 32.5 8.5t30 27t22 47.5t8.5 69q0 60 -19.5 105.5t-54.5 75.5t-83 45.5t-105 15.5q-62 0 -112.5 -21t-86 -58t-54.5 -89t-19 -113q0 -66 21.5 -117.5t59.5 -87.5t91.5 -55t116.5 -19q57 0 104.5 15.5 t84.5 43.5h98q-54 -74 -128.5 -112t-166.5 -38q-80 0 -150.5 27.5t-123.5 76.5t-83.5 117t-30.5 149q0 80 30 148t82 118t121.5 78.5t148.5 28.5q66 0 128.5 -21t111.5 -60.5t78.5 -95.5t29.5 -125q0 -57 -14 -101t-36.5 -76t-50.5 -53.5t-55.5 -34.5t-51.5 -18.5t-39 -5.5 q-28 0 -44.5 12.5t-17.5 36.5h-2q-15 -20 -38.5 -35t-57.5 -15q-32 0 -62 14.5t-53 39t-36.5 57.5t-13.5 70q0 44 14 85t40.5 73t63.5 51t83 19q38 0 69 -13.5t54 -44.5zM386 252q47 0 74.5 31t27.5 74q0 36 -21.5 58.5t-57.5 22.5q-22 0 -40 -9t-31 -23.5t-20.5 -33.5 t-7.5 -38q0 -35 19.5 -58.5t56.5 -23.5z" />
<glyph unicode="A" horiz-adv-x="704" d="M258 714h189l267 -714h-194l-44 128h-249l-45 -128h-190zM270 266h162l-79 250h-2z" />
<glyph unicode="B" horiz-adv-x="722" d="M250 433h144q12 0 25.5 3.5t24.5 11.5t18.5 21t7.5 32q0 39 -23.5 54t-52.5 15h-144v-137zM64 714h334q46 0 92 -7t83 -26.5t60 -54.5t23 -91q0 -48 -26 -85.5t-68 -58.5q57 -17 90 -62.5t33 -106.5q0 -64 -22 -106.5t-59.5 -68t-88.5 -36.5t-108 -11h-343v714zM250 149 h149q44 0 72 18t28 62q0 47 -29 65.5t-71 18.5h-149v-164z" />
<glyph unicode="C" horiz-adv-x="759" d="M538 459q-8 54 -46.5 82t-97.5 28q-45 0 -76.5 -18t-51.5 -48t-29 -68t-9 -78t9 -78t29 -68t51.5 -48t76.5 -18q66 0 102.5 35t41.5 97h186q-4 -69 -30 -123t-69 -91.5t-101 -57t-126 -19.5q-81 0 -147 29t-112.5 79t-71.5 117.5t-25 145.5t25 145.5t71.5 118t112.5 79.5 t147 29q58 0 115.5 -18t103.5 -52.5t75.5 -85t31.5 -114.5h-186z" />
<glyph unicode="D" horiz-adv-x="759" d="M250 160h88q53 0 90.5 11.5t61 35.5t34.5 62t11 92q0 98 -50.5 145.5t-146.5 47.5h-88v-394zM64 714h307q82 0 147 -24t110 -70t69 -111.5t24 -148.5q0 -88 -24 -155t-69.5 -112.5t-110.5 -69t-146 -23.5h-307v714z" />
<glyph unicode="E" horiz-adv-x="685" d="M64 714h569v-149h-383v-125h350v-144h-350v-136h393v-160h-579v714z" />
<glyph unicode="F" horiz-adv-x="611" d="M64 714h526v-149h-340v-146h294v-144h-294v-275h-186v714z" />
<glyph unicode="G" horiz-adv-x="778" d="M723 0h-120l-11 78q-18 -26 -42.5 -43.5t-51 -28.5t-53.5 -15.5t-52 -4.5q-81 0 -147 29t-112.5 79t-71.5 117.5t-25 145.5t25 145.5t71.5 118t112.5 79.5t147 29q55 0 110.5 -15t100.5 -46.5t75.5 -80.5t36.5 -116h-186q-5 46 -44.5 72t-96.5 26q-45 0 -76.5 -18 t-51.5 -48t-29 -68t-9 -78t9 -78t29 -68t51.5 -48t76.5 -18q69 0 112.5 29.5t51.5 78.5h-130v138h300v-391z" />
<glyph unicode="H" horiz-adv-x="741" d="M62 714h186v-260h245v260h186v-714h-186v294h-245v-294h-186v714z" />
<glyph unicode="I" horiz-adv-x="315" d="M64 714h186v-714h-186v714z" />
<glyph unicode="J" horiz-adv-x="593" d="M528 226q0 -240 -250 -240q-71 0 -119 19.5t-77 54.5t-41.5 84t-12.5 109v31h175v-66q0 -35 18.5 -54t53.5 -19q32 0 49.5 20.5t17.5 72.5v476h186v-488z" />
<glyph unicode="K" horiz-adv-x="741" d="M64 714h186v-274l235 274h231l-264 -281l297 -433h-231l-192 300l-76 -80v-220h-186v714z" />
<glyph unicode="L" horiz-adv-x="611" d="M64 714h186v-554h333v-160h-519v714z" />
<glyph unicode="M" horiz-adv-x="926" d="M65 714h274l123 -476h2l123 476h274v-714h-175v542h-2l-150 -542h-142l-150 542h-2v-542h-175v714z" />
<glyph unicode="N" horiz-adv-x="741" d="M62 714h191l248 -440h2v440h175v-714h-191l-248 445h-2v-445h-175v714z" />
<glyph unicode="O" horiz-adv-x="778" d="M223 357q0 -40 9 -78t29 -68t51.5 -48t76.5 -18t76.5 18t51.5 48t29 68t9 78t-9 78t-29 68t-51.5 48t-76.5 18t-76.5 -18t-51.5 -48t-29 -68t-9 -78zM37 357q0 78 23.5 145.5t68.5 118t110.5 79.5t149.5 29t149.5 -29t110.5 -79.5t68.5 -118t23.5 -145.5t-23.5 -145.5 t-68.5 -117.5t-110.5 -79t-149.5 -29t-149.5 29t-110.5 79t-68.5 117.5t-23.5 145.5z" />
<glyph unicode="P" horiz-adv-x="685" d="M250 382h125q44 0 72 20t28 69q0 51 -28.5 72.5t-71.5 21.5h-125v-183zM64 714h339q50 0 96.5 -12t82.5 -39.5t57.5 -71.5t21.5 -107q0 -66 -18 -113t-52 -76.5t-81.5 -43t-106.5 -13.5h-153v-238h-186v714z" />
<glyph unicode="Q" horiz-adv-x="778" d="M453 291l70 -68q17 29 24.5 63.5t7.5 70.5q0 40 -9 78t-29 68t-51.5 48t-76.5 18t-76.5 -18t-51.5 -48t-29 -68t-9 -78t9 -78t29 -68t51.5 -48t76.5 -18q22 0 37 4l-56 55zM653 -73l-98 95q-35 -17 -76.5 -26.5t-89.5 -9.5q-84 0 -149.5 29t-110.5 79t-68.5 117.5 t-23.5 145.5t23.5 145.5t68.5 118t110.5 79.5t149.5 29t149.5 -29t110.5 -79.5t68.5 -118t23.5 -145.5q0 -77 -22.5 -143t-66.5 -117l86 -83z" />
<glyph unicode="R" horiz-adv-x="722" d="M250 404h156q42 0 64 21.5t22 62.5q0 40 -27.5 58.5t-66.5 18.5h-148v-161zM64 714h364q47 0 92 -11t80 -35.5t56.5 -62.5t21.5 -92q0 -58 -27.5 -107.5t-84.5 -71.5v-2q28 -7 47 -25t31 -42t18 -51.5t8 -52.5q1 -11 2 -34t4 -48t9 -47t15 -32h-184q-6 9 -10 25t-6 33.5 t-3 32.5t-2 23q-2 27 -6 53t-15 47t-30.5 33.5t-52.5 12.5h-141v-260h-186v714z" />
<glyph unicode="S" horiz-adv-x="667" d="M209 240q3 -63 39 -87t96 -24q21 0 41.5 4t36.5 12.5t26 22.5t10 34q0 24 -17.5 39t-46.5 26t-65.5 19.5t-75.5 19.5q-38 11 -75.5 26t-67 38.5t-48 58t-18.5 83.5q0 58 26.5 99.5t68.5 67.5t94 38t102 12q53 0 104.5 -13.5t91.5 -41.5t65 -71.5t25 -103.5h-186 q1 24 -9 40.5t-26.5 26.5t-37.5 14.5t-42 4.5q-15 0 -31 -3t-29 -10t-21.5 -18.5t-8.5 -29.5q0 -21 17.5 -34t47 -23t66.5 -18t76 -19t76 -26.5t66 -39t47 -58t18 -82.5q0 -68 -26.5 -113.5t-70 -73.5t-99.5 -39.5t-115 -11.5q-62 0 -117.5 14t-98.5 44.5t-68.5 78.5 t-25.5 117h186z" />
<glyph unicode="T" horiz-adv-x="648" d="M630 554h-213v-554h-186v554h-213v160h612v-160z" />
<glyph unicode="U" horiz-adv-x="741" d="M681 295q0 -155 -74.5 -232t-236.5 -77t-236.5 77t-74.5 232v419h186v-430q0 -69 28 -104t97 -35t97 35t28 104v430h186v-419z" />
<glyph unicode="V" horiz-adv-x="648" d="M428 0h-214l-224 714h193l140 -531h2l140 531h194z" />
<glyph unicode="W" horiz-adv-x="963" d="M766 0h-186l-98 492h-2l-98 -492h-189l-193 714h186l101 -522h2l105 522h175l105 -522h2l101 522h186z" />
<glyph unicode="X" horiz-adv-x="704" d="M246 375l-233 339h219l120 -222l127 222h212l-231 -339l252 -375h-226l-134 238l-146 -238h-213z" />
<glyph unicode="Y" horiz-adv-x="667" d="M427 266v-266h-186v266l-259 448h210l142 -290l142 290h211z" />
<glyph unicode="Z" horiz-adv-x="667" d="M24 152l366 402h-344v160h584v-144l-375 -410h388v-160h-619v152z" />
<glyph unicode="[" horiz-adv-x="370" d="M69 729h294v-144h-135v-614h135v-144h-294v902z" />
<glyph unicode="\" horiz-adv-x="407" d="M416 -14h-156l-268 743h155z" />
<glyph unicode="]" horiz-adv-x="370" d="M301 -173h-294v144h135v614h-135v144h294v-902z" />
<glyph unicode="^" horiz-adv-x="600" d="M47 332l162 365h182l162 -365h-160l-93 238l-94 -238h-159z" />
<glyph unicode="_" horiz-adv-x="500" d="M0 -124v50h500v-50h-500z" />
<glyph unicode="`" horiz-adv-x="296" d="M242 575h-120l-156 149h179z" />
<glyph unicode="a" horiz-adv-x="593" d="M50 359q2 51 24 85t57 54t77.5 28t87.5 8q46 0 89.5 -6.5t77.5 -25.5t54.5 -53t20.5 -89v-227q0 -33 2.5 -67.5t17.5 -65.5h-171q-5 12 -6.5 24t-3.5 25q-33 -35 -78.5 -49t-92.5 -14q-37 0 -69.5 9.5t-56.5 28.5t-37.5 48.5t-13.5 69.5q0 42 14 70t38 46t55 28t64.5 16 t67 10t63.5 10q22 5 33.5 14.5t11.5 33.5q0 15 -8 25t-20 16.5t-26.5 9.5t-27.5 3q-73 0 -85 -65h-159zM199 149q0 -32 21 -45.5t50 -13.5q61 0 84 36t20 117q-18 -11 -47.5 -16t-57.5 -12q-29 -8 -49.5 -21.5t-20.5 -44.5z" />
<glyph unicode="b" d="M325 404q-17 0 -35.5 -6.5t-33.5 -22.5t-25 -43t-10 -67q0 -68 22.5 -109t80.5 -41q28 0 47.5 13.5t31.5 35t17.5 48t5.5 53.5q0 25 -5 49.5t-17 44.5t-31.5 32.5t-47.5 12.5zM57 714h170v-252h2q52 72 148 72q55 0 96 -22t68.5 -59t41 -84t13.5 -98q0 -55 -13.5 -106.5 t-41.5 -91t-72 -63.5t-105 -24q-45 0 -81.5 18.5t-61.5 55.5h-2v-60h-162v714z" />
<glyph unicode="c" horiz-adv-x="593" d="M395 329q0 16 -7 30t-18.5 24t-26.5 15.5t-31 5.5q-36 0 -57.5 -14t-33 -35.5t-15.5 -49t-4 -54.5q0 -25 5.5 -49.5t18 -43.5t31.5 -31t46 -12q45 0 68 23.5t29 65.5h165q-6 -52 -28 -92.5t-56.5 -68.5t-79.5 -42.5t-97 -14.5q-59 0 -108.5 19t-86 54t-57 83.5 t-20.5 108.5q0 62 19 114t54.5 89.5t85.5 58.5t113 21q48 0 92.5 -13t79.5 -38.5t57 -64t27 -89.5h-165z" />
<glyph unicode="d" d="M571 0h-162v60h-2q-25 -37 -61.5 -55.5t-81.5 -18.5q-61 0 -105 24t-72 63.5t-41.5 91t-13.5 106.5q0 51 13.5 98t41 84t68.5 59t96 22q95 0 148 -71h2v251h170v-714zM306 404q-29 0 -49 -12.5t-32 -32.5t-17.5 -44.5t-5.5 -49.5q0 -27 5.5 -53.5t17.5 -48t32 -35 t49 -13.5q31 0 50.5 13.5t31 34.5t15.5 46.5t4 50.5q0 28 -5.5 54t-17.5 46t-31 32t-47 12z" />
<glyph unicode="e" horiz-adv-x="611" d="M202 218q2 -54 32 -86t84 -32q31 0 58 14t39 43h159q-12 -45 -37.5 -77.5t-60 -53t-76 -30.5t-84.5 -10q-63 0 -115.5 18.5t-90 53.5t-58 86.5t-20.5 116.5q0 60 22 110t60.5 86t89.5 56.5t108 20.5q70 0 122 -24.5t86 -67.5t50 -100.5t13 -123.5h-381zM413 313 q-2 44 -30 75t-71 31q-45 0 -73.5 -29t-36.5 -77h211z" />
<glyph unicode="f" horiz-adv-x="370" d="M94 409h-82v110h82q0 56 10.5 93.5t33.5 60t61 32t92 9.5q20 0 41 -1t41 -2v-120q-24 3 -46 3q-29 0 -46 -8.5t-17 -43.5v-23h102v-110h-102v-409h-170v409z" />
<glyph unicode="g" horiz-adv-x="611" d="M559 63q0 -21 -2.5 -47t-11 -53.5t-25 -53t-45.5 -46t-71.5 -32.5t-103.5 -12q-45 0 -88 6.5t-77.5 24.5t-58.5 50.5t-31 84.5h170q6 -33 29 -45q21 -11 62 -11q30 0 48 10t27 26.5t11.5 38t2.5 45.5v49h-2q-23 -36 -59.5 -56t-78.5 -20q-59 0 -102 20t-71 54.5 t-41.5 81.5t-13.5 102q0 52 15 98t44 80.5t71.5 55t97.5 20.5q94 0 139 -80h2v65h163v-456zM398 273q0 25 -5.5 48.5t-17.5 42t-31.5 29.5t-47.5 11t-47 -11.5t-30.5 -29.5t-16.5 -41.5t-5 -47.5q0 -23 5.5 -45t17.5 -39t30.5 -27.5t44.5 -10.5q27 0 46.5 10t32 26.5 t18.5 38.5t6 46z" />
<glyph unicode="h" d="M57 714h170v-266h2q10 20 27 36t38.5 27t45.5 17t47 6q65 0 102.5 -21t56 -51.5t23.5 -65.5t5 -63v-333h-170v251v52.5t-7.5 45.5t-25 32.5t-52.5 12.5q-24 0 -41.5 -9.5t-28.5 -25t-16.5 -35.5t-5.5 -41v-283h-170v714z" />
<glyph unicode="i" horiz-adv-x="296" d="M233 584h-170v130h170v-130zM63 519h170v-519h-170v519z" />
<glyph unicode="j" horiz-adv-x="296" d="M233 584h-170v130h170v-130zM233 0q0 -49 -10 -82t-31 -53.5t-53.5 -29t-77.5 -8.5h-85v138h33q26 0 40 10t14 37v507h170v-519z" />
<glyph unicode="k" horiz-adv-x="593" d="M57 714h170v-368l155 173h197l-190 -196l214 -323h-205l-127 209l-44 -43v-166h-170v714z" />
<glyph unicode="l" horiz-adv-x="296" d="M63 714h170v-714h-170v714z" />
<glyph unicode="m" horiz-adv-x="926" d="M57 519h165v-71h2q23 39 62 62.5t87 23.5q49 0 89.5 -18.5t61.5 -65.5q31 42 70 63t92 21q62 0 98.5 -21t55 -54t24 -72.5t5.5 -76.5v-310h-170v305q0 42 -19 65.5t-52 23.5q-27 0 -43 -10t-24.5 -28.5t-10.5 -44.5t-2 -57v-254h-170v295q0 46 -14.5 72.5t-49.5 26.5 q-46 0 -66.5 -31t-20.5 -110v-253h-170v519z" />
<glyph unicode="n" d="M57 519h165v-71h2q12 20 30 36t40 27t46 17t47 6q65 0 102.5 -21t56 -51.5t23.5 -65.5t5 -63v-333h-170v251v52.5t-7.5 45.5t-25 32.5t-52.5 12.5q-24 0 -41.5 -9.5t-28.5 -25t-16.5 -35.5t-5.5 -41v-283h-170v519z" />
<glyph unicode="o" horiz-adv-x="611" d="M32 259q0 58 20 108.5t56 87.5t86.5 58t110.5 21t110.5 -21t87 -58t56.5 -87.5t20 -108.5q0 -59 -20 -108.5t-56.5 -86.5t-87 -57.5t-110.5 -20.5t-110.5 20.5t-86.5 57.5t-56 86.5t-20 108.5zM202 259q0 -25 5 -50.5t17 -46.5t31.5 -34t49.5 -13t50 13t32 34t17 46.5 t5 50.5t-5 50.5t-17 46.5t-32 34.5t-50 13.5t-49.5 -13.5t-31.5 -34.5t-17 -46.5t-5 -50.5z" />
<glyph unicode="p" d="M57 519h162v-60h2q51 75 143 75q61 0 105 -24t72 -64t41.5 -91.5t13.5 -106.5q0 -51 -13.5 -98t-41 -83.5t-68.5 -58.5t-96 -22q-96 0 -148 70h-2v-229h-170v692zM325 404q-17 0 -35.5 -6.5t-33.5 -22.5t-25 -43t-10 -67q0 -68 22.5 -109t80.5 -41q28 0 47.5 13.5 t31.5 35t17.5 48t5.5 53.5q0 25 -5 49.5t-17 44.5t-31.5 32.5t-47.5 12.5z" />
<glyph unicode="q" d="M571 -173h-170v230h-2q-52 -71 -148 -71q-55 0 -96 22t-68.5 58.5t-41 83.5t-13.5 98q0 55 13.5 106.5t41.5 91.5t72 64t105 24q92 0 143 -75h2v60h162v-692zM202 254q0 -25 5 -49.5t17 -44.5t31.5 -32.5t47.5 -12.5q17 0 35.5 6.5t33.5 23t25 43t10 67.5q0 26 -4.5 52.5 t-15.5 48t-31 35t-50 13.5q-29 0 -49 -13.5t-32 -35t-17.5 -48t-5.5 -53.5z" />
<glyph unicode="r" horiz-adv-x="426" d="M63 519h165v-91h2q19 50 60 75.5t96 25.5q10 0 20 -1t20 -3v-155q-17 5 -32.5 7.5t-32.5 2.5q-32 0 -55.5 -10t-40 -27t-24.5 -39.5t-8 -46.5v-257h-170v519z" />
<glyph unicode="s" horiz-adv-x="556" d="M189 171q0 -20 7.5 -34t20.5 -24q12 -9 28.5 -13.5t34.5 -4.5q12 0 26 3t26 9.5t20 17t8 25.5t-9 24.5t-21.5 15.5t-27 9t-25.5 6q-40 10 -82.5 18t-78 24.5t-58 45.5t-22.5 82q0 47 22.5 77.5t57.5 48.5t77 25.5t80 7.5q43 0 84.5 -7.5t75.5 -26t55.5 -51t23.5 -83.5 h-157q0 31 -22 45q-20 13 -54 13q-11 0 -23.5 -1t-23.5 -5t-18.5 -12t-7.5 -21q0 -18 19 -30t47.5 -20t62.5 -13.5t63 -11.5q39 -8 64.5 -25t40.5 -37t21 -41t6 -37q0 -52 -22.5 -87.5t-58 -57t-80 -30.5t-88.5 -9q-46 0 -91 8.5t-80.5 29.5t-58 57t-24.5 90h162z" />
<glyph unicode="t" horiz-adv-x="389" d="M370 409h-105v-236q0 -31 16.5 -40.5t44.5 -9.5q11 0 22 1t22 1v-125q-23 0 -46.5 -2t-46.5 -2q-54 0 -89.5 8.5t-56 29.5t-28.5 56t-8 88v231h-86v110h86v157h170v-157h105v-110z" />
<glyph unicode="u" d="M573 0h-165v71h-2q-24 -40 -68.5 -62.5t-89.5 -22.5q-56 0 -93 15.5t-59 44t-31 69.5t-9 92v312h170v-301q0 -52 21.5 -72.5t62.5 -20.5q14 0 30 5t30 18.5t23.5 35.5t9.5 57v278h170v-519z" />
<glyph unicode="v" horiz-adv-x="537" d="M366 0h-196l-172 519h176l95 -343h2l96 343h173z" />
<glyph unicode="w" horiz-adv-x="833" d="M671 0h-172l-82 345h-2l-81 -345h-172l-162 519h172l87 -336h2l74 336h162l76 -335h2l85 335h173z" />
<glyph unicode="x" horiz-adv-x="537" d="M173 272l-165 247h188l73 -124l73 124h180l-162 -244l184 -275h-188l-90 150l-85 -150h-187z" />
<glyph unicode="y" horiz-adv-x="537" d="M340 -45q-15 -43 -35 -68t-46 -38.5t-59.5 -17.5t-76.5 -4h-80v138h59q29 0 48.5 15.5t19.5 41.5q0 10 -5.5 29t-12.5 39t-14 38.5t-11 29.5l-133 361h179l98 -338h2l98 338h174z" />
<glyph unicode="z" horiz-adv-x="537" d="M22 132l259 257h-238v130h454v-129l-259 -260h278v-130h-494v132z" />
<glyph unicode="{" horiz-adv-x="370" d="M356 609h-41q-18 0 -29 -6.5t-16 -16t-6.5 -21t-1.5 -21.5v-164q0 -29 -12 -47.5t-29.5 -29t-37.5 -14.5t-36 -5v-3q16 -1 36 -4.5t37.5 -14t29.5 -30.5t12 -56v-165q0 -10 1.5 -21t6.5 -20.5t16 -16t29 -6.5h41v-120h-118q-28 0 -52.5 8t-43 26t-29 46t-10.5 68v172 q0 24 -10.5 37.5t-25 21t-29.5 9.5t-24 2v120q9 0 24 2t29.5 8t25 18t10.5 33v188q0 40 10.5 67.5t29 44.5t43 24t52.5 7h118v-120z" />
<glyph unicode="|" horiz-adv-x="222" d="M39 786h144v-999h-144v999z" />
<glyph unicode="}" horiz-adv-x="370" d="M14 -53h41q18 0 29 6.5t16 16t6.5 20.5t1.5 21v165q0 36 12 56t29.5 30.5t37.5 14t36 4.5v3q-16 1 -36 5t-37.5 14.5t-29.5 29t-12 47.5v164q0 10 -1.5 21.5t-6.5 21t-16 16t-29 6.5h-41v120h118q28 0 52.5 -7t43 -24t29 -44.5t10.5 -67.5v-188q0 -21 10.5 -33t25 -18 t29.5 -8t24 -2v-120q-9 0 -24 -2t-29.5 -9.5t-25 -21t-10.5 -37.5v-172q0 -40 -10.5 -68t-29 -46t-43 -26t-52.5 -8h-118v120z" />
<glyph unicode="~" horiz-adv-x="600" d="M531 233q-11 -16 -23.5 -31.5t-27 -27.5t-33 -19.5t-41.5 -7.5q-28 0 -52.5 9.5t-49.5 23.5q-24 14 -52 24.5t-63 10.5q-17 0 -29.5 -6.5t-23 -16.5t-18 -23t-13.5 -26l-36 130q8 16 19.5 31.5t26.5 27.5t34.5 19.5t44.5 7.5q26 0 54 -9.5t57 -22.5q28 -12 55 -24t47 -12 q15 0 27.5 6.5t23 16.5t19.5 23l18 26z" />
<glyph unicode="&#xa1;" horiz-adv-x="296" d="M241 361h-186v186h186v-186zM61 10l46 301h83l46 -301v-176h-175v176z" />
<glyph unicode="&#xa2;" d="M299 -12q-55 3 -101 23.5t-79 55t-51.5 81t-18.5 103.5q0 59 17.5 109t49.5 87t78.5 59.5t104.5 26.5v79h46v-79q44 -3 84 -17.5t71.5 -40t51.5 -62t25 -84.5h-165q-1 29 -20.5 48.5t-46.5 23.5v-283q32 6 49.5 28.5t22.5 57.5h165q-6 -49 -26 -88t-51 -66.5t-72 -43 t-88 -18.5v-92h-46v92zM299 401q-26 -6 -41.5 -21t-24 -36t-11.5 -45t-3 -48q0 -23 4.5 -44.5t14 -40t25 -31.5t36.5 -17v283z" />
<glyph unicode="&#xa3;" d="M51 87q18 12 37.5 27.5t35 34.5t26 41t10.5 45q0 16 -3 33.5t-10 31.5h-106v105h67q-17 23 -30 52.5t-13 60.5q0 55 23 95t59.5 65.5t83 38t94.5 12.5q59 0 107.5 -15.5t83 -47t52.5 -78t16 -107.5h-165q1 20 -3 38.5t-13.5 33t-25.5 23.5t-39 9q-38 0 -62.5 -20 t-24.5 -59q0 -11 4 -25t10 -28t13 -27t13 -21h119v-105h-89q7 -20 7 -42q0 -32 -15.5 -62.5t-53.5 -59.5l2 -2q16 11 35.5 15t39.5 4q26 0 57.5 -9.5t60.5 -9.5q32 0 50.5 11t38.5 34l69 -123q-21 -22 -42.5 -35.5t-43 -21t-43.5 -10.5t-45 -3q-25 0 -51 6t-53 13t-54.5 13 t-54.5 6q-29 0 -56 -12t-50 -26z" />
<glyph unicode="&#xa4;" d="M194 350q0 -30 9.5 -55t26 -43t38.5 -27.5t47 -9.5t47 9.5t38.5 27.5t26 43t9.5 55t-9.5 55t-26 43t-38.5 27.5t-47 9.5t-47 -9.5t-38.5 -27.5t-26 -43t-9.5 -55zM58 148l44 45q-25 33 -38.5 72.5t-13.5 84.5q0 43 13 81.5t36 72.5l-45 44l60 60l45 -44q32 24 71.5 37.5 t84.5 13.5t84.5 -13.5t71.5 -37.5l43 44l60 -60l-44 -44q23 -32 36.5 -71t13.5 -83t-13.5 -83t-36.5 -71l44 -44l-60 -60l-44 44q-32 -24 -71 -37.5t-84 -13.5q-43 0 -81.5 12.5t-70.5 35.5l-45 -45z" />
<glyph unicode="&#xa5;" d="M481 413h103v-105h-156l-20 -41v-31h176v-105h-176v-131h-186v131h-176v105h176v31l-20 41h-156v105h104l-150 301h186l128 -301h2l128 301h186z" />
<glyph unicode="&#xa6;" horiz-adv-x="222" d="M183 411h-144v250h144v-250zM39 161h144v-249h-144v249z" />
<glyph unicode="&#xa7;" d="M397 534q0 33 -21 52q-20 18 -53 18q-23 0 -42 -13t-19 -39q0 -14 7.5 -24.5t18.5 -18.5t23.5 -14.5t23.5 -11.5l166 -81q43 -21 69 -52.5t26 -83.5q0 -51 -26.5 -93.5t-76.5 -56.5q50 -42 50 -110q0 -48 -19 -83t-51 -58.5t-73 -34.5t-84 -11q-49 0 -92 11.5t-74.5 36 t-50 63t-18.5 92.5h147q0 -18 7 -32.5t18 -25.5q23 -20 60 -20q30 0 50 16.5t20 44.5q0 25 -26 44t-64.5 36.5t-83.5 36t-83.5 43t-64.5 58t-26 80.5q0 57 28 95t77 57q-20 23 -29 46t-9 54q0 44 20 76.5t52 54.5t70.5 32.5t76.5 10.5q46 0 86 -12t70 -36.5t48 -61t19 -85.5 h-147zM407 185q11 3 23.5 11.5t16.5 19.5q10 20 -1 42t-46 39l-151 70q-32 15 -50 1.5t-20 -39.5q-2 -20 10.5 -31.5t30.5 -22.5z" />
<glyph unicode="&#xa8;" horiz-adv-x="296" d="M-32 714h149v-125h-149v125zM180 589v125h150v-125h-150z" />
<glyph unicode="&#xa9;" horiz-adv-x="800" d="M593 303q-5 -39 -21.5 -68t-40.5 -49t-53.5 -30t-62.5 -10q-47 0 -85.5 16.5t-65.5 45.5t-42 68t-15 84q0 46 14 85.5t41 68t65 45t86 16.5q34 0 63.5 -10t52.5 -29t38.5 -48t21.5 -66h-90q-7 32 -31.5 45t-54.5 13q-43 0 -66 -32t-23 -86q0 -52 25 -86.5t66 -34.5 q35 0 58.5 14.5t25.5 47.5h94zM400 80q53 0 100.5 20.5t83 57t56.5 87.5t21 112t-21 112t-56.5 87.5t-83 57t-100.5 20.5q-54 0 -101.5 -20.5t-83 -57t-56 -87.5t-20.5 -112t20.5 -112t56 -87.5t83 -57t101.5 -20.5zM400 -14q-75 0 -144.5 25t-123.5 72t-86 116t-32 158 q0 88 32 157.5t86 117t123.5 72.5t144.5 25t144.5 -25t123 -72.5t86 -117t32.5 -157.5q0 -89 -32.5 -158t-86 -116t-123 -72t-144.5 -25z" />
<glyph unicode="&#xaa;" horiz-adv-x="377" d="M14 592q1 38 15 59.5t37 33.5q23 11 52.5 16t69.5 5q37 0 69 -4t56 -16t37.5 -34.5t13.5 -58.5v-139q0 -20 1.5 -42t11.5 -50h-129q-5 14 -7 29q-15 -10 -28.5 -17t-27.5 -12q-26 -9 -55 -9q-60 0 -95 23t-35 71q0 45 20 66.5t50 32.5q31 11 67.5 14t73.5 10q14 3 21.5 9 t7.5 20t-18 20.5t-35 6.5q-47 0 -55 -34h-118zM239 520q-18 -7 -34 -10t-34 -7q-19 -4 -32.5 -12.5t-13.5 -27.5q0 -15 14 -22.5t33 -7.5q67 0 67 68v19z" />
<glyph unicode="&#xab;" horiz-adv-x="444" d="M240 346l159 128v-137l-86 -67l86 -66v-137l-159 127v152zM45 346l159 128v-137l-86 -67l86 -66v-137l-159 127v152z" />
<glyph unicode="&#xac;" horiz-adv-x="600" d="M408 305h-360v144h504v-329h-144v185z" />
<glyph unicode="&#xad;" horiz-adv-x="407" d="M48 200v144h311v-144h-311z" />
<glyph unicode="&#xae;" horiz-adv-x="800" d="M400 80q53 0 100.5 20.5t83 57t56.5 87.5t21 112t-21 112t-56.5 87.5t-83 57t-100.5 20.5q-54 0 -101.5 -20.5t-83 -57t-56 -87.5t-20.5 -112t20.5 -112t56 -87.5t83 -57t101.5 -20.5zM400 -14q-75 0 -144.5 25t-123.5 72t-86 116t-32 158q0 88 32 157.5t86 117 t123.5 72.5t144.5 25t144.5 -25t123 -72.5t86 -117t32.5 -157.5q0 -89 -32.5 -158t-86 -116t-123 -72t-144.5 -25zM417 395q26 0 40.5 9.5t14.5 41.5q0 15 -7.5 23t-19 12.5t-24.5 5.5t-24 1h-51v-93h71zM346 156h-98v403h151q40 0 71.5 -5.5t53.5 -20t34 -38t12 -59.5 q0 -56 -31.5 -80t-83.5 -26l103 -174h-95l-92 168h-25v-168z" />
<glyph unicode="&#xaf;" horiz-adv-x="296" d="M-13 604v86h324v-86h-324z" />
<glyph unicode="&#xb0;" horiz-adv-x="400" d="M200 457q37 0 58.5 26t21.5 63t-21.5 63t-58.5 26t-58.5 -26t-21.5 -63t21.5 -63t58.5 -26zM40 546q0 33 12.5 62t34.5 51t51 34.5t62 12.5t62 -12.5t51 -34.5t34.5 -51t12.5 -62t-12.5 -62t-34.5 -51t-51 -34.5t-62 -12.5t-62 12.5t-51 34.5t-34.5 51t-12.5 62z" />
<glyph unicode="&#xb1;" horiz-adv-x="600" d="M48 132h504v-143h-504v143zM228 518h144v-101h180v-144h-180v-101h-144v101h-180v144h180v101z" />
<glyph unicode="&#xb2;" horiz-adv-x="378" d="M6 278q0 45 18.5 82.5t52.5 63.5q29 23 60.5 40t57.5 33q26 15 42.5 31t16.5 31q0 24 -15.5 38t-40.5 14q-38 0 -52.5 -25t-15.5 -59h-125q0 83 48 130q23 23 58.5 36t85.5 13q38 0 71.5 -8.5t58 -25.5t38.5 -43t14 -61q0 -27 -9.5 -47.5t-26.5 -37t-39.5 -29.5 t-47.5 -26q-32 -16 -50.5 -27t-28.5 -28h194v-95h-365z" />
<glyph unicode="&#xb3;" horiz-adv-x="378" d="M167 537q8 0 15 -0.5t14 -0.5q9 0 20.5 1.5t21.5 6t17 11.5t7 18q0 17 -18 27.5t-39 10.5q-28 0 -45.5 -15t-16.5 -41h-125q3 75 53 114q24 19 57.5 28t75.5 9q35 0 68 -6.5t58.5 -21t41 -38t15.5 -58.5q0 -29 -17 -52t-52 -28v-2q39 -5 58 -29.5t19 -65.5q0 -36 -16 -62 t-42.5 -42.5t-61 -24t-71.5 -7.5q-42 0 -78 8t-63 25.5t-42.5 44t-15.5 64.5v23h125q0 -34 19 -52t54 -18q12 0 23.5 2.5t21.5 8t16 13t6 17.5q0 30 -22.5 40.5t-51.5 10.5q-7 0 -14 -0.5t-15 -0.5v82z" />
<glyph unicode="&#xb4;" horiz-adv-x="296" d="M322 724l-157 -149h-120l97 149h180z" />
<glyph unicode="&#xb5;" d="M573 0h-165v71h-2q-24 -40 -68.5 -62.5t-89.5 -22.5q-13 0 -22 6v-165h-170v692h170v-301q0 -52 21.5 -72.5t62.5 -20.5q14 0 30 5t30 18.5t23.5 35.5t9.5 57v278h170v-519z" />
<glyph unicode="&#xb6;" horiz-adv-x="620" d="M206 365q-109 0 -165.5 45t-56.5 126q0 54 18.5 88.5t51.5 54.5t78 27.5t97 7.5h314v-882h-120v792h-97v-792h-120v533z" />
<glyph unicode="&#xb7;" horiz-adv-x="315" d="M65 286q0 19 7.5 36t20 29.5t29.5 20t36 7.5t36 -7.5t29.5 -20t20 -29.5t7.5 -36t-7.5 -36t-20 -29.5t-29.5 -20t-36 -7.5t-36 7.5t-29.5 20t-20 29.5t-7.5 36z" />
<glyph unicode="&#xb8;" horiz-adv-x="296" d="M188 0l-40 -59l2 -2q10 3 19 4t21 1q14 0 29 -4t27.5 -13.5t20.5 -25t8 -37.5q0 -27 -10 -45.5t-27.5 -30t-41 -16.5t-49.5 -5q-33 0 -64.5 10.5t-53.5 20.5l19 45q20 -7 40.5 -12t41.5 -7t36 7t15 28q0 38 -43 38q-11 0 -20.5 -2t-19.5 -5l-22 19l57 91h55z" />
<glyph unicode="&#xb9;" horiz-adv-x="378" d="M54 523v90q24 0 47.5 4t42 13.5t30.5 26t14 40.5h100v-419h-125v245h-109z" />
<glyph unicode="&#xba;" horiz-adv-x="387" d="M193 353q-92 0 -143 48.5t-51 127.5q0 80 51 128.5t143 48.5q93 0 144.5 -48.5t51.5 -128.5q0 -79 -51.5 -127.5t-144.5 -48.5zM193 448q21 0 34.5 8t21.5 20t11.5 26t3.5 27t-3.5 27.5t-11.5 26.5t-21.5 20t-34.5 8q-20 0 -33.5 -8t-21.5 -20t-11.5 -26.5t-3.5 -27.5 t3.5 -27t11.5 -26t21.5 -20t33.5 -8z" />
<glyph unicode="&#xbb;" horiz-adv-x="444" d="M204 195l-159 -128v137l86 67l-86 66v137l159 -127v-152zM399 195l-159 -128v137l86 67l-86 66v137l159 -127v-152z" />
<glyph unicode="&#xbc;" horiz-adv-x="945" d="M26 523v90q24 0 47.5 4t42 13.5t30.5 26t14 40.5h100v-419h-125v245h-109zM199 -26l411 750h99l-411 -750h-99zM730 179v123l-106 -123h106zM919 179v-90h-64v-89h-126v89h-199v99l203 231h122v-240h64z" />
<glyph unicode="&#xbd;" horiz-adv-x="945" d="M557 0q0 45 18.5 82.5t52.5 63.5q29 23 60.5 40t57.5 33q26 15 42.5 31t16.5 31q0 24 -15.5 38t-40.5 14q-38 0 -52.5 -25t-15.5 -59h-125q0 83 48 130q23 23 58.5 36t85.5 13q38 0 71.5 -8.5t58 -25.5t38.5 -43t14 -61q0 -27 -9.5 -47.5t-26.5 -37t-39.5 -29.5 t-47.5 -26q-32 -16 -50.5 -27t-28.5 -28h194v-95h-365zM15 523v90q24 0 47.5 4t42 13.5t30.5 26t14 40.5h100v-419h-125v245h-109zM174 -26l411 750h99l-411 -750h-99z" />
<glyph unicode="&#xbe;" horiz-adv-x="945" d="M253 -26l411 750h99l-411 -750h-99zM177 535q8 0 15 -0.5t14 -0.5q9 0 20.5 1.5t21.5 6t17 12t7 19.5q0 17 -18 27.5t-39 10.5q-28 0 -45.5 -15t-16.5 -41h-125q3 75 53 114q24 19 57.5 28t75.5 9q35 0 68 -6.5t58.5 -21t41 -38t15.5 -58.5q0 -29 -17 -52t-52 -28v-2 q39 -5 58 -29.5t19 -65.5q0 -36 -16 -62t-42.5 -42.5t-61 -24t-71.5 -7.5q-42 0 -78 8t-63 25.5t-42.5 44t-15.5 64.5v23h125q0 -34 19 -52t54 -18q12 0 23.5 2.5t21.5 8t16 13t6 17.5q0 14 -6 23.5t-16.5 15t-24 8t-27.5 2.5q-7 0 -14 -0.5t-15 -0.5v82zM741 179v123 l-106 -123h106zM930 179v-90h-64v-89h-126v89h-199v99l203 231h122v-240h64z" />
<glyph unicode="&#xbf;" horiz-adv-x="574" d="M392 361h-186v186h186v-186zM543 67q-1 -59 -20 -105t-53.5 -78t-82.5 -48.5t-106 -16.5q-47 0 -92 12.5t-80 37.5t-56.5 63.5t-21.5 89.5q0 36 8.5 62t24.5 46.5t38.5 37t51.5 34.5q19 13 32 23t20.5 21.5t10.5 26.5t3 38h158v-50q0 -29 -7.5 -51t-19 -38t-26 -28 t-28.5 -22q-15 -11 -29.5 -20.5t-26 -21t-18 -25t-6.5 -32.5q0 -28 19 -44t46 -16q42 0 64 23t22 62v19h175z" />
<glyph unicode="&#xc0;" horiz-adv-x="704" d="M446 758h-120l-157 149h180zM258 714h189l267 -714h-194l-44 128h-249l-45 -128h-190zM270 266h162l-79 250h-2z" />
<glyph unicode="&#xc1;" horiz-adv-x="704" d="M526 907l-157 -149h-120l97 149h180zM258 714h189l267 -714h-194l-44 128h-249l-45 -128h-190zM270 266h162l-79 250h-2z" />
<glyph unicode="&#xc2;" horiz-adv-x="704" d="M292 758h-128l112 149h152l112 -149h-128l-60 80zM258 714h189l267 -714h-194l-44 128h-249l-45 -128h-190zM270 266h162l-79 250h-2z" />
<glyph unicode="&#xc3;" horiz-adv-x="704" d="M542 897q-3 -26 -11.5 -49t-23 -40t-35.5 -27.5t-49 -10.5q-23 0 -43 5.5t-38 12.5t-34 12.5t-30 5.5q-17 0 -29 -14t-15 -31h-71q3 25 12.5 49t24.5 43q15 20 36.5 32t47.5 12q20 0 40 -6t40 -14q19 -8 36 -14.5t29 -6.5q17 0 28.5 13t13.5 28h71zM258 714h189l267 -714 h-194l-44 128h-249l-45 -128h-190zM270 266h162l-79 250h-2z" />
<glyph unicode="&#xc4;" horiz-adv-x="704" d="M171 897h150v-125h-150v125zM384 772v125h150v-125h-150zM258 714h189l267 -714h-194l-44 128h-249l-45 -128h-190zM270 266h162l-79 250h-2z" />
<glyph unicode="&#xc5;" horiz-adv-x="704" d="M352 792q22 0 37 15.5t15 36.5q0 23 -15 37.5t-37 14.5t-37 -14.5t-15 -37.5q0 -21 15 -36.5t37 -15.5zM352 737q-22 0 -41.5 8.5t-34 23.5t-23 34.5t-8.5 40.5q0 22 8.5 41.5t23 34t34 23t41.5 8.5t41.5 -8.5t34 -22.5t23 -34t8.5 -42t-8.5 -41.5t-23 -34t-34 -23 t-41.5 -8.5zM258 714h189l267 -714h-194l-44 128h-249l-45 -128h-190zM270 266h162l-79 250h-2z" />
<glyph unicode="&#xc6;" horiz-adv-x="1019" d="M320 714h648v-149h-328v-125h306v-144h-306v-136h337v-160h-517v128h-218l-58 -128h-197zM298 266h162v299h-32z" />
<glyph unicode="&#xc7;" horiz-adv-x="759" d="M724 277q-4 -68 -29 -121t-66.5 -90t-97 -57.5t-121.5 -21.5l-31 -46l2 -2q10 3 19 4t21 1q14 0 29 -4t27.5 -13.5t20.5 -25t8 -37.5q0 -27 -10 -45.5t-27.5 -30t-41 -16.5t-49.5 -5q-33 0 -64.5 10.5t-53.5 20.5l19 45q20 -7 40.5 -12t41.5 -7t36 7t15 28q0 38 -43 38 q-11 0 -20.5 -2t-19.5 -5l-22 19l49 79q-72 7 -130 38.5t-99 81t-63 113.5t-22 136q0 78 25 145.5t71.5 118t112.5 79.5t147 29q58 0 115.5 -18t103.5 -52.5t75.5 -85t31.5 -114.5h-186q-8 54 -46.5 82t-97.5 28q-45 0 -76.5 -18t-51.5 -48t-29 -68t-9 -78t9 -78t29 -68 t51.5 -48t76.5 -18q66 0 102.5 35t41.5 97h186z" />
<glyph unicode="&#xc8;" horiz-adv-x="685" d="M437 758h-120l-157 149h180zM64 714h569v-149h-383v-125h350v-144h-350v-136h393v-160h-579v714z" />
<glyph unicode="&#xc9;" horiz-adv-x="685" d="M517 907l-157 -149h-120l97 149h180zM64 714h569v-149h-383v-125h350v-144h-350v-136h393v-160h-579v714z" />
<glyph unicode="&#xca;" horiz-adv-x="685" d="M283 758h-128l112 149h152l112 -149h-128l-60 80zM64 714h569v-149h-383v-125h350v-144h-350v-136h393v-160h-579v714z" />
<glyph unicode="&#xcb;" horiz-adv-x="685" d="M162 897h150v-125h-150v125zM375 772v125h150v-125h-150zM64 714h569v-149h-383v-125h350v-144h-350v-136h393v-160h-579v714z" />
<glyph unicode="&#xcc;" horiz-adv-x="315" d="M252 758h-120l-156 149h179zM64 714h186v-714h-186v714z" />
<glyph unicode="&#xcd;" horiz-adv-x="315" d="M332 907l-157 -149h-120l97 149h180zM64 714h186v-714h-186v714z" />
<glyph unicode="&#xce;" horiz-adv-x="315" d="M98 758h-127l111 149h152l112 -149h-128l-60 80zM64 714h186v-714h-186v714z" />
<glyph unicode="&#xcf;" horiz-adv-x="315" d="M-22 897h149v-125h-149v125zM190 772v125h150v-125h-150zM64 714h186v-714h-186v714z" />
<glyph unicode="&#xd0;" horiz-adv-x="759" d="M64 296h-71v144h71v274h307q82 0 147 -24t110 -70t69 -111.5t24 -148.5q0 -88 -24 -155t-69.5 -112.5t-110.5 -69t-146 -23.5h-307v296zM250 440h158v-144h-158v-136h88q53 0 90.5 11.5t61 35.5t34.5 62t11 92q0 98 -50.5 145.5t-146.5 47.5h-88v-114z" />
<glyph unicode="&#xd1;" horiz-adv-x="741" d="M561 897q-3 -26 -11.5 -49t-23 -40t-35.5 -27.5t-49 -10.5q-23 0 -43 5.5t-38 12.5t-34 12.5t-30 5.5q-17 0 -29 -14t-15 -31h-71q3 25 12.5 49t24.5 43q15 20 36.5 32t47.5 12q20 0 40 -6t40 -14q19 -8 36 -14.5t29 -6.5q17 0 28.5 13t13.5 28h71zM62 714h191l248 -440 h2v440h175v-714h-191l-248 445h-2v-445h-175v714z" />
<glyph unicode="&#xd2;" horiz-adv-x="778" d="M483 758h-120l-157 149h180zM223 357q0 -40 9 -78t29 -68t51.5 -48t76.5 -18t76.5 18t51.5 48t29 68t9 78t-9 78t-29 68t-51.5 48t-76.5 18t-76.5 -18t-51.5 -48t-29 -68t-9 -78zM37 357q0 78 23.5 145.5t68.5 118t110.5 79.5t149.5 29t149.5 -29t110.5 -79.5t68.5 -118 t23.5 -145.5t-23.5 -145.5t-68.5 -117.5t-110.5 -79t-149.5 -29t-149.5 29t-110.5 79t-68.5 117.5t-23.5 145.5z" />
<glyph unicode="&#xd3;" horiz-adv-x="778" d="M563 907l-157 -149h-120l97 149h180zM223 357q0 -40 9 -78t29 -68t51.5 -48t76.5 -18t76.5 18t51.5 48t29 68t9 78t-9 78t-29 68t-51.5 48t-76.5 18t-76.5 -18t-51.5 -48t-29 -68t-9 -78zM37 357q0 78 23.5 145.5t68.5 118t110.5 79.5t149.5 29t149.5 -29t110.5 -79.5 t68.5 -118t23.5 -145.5t-23.5 -145.5t-68.5 -117.5t-110.5 -79t-149.5 -29t-149.5 29t-110.5 79t-68.5 117.5t-23.5 145.5z" />
<glyph unicode="&#xd4;" horiz-adv-x="778" d="M329 758h-128l112 149h152l112 -149h-128l-60 80zM223 357q0 -40 9 -78t29 -68t51.5 -48t76.5 -18t76.5 18t51.5 48t29 68t9 78t-9 78t-29 68t-51.5 48t-76.5 18t-76.5 -18t-51.5 -48t-29 -68t-9 -78zM37 357q0 78 23.5 145.5t68.5 118t110.5 79.5t149.5 29t149.5 -29 t110.5 -79.5t68.5 -118t23.5 -145.5t-23.5 -145.5t-68.5 -117.5t-110.5 -79t-149.5 -29t-149.5 29t-110.5 79t-68.5 117.5t-23.5 145.5z" />
<glyph unicode="&#xd5;" horiz-adv-x="778" d="M579 897q-3 -26 -11.5 -49t-23 -40t-35.5 -27.5t-49 -10.5q-23 0 -43 5.5t-38 12.5t-34 12.5t-30 5.5q-17 0 -29 -14t-15 -31h-71q3 25 12.5 49t24.5 43q15 20 36.5 32t47.5 12q20 0 40 -6t40 -14q19 -8 36 -14.5t29 -6.5q17 0 28.5 13t13.5 28h71zM223 357q0 -40 9 -78 t29 -68t51.5 -48t76.5 -18t76.5 18t51.5 48t29 68t9 78t-9 78t-29 68t-51.5 48t-76.5 18t-76.5 -18t-51.5 -48t-29 -68t-9 -78zM37 357q0 78 23.5 145.5t68.5 118t110.5 79.5t149.5 29t149.5 -29t110.5 -79.5t68.5 -118t23.5 -145.5t-23.5 -145.5t-68.5 -117.5t-110.5 -79 t-149.5 -29t-149.5 29t-110.5 79t-68.5 117.5t-23.5 145.5z" />
<glyph unicode="&#xd6;" horiz-adv-x="778" d="M208 897h150v-125h-150v125zM421 772v125h150v-125h-150zM223 357q0 -40 9 -78t29 -68t51.5 -48t76.5 -18t76.5 18t51.5 48t29 68t9 78t-9 78t-29 68t-51.5 48t-76.5 18t-76.5 -18t-51.5 -48t-29 -68t-9 -78zM37 357q0 78 23.5 145.5t68.5 118t110.5 79.5t149.5 29 t149.5 -29t110.5 -79.5t68.5 -118t23.5 -145.5t-23.5 -145.5t-68.5 -117.5t-110.5 -79t-149.5 -29t-149.5 29t-110.5 79t-68.5 117.5t-23.5 145.5z" />
<glyph unicode="&#xd7;" horiz-adv-x="600" d="M54 397l102 102l144 -144l144 144l102 -102l-144 -144l144 -144l-102 -102l-144 144l-144 -144l-102 102l144 144z" />
<glyph unicode="&#xd8;" horiz-adv-x="778" d="M751 697l-87 -95q38 -49 57.5 -111.5t19.5 -133.5q0 -78 -23.5 -145.5t-68.5 -117.5t-110.5 -79t-149.5 -29q-68 0 -123 18t-98 53l-89 -96l-57 49l92 101q-38 48 -57.5 111t-19.5 135q0 78 23.5 145.5t68.5 118t110.5 79.5t149.5 29q68 0 123 -18.5t99 -53.5l82 90z M284 185q20 -19 46 -29.5t59 -10.5q45 0 76.5 18t51.5 48t29 68t9 78q0 27 -4 53.5t-14 51.5zM495 529q-19 19 -45 29.5t-61 10.5q-45 0 -76.5 -18t-51.5 -48t-29 -68t-9 -78q0 -58 18 -106z" />
<glyph unicode="&#xd9;" horiz-adv-x="741" d="M465 758h-120l-157 149h180zM681 295q0 -155 -74.5 -232t-236.5 -77t-236.5 77t-74.5 232v419h186v-430q0 -69 28 -104t97 -35t97 35t28 104v430h186v-419z" />
<glyph unicode="&#xda;" horiz-adv-x="741" d="M545 907l-157 -149h-120l97 149h180zM681 295q0 -155 -74.5 -232t-236.5 -77t-236.5 77t-74.5 232v419h186v-430q0 -69 28 -104t97 -35t97 35t28 104v430h186v-419z" />
<glyph unicode="&#xdb;" horiz-adv-x="741" d="M311 758h-128l112 149h152l112 -149h-128l-60 80zM681 295q0 -155 -74.5 -232t-236.5 -77t-236.5 77t-74.5 232v419h186v-430q0 -69 28 -104t97 -35t97 35t28 104v430h186v-419z" />
<glyph unicode="&#xdc;" horiz-adv-x="741" d="M190 897h150v-125h-150v125zM403 772v125h150v-125h-150zM681 295q0 -155 -74.5 -232t-236.5 -77t-236.5 77t-74.5 232v419h186v-430q0 -69 28 -104t97 -35t97 35t28 104v430h186v-419z" />
<glyph unicode="&#xdd;" horiz-adv-x="667" d="M508 907l-157 -149h-120l97 149h180zM427 266v-266h-186v266l-259 448h210l142 -290l142 290h211z" />
<glyph unicode="&#xde;" horiz-adv-x="685" d="M250 290h125q44 0 72 20t28 69q0 51 -28.5 72.5t-71.5 21.5h-125v-183zM250 714v-92h153q50 0 96.5 -12t82.5 -39.5t57.5 -71.5t21.5 -107q0 -66 -18 -113t-52 -76.5t-81.5 -43t-106.5 -13.5h-153v-146h-186v714h186z" />
<glyph unicode="&#xdf;" d="M57 502q0 46 14.5 87t45 72t78 49.5t113.5 18.5q45 0 88.5 -11t78 -35t56 -61t21.5 -88q0 -44 -22.5 -83t-64.5 -54v-2q30 -6 54 -23t40 -41t24.5 -52.5t8.5 -58.5q0 -51 -17 -92.5t-47.5 -71t-73 -45t-93.5 -15.5q-21 0 -42 1.5t-42 2.5v129q11 -2 21.5 -3t21.5 -1 q49 0 75.5 30.5t26.5 78.5q0 33 -11.5 54t-31.5 33t-46 16t-54 2v101q20 -2 40.5 1t37 12t26.5 25t10 42q0 38 -22 58.5t-57 20.5q-31 0 -48.5 -9.5t-26 -26.5t-10.5 -40.5t-2 -51.5v-471h-170v502z" />
<glyph unicode="&#xe0;" horiz-adv-x="593" d="M391 575h-120l-157 149h180zM50 359q2 51 24 85t57 54t77.5 28t87.5 8q46 0 89.5 -6.5t77.5 -25.5t54.5 -53t20.5 -89v-227q0 -33 2.5 -67.5t17.5 -65.5h-171q-5 12 -6.5 24t-3.5 25q-33 -35 -78.5 -49t-92.5 -14q-37 0 -69.5 9.5t-56.5 28.5t-37.5 48.5t-13.5 69.5 q0 42 14 70t38 46t55 28t64.5 16t67 10t63.5 10q22 5 33.5 14.5t11.5 33.5q0 15 -8 25t-20 16.5t-26.5 9.5t-27.5 3q-73 0 -85 -65h-159zM199 149q0 -32 21 -45.5t50 -13.5q61 0 84 36t20 117q-18 -11 -47.5 -16t-57.5 -12q-29 -8 -49.5 -21.5t-20.5 -44.5z" />
<glyph unicode="&#xe1;" horiz-adv-x="593" d="M471 724l-157 -149h-120l97 149h180zM50 359q2 51 24 85t57 54t77.5 28t87.5 8q46 0 89.5 -6.5t77.5 -25.5t54.5 -53t20.5 -89v-227q0 -33 2.5 -67.5t17.5 -65.5h-171q-5 12 -6.5 24t-3.5 25q-33 -35 -78.5 -49t-92.5 -14q-37 0 -69.5 9.5t-56.5 28.5t-37.5 48.5 t-13.5 69.5q0 42 14 70t38 46t55 28t64.5 16t67 10t63.5 10q22 5 33.5 14.5t11.5 33.5q0 15 -8 25t-20 16.5t-26.5 9.5t-27.5 3q-73 0 -85 -65h-159zM199 149q0 -32 21 -45.5t50 -13.5q61 0 84 36t20 117q-18 -11 -47.5 -16t-57.5 -12q-29 -8 -49.5 -21.5t-20.5 -44.5z" />
<glyph unicode="&#xe2;" horiz-adv-x="593" d="M237 575h-128l112 149h152l112 -149h-128l-60 80zM50 359q2 51 24 85t57 54t77.5 28t87.5 8q46 0 89.5 -6.5t77.5 -25.5t54.5 -53t20.5 -89v-227q0 -33 2.5 -67.5t17.5 -65.5h-171q-5 12 -6.5 24t-3.5 25q-33 -35 -78.5 -49t-92.5 -14q-37 0 -69.5 9.5t-56.5 28.5 t-37.5 48.5t-13.5 69.5q0 42 14 70t38 46t55 28t64.5 16t67 10t63.5 10q22 5 33.5 14.5t11.5 33.5q0 15 -8 25t-20 16.5t-26.5 9.5t-27.5 3q-73 0 -85 -65h-159zM199 149q0 -32 21 -45.5t50 -13.5q61 0 84 36t20 117q-18 -11 -47.5 -16t-57.5 -12q-29 -8 -49.5 -21.5 t-20.5 -44.5z" />
<glyph unicode="&#xe3;" horiz-adv-x="593" d="M487 714q-3 -26 -11.5 -49t-23 -40t-35.5 -27.5t-49 -10.5q-23 0 -43 5.5t-38 12.5t-34 12.5t-30 5.5q-17 0 -29 -14t-15 -31h-71q3 25 12.5 49t24.5 43q15 20 36.5 32t47.5 12q20 0 40 -6t40 -14q19 -8 36 -14.5t29 -6.5q17 0 28.5 13t13.5 28h71zM50 359q2 51 24 85 t57 54t77.5 28t87.5 8q46 0 89.5 -6.5t77.5 -25.5t54.5 -53t20.5 -89v-227q0 -33 2.5 -67.5t17.5 -65.5h-171q-5 12 -6.5 24t-3.5 25q-33 -35 -78.5 -49t-92.5 -14q-37 0 -69.5 9.5t-56.5 28.5t-37.5 48.5t-13.5 69.5q0 42 14 70t38 46t55 28t64.5 16t67 10t63.5 10 q22 5 33.5 14.5t11.5 33.5q0 15 -8 25t-20 16.5t-26.5 9.5t-27.5 3q-73 0 -85 -65h-159zM199 149q0 -32 21 -45.5t50 -13.5q61 0 84 36t20 117q-18 -11 -47.5 -16t-57.5 -12q-29 -8 -49.5 -21.5t-20.5 -44.5z" />
<glyph unicode="&#xe4;" horiz-adv-x="593" d="M116 714h150v-125h-150v125zM329 589v125h150v-125h-150zM50 359q2 51 24 85t57 54t77.5 28t87.5 8q46 0 89.5 -6.5t77.5 -25.5t54.5 -53t20.5 -89v-227q0 -33 2.5 -67.5t17.5 -65.5h-171q-5 12 -6.5 24t-3.5 25q-33 -35 -78.5 -49t-92.5 -14q-37 0 -69.5 9.5t-56.5 28.5 t-37.5 48.5t-13.5 69.5q0 42 14 70t38 46t55 28t64.5 16t67 10t63.5 10q22 5 33.5 14.5t11.5 33.5q0 15 -8 25t-20 16.5t-26.5 9.5t-27.5 3q-73 0 -85 -65h-159zM199 149q0 -32 21 -45.5t50 -13.5q61 0 84 36t20 117q-18 -11 -47.5 -16t-57.5 -12q-29 -8 -49.5 -21.5 t-20.5 -44.5z" />
<glyph unicode="&#xe5;" horiz-adv-x="593" d="M297 615q22 0 37 15.5t15 36.5q0 23 -15 37.5t-37 14.5t-37 -14.5t-15 -37.5q0 -21 15 -36.5t37 -15.5zM297 560q-22 0 -41.5 8.5t-34 23.5t-23 34.5t-8.5 40.5q0 22 8.5 41.5t23 34t34 23t41.5 8.5t41.5 -8.5t34 -22.5t23 -34t8.5 -42t-8.5 -41.5t-23 -34t-34 -23 t-41.5 -8.5zM50 359q2 51 24 85t57 54t77.5 28t87.5 8q46 0 89.5 -6.5t77.5 -25.5t54.5 -53t20.5 -89v-227q0 -33 2.5 -67.5t17.5 -65.5h-171q-5 12 -6.5 24t-3.5 25q-33 -35 -78.5 -49t-92.5 -14q-37 0 -69.5 9.5t-56.5 28.5t-37.5 48.5t-13.5 69.5q0 42 14 70t38 46t55 28 t64.5 16t67 10t63.5 10q22 5 33.5 14.5t11.5 33.5q0 15 -8 25t-20 16.5t-26.5 9.5t-27.5 3q-73 0 -85 -65h-159zM199 149q0 -32 21 -45.5t50 -13.5q61 0 84 36t20 117q-18 -11 -47.5 -16t-57.5 -12q-29 -8 -49.5 -21.5t-20.5 -44.5z" />
<glyph unicode="&#xe6;" horiz-adv-x="944" d="M902 157q-11 -40 -35 -71.5t-57 -54.5t-72.5 -34t-81.5 -11q-27 0 -55 4t-54.5 13t-49.5 24t-41 37q-27 -22 -53.5 -37t-55 -24t-61 -13t-70.5 -4q-41 0 -75.5 9.5t-59 28.5t-38.5 48.5t-14 69.5q0 42 14 70t38 46t55 27.5t64.5 15.5t67.5 10t63 11q20 4 32 9t18 10.5 t7.5 12t1.5 13.5q0 18 -7.5 29t-20.5 17.5t-30.5 8.5t-37.5 2q-73 0 -85 -65h-159q2 51 24 85t57 54t77.5 28t87.5 8q25 0 51.5 -3t52 -10t47.5 -20t38 -32q32 34 74 49.5t88 15.5q66 0 117.5 -26t85.5 -69.5t49.5 -100.5t10.5 -120h-373q0 -23 6.5 -44t19 -37.5t32.5 -26.5 t47 -10q40 0 63 14t37 43h160zM280 90q45 0 67.5 17.5t31.5 42t9.5 50.5t0.5 43q-17 -14 -48.5 -18.5t-63.5 -11.5q-32 -6 -55 -19.5t-23 -45.5q0 -17 8 -28.5t20 -18t26 -9t27 -2.5zM740 313q0 45 -25.5 75.5t-73.5 30.5q-23 0 -41.5 -9t-31.5 -23.5t-21 -33.5t-10 -40h203 z" />
<glyph unicode="&#xe7;" horiz-adv-x="593" d="M565 204q-5 -49 -25 -88t-51.5 -66.5t-72.5 -43t-89 -18.5l-31 -47l2 -2q10 3 19 4t21 1q14 0 29 -4t27.5 -13.5t20.5 -25t8 -37.5q0 -27 -10 -45.5t-27.5 -30t-41 -16.5t-49.5 -5q-33 0 -64.5 10.5t-53.5 20.5l19 45q20 -7 40.5 -12t41.5 -7t36 7t15 28q0 38 -43 38 q-11 0 -20.5 -2t-19.5 -5l-22 19l49 80q-53 4 -97 25t-76 55t-50 80t-18 102q0 62 19 114t54.5 89.5t85.5 58.5t113 21q48 0 92.5 -13t79.5 -38.5t57 -64t27 -89.5h-165q0 16 -7 30t-18.5 24t-26.5 15.5t-31 5.5q-36 0 -57.5 -14t-33 -35.5t-15.5 -49t-4 -54.5 q0 -25 5.5 -49.5t18 -43.5t31.5 -31t46 -12q45 0 68 23.5t29 65.5h165z" />
<glyph unicode="&#xe8;" horiz-adv-x="611" d="M400 575h-120l-157 149h180zM202 218q2 -54 32 -86t84 -32q31 0 58 14t39 43h159q-12 -45 -37.5 -77.5t-60 -53t-76 -30.5t-84.5 -10q-63 0 -115.5 18.5t-90 53.5t-58 86.5t-20.5 116.5q0 60 22 110t60.5 86t89.5 56.5t108 20.5q70 0 122 -24.5t86 -67.5t50 -100.5 t13 -123.5h-381zM413 313q-2 44 -30 75t-71 31q-45 0 -73.5 -29t-36.5 -77h211z" />
<glyph unicode="&#xe9;" horiz-adv-x="611" d="M480 724l-157 -149h-120l97 149h180zM202 218q2 -54 32 -86t84 -32q31 0 58 14t39 43h159q-12 -45 -37.5 -77.5t-60 -53t-76 -30.5t-84.5 -10q-63 0 -115.5 18.5t-90 53.5t-58 86.5t-20.5 116.5q0 60 22 110t60.5 86t89.5 56.5t108 20.5q70 0 122 -24.5t86 -67.5 t50 -100.5t13 -123.5h-381zM413 313q-2 44 -30 75t-71 31q-45 0 -73.5 -29t-36.5 -77h211z" />
<glyph unicode="&#xea;" horiz-adv-x="611" d="M246 575h-128l112 149h152l112 -149h-128l-60 80zM202 218q2 -54 32 -86t84 -32q31 0 58 14t39 43h159q-12 -45 -37.5 -77.5t-60 -53t-76 -30.5t-84.5 -10q-63 0 -115.5 18.5t-90 53.5t-58 86.5t-20.5 116.5q0 60 22 110t60.5 86t89.5 56.5t108 20.5q70 0 122 -24.5 t86 -67.5t50 -100.5t13 -123.5h-381zM413 313q-2 44 -30 75t-71 31q-45 0 -73.5 -29t-36.5 -77h211z" />
<glyph unicode="&#xeb;" horiz-adv-x="611" d="M125 714h150v-125h-150v125zM338 589v125h150v-125h-150zM202 218q2 -54 32 -86t84 -32q31 0 58 14t39 43h159q-12 -45 -37.5 -77.5t-60 -53t-76 -30.5t-84.5 -10q-63 0 -115.5 18.5t-90 53.5t-58 86.5t-20.5 116.5q0 60 22 110t60.5 86t89.5 56.5t108 20.5 q70 0 122 -24.5t86 -67.5t50 -100.5t13 -123.5h-381zM413 313q-2 44 -30 75t-71 31q-45 0 -73.5 -29t-36.5 -77h211z" />
<glyph unicode="&#xec;" horiz-adv-x="296" d="M242 575h-120l-156 149h179zM63 0v519h170v-519h-170z" />
<glyph unicode="&#xed;" horiz-adv-x="296" d="M322 724l-157 -149h-120l97 149h180zM63 0v519h170v-519h-170z" />
<glyph unicode="&#xee;" horiz-adv-x="296" d="M88 575h-127l111 149h152l112 -149h-128l-60 80zM63 0v519h170v-519h-170z" />
<glyph unicode="&#xef;" horiz-adv-x="296" d="M-32 714h149v-125h-149v125zM180 589v125h150v-125h-150zM63 0v519h170v-519h-170z" />
<glyph unicode="&#xf0;" horiz-adv-x="611" d="M213 648q-29 19 -55 32t-47 20l113 78q35 -12 66.5 -29.5t46.5 -31.5l124 68l68 -61l-119 -65q36 -30 67 -72t53.5 -91t35.5 -103.5t13 -110.5q0 -70 -20 -125t-56.5 -93t-87 -58t-110.5 -20t-110.5 19.5t-86.5 53.5t-56 81t-20 102t19.5 102t53 81.5t77.5 54t93 19.5 q25 0 50.5 -3.5t46.5 -17.5l2 2q-15 31 -38 59t-49 53l-128 -70l-67 60zM202 242q0 -20 5 -42.5t17 -41.5t31.5 -31t49.5 -12t50 12t32 31t17 41.5t5 42.5t-5 42.5t-17 41t-32 31t-50 12.5t-49.5 -12.5t-31.5 -31t-17 -41t-5 -42.5z" />
<glyph unicode="&#xf1;" d="M505 714q-3 -26 -11.5 -49t-23 -40t-35.5 -27.5t-49 -10.5q-23 0 -43 5.5t-38 12.5t-34 12.5t-30 5.5q-17 0 -29 -14t-15 -31h-71q3 25 12.5 49t24.5 43q15 20 36.5 32t47.5 12q20 0 40 -6t40 -14q19 -8 36 -14.5t29 -6.5q17 0 28.5 13t13.5 28h71zM57 519h165v-71h2 q12 20 30 36t40 27t46 17t47 6q65 0 102.5 -21t56 -51.5t23.5 -65.5t5 -63v-333h-170v251v52.5t-7.5 45.5t-25 32.5t-52.5 12.5q-24 0 -41.5 -9.5t-28.5 -25t-16.5 -35.5t-5.5 -41v-283h-170v519z" />
<glyph unicode="&#xf2;" horiz-adv-x="611" d="M400 575h-120l-157 149h180zM32 259q0 58 20 108.5t56 87.5t86.5 58t110.5 21t110.5 -21t87 -58t56.5 -87.5t20 -108.5q0 -59 -20 -108.5t-56.5 -86.5t-87 -57.5t-110.5 -20.5t-110.5 20.5t-86.5 57.5t-56 86.5t-20 108.5zM202 259q0 -25 5 -50.5t17 -46.5t31.5 -34 t49.5 -13t50 13t32 34t17 46.5t5 50.5t-5 50.5t-17 46.5t-32 34.5t-50 13.5t-49.5 -13.5t-31.5 -34.5t-17 -46.5t-5 -50.5z" />
<glyph unicode="&#xf3;" horiz-adv-x="611" d="M480 724l-157 -149h-120l97 149h180zM32 259q0 58 20 108.5t56 87.5t86.5 58t110.5 21t110.5 -21t87 -58t56.5 -87.5t20 -108.5q0 -59 -20 -108.5t-56.5 -86.5t-87 -57.5t-110.5 -20.5t-110.5 20.5t-86.5 57.5t-56 86.5t-20 108.5zM202 259q0 -25 5 -50.5t17 -46.5 t31.5 -34t49.5 -13t50 13t32 34t17 46.5t5 50.5t-5 50.5t-17 46.5t-32 34.5t-50 13.5t-49.5 -13.5t-31.5 -34.5t-17 -46.5t-5 -50.5z" />
<glyph unicode="&#xf4;" horiz-adv-x="611" d="M246 575h-128l112 149h152l112 -149h-128l-60 80zM32 259q0 58 20 108.5t56 87.5t86.5 58t110.5 21t110.5 -21t87 -58t56.5 -87.5t20 -108.5q0 -59 -20 -108.5t-56.5 -86.5t-87 -57.5t-110.5 -20.5t-110.5 20.5t-86.5 57.5t-56 86.5t-20 108.5zM202 259q0 -25 5 -50.5 t17 -46.5t31.5 -34t49.5 -13t50 13t32 34t17 46.5t5 50.5t-5 50.5t-17 46.5t-32 34.5t-50 13.5t-49.5 -13.5t-31.5 -34.5t-17 -46.5t-5 -50.5z" />
<glyph unicode="&#xf5;" horiz-adv-x="611" d="M496 714q-3 -26 -11.5 -49t-23 -40t-35.5 -27.5t-49 -10.5q-23 0 -43 5.5t-38 12.5t-34 12.5t-30 5.5q-17 0 -29 -14t-15 -31h-71q3 25 12.5 49t24.5 43q15 20 36.5 32t47.5 12q20 0 40 -6t40 -14q19 -8 36 -14.5t29 -6.5q17 0 28.5 13t13.5 28h71zM32 259q0 58 20 108.5 t56 87.5t86.5 58t110.5 21t110.5 -21t87 -58t56.5 -87.5t20 -108.5q0 -59 -20 -108.5t-56.5 -86.5t-87 -57.5t-110.5 -20.5t-110.5 20.5t-86.5 57.5t-56 86.5t-20 108.5zM202 259q0 -25 5 -50.5t17 -46.5t31.5 -34t49.5 -13t50 13t32 34t17 46.5t5 50.5t-5 50.5t-17 46.5 t-32 34.5t-50 13.5t-49.5 -13.5t-31.5 -34.5t-17 -46.5t-5 -50.5z" />
<glyph unicode="&#xf6;" horiz-adv-x="611" d="M125 714h150v-125h-150v125zM338 589v125h150v-125h-150zM32 259q0 58 20 108.5t56 87.5t86.5 58t110.5 21t110.5 -21t87 -58t56.5 -87.5t20 -108.5q0 -59 -20 -108.5t-56.5 -86.5t-87 -57.5t-110.5 -20.5t-110.5 20.5t-86.5 57.5t-56 86.5t-20 108.5zM202 259 q0 -25 5 -50.5t17 -46.5t31.5 -34t49.5 -13t50 13t32 34t17 46.5t5 50.5t-5 50.5t-17 46.5t-32 34.5t-50 13.5t-49.5 -13.5t-31.5 -34.5t-17 -46.5t-5 -50.5z" />
<glyph unicode="&#xf7;" horiz-adv-x="600" d="M201 46q0 42 28.5 70.5t70.5 28.5t70.5 -28.5t28.5 -70.5q0 -20 -7.5 -37.5t-21 -31t-31.5 -21.5t-39 -8t-39 8t-31.5 21.5t-21 31t-7.5 37.5zM201 460q0 42 28.5 70.5t70.5 28.5t70.5 -28.5t28.5 -70.5q0 -20 -7.5 -38t-21 -31.5t-31.5 -21.5t-39 -8t-39 8t-31.5 21.5 t-21 31.5t-7.5 38zM48 181v144h504v-144h-504z" />
<glyph unicode="&#xf8;" horiz-adv-x="611" d="M46 -1l59 68q-35 37 -54 86t-19 106q0 58 20 108.5t56 87.5t86.5 58t110.5 21q92 0 160 -48l51 60l44 -38l-52 -60q35 -37 53 -85t18 -104q0 -59 -20 -108.5t-56.5 -86.5t-87 -57.5t-110.5 -20.5q-92 0 -159 46l-58 -65zM241 141q23 -26 64 -26q30 0 50 13t32 34t17 46.5 t5 50.5q0 33 -9 65zM371 377q-13 13 -29 20t-37 7q-30 0 -49.5 -13.5t-31.5 -34.5t-17 -46.5t-5 -50.5q0 -17 2.5 -34t7.5 -33z" />
<glyph unicode="&#xf9;" d="M409 575h-120l-157 149h180zM573 0h-165v71h-2q-24 -40 -68.5 -62.5t-89.5 -22.5q-56 0 -93 15.5t-59 44t-31 69.5t-9 92v312h170v-301q0 -52 21.5 -72.5t62.5 -20.5q14 0 30 5t30 18.5t23.5 35.5t9.5 57v278h170v-519z" />
<glyph unicode="&#xfa;" d="M489 724l-157 -149h-120l97 149h180zM573 0h-165v71h-2q-24 -40 -68.5 -62.5t-89.5 -22.5q-56 0 -93 15.5t-59 44t-31 69.5t-9 92v312h170v-301q0 -52 21.5 -72.5t62.5 -20.5q14 0 30 5t30 18.5t23.5 35.5t9.5 57v278h170v-519z" />
<glyph unicode="&#xfb;" d="M255 575h-128l112 149h152l112 -149h-128l-60 80zM573 0h-165v71h-2q-24 -40 -68.5 -62.5t-89.5 -22.5q-56 0 -93 15.5t-59 44t-31 69.5t-9 92v312h170v-301q0 -52 21.5 -72.5t62.5 -20.5q14 0 30 5t30 18.5t23.5 35.5t9.5 57v278h170v-519z" />
<glyph unicode="&#xfc;" d="M134 714h150v-125h-150v125zM347 589v125h150v-125h-150zM573 0h-165v71h-2q-24 -40 -68.5 -62.5t-89.5 -22.5q-56 0 -93 15.5t-59 44t-31 69.5t-9 92v312h170v-301q0 -52 21.5 -72.5t62.5 -20.5q14 0 30 5t30 18.5t23.5 35.5t9.5 57v278h170v-519z" />
<glyph unicode="&#xfd;" horiz-adv-x="537" d="M443 724l-157 -149h-120l97 149h180zM340 -45q-15 -43 -35 -68t-46 -38.5t-59.5 -17.5t-76.5 -4h-80v138h59q29 0 48.5 15.5t19.5 41.5q0 10 -5.5 29t-12.5 39t-14 38.5t-11 29.5l-133 361h179l98 -338h2l98 338h174z" />
<glyph unicode="&#xfe;" d="M325 404q-17 0 -35.5 -6.5t-33.5 -22.5t-25 -43t-10 -67q0 -68 22.5 -109t80.5 -41q28 0 47.5 13.5t31.5 35t17.5 48t5.5 53.5q0 25 -5 49.5t-17 44.5t-31.5 32.5t-47.5 12.5zM227 462h2q52 72 148 72q56 0 97.5 -24t68.5 -64t40 -91.5t13 -106.5q0 -51 -13.5 -98 t-41 -83.5t-68.5 -58.5t-96 -22q-96 0 -148 70h-2v-229h-170v887h170v-252z" />
<glyph unicode="&#xff;" horiz-adv-x="537" d="M88 714h150v-125h-150v125zM301 589v125h150v-125h-150zM340 -45q-15 -43 -35 -68t-46 -38.5t-59.5 -17.5t-76.5 -4h-80v138h59q29 0 48.5 15.5t19.5 41.5q0 10 -5.5 29t-12.5 39t-14 38.5t-11 29.5l-133 361h179l98 -338h2l98 338h174z" />
<glyph unicode="&#x131;" horiz-adv-x="296" d="M63 0v519h170v-519h-170z" />
<glyph unicode="&#x141;" horiz-adv-x="611" d="M64 190l-65 -45v119l65 45v405h186v-276l180 124v-119l-180 -124v-159h333v-160h-519v190z" />
<glyph unicode="&#x142;" horiz-adv-x="296" d="M63 270l-77 -59v112l77 59v332h170v-202l78 59v-112l-78 -59v-400h-170v270z" />
<glyph unicode="&#x152;" horiz-adv-x="1111" d="M396 569q-49 0 -82 -18t-53.5 -48t-29 -68t-8.5 -78t8.5 -78t29 -68t53.5 -48t82 -18q34 0 60 14t44 37t27 52.5t9 60.5v96q0 31 -9 60.5t-27 52.5t-44 37t-60 14zM1059 565h-347v-125h317v-144h-317v-136h355v-160h-529v45q-16 -17 -36 -28.5t-41.5 -18.5t-43.5 -9.5 t-41 -2.5q-80 0 -142.5 31t-106.5 82.5t-67 118.5t-23 139t23 139.5t67 119t106.5 82.5t142.5 31q44 0 88 -13t72 -49h2v47h521v-149z" />
<glyph unicode="&#x153;" horiz-adv-x="963" d="M555 218q-1 -53 32.5 -85.5t86.5 -32.5q36 0 57.5 12.5t36.5 44.5h162q-12 -44 -38 -76t-61 -53t-77 -31.5t-87 -10.5q-53 0 -102 16.5t-84 58.5q-34 -43 -84 -59t-103 -16q-60 0 -108 19t-82.5 54t-53 84t-18.5 109q0 62 19 114t55 89.5t86.5 58t113.5 20.5 q25 0 51 -3.5t50 -12.5t44.5 -24t36.5 -37q15 19 35.5 33t44.5 24t49.5 15t48.5 5q71 0 122.5 -24.5t84.5 -67.5t48 -100.5t14 -123.5h-380zM202 262q0 -27 4.5 -53.5t16.5 -47t33 -33.5t54 -13q29 0 48 14t30 35t15.5 46.5t4.5 48.5q0 24 -4 49.5t-14.5 46.5t-29 35 t-48.5 14q-32 0 -53 -12.5t-33.5 -32.5t-18 -45.5t-5.5 -51.5zM765 313q-5 47 -29 76.5t-75 29.5q-47 0 -76 -31t-32 -75h212z" />
<glyph unicode="&#x160;" horiz-adv-x="667" d="M258 758l-112 149h128l60 -80l60 80h128l-112 -149h-152zM209 240q3 -63 39 -87t96 -24q21 0 41.5 4t36.5 12.5t26 22.5t10 34q0 24 -17.5 39t-46.5 26t-65.5 19.5t-75.5 19.5q-38 11 -75.5 26t-67 38.5t-48 58t-18.5 83.5q0 58 26.5 99.5t68.5 67.5t94 38t102 12 q53 0 104.5 -13.5t91.5 -41.5t65 -71.5t25 -103.5h-186q1 24 -9 40.5t-26.5 26.5t-37.5 14.5t-42 4.5q-15 0 -31 -3t-29 -10t-21.5 -18.5t-8.5 -29.5q0 -21 17.5 -34t47 -23t66.5 -18t76 -19t76 -26.5t66 -39t47 -58t18 -82.5q0 -68 -26.5 -113.5t-70 -73.5t-99.5 -39.5 t-115 -11.5q-62 0 -117.5 14t-98.5 44.5t-68.5 78.5t-25.5 117h186z" />
<glyph unicode="&#x161;" horiz-adv-x="556" d="M202 575l-112 149h128l60 -80l60 80h128l-112 -149h-152zM189 171q0 -20 7.5 -34t20.5 -24q12 -9 28.5 -13.5t34.5 -4.5q12 0 26 3t26 9.5t20 17t8 25.5t-9 24.5t-21.5 15.5t-27 9t-25.5 6q-40 10 -82.5 18t-78 24.5t-58 45.5t-22.5 82q0 47 22.5 77.5t57.5 48.5t77 25.5 t80 7.5q43 0 84.5 -7.5t75.5 -26t55.5 -51t23.5 -83.5h-157q0 31 -22 45q-20 13 -54 13q-11 0 -23.5 -1t-23.5 -5t-18.5 -12t-7.5 -21q0 -18 19 -30t47.5 -20t62.5 -13.5t63 -11.5q39 -8 64.5 -25t40.5 -37t21 -41t6 -37q0 -52 -22.5 -87.5t-58 -57t-80 -30.5t-88.5 -9 q-46 0 -91 8.5t-80.5 29.5t-58 57t-24.5 90h162z" />
<glyph unicode="&#x178;" horiz-adv-x="667" d="M153 897h150v-125h-150v125zM366 772v125h150v-125h-150zM427 266v-266h-186v266l-259 448h210l142 -290l142 290h211z" />
<glyph unicode="&#x17d;" horiz-adv-x="667" d="M258 758l-112 149h128l60 -80l60 80h128l-112 -149h-152zM24 152l366 402h-344v160h584v-144l-375 -410h388v-160h-619v152z" />
<glyph unicode="&#x17e;" horiz-adv-x="537" d="M193 575l-112 149h128l60 -80l60 80h128l-112 -149h-152zM22 132l259 257h-238v130h454v-129l-259 -260h278v-130h-494v132z" />
<glyph unicode="&#x192;" d="M254 421l26 138q9 48 27 81t45.5 52.5t64.5 28t84 8.5q20 0 39.5 -1t39.5 -2l-23 -125q-27 3 -46 3q-27 0 -40.5 -15.5t-21.5 -54.5l-21 -113h96l-20 -110h-96l-57 -305q-10 -51 -26.5 -85.5t-43 -55.5t-64 -29.5t-88.5 -8.5q-20 0 -38.5 1.5t-38.5 1.5l19 125 q24 -3 42 -3q26 0 41 12t23 49l57 298h-97l20 110h97z" />
<glyph unicode="&#x2c6;" horiz-adv-x="296" d="M88 575h-127l111 149h152l112 -149h-128l-60 80z" />
<glyph unicode="&#x2c7;" horiz-adv-x="296" d="M72 575l-111 149h127l60 -80l60 80h128l-112 -149h-152z" />
<glyph unicode="&#x2c9;" horiz-adv-x="296" d="M-13 604v86h324v-86h-324z" />
<glyph unicode="&#x2d8;" horiz-adv-x="296" d="M45 728q3 -21 13.5 -34.5t25 -21t31.5 -10t33 -2.5t33 2.5t31.5 10t25 21t13.5 34.5h71q0 -35 -13 -63.5t-36 -48.5t-55 -31t-70 -11t-69.5 11t-54.5 31t-36 48.5t-13 63.5h70z" />
<glyph unicode="&#x2d9;" horiz-adv-x="296" d="M73 589v125h150v-125h-150z" />
<glyph unicode="&#x2da;" horiz-adv-x="296" d="M148 615q22 0 37 15.5t15 36.5q0 23 -15 37.5t-37 14.5t-37 -14.5t-15 -37.5q0 -21 15 -36.5t37 -15.5zM148 560q-22 0 -41.5 8.5t-34 23.5t-23 34.5t-8.5 40.5q0 22 8.5 41.5t23 34t34 23t41.5 8.5t41.5 -8.5t34 -22.5t23 -34t8.5 -42t-8.5 -41.5t-23 -34t-34 -23 t-41.5 -8.5z" />
<glyph unicode="&#x2db;" horiz-adv-x="296" d="M214 3q-45 -43 -69 -71.5t-24 -54.5q0 -20 10 -30.5t22 -10.5q20 0 34 12t27 29l44 -16q-26 -42 -58.5 -65t-81.5 -23q-12 0 -27.5 3t-29.5 11.5t-24 24t-10 41.5q0 14 3.5 30t15.5 34.5t34.5 39.5t59.5 46h74z" />
<glyph unicode="&#x2dc;" horiz-adv-x="296" d="M338 714q-3 -26 -11.5 -49t-23 -40t-35.5 -27.5t-49 -10.5q-23 0 -43 5.5t-38 12.5t-34 12.5t-30 5.5q-17 0 -29 -14t-15 -31h-70q3 25 12.5 49t24.5 43q14 20 35.5 32t47.5 12q20 0 40 -6t40 -14q19 -8 36 -14.5t29 -6.5q17 0 28.5 13t13.5 28h71z" />
<glyph unicode="&#x2dd;" horiz-adv-x="296" d="M354 724l-120 -149h-86l81 149h125zM189 724l-120 -149h-85l80 149h125z" />
<glyph unicode="&#x3a9;" horiz-adv-x="806" d="M196 114q-26 19 -50.5 45t-44.5 60t-32 75t-12 89q0 65 25 122.5t71 101t109.5 68.5t141.5 25q82 0 145.5 -27.5t107.5 -71.5t67 -100t23 -114q0 -48 -12 -89t-31.5 -75t-45 -61.5t-52.5 -47.5v-3h155v-111h-306v84q29 16 55 40.5t46 58t31.5 77t11.5 99.5q0 45 -13 86.5 t-38 73t-61 50.5t-82 19q-44 0 -81 -17.5t-63.5 -48.5t-41 -74t-14.5 -94q0 -50 11.5 -93t31 -77.5t46 -59.5t55.5 -40v-84h-306v111h153v3z" />
<glyph unicode="&#x3bc;" d="M573 0h-165v71h-2q-24 -40 -68.5 -62.5t-89.5 -22.5q-13 0 -22 6v-165h-170v692h170v-301q0 -52 21.5 -72.5t62.5 -20.5q14 0 30 5t30 18.5t23.5 35.5t9.5 57v278h170v-519z" />
<glyph unicode="&#x3c0;" horiz-adv-x="672" d="M568 402v-244q0 -57 4 -95.5t10 -62.5h-143q-10 15 -14.5 55t-4.5 94v253h-147q-2 -42 -7.5 -97.5t-14.5 -112t-21 -108t-25 -84.5h-143q13 40 25 93t21 108t14.5 107.5t5.5 93.5q-37 0 -63.5 -2t-45.5 -8l-16 91q20 16 64.5 25t119.5 9h470l-12 -115h-77z" />
<glyph unicode="&#x2013;" horiz-adv-x="500" d="M0 344h500v-144h-500v144z" />
<glyph unicode="&#x2014;" horiz-adv-x="1000" d="M130 344h740v-144h-740v144z" />
<glyph unicode="&#x2018;" horiz-adv-x="296" d="M228 354h-159v166q0 75 38.5 127.5t120.5 66.5v-80q-33 -6 -53.5 -32.5t-18.5 -61.5h72v-186z" />
<glyph unicode="&#x2019;" horiz-adv-x="296" d="M69 714h159v-166q0 -75 -38.5 -127.5t-120.5 -66.5v80q33 6 53.5 32.5t18.5 61.5h-72v186z" />
<glyph unicode="&#x201a;" horiz-adv-x="296" d="M69 186h159v-166q0 -75 -38.5 -127t-120.5 -66v80q33 6 53.5 32.5t18.5 60.5h-72v186z" />
<glyph unicode="&#x201c;" horiz-adv-x="500" d="M445 354h-159v166q0 75 38.5 127.5t120.5 66.5v-80q-33 -6 -53.5 -32.5t-18.5 -61.5h72v-186zM214 354h-159v166q0 75 38.5 127.5t120.5 66.5v-80q-33 -6 -53.5 -32.5t-18.5 -61.5h72v-186z" />
<glyph unicode="&#x201d;" horiz-adv-x="500" d="M55 714h159v-166q0 -75 -38.5 -127.5t-120.5 -66.5v80q33 6 53.5 32.5t18.5 61.5h-72v186zM286 714h159v-166q0 -75 -38.5 -127.5t-120.5 -66.5v80q33 6 53.5 32.5t18.5 61.5h-72v186z" />
<glyph unicode="&#x201e;" horiz-adv-x="500" d="M55 186h159v-166q0 -75 -38.5 -127t-120.5 -66v80q33 6 53.5 32.5t18.5 60.5h-72v186zM286 186h159v-166q0 -75 -38.5 -127t-120.5 -66v80q33 6 53.5 32.5t18.5 60.5h-72v186z" />
<glyph unicode="&#x2020;" d="M52 376v144h181v194h164v-194h181v-144h-181v-549h-164v549h-181z" />
<glyph unicode="&#x2021;" d="M233 -173v193h-182v144h182v212h-182v144h182v194h164v-194h181v-144h-181v-212h182v-144h-182v-193h-164z" />
<glyph unicode="&#x2022;" horiz-adv-x="500" d="M72 357q0 37 14 69.5t38 56.5t56.5 38t69.5 14t69.5 -14t57 -38t38.5 -56.5t14 -69.5t-14 -69.5t-38.5 -57t-57 -38.5t-69.5 -14t-69.5 14t-56.5 38.5t-38 57t-14 69.5z" />
<glyph unicode="&#x2026;" horiz-adv-x="1000" d="M740 0v186h186v-186h-186zM407 0v186h186v-186h-186zM74 0v186h186v-186h-186z" />
<glyph unicode="&#x2030;" horiz-adv-x="1167" d="M160 -26l404 750h99l-404 -750h-99zM904 157q0 -12 0.5 -29t5 -33t14 -27.5t26.5 -11.5t26.5 11.5t14.5 27.5t6 33t1 29t-0.5 29.5t-5 34t-14 28t-27.5 11.5q-17 0 -26.5 -11.5t-14 -28t-5.5 -34t-1 -29.5zM806 157q0 35 7.5 66.5t25 55.5t45 38t67.5 14q42 0 70 -13.5 t44.5 -36.5t23.5 -55t7 -69q0 -36 -8 -67.5t-25.5 -54.5t-45.5 -36t-67 -13q-40 0 -67.5 13.5t-44.5 36.5t-24.5 54t-7.5 67zM556 157q0 -12 0.5 -29t5 -33t14 -27.5t26.5 -11.5t26.5 11.5t14.5 27.5t6 33t1 29t-0.5 29.5t-5 34t-14 28t-27.5 11.5q-17 0 -26.5 -11.5 t-14 -28t-5.5 -34t-1 -29.5zM458 157q0 35 7.5 66.5t25 55.5t45 38t67.5 14q42 0 70 -13.5t44.5 -36.5t23.5 -55t7 -69q0 -36 -8 -67.5t-25.5 -54.5t-45.5 -36t-67 -13q-40 0 -67.5 13.5t-44.5 36.5t-24.5 54t-7.5 67zM169 532q0 -12 0.5 -29t5 -33t14 -27.5t26.5 -11.5 t26.5 11.5t14.5 27.5t6 33t1 29t-0.5 29.5t-5 34t-14 28t-27.5 11.5q-17 0 -26.5 -11.5t-14 -28t-5.5 -34t-1 -29.5zM71 532q0 35 7.5 66.5t25 55.5t45 38t67.5 14q42 0 70 -13.5t44.5 -36.5t23.5 -55t7 -69q0 -36 -8 -67.5t-25.5 -55t-45.5 -36.5t-67 -13q-40 0 -67.5 13.5 t-44.5 37t-24.5 54.5t-7.5 67z" />
<glyph unicode="&#x2039;" horiz-adv-x="241" d="M41 346l159 128v-137l-86 -67l86 -66v-137l-159 127v152z" />
<glyph unicode="&#x203a;" horiz-adv-x="241" d="M200 195l-159 -128v137l86 67l-86 66v137l159 -127v-152z" />
<glyph unicode="&#x2044;" horiz-adv-x="167" d="M-168 -26l410 750h99l-410 -750h-99z" />
<glyph unicode="&#x20ac;" d="M537 512q-24 34 -59.5 49t-72.5 15q-54 0 -86 -33t-39 -79h237l-40 -90h-208q-2 -19 -1 -34t3 -32h178l-40 -90h-124q6 -34 24.5 -52.5t39.5 -27t39 -10t23 -1.5q58 0 102.5 25.5t72.5 69.5v-167q-9 -7 -25 -16.5t-39.5 -18.5t-54.5 -15.5t-71 -6.5q-48 0 -95.5 13.5 t-89.5 52.5q-22 20 -38 45.5t-27 52.5q-11 29 -17 56h-113l40 90h60q-2 17 -2.5 32t0.5 34h-98l40 90h69q3 18 8 35.5t12 34.5q11 26 25 51t34 46q32 34 80 54.5t117 20.5q42 0 74 -7t55.5 -17t39.5 -21.5t26 -21.5z" />
<glyph unicode="&#x2113;" horiz-adv-x="582" d="M257 360q55 56 89.5 114t34.5 109q0 37 -13 59t-44 22q-12 0 -24 -7t-21.5 -24t-15.5 -45.5t-6 -71.5v-156zM559 140q-46 -80 -109.5 -112.5t-130.5 -32.5q-46 0 -80 11.5t-58.5 32.5t-39 49.5t-21.5 61.5v10q-14 -10 -27.5 -19.5t-27.5 -19.5l-38 74q23 17 46 33.5 t44 33.5v233q0 70 15 120t42 82.5t63.5 47.5t79.5 15q42 0 73 -14.5t51 -39t29.5 -57t9.5 -68.5q0 -45 -15.5 -88t-44.5 -85.5t-70 -85t-93 -86.5l1 -30q2 -48 29.5 -73t65.5 -25q23 0 44 8t39.5 21t34 30t27.5 34z" />
<glyph unicode="&#x2122;" horiz-adv-x="1000" d="M714 475l89 239h156v-412h-110v270h-2l-89 -270h-88l-89 270h-2v-270h-110v412h156zM386 619h-110v-317h-125v317h-110v95h345v-95z" />
<glyph unicode="&#x2126;" horiz-adv-x="806" d="M196 114q-26 19 -50.5 45t-44.5 60t-32 75t-12 89q0 65 25 122.5t71 101t109.5 68.5t141.5 25q82 0 145.5 -27.5t107.5 -71.5t67 -100t23 -114q0 -48 -12 -89t-31.5 -75t-45 -61.5t-52.5 -47.5v-3h155v-111h-306v84q29 16 55 40.5t46 58t31.5 77t11.5 99.5q0 45 -13 86.5 t-38 73t-61 50.5t-82 19q-44 0 -81 -17.5t-63.5 -48.5t-41 -74t-14.5 -94q0 -50 11.5 -93t31 -77.5t46 -59.5t55.5 -40v-84h-306v111h153v3z" />
<glyph unicode="&#x212e;" horiz-adv-x="862" d="M682 560q0 13 -10 23q-47 46 -108.5 73.5t-132.5 27.5t-133 -28t-109 -76q-10 -10 -10 -25v-191q0 -2 1.5 -4t4.5 -2h492q3 0 4 2t1 4v196zM185 338q-6 0 -6 -4v-194q0 -13 9 -23q47 -48 109 -76.5t134 -28.5q78 0 143.5 32t112.5 86h57q-54 -63 -135.5 -100t-178.5 -37 q-82 0 -154.5 28t-126.5 76t-85 112.5t-31 138.5t31 139.5t85 114t126.5 76.5t154.5 28t154.5 -28t126.5 -76.5t85.5 -114t31.5 -139.5v-10h-643z" />
<glyph unicode="&#x2202;" horiz-adv-x="637" d="M287 107q30 0 54.5 17t43 43.5t30.5 59t16 64.5q-4 12 -14 27.5t-25.5 29t-37 23t-47.5 9.5q-27 0 -50.5 -12t-40 -32.5t-26 -48t-9.5 -58.5q0 -26 7.5 -48t21.5 -38.5t33.5 -26t42.5 -9.5h1zM68 719q12 9 31 19.5t45 19.5t59 15.5t74 6.5q64 0 120.5 -25.5t99 -74 t67 -119.5t24.5 -161q0 -89 -22 -163.5t-63.5 -128t-100 -83t-131.5 -29.5q-60 0 -104.5 22.5t-73 57.5t-42.5 76.5t-14 79.5q0 57 18 104.5t50 81t75.5 52.5t95.5 19q35 0 63.5 -10t49.5 -24t35 -29t20 -25h2v30q0 48 -13 90.5t-37.5 75t-59.5 51.5t-78 19q-54 0 -91 -16 t-57 -30z" />
<glyph unicode="&#x2206;" horiz-adv-x="732" d="M542 111l-120 294q-7 18 -15.5 40.5t-16.5 45.5t-15.5 44.5t-11.5 37.5h-4q-3 -12 -9 -30.5t-13.5 -39.5t-15.5 -43t-15 -40l-126 -309h362zM26 78l255 626h175l249 -625v-79h-679v78z" />
<glyph unicode="&#x220f;" horiz-adv-x="794" d="M656 565v-659h-142v659h-235v-659h-141v659h-115v123h747v-123h-114z" />
<glyph unicode="&#x2211;" horiz-adv-x="621" d="M23 -94v84l263 305l-251 299v94h547v-118h-349v-4l217 -253l-240 -280v-4h392v-123h-579z" />
<glyph unicode="&#x2212;" horiz-adv-x="600" d="M48 181v144h504v-144h-504z" />
<glyph unicode="&#x2215;" horiz-adv-x="167" d="M-168 -26l410 750h99l-410 -750h-99z" />
<glyph unicode="&#x2219;" horiz-adv-x="315" d="M65 286q0 19 7.5 36t20 29.5t29.5 20t36 7.5t36 -7.5t29.5 -20t20 -29.5t7.5 -36t-7.5 -36t-20 -29.5t-29.5 -20t-36 -7.5t-36 7.5t-29.5 20t-20 29.5t-7.5 36z" />
<glyph unicode="&#x221a;" horiz-adv-x="653" d="M417 -141h-114l-168 429l-79 -32l-25 74l189 76l117 -322q8 -21 13 -43t10 -39l2 -1q3 17 7.5 40t10.5 48l187 734h102z" />
<glyph unicode="&#x221e;" horiz-adv-x="814" d="M592 385q-23 0 -43.5 -10.5t-38 -26.5t-32.5 -33.5l-27 -31.5q23 -29 42 -49t35.5 -32.5t33 -18t35.5 -5.5q22 0 38.5 9.5t28 24t17.5 32t6 34.5q0 48 -26 77.5t-68 29.5h-1zM226 178q21 0 40.5 9t36.5 23t33 31.5t30 34.5q-16 21 -31 40.5t-32 35t-37 24.5t-45 9 q-43 0 -69 -29.5t-26 -77.5q0 -20 7.5 -38.5t20.5 -32t31 -21.5t39 -8h2zM764 284q0 -43 -14.5 -76.5t-38 -57t-54 -35.5t-62.5 -12q-22 0 -44 5.5t-45.5 19t-48 36t-50.5 56.5q-20 -25 -40.5 -46.5t-44 -37t-50 -24.5t-57.5 -9q-33 0 -63 12.5t-53 36t-36.5 56t-13.5 71.5 q0 40 13.5 73t37 56.5t55.5 36.5t69 13q59 0 103.5 -31.5t85.5 -82.5q16 18 34.5 38t41 37t50 28t62.5 11q34 0 64 -12.5t52 -35t34.5 -54.5t12.5 -71v-1z" />
<glyph unicode="&#x222b;" horiz-adv-x="416" d="M386 749q-18 8 -40 8q-17 0 -31.5 -6t-24.5 -20q-17 -21 -22.5 -61.5t-5.5 -101.5q0 -60 2.5 -116t6 -112.5t6 -115.5t2.5 -125q0 -69 -11 -117t-28 -77q-23 -41 -61 -58.5t-79 -17.5q-25 0 -49 5t-37 12l17 95q8 -4 21 -7.5t28 -3.5q14 0 27 4.5t21 15.5q15 19 23 52 t8 98q0 67 -2.5 127.5t-6 118t-6 115.5t-2.5 121q0 86 15.5 138t50.5 87q24 24 57.5 35t68.5 11q20 0 38.5 -4t27.5 -9z" />
<glyph unicode="&#x2248;" horiz-adv-x="600" d="M558 212q-29 -48 -66.5 -76t-83.5 -28q-34 0 -60 10.5t-61 30.5q-24 14 -45.5 24t-47.5 10q-18 0 -33 -6t-27.5 -16.5t-23.5 -24t-22 -27.5l-50 49q25 45 68 75t93 30q38 0 65 -12.5t48 -24.5q25 -14 46 -26t49 -12q32 0 54 19.5t47 54.5zM558 409q-29 -49 -67 -77 t-82 -28q-34 0 -60 10t-62 31q-23 13 -44.5 23.5t-48.5 10.5q-36 0 -60 -22.5t-46 -51.5l-50 49q25 45 68 75t93 30q38 0 65 -12.5t49 -25.5q15 -9 27 -15.5t22.5 -11.5t21 -7.5t23.5 -2.5q31 0 54.5 19.5t46.5 54.5z" />
<glyph unicode="&#x2260;" horiz-adv-x="600" d="M401 428h147v-80h-180l-62 -137h242v-80h-275l-55 -121l-64 29l42 92h-145v80h178l62 137h-240v80h273l53 118l65 -28z" />
<glyph unicode="&#x2264;" horiz-adv-x="600" d="M52 -13v80h497v-80h-497zM56 332v86l489 227v-90l-406 -178v-3l407 -179v-91z" />
<glyph unicode="&#x2265;" horiz-adv-x="600" d="M53 -13v80h493v-80h-493zM547 418v-86l-490 -228v91l406 179v2l-406 179v90z" />
<glyph unicode="&#x25ca;" horiz-adv-x="653" d="M346 579q-6 11 -11.5 26t-7.5 26h-3q-4 -12 -9.5 -25.5t-10.5 -26.5l-128 -233l130 -242q5 -13 10.5 -26.5t7.5 -22.5h4q3 10 8 25t10 23l129 237zM380 -49h-112l-216 392l219 394h112l217 -394z" />
<glyph unicode="&#xe000;" horiz-adv-x="520" d="M0 520h520v-520h-520v520z" />
<glyph unicode="&#xfb01;" horiz-adv-x="648" d="M94 409h-82v110h82q0 56 10.5 93.5t33.5 60t61 32t92 9.5q20 0 41 -1t41 -2v-120q-24 3 -46 3q-29 0 -46 -8.5t-17 -43.5v-23h102v-110h-102v-409h-170v409zM585 584h-170v130h170v-130zM415 519h170v-519h-170v519z" />
<glyph unicode="&#xfb02;" horiz-adv-x="648" d="M585 0h-170v714h170v-714zM94 409h-82v110h82q0 56 10.5 93.5t33.5 60t61 32t92 9.5q20 0 41 -1t41 -2v-120q-24 3 -46 3q-29 0 -46 -8.5t-17 -43.5v-23h102v-110h-102v-409h-170v409z" />
</font>
</defs>
</svg>
