<?xml version="1.0" encoding="UTF-8" standalone="no"?>
<!-- Generator: Adobe Illustrator 16.0.0, SVG Export Plug-In . SVG Version: 6.00 Build 0)  -->

<svg
   xmlns:dc="http://purl.org/dc/elements/1.1/"
   xmlns:cc="http://creativecommons.org/ns#"
   xmlns:rdf="http://www.w3.org/1999/02/22-rdf-syntax-ns#"
   xmlns:svg="http://www.w3.org/2000/svg"
   xmlns="http://www.w3.org/2000/svg"
   xmlns:sodipodi="http://sodipodi.sourceforge.net/DTD/sodipodi-0.dtd"
   xmlns:inkscape="http://www.inkscape.org/namespaces/inkscape"
   version="1.1"
   id="Calque_1"
   x="0px"
   y="0px"
   width="1029.8031"
   height="112.588"
   viewBox="0 0 1029.8031 112.588"
   enable-background="new 0 0 1190.551 841.89"
   xml:space="preserve"
   inkscape:version="0.91 r13725"
   sodipodi:docname="logo_culturebox_blanc_fond_noir.svg"><metadata
     id="metadata31"><rdf:RDF><cc:Work
         rdf:about=""><dc:format>image/svg+xml</dc:format><dc:type
           rdf:resource="http://purl.org/dc/dcmitype/StillImage" /><dc:title></dc:title></cc:Work></rdf:RDF></metadata><defs
     id="defs29" /><sodipodi:namedview
     pagecolor="#ffffff"
     bordercolor="#666666"
     borderopacity="1"
     objecttolerance="10"
     gridtolerance="10"
     guidetolerance="10"
     inkscape:pageopacity="0"
     inkscape:pageshadow="2"
     inkscape:window-width="1920"
     inkscape:window-height="1033"
     id="namedview27"
     showgrid="false"
     fit-margin-top="0"
     fit-margin-left="0"
     fit-margin-right="0"
     fit-margin-bottom="0"
     inkscape:zoom="0.27214289"
     inkscape:cx="-251.35398"
     inkscape:cy="54.825993"
     inkscape:window-x="-4"
     inkscape:window-y="-4"
     inkscape:window-maximized="1"
     inkscape:current-layer="Calque_1" /><path
     d="m 981.97804,4.7660386 0,12.2850024 0,31.149 0,21.167 c 0,0.99 -0.59,1.355 -1.757,1.102 l -38.005,-8.217 c -1.395,-0.312 -1.916,-0.881 -1.916,-2.434 l 0,-45.581 c 0,-1.559 0.521,-2.136 1.916,-2.434001 l 38.017,-8.1330014 c 1.156,-0.248 1.745,0.116 1.745,1.096"
     id="path3"
     inkscape:connector-curvature="0"
     style="fill:#ffffff" /><path
     d="M 987.88204,3.6650386 1025.892,11.79904 c 1.377,0.303001 1.911,0.887001 1.911,2.438001 l 0,45.582 c 0,1.547 -0.523,2.115 -1.911,2.434 l -38.00996,8.217 c -1.156,0.254 -1.746,-0.109 -1.746,-1.107 l 0,-21.16 c 0,5.594 -0.012,-31.156 -0.012,-31.156 l 0,-12.2800024 c 0,-0.981 0.601,-1.345 1.758,-1.102"
     id="path5"
     inkscape:connector-curvature="0"
     style="fill:#ffffff" /><path
     d="m 52.601044,110.588 c -36.535,0 -50.4549997,-19.714959 -50.5999997,-55.526959 -0.147,-33.049 15.2199997,-53.0610025 49.4319997,-53.0610025 35.087,0 41.903,18.7110025 43.93,33.7760025 l -19.713,0 c -2.182,-8.403 -4.791,-17.246 -22.913,-17.246 -22.46,0 -29.575,10.881 -29.575,39.293 0,29.57 11.31,35.803 28.997,35.803 19.427,0 21.022,-11.889 23.342,-20.588 l 20.588,0 c -2.031,19.136 -11.452,37.549959 -43.488,37.549959"
     id="path7"
     inkscape:connector-curvature="0"
     style="fill:#ffffff" /><path
     d="m 145.65304,110.588 c -30.445,0 -42.047,-13.628959 -42.047,-36.089959 l 0,-70.3220024 20.88,0 0,70.8960024 c 0,12.465 5.214,18.848 22.763,18.848 15.363,0 20.148,-6.68 20.148,-18.127 l 0,-71.6160024 20.88,0 0,70.5980024 c 0.001,25.519989 -15.373,35.812959 -42.624,35.812959"
     id="path9"
     inkscape:connector-curvature="0"
     style="fill:#ffffff" /><polygon
     points="282.193,473.453 282.193,369.359 303.074,369.359 303.074,456.201 354.68,456.201 354.68,473.453 "
     id="polygon11"
     style="fill:#ffffff"
     transform="translate(-80.743956,-365.18294)" /><polygon
     points="334.813,386.325 334.813,369.359 417.877,369.359 417.877,386.325 386.854,386.325 386.854,473.453 365.974,473.453 365.974,386.325 "
     id="polygon13"
     style="fill:#ffffff"
     transform="translate(-80.743956,-365.18294)" /><path
     d="m 384.81304,110.588 c -30.439,0 -42.047,-13.628959 -42.047,-36.089959 l 0,-70.3220024 20.88,0 0,70.8960024 c 0,12.465 5.22,18.848 22.763,18.848 15.363,0 20.148,-6.68 20.148,-18.127 l 0,-71.6160024 20.88,0 0,70.5980024 c 0.002,25.519989 -15.367,35.812959 -42.624,35.812959"
     id="path15"
     inkscape:connector-curvature="0"
     style="fill:#ffffff" /><path
     d="m 506.28404,108.27 c -4.35,-6.66798 -2.456,-27.106959 -6.376,-36.101959 -1.596,-3.766 -5.077,-5.506 -10.726,-5.506 l -27.692,0 0,41.606959 -20.875,0 0,-104.0929614 51.75,0 c 15.81,0 34.801,3.198 34.801,29.5740024 0,16.816 -8.26,23.921 -18.843,24.646 16.233,2.754 12.896,13.623 16.233,39.582 0.439,3.622979 1.597,7.245959 3.188,10.290959 l -21.46,0 0,10e-4 z m -15.219,-87.127959 -29.575,0 0,29.14 27.548,0 c 14.493,0 16.812,-5.518 16.812,-15.803 0,-11.454 -4.058,-13.337 -14.785,-13.337"
     id="path17"
     inkscape:connector-curvature="0"
     style="fill:#ffffff" /><polygon
     points="618.184,473.453 618.184,369.359 698.203,369.359 698.203,386.325 639.059,386.325 639.059,410.102 693.566,410.102 693.566,426.917 639.059,426.917 639.059,456.201 699.801,456.201 699.801,473.453 "
     id="polygon19"
     style="fill:#ffffff"
     transform="translate(-80.743956,-365.18294)" /><path
     d="m 672.24704,108.275 -45.516,0 0,-104.0929614 50.296,0 c 25.517,0 31.314,14.7910024 31.022,27.6870024 -0.286,13.194 -5.507,19.57 -17.4,20.875 11.607,0 21.465,5.655 21.465,24.069 0,27.397959 -20.583,31.461959 -39.867,31.461959 m 5.071,-87.132959 -29.718,0 0,24.354 27.399,0 c 9.423,0 12.467,-5.357 12.467,-13.192 0.002,-7.974 -2.316,-11.162 -10.148,-11.162 m 1.45,40.301 -31.167,0 0,29.574 28.849,0 c 10.435,0 14.642,-3.908 14.642,-14.062 -10e-4,-13.48 -6.521,-15.512 -12.324,-15.512"
     id="path21"
     inkscape:connector-curvature="0"
     style="fill:#ffffff" /><path
     d="m 767.61904,110.588 c -27.83,0 -48.418,-17.245959 -48.418,-53.644959 0,-41.166 21.452,-54.9430025 52.327,-54.9430025 34.073,0 49.304,20.5950025 49.304,54.5130025 0,36.829 -17.548,54.074959 -53.213,54.074959 m 3.772,-92.055959 c -25.226,0 -31.172,13.915 -31.172,38.412 0,22.764 8.699,37.125 28.853,37.125 27.83,0 30.881,-19.141 30.881,-38.423 -10e-4,-27.544 -10.871,-37.114 -28.562,-37.114"
     id="path23"
     inkscape:connector-curvature="0"
     style="fill:#ffffff" /><polygon
     points="978.242,473.453 956.349,435.761 934.462,473.453 910.101,473.453 944.317,418.51 913.735,369.359 937.357,369.359 956.349,401.836 975.342,369.359 998.974,369.359 968.382,418.51 1002.598,473.453 "
     id="polygon25"
     style="fill:#ffffff"
     transform="translate(-80.743956,-365.18294)" /></svg>