<?xml version="1.0" encoding="UTF-8" standalone="no"?>
<!-- Generator: Adobe Illustrator 16.0.0, SVG Export Plug-In . SVG Version: 6.00 Build 0)  -->

<svg
   xmlns:dc="http://purl.org/dc/elements/1.1/"
   xmlns:cc="http://creativecommons.org/ns#"
   xmlns:rdf="http://www.w3.org/1999/02/22-rdf-syntax-ns#"
   xmlns:svg="http://www.w3.org/2000/svg"
   xmlns="http://www.w3.org/2000/svg"
   xmlns:sodipodi="http://sodipodi.sourceforge.net/DTD/sodipodi-0.dtd"
   xmlns:inkscape="http://www.inkscape.org/namespaces/inkscape"
   version="1.0"
   id="Calque_1"
   x="0px"
   y="0px"
   width="1029.801"
   height="112.587"
   viewBox="0 0 1029.801 112.587"
   enable-background="new 0 0 1190.55 841.89"
   xml:space="preserve"
   inkscape:version="0.91 r13725"
   sodipodi:docname="logo_culturebox_fond_blanc.svg"><metadata
     id="metadata31"><rdf:RDF><cc:Work
         rdf:about=""><dc:format>image/svg+xml</dc:format><dc:type
           rdf:resource="http://purl.org/dc/dcmitype/StillImage" /><dc:title></dc:title></cc:Work></rdf:RDF></metadata><defs
     id="defs29" /><sodipodi:namedview
     pagecolor="#ffffff"
     bordercolor="#666666"
     borderopacity="1"
     objecttolerance="10"
     gridtolerance="10"
     guidetolerance="10"
     inkscape:pageopacity="0"
     inkscape:pageshadow="2"
     inkscape:window-width="1920"
     inkscape:window-height="1033"
     id="namedview27"
     showgrid="false"
     fit-margin-top="0"
     fit-margin-left="0"
     fit-margin-right="0"
     fit-margin-bottom="0"
     inkscape:zoom="0.27214312"
     inkscape:cx="-5.5796528"
     inkscape:cy="54.825993"
     inkscape:window-x="-4"
     inkscape:window-y="-4"
     inkscape:window-maximized="1"
     inkscape:current-layer="Calque_1" /><path
     d="m 981.97706,4.765016 0,12.285 0,31.15 0,21.167 c 0,0.99 -0.59,1.354 -1.757,1.101 l -38.005,-8.216 c -1.394,-0.313 -1.916,-0.881 -1.916,-2.434 l 0,-45.582 c 0,-1.559 0.522,-2.136 1.916,-2.434 l 38.017,-8.133 c 1.155,-0.248 1.745,0.116 1.745,1.096"
     id="path3"
     inkscape:connector-curvature="0"
     style="fill:#20a7e0" /><path
     d="m 987.88006,3.664016 38.01004,8.133 c 1.377,0.303 1.911,0.887 1.911,2.439 l 0,45.582 c 0,1.547 -0.523,2.114 -1.911,2.434 l -38.01004,8.216 c -1.156,0.254 -1.746,-0.11 -1.746,-1.107 l 0,-21.16 c 0,5.594 -0.011,-31.156 -0.011,-31.156 l 0,-12.279 c 0,-0.981 0.601,-1.345 1.757,-1.102"
     id="path5"
     inkscape:connector-curvature="0"
     style="fill:#0880b0" /><path
     d="m 52.600058,110.587 c -36.535,0 -50.4549996,-19.713984 -50.5989996,-55.526984 -0.148,-33.049 15.2199996,-53.06 49.4309996,-53.06 35.087,0 41.904,18.711 43.93,33.776 l -19.713,0 c -2.181,-8.403 -4.791,-17.246 -22.913,-17.246 -22.46,0 -29.575,10.881 -29.575,39.294 0,29.569 11.31,35.802 28.997,35.802 19.427,0 21.023,-11.888 23.342,-20.588 l 20.588,0 c -2.031,19.135 -11.452,37.548984 -43.488,37.548984"
     id="path7"
     inkscape:connector-curvature="0"
     style="fill:#000100" /><path
     d="m 145.65206,110.587 c -30.445,0 -42.047,-13.628984 -42.047,-36.089984 l 0,-70.322 20.88,0 0,70.896 c 0,12.466 5.214,18.849 22.763,18.849 15.363,0 20.148,-6.68 20.148,-18.127 l 0,-71.617 20.88,0 0,70.598 c 0.001,25.520994 -15.373,35.812984 -42.624,35.812984"
     id="path9"
     inkscape:connector-curvature="0"
     style="fill:#000100" /><polygon
     points="303.074,369.359 303.074,456.201 354.68,456.201 354.68,473.453 282.193,473.453 282.193,369.359 "
     id="polygon11"
     style="fill:#000100"
     transform="translate(-80.744942,-365.18399)" /><polygon
     points="334.813,386.325 334.813,369.359 417.877,369.359 417.877,386.325 386.854,386.325 386.854,473.453 365.974,473.453 365.974,386.325 "
     id="polygon13"
     style="fill:#000100"
     transform="translate(-80.744942,-365.18399)" /><path
     d="m 384.81206,110.587 c -30.439,0 -42.047,-13.628984 -42.047,-36.089984 l 0,-70.322 20.88,0 0,70.896 c 0,12.466 5.22,18.849 22.763,18.849 15.363,0 20.148,-6.68 20.148,-18.127 l 0,-71.617 20.88,0 0,70.598 c 0.002,25.520994 -15.367,35.812984 -42.624,35.812984"
     id="path15"
     inkscape:connector-curvature="0"
     style="fill:#000100" /><path
     d="m 506.28306,108.269 c -4.35,-6.668 -2.456,-27.107984 -6.376,-36.100984 -1.596,-3.767 -5.077,-5.506 -10.726,-5.506 l -27.692,0 0,41.605984 -20.875,0 0,-104.092984 51.75,0 c 15.809,0 34.801,3.199 34.801,29.575 0,16.816 -8.26,23.92 -18.843,24.646 16.233,2.753 12.896,13.623 16.233,39.581 0.44,3.622984 1.597,7.245984 3.188,10.290984 l -21.46,0 z m -15.219,-87.127984 -29.575,0 0,29.14 27.548,0 c 14.493,0 16.812,-5.518 16.812,-15.803 0,-11.454 -4.058,-13.337 -14.785,-13.337"
     id="path17"
     inkscape:connector-curvature="0"
     style="fill:#000100" /><polygon
     points="639.059,426.918 639.059,456.201 699.8,456.201 699.8,473.453 618.184,473.453 618.184,369.359 698.203,369.359 698.203,386.325 639.059,386.325 639.059,410.102 693.566,410.102 693.566,426.918 "
     id="polygon19"
     style="fill:#000100"
     transform="translate(-80.744942,-365.18399)" /><path
     d="m 672.24606,108.274 -45.516,0 0,-104.092984 50.296,0 c 25.517,0 31.314,14.791 31.022,27.687 -0.286,13.194 -5.506,19.57 -17.4,20.875 11.607,0 21.465,5.655 21.465,24.069 0,27.398984 -20.583,31.461984 -39.867,31.461984 m 5.071,-87.132984 -29.718,0 0,24.355 27.4,0 c 9.422,0 12.466,-5.358 12.466,-13.193 10e-4,-7.974 -2.316,-11.162 -10.148,-11.162 m 1.45,40.301 -31.167,0 0,29.575 28.849,0 c 10.434,0 14.641,-3.909 14.641,-14.063 -10e-4,-13.48 -6.52,-15.512 -12.323,-15.512"
     id="path21"
     inkscape:connector-curvature="0"
     style="fill:#000100" /><path
     d="m 767.61806,110.587 c -27.83,0 -48.418,-17.246984 -48.418,-53.644984 0,-41.165 21.452,-54.942 52.327,-54.942 34.073,0 49.304,20.594 49.304,54.513 0,36.827 -17.548,54.073984 -53.213,54.073984 m 3.772,-92.055984 c -25.225,0 -31.172,13.915 -31.172,38.412 0,22.764 8.7,37.125 28.853,37.125 27.83,0 30.881,-19.141 30.881,-38.424 -10e-4,-27.543 -10.871,-37.113 -28.562,-37.113"
     id="path23"
     inkscape:connector-curvature="0"
     style="fill:#000100" /><polygon
     points="975.341,369.359 998.974,369.359 968.381,418.51 1002.598,473.453 978.242,473.453 956.349,435.761 934.461,473.453 910.101,473.453 944.317,418.51 913.735,369.359 937.357,369.359 956.349,401.836 "
     id="polygon25"
     style="fill:#000100"
     transform="translate(-80.744942,-365.18399)" /></svg>